G04 Layer_Physical_Order=6*
G04 Layer_Color=16711680*
%FSLAX44Y44*%
%MOMM*%
G71*
G01*
G75*
%ADD14R,1.7780X2.1590*%
%ADD23R,0.5080X0.3048*%
%ADD35R,0.5080X0.6350*%
%ADD36R,0.6350X0.5080*%
%ADD38R,1.2700X1.1430*%
%ADD39R,1.1430X1.2700*%
%ADD40C,0.1206*%
%ADD41C,0.0953*%
%ADD42C,0.3810*%
%ADD43C,0.3048*%
%ADD44C,0.2540*%
%ADD45C,0.2032*%
%ADD46C,0.1905*%
%ADD47C,0.7620*%
%ADD48C,0.5080*%
%ADD49C,0.6350*%
%ADD50C,0.8890*%
%ADD51C,0.1143*%
%ADD52C,0.1397*%
%ADD53R,1.2700X0.5080*%
%ADD54C,0.0254*%
%ADD55C,1.0160*%
%ADD56C,1.5240*%
%ADD57C,1.6510*%
%ADD58R,1.5240X1.5240*%
%ADD59C,4.4450*%
%ADD60C,2.2860*%
%ADD61O,3.8100X1.7780*%
%ADD62O,1.7780X4.5720*%
%ADD63O,1.7780X3.8100*%
%ADD64O,3.4290X2.0320*%
%ADD65O,2.5400X1.6510*%
%ADD66C,0.4572*%
%ADD67C,0.3048*%
%ADD68C,0.5588*%
%ADD69C,0.1600*%
%ADD73R,1.4001X0.5001*%
%ADD74R,0.8001X2.3500*%
%ADD75R,3.8100X2.5400*%
%ADD76R,0.4572X0.9144*%
%ADD77R,0.8890X0.5080*%
%ADD78R,1.5240X1.1176*%
%ADD79R,2.0066X0.8890*%
%ADD80R,1.0922X1.1938*%
%ADD81R,1.2700X0.2540*%
%ADD82R,1.0000X0.2301*%
%ADD83R,0.8499X0.2301*%
%ADD84R,1.3800X2.4001*%
%ADD85R,1.1430X1.9050*%
%ADD86R,1.9050X1.1430*%
%ADD87R,2.7940X0.7112*%
%ADD88R,1.0160X0.6350*%
%ADD89R,1.6002X0.3048*%
%ADD90O,1.9050X0.6350*%
%ADD91R,1.3970X1.5494*%
%ADD92R,1.5494X1.3970*%
%ADD93R,2.0320X2.0320*%
%ADD94O,1.5240X0.4064*%
%ADD95C,0.1778*%
%ADD96C,0.0838*%
%ADD97R,0.9144X1.7374*%
G36*
X406712Y294328D02*
X406677Y294277D01*
X406471Y293980D01*
X406472Y293979D01*
X406385Y293839D01*
X406084Y293388D01*
X405985Y292894D01*
X405933Y292652D01*
X405927Y292601D01*
X405827Y292100D01*
X405930Y291583D01*
X405941Y291504D01*
X405978Y291343D01*
X406084Y290812D01*
X406364Y290392D01*
X406498Y290185D01*
X406529Y290144D01*
X406813Y289719D01*
X407251Y289427D01*
X407315Y289378D01*
X407455Y289291D01*
X407906Y288990D01*
X408400Y288891D01*
X408642Y288839D01*
X408693Y288833D01*
X409194Y288733D01*
X409606Y288815D01*
X409679Y288821D01*
X410210Y288290D01*
X411414D01*
Y288031D01*
X416688D01*
X416878Y287952D01*
X416898D01*
X419100Y285750D01*
Y280246D01*
X416878D01*
X416100Y279924D01*
X415778Y279146D01*
Y275590D01*
X414020D01*
Y279400D01*
X410210Y283210D01*
X405130D01*
X404507Y283833D01*
X404560Y284099D01*
X404462Y284592D01*
X404457Y284631D01*
X404398Y284913D01*
X404397Y284919D01*
X404303Y285387D01*
X404001Y285840D01*
X403927Y285960D01*
X403870Y286036D01*
X403574Y286480D01*
X403156Y286759D01*
X403125Y286783D01*
X402884Y286941D01*
X402879Y286944D01*
X402481Y287209D01*
X401948Y287316D01*
X401810Y287348D01*
X401716Y287362D01*
X401193Y287466D01*
X400700Y287368D01*
X400661Y287363D01*
X400379Y287304D01*
X400373Y287303D01*
X399905Y287209D01*
X399453Y286907D01*
X399332Y286833D01*
X399256Y286776D01*
X398812Y286480D01*
X398533Y286062D01*
X398509Y286031D01*
X398351Y285790D01*
X398347Y285783D01*
X398325Y285750D01*
X386608D01*
Y290830D01*
X392430D01*
X398780Y297180D01*
X399621D01*
X399905Y296991D01*
X400437Y296885D01*
X400561Y296855D01*
X400666Y296839D01*
X401193Y296734D01*
X401680Y296831D01*
X401710Y296835D01*
X401992Y296892D01*
X402006Y296896D01*
X402481Y296991D01*
X402765Y297180D01*
X403860D01*
X406712Y294328D01*
D02*
G37*
G36*
X415778Y305054D02*
X416100Y304276D01*
X416878Y303954D01*
X421216D01*
X421640Y303530D01*
Y297180D01*
X420708Y296248D01*
X416878D01*
X416100Y295926D01*
X415778Y295148D01*
Y290830D01*
X412750D01*
Y304800D01*
X414020Y306070D01*
Y309880D01*
X415778D01*
Y305054D01*
D02*
G37*
G36*
X439740Y361630D02*
X447040Y354330D01*
Y350636D01*
X446818Y350488D01*
X446522Y350044D01*
X446465Y349968D01*
X446391Y349848D01*
X446089Y349395D01*
X445995Y348926D01*
X445993Y348920D01*
X445935Y348638D01*
X445930Y348600D01*
X445832Y348107D01*
X445936Y347584D01*
X445950Y347489D01*
X445983Y347352D01*
X446089Y346819D01*
X446354Y346421D01*
X446357Y346415D01*
X446516Y346174D01*
X446539Y346144D01*
X446818Y345726D01*
X447040Y345578D01*
Y345440D01*
X450850Y341630D01*
Y339090D01*
X441960Y330200D01*
X440690D01*
X435610Y335280D01*
Y337774D01*
X435880Y338177D01*
X435966Y338298D01*
X436012Y338376D01*
X436307Y338818D01*
X436406Y339313D01*
X436418Y339355D01*
X436471Y339638D01*
X436471Y339640D01*
X436564Y340106D01*
X436458Y340639D01*
X436433Y340786D01*
X436411Y340873D01*
X436307Y341394D01*
X436027Y341814D01*
X436006Y341852D01*
X435843Y342090D01*
X435842Y342092D01*
X435610Y342438D01*
Y345775D01*
X435880Y346178D01*
X435966Y346299D01*
X436012Y346377D01*
X436307Y346819D01*
X436406Y347314D01*
X436418Y347356D01*
X436471Y347639D01*
X436471Y347641D01*
X436564Y348107D01*
X436458Y348640D01*
X436433Y348787D01*
X436411Y348874D01*
X436307Y349395D01*
X436027Y349815D01*
X436006Y349853D01*
X435843Y350091D01*
X435842Y350093D01*
X435610Y350439D01*
Y356870D01*
X434660Y357820D01*
Y362692D01*
X439740D01*
Y361630D01*
D02*
G37*
G36*
X475597Y358140D02*
X478790Y354947D01*
Y350439D01*
X478520Y350036D01*
X478434Y349915D01*
X478388Y349837D01*
X478093Y349395D01*
X477994Y348900D01*
X477982Y348858D01*
X477929Y348575D01*
X477929Y348573D01*
X477836Y348107D01*
X477942Y347574D01*
X477967Y347427D01*
X477989Y347340D01*
X478093Y346819D01*
X478373Y346399D01*
X478394Y346361D01*
X478557Y346123D01*
X478558Y346121D01*
X478790Y345775D01*
Y342438D01*
X478520Y342035D01*
X478434Y341914D01*
X478388Y341836D01*
X478093Y341394D01*
X477994Y340899D01*
X477982Y340857D01*
X477929Y340574D01*
X477929Y340572D01*
X477836Y340106D01*
X477942Y339573D01*
X477967Y339426D01*
X477989Y339339D01*
X478093Y338818D01*
X478373Y338397D01*
X478394Y338360D01*
X478557Y338122D01*
X478558Y338120D01*
X478790Y337774D01*
Y336550D01*
X472440Y330200D01*
X464820D01*
X463550Y331470D01*
Y335280D01*
X465037Y336767D01*
X465201Y336734D01*
X465729Y336839D01*
X465838Y336856D01*
X465958Y336885D01*
X466489Y336991D01*
X466894Y337261D01*
X466909Y337269D01*
X467150Y337429D01*
X467171Y337446D01*
X467582Y337720D01*
X467881Y338168D01*
X467946Y338256D01*
X468010Y338362D01*
X468311Y338812D01*
X468406Y339290D01*
X468411Y339306D01*
X468468Y339589D01*
X468471Y339616D01*
X468568Y340101D01*
X468463Y340629D01*
X468446Y340738D01*
X468417Y340858D01*
X468311Y341389D01*
X468041Y341794D01*
X468033Y341809D01*
X467873Y342049D01*
X467856Y342071D01*
X467582Y342481D01*
X467360Y342630D01*
Y345571D01*
X467582Y345719D01*
X467878Y346163D01*
X467935Y346239D01*
X468009Y346359D01*
X468311Y346811D01*
X468405Y347280D01*
X468406Y347286D01*
X468465Y347569D01*
X468470Y347607D01*
X468568Y348099D01*
X468464Y348623D01*
X468450Y348717D01*
X468418Y348854D01*
X468311Y349388D01*
X468046Y349785D01*
X468043Y349791D01*
X467884Y350032D01*
X467861Y350062D01*
X467582Y350480D01*
X467360Y350628D01*
Y354742D01*
X470756Y358138D01*
Y362692D01*
X475597D01*
Y358140D01*
D02*
G37*
G36*
X263525Y361950D02*
Y340698D01*
X262382D01*
X261604Y340376D01*
X261282Y339598D01*
Y335331D01*
X257457D01*
X250825Y341963D01*
Y343876D01*
X250982Y344111D01*
X251005Y344139D01*
X251163Y344380D01*
X251167Y344388D01*
X251434Y344787D01*
X251540Y345320D01*
X251571Y345454D01*
X251586Y345551D01*
X251690Y346075D01*
X251592Y346566D01*
X251588Y346602D01*
X251530Y346885D01*
X251527Y346893D01*
X251434Y347363D01*
X251131Y347815D01*
X251059Y347933D01*
X251001Y348011D01*
X250825Y348274D01*
Y352425D01*
X241300D01*
Y365125D01*
X260350D01*
X263525Y361950D01*
D02*
G37*
G36*
X262890Y160655D02*
Y144145D01*
X261069Y142324D01*
X253281D01*
X251460Y144145D01*
Y146685D01*
X243840D01*
Y142324D01*
X231267D01*
X230489Y142002D01*
X230167Y141224D01*
Y136850D01*
X229727Y136668D01*
X229526Y136181D01*
X228600Y135255D01*
Y122555D01*
X226060Y120015D01*
X199390D01*
X196850Y122555D01*
Y124376D01*
X206883D01*
X207661Y124698D01*
X207983Y125476D01*
Y129850D01*
X208423Y130032D01*
X208624Y130519D01*
X209550Y131445D01*
Y147955D01*
X207010Y150495D01*
X198120D01*
X195580Y153035D01*
Y160655D01*
X197401Y162476D01*
X203919D01*
X205740Y160655D01*
Y158115D01*
X213360D01*
Y160655D01*
X215181Y162476D01*
X222969D01*
X224790Y160655D01*
Y158115D01*
X232410D01*
Y160655D01*
X234231Y162476D01*
X242019D01*
X243840Y160655D01*
Y158115D01*
X251460D01*
Y160655D01*
X253281Y162476D01*
X261069D01*
X262890Y160655D01*
D02*
G37*
G36*
X12360Y402326D02*
X12682Y401548D01*
X13460Y401226D01*
X15875D01*
X15875Y401066D01*
X80772D01*
X91313Y390525D01*
X117475D01*
X123825Y384175D01*
Y371475D01*
X117475Y365125D01*
X107950D01*
X95250Y377825D01*
X22225D01*
X15875Y371475D01*
Y311150D01*
X22225Y304800D01*
Y292100D01*
X15875Y285750D01*
Y225425D01*
X22225Y219075D01*
X95250D01*
X107950Y231775D01*
X117475D01*
X123825Y225425D01*
Y212725D01*
X117475Y206375D01*
X22225D01*
X15875Y200025D01*
Y50800D01*
X34199Y32476D01*
X34028Y31911D01*
X33700Y28575D01*
X34028Y25239D01*
X35001Y22031D01*
X36582Y19075D01*
X38708Y16483D01*
X41300Y14357D01*
X44256Y12776D01*
X47464Y11803D01*
X50800Y11475D01*
X54136Y11803D01*
X57344Y12776D01*
X60300Y14357D01*
X62892Y16483D01*
X65018Y19075D01*
X66599Y22031D01*
X67572Y25239D01*
X67900Y28575D01*
X67588Y31750D01*
X104775D01*
X130175Y57150D01*
X161925D01*
X177800Y41275D01*
Y15875D01*
X184150Y9525D01*
X736602D01*
X736601Y9465D01*
X737897Y9392D01*
X746588Y9880D01*
X752710Y10920D01*
X753395Y10636D01*
X755650Y10339D01*
X757905Y10636D01*
X760005Y11507D01*
X761809Y12891D01*
X762164Y13353D01*
X763534Y13748D01*
X768352Y15744D01*
X774700Y22098D01*
Y85725D01*
X768350Y92075D01*
X749300D01*
X742950Y98425D01*
Y107950D01*
X749300Y114300D01*
X838200D01*
X844550Y120650D01*
Y203200D01*
X838200Y209550D01*
X755650D01*
X742950Y222250D01*
Y238125D01*
X749300Y244475D01*
X771525D01*
X787400Y228600D01*
X838200D01*
X844550Y234950D01*
Y269875D01*
X838200Y276225D01*
X809625D01*
X806450Y279400D01*
Y295910D01*
X808990Y298450D01*
X840740D01*
X844550Y302260D01*
Y417830D01*
X857250D01*
Y127000D01*
X857365D01*
X856905Y116475D01*
X855530Y106029D01*
X853250Y95744D01*
X850082Y85696D01*
X846050Y75963D01*
X841186Y66617D01*
X835525Y57732D01*
X829111Y49374D01*
X821994Y41606D01*
X814226Y34489D01*
X805868Y28075D01*
X796982Y22415D01*
X787637Y17550D01*
X777904Y13518D01*
X767856Y10350D01*
X757571Y8070D01*
X747125Y6695D01*
X736600Y6235D01*
X63500Y6350D01*
Y6227D01*
X56024Y6717D01*
X48677Y8179D01*
X41583Y10587D01*
X34864Y13901D01*
X28635Y18063D01*
X23002Y23002D01*
X18063Y28635D01*
X13901Y34864D01*
X10587Y41583D01*
X8179Y48677D01*
X6717Y56024D01*
X6227Y63500D01*
X6333Y425724D01*
X12360D01*
Y402326D01*
D02*
G37*
G36*
X406296Y261724D02*
X406268Y261661D01*
X406084Y261384D01*
X405986Y260895D01*
X405977Y260862D01*
X405922Y260579D01*
X405921Y260568D01*
X405827Y260096D01*
X405933Y259563D01*
X405955Y259431D01*
X405979Y259333D01*
X406084Y258808D01*
X406361Y258393D01*
X406377Y258363D01*
X406539Y258124D01*
X406546Y258116D01*
X406813Y257715D01*
X407265Y257413D01*
X407374Y257335D01*
X407460Y257283D01*
X407906Y256986D01*
X408395Y256888D01*
X408428Y256879D01*
X408711Y256824D01*
X408722Y256823D01*
X409194Y256729D01*
X409727Y256835D01*
X409859Y256856D01*
X409957Y256881D01*
X410482Y256986D01*
X410759Y257170D01*
X410822Y257198D01*
X411414Y256609D01*
Y256027D01*
X411993D01*
X412750Y255270D01*
X419100D01*
X420370Y254000D01*
Y250645D01*
X418810Y249085D01*
Y248374D01*
X418807Y248285D01*
X418795Y248197D01*
X418776Y248111D01*
X418749Y248026D01*
X418715Y247945D01*
X418674Y247866D01*
X418627Y247791D01*
X418573Y247721D01*
X418513Y247656D01*
X418447Y247596D01*
X418377Y247542D01*
X418302Y247494D01*
X418224Y247453D01*
X418142Y247419D01*
X418057Y247393D01*
X417971Y247373D01*
X417883Y247362D01*
X417794Y247358D01*
X417706Y247362D01*
X417670Y247366D01*
X417195Y247461D01*
X416663Y247355D01*
X416507Y247329D01*
X416425Y247308D01*
X415907Y247204D01*
X415484Y246922D01*
X415442Y246898D01*
X415221Y246746D01*
X414814Y246475D01*
X414513Y246023D01*
X414421Y245895D01*
X414379Y245822D01*
X414085Y245382D01*
X413985Y244884D01*
X413973Y244837D01*
X413924Y244573D01*
X413830Y244102D01*
X413009Y243281D01*
X412500Y243788D01*
X412561Y244094D01*
X412466Y244571D01*
X412464Y244588D01*
X412408Y244871D01*
X412401Y244898D01*
X412304Y245382D01*
X412005Y245830D01*
X411949Y245924D01*
X411876Y246024D01*
X411575Y246475D01*
X411170Y246745D01*
X411157Y246756D01*
X410917Y246917D01*
X410893Y246930D01*
X410482Y247204D01*
X409954Y247309D01*
X409848Y247336D01*
X409725Y247355D01*
X409194Y247461D01*
X408717Y247366D01*
X408700Y247364D01*
X408417Y247309D01*
X408390Y247301D01*
X407906Y247204D01*
X407458Y246905D01*
X407364Y246849D01*
X407264Y246776D01*
X406813Y246475D01*
X406543Y246070D01*
X406532Y246057D01*
X406371Y245817D01*
X406358Y245793D01*
X406084Y245382D01*
X405979Y244854D01*
X405952Y244748D01*
X405933Y244625D01*
X405827Y244094D01*
X405922Y243617D01*
X405924Y243600D01*
X405979Y243317D01*
X405987Y243290D01*
X406084Y242806D01*
X406383Y242358D01*
X406439Y242264D01*
X406512Y242164D01*
X406813Y241713D01*
X407218Y241443D01*
X407231Y241432D01*
X407471Y241271D01*
X407495Y241258D01*
X407906Y240984D01*
X408434Y240879D01*
X408540Y240852D01*
X408663Y240833D01*
X409194Y240727D01*
X409645Y240817D01*
X409649Y240817D01*
X409649Y240818D01*
X409650Y240818D01*
X409737Y240826D01*
X409826Y240827D01*
X409914Y240820D01*
X410001Y240805D01*
X410087Y240783D01*
X410171Y240753D01*
X410251Y240716D01*
X410328Y240672D01*
X410401Y240622D01*
X410469Y240565D01*
X410532Y240503D01*
X410590Y240436D01*
X410641Y240364D01*
X410686Y240287D01*
X410724Y240207D01*
X410755Y240124D01*
X410779Y240039D01*
X410795Y239951D01*
X410803Y239863D01*
X410804Y239812D01*
Y239235D01*
X410324D01*
X409961Y239307D01*
X409872Y239330D01*
X409727Y239354D01*
X409194Y239460D01*
X408727Y239367D01*
X408724Y239367D01*
X408441Y239313D01*
X408400Y239302D01*
X407906Y239203D01*
X407463Y238908D01*
X407385Y238861D01*
X407241Y238760D01*
X403146D01*
X403146Y238759D01*
X402481Y239203D01*
X401893Y239320D01*
X401836Y239334D01*
X401779Y239343D01*
X401193Y239460D01*
X399905Y239203D01*
X399413Y238875D01*
X399362Y238844D01*
X399235Y238760D01*
X398780D01*
X396240Y236220D01*
Y234516D01*
X394807Y233083D01*
Y227167D01*
X393700Y226060D01*
X386608D01*
Y231648D01*
X386286Y232426D01*
X385508Y232748D01*
X384810D01*
Y233947D01*
X385508D01*
X386286Y234269D01*
X386608Y235047D01*
Y241143D01*
X386286Y241920D01*
X385508Y242242D01*
X384810D01*
Y243502D01*
X385508D01*
X386286Y243824D01*
X386608Y244602D01*
Y250190D01*
X391160D01*
X393700Y252730D01*
Y260350D01*
X396240Y262890D01*
X405130D01*
X406296Y261724D01*
D02*
G37*
G36*
X410210Y279400D02*
Y273050D01*
X408490Y271330D01*
X408360Y271298D01*
X407906Y271207D01*
X407415Y270879D01*
X407315Y270817D01*
X407272Y270784D01*
X406862Y270510D01*
X403525D01*
X403122Y270780D01*
X403001Y270866D01*
X402923Y270912D01*
X402481Y271207D01*
X401986Y271306D01*
X401944Y271318D01*
X401661Y271371D01*
X401659Y271371D01*
X401193Y271464D01*
X400660Y271358D01*
X400513Y271333D01*
X400426Y271311D01*
X399905Y271207D01*
X399484Y270927D01*
X399447Y270906D01*
X399209Y270743D01*
X399207Y270742D01*
X398861Y270510D01*
X396240D01*
X391160Y275590D01*
X386608D01*
Y280670D01*
X391160D01*
X392430Y281940D01*
X398664D01*
X398812Y281718D01*
X399256Y281422D01*
X399332Y281365D01*
X399452Y281291D01*
X399905Y280989D01*
X400374Y280895D01*
X400380Y280893D01*
X400662Y280835D01*
X400700Y280830D01*
X401193Y280732D01*
X401716Y280836D01*
X401811Y280850D01*
X401948Y280882D01*
X402481Y280989D01*
X402879Y281254D01*
X402885Y281257D01*
X403126Y281416D01*
X403156Y281439D01*
X403574Y281718D01*
X403722Y281940D01*
X407670D01*
X410210Y279400D01*
D02*
G37*
G36*
X486038Y253102D02*
X486009Y252960D01*
X485978Y252826D01*
X485979Y252826D01*
X485938Y252601D01*
X485837Y252095D01*
X485943Y251565D01*
X485972Y251395D01*
X485991Y251321D01*
X486094Y250807D01*
X486379Y250380D01*
X486406Y250332D01*
X486537Y250143D01*
X486823Y249714D01*
X487273Y249414D01*
X487414Y249314D01*
X487479Y249276D01*
X487680Y249142D01*
Y247047D01*
X487485Y246916D01*
X487430Y246885D01*
X487265Y246770D01*
X486823Y246475D01*
X486527Y246030D01*
X486416Y245873D01*
X486383Y245815D01*
X486094Y245382D01*
X485993Y244874D01*
X485976Y244813D01*
X485941Y244613D01*
X485837Y244094D01*
X485941Y243570D01*
X485975Y243381D01*
X485992Y243316D01*
X486094Y242806D01*
X486382Y242375D01*
X486413Y242320D01*
X486529Y242155D01*
X486823Y241713D01*
X487268Y241417D01*
X487425Y241306D01*
X487483Y241273D01*
X487680Y241141D01*
Y239046D01*
X487485Y238916D01*
X487430Y238884D01*
X487263Y238768D01*
X486823Y238474D01*
X486526Y238029D01*
X486417Y237873D01*
X486383Y237814D01*
X486094Y237381D01*
X485993Y236874D01*
X485976Y236813D01*
X485941Y236612D01*
X485837Y236093D01*
X485942Y235569D01*
X485974Y235381D01*
X485992Y235315D01*
X486094Y234805D01*
X486381Y234374D01*
X486413Y234319D01*
X486529Y234153D01*
X486823Y233712D01*
X487268Y233415D01*
X487424Y233306D01*
X487483Y233272D01*
X487680Y233140D01*
Y229870D01*
X485140Y227330D01*
Y223914D01*
X485115Y223888D01*
Y205565D01*
X485140Y205539D01*
Y202268D01*
X480060D01*
Y207010D01*
X476664Y210406D01*
X476628Y210536D01*
X476629Y210536D01*
X476530Y210842D01*
X476404Y211138D01*
X476253Y211422D01*
X476077Y211692D01*
X475879Y211945D01*
X475660Y212181D01*
X475421Y212396D01*
X475164Y212589D01*
X474980Y212707D01*
Y233304D01*
X474980Y233304D01*
X475139Y233416D01*
X475583Y233712D01*
X475878Y234155D01*
X475992Y234317D01*
X476024Y234373D01*
X476312Y234805D01*
X476414Y235314D01*
X476431Y235378D01*
X476465Y235571D01*
X476569Y236093D01*
X476465Y236614D01*
X476431Y236810D01*
X476414Y236873D01*
X476312Y237381D01*
X476024Y237813D01*
X475991Y237871D01*
X475879Y238030D01*
X475583Y238474D01*
X475146Y238766D01*
X474980Y238882D01*
Y241313D01*
X474980Y241312D01*
X475135Y241421D01*
X475580Y241719D01*
X475874Y242158D01*
X475991Y242326D01*
X476022Y242380D01*
X476310Y242811D01*
X476411Y243321D01*
X476429Y243388D01*
X476462Y243574D01*
X476566Y244099D01*
X476463Y244617D01*
X476427Y244819D01*
X476411Y244880D01*
X476310Y245387D01*
X476021Y245821D01*
X475986Y245880D01*
X475878Y246034D01*
X475580Y246480D01*
X475140Y246773D01*
X474980Y246886D01*
Y249314D01*
X474980Y249313D01*
X475135Y249422D01*
X475580Y249720D01*
X475874Y250159D01*
X475991Y250327D01*
X476022Y250381D01*
X476310Y250812D01*
X476411Y251322D01*
X476429Y251389D01*
X476462Y251575D01*
X476566Y252100D01*
X476470Y252581D01*
X476461Y252641D01*
X476420Y252900D01*
X477520Y254000D01*
X485140D01*
X486038Y253102D01*
D02*
G37*
G36*
X507566Y356436D02*
X502920Y351790D01*
Y350551D01*
X502825Y350488D01*
X502096Y349395D01*
X501979Y348808D01*
X501965Y348751D01*
X501956Y348694D01*
X501839Y348107D01*
X502096Y346819D01*
X502428Y346320D01*
X502458Y346271D01*
X502493Y346224D01*
X502825Y345726D01*
X502920Y345663D01*
Y342550D01*
X502825Y342487D01*
X502096Y341394D01*
X501979Y340807D01*
X501965Y340750D01*
X501956Y340693D01*
X501839Y340106D01*
X502096Y338818D01*
X502428Y338320D01*
X502458Y338270D01*
X502493Y338223D01*
X502825Y337725D01*
X502920Y337662D01*
Y334549D01*
X502825Y334486D01*
X502553Y334078D01*
X502540Y334062D01*
X502379Y333822D01*
X502369Y333802D01*
X502096Y333393D01*
X501990Y332864D01*
X501963Y332752D01*
X501945Y332635D01*
X501839Y332105D01*
X501911Y331744D01*
X501912Y331732D01*
X500380Y330200D01*
X481330D01*
X480060Y331470D01*
Y334010D01*
X482600Y336550D01*
Y337068D01*
X482934Y337291D01*
X483099Y337397D01*
X483152Y337437D01*
X483584Y337725D01*
X483872Y338157D01*
X483912Y338209D01*
X484018Y338375D01*
X484313Y338818D01*
X484417Y339340D01*
X484460Y339531D01*
X484468Y339597D01*
X484570Y340106D01*
X484468Y340615D01*
X484460Y340680D01*
X484417Y340873D01*
X484313Y341394D01*
X484018Y341837D01*
X483912Y342002D01*
X483872Y342055D01*
X483584Y342487D01*
X483152Y342775D01*
X483100Y342815D01*
X482934Y342921D01*
X482600Y343144D01*
Y345069D01*
X482934Y345292D01*
X483099Y345398D01*
X483152Y345438D01*
X483584Y345726D01*
X483872Y346158D01*
X483912Y346210D01*
X484018Y346376D01*
X484313Y346819D01*
X484417Y347341D01*
X484460Y347532D01*
X484468Y347598D01*
X484570Y348107D01*
X484468Y348616D01*
X484460Y348681D01*
X484417Y348874D01*
X484313Y349395D01*
X484018Y349838D01*
X483912Y350003D01*
X483872Y350056D01*
X483584Y350488D01*
X483152Y350776D01*
X483100Y350816D01*
X482934Y350922D01*
X482600Y351145D01*
Y354330D01*
X486918Y358648D01*
Y362692D01*
X491490D01*
Y358140D01*
X494817Y354813D01*
Y350477D01*
X494524Y350038D01*
X494456Y349946D01*
X494395Y349845D01*
X494095Y349395D01*
X493999Y348915D01*
X493993Y348895D01*
X493937Y348612D01*
X493934Y348589D01*
X493838Y348107D01*
X493944Y347577D01*
X493961Y347464D01*
X493989Y347349D01*
X494095Y346819D01*
X494367Y346412D01*
X494377Y346393D01*
X494537Y346153D01*
X494551Y346135D01*
X494824Y345726D01*
X495248Y345443D01*
X495300Y345404D01*
Y342809D01*
X495300Y342809D01*
X495253Y342773D01*
X494824Y342487D01*
X494534Y342052D01*
X494490Y341994D01*
X494394Y341842D01*
X494095Y341394D01*
X493993Y340882D01*
X493946Y340670D01*
X493939Y340611D01*
X493838Y340106D01*
X493940Y339593D01*
X493950Y339521D01*
X493990Y339345D01*
X494095Y338818D01*
X494385Y338383D01*
X494502Y338201D01*
X494538Y338154D01*
X494824Y337725D01*
X495259Y337435D01*
X495317Y337391D01*
X495469Y337295D01*
X495917Y336996D01*
X496429Y336894D01*
X496641Y336847D01*
X496699Y336840D01*
X497205Y336739D01*
X497718Y336841D01*
X497789Y336851D01*
X497966Y336891D01*
X498493Y336996D01*
X498928Y337286D01*
X499110Y337403D01*
X499157Y337439D01*
X499586Y337725D01*
X499876Y338160D01*
X499920Y338218D01*
X500016Y338370D01*
X500315Y338818D01*
X500417Y339330D01*
X500464Y339542D01*
X500471Y339600D01*
X500572Y340106D01*
X500470Y340619D01*
X500460Y340690D01*
X500420Y340867D01*
X500315Y341394D01*
X500025Y341829D01*
X499908Y342011D01*
X499872Y342058D01*
X499586Y342487D01*
X499153Y342775D01*
X499110Y342809D01*
Y345404D01*
X499110Y345404D01*
X499157Y345440D01*
X499586Y345726D01*
X499876Y346161D01*
X499920Y346219D01*
X500016Y346371D01*
X500315Y346819D01*
X500417Y347331D01*
X500464Y347543D01*
X500471Y347602D01*
X500572Y348107D01*
X500470Y348620D01*
X500460Y348691D01*
X500420Y348868D01*
X500315Y349395D01*
X500025Y349830D01*
X499908Y350012D01*
X499872Y350059D01*
X499593Y350477D01*
Y354813D01*
X502920Y358140D01*
Y362692D01*
X507566D01*
Y356436D01*
D02*
G37*
G36*
X427581Y358549D02*
X430530Y355600D01*
Y350063D01*
X430530Y350063D01*
X430370Y349823D01*
X430359Y349803D01*
X430087Y349395D01*
X429981Y348866D01*
X429953Y348752D01*
X429936Y348637D01*
X429830Y348107D01*
X429926Y347626D01*
X429928Y347604D01*
X429985Y347321D01*
X429991Y347300D01*
X430087Y346819D01*
X430387Y346369D01*
X430447Y346270D01*
X430530Y346151D01*
Y342062D01*
X430530Y342062D01*
X430370Y341822D01*
X430359Y341802D01*
X430087Y341394D01*
X429981Y340864D01*
X429953Y340751D01*
X429936Y340636D01*
X429830Y340106D01*
X429926Y339625D01*
X429928Y339603D01*
X429985Y339320D01*
X429991Y339299D01*
X430087Y338818D01*
X430387Y338368D01*
X430447Y338269D01*
X430530Y338150D01*
Y336550D01*
X434340Y332740D01*
Y331470D01*
X433070Y330200D01*
X421640D01*
X420436Y331404D01*
X420463Y331608D01*
X420562Y332105D01*
X420441Y332710D01*
X420426Y332802D01*
X420414Y332846D01*
X420305Y333393D01*
X420011Y333834D01*
X419993Y333865D01*
X419896Y334006D01*
X419576Y334486D01*
X419158Y334765D01*
X419100Y334808D01*
Y337403D01*
X419100Y337403D01*
X419147Y337439D01*
X419576Y337725D01*
X419866Y338160D01*
X419910Y338218D01*
X420006Y338370D01*
X420305Y338818D01*
X420407Y339330D01*
X420454Y339542D01*
X420461Y339600D01*
X420562Y340106D01*
X420460Y340619D01*
X420450Y340690D01*
X420410Y340867D01*
X420305Y341394D01*
X420015Y341829D01*
X419898Y342011D01*
X419862Y342058D01*
X419576Y342487D01*
X419143Y342775D01*
X419100Y342809D01*
Y345404D01*
X419100Y345404D01*
X419147Y345440D01*
X419576Y345726D01*
X419866Y346161D01*
X419910Y346219D01*
X420006Y346371D01*
X420305Y346819D01*
X420407Y347331D01*
X420454Y347543D01*
X420461Y347602D01*
X420562Y348107D01*
X420460Y348620D01*
X420450Y348691D01*
X420410Y348868D01*
X420305Y349395D01*
X420015Y349830D01*
X419898Y350012D01*
X419862Y350059D01*
X419576Y350488D01*
X419143Y350776D01*
X419100Y350810D01*
Y354330D01*
X422910Y358140D01*
Y362692D01*
X427581D01*
Y358549D01*
D02*
G37*
G36*
X736600Y539750D02*
Y539865D01*
X747125Y539405D01*
X757571Y538030D01*
X767856Y535750D01*
X777904Y532582D01*
X787637Y528550D01*
X796982Y523685D01*
X805868Y518025D01*
X814226Y511611D01*
X821994Y504494D01*
X829111Y496726D01*
X835525Y488368D01*
X841186Y479482D01*
X846050Y470137D01*
X850082Y460404D01*
X853250Y450356D01*
X855530Y440071D01*
X856905Y429625D01*
X857365Y419100D01*
X844550D01*
Y448310D01*
X842010Y450850D01*
X840255D01*
Y455351D01*
X833651D01*
Y450850D01*
X833255D01*
Y455351D01*
X826651D01*
Y450850D01*
X826254D01*
Y455351D01*
X819650D01*
Y450850D01*
X819254D01*
Y455351D01*
X812650D01*
Y450850D01*
X777875D01*
X774700Y454025D01*
Y523875D01*
X768350Y530225D01*
X768323Y530167D01*
X768323Y530167D01*
X768318Y530156D01*
X768323Y530167D01*
X763910Y532343D01*
X761968Y533003D01*
X761809Y533209D01*
X760005Y534594D01*
X757905Y535464D01*
X755650Y535760D01*
X753395Y535464D01*
X753342Y535442D01*
X749482Y536209D01*
X742400Y536674D01*
X184150Y536575D01*
X177800Y530225D01*
Y504825D01*
X161925Y488950D01*
X130175D01*
X114300Y504825D01*
Y527050D01*
X111125Y530225D01*
X63500D01*
Y530327D01*
X57270Y529919D01*
X51147Y528701D01*
X45236Y526694D01*
X39636Y523933D01*
X34446Y520465D01*
X29752Y516348D01*
X25635Y511655D01*
X22167Y506464D01*
X19406Y500864D01*
X17399Y494953D01*
X16181Y488830D01*
X15773Y482600D01*
X15774Y481424D01*
X13460D01*
X12682Y481102D01*
X12360Y480324D01*
Y456926D01*
X6342D01*
X6350Y482600D01*
X6227D01*
X6717Y490076D01*
X8179Y497423D01*
X10587Y504517D01*
X13901Y511236D01*
X18063Y517465D01*
X23002Y523098D01*
X28635Y528037D01*
X34864Y532200D01*
X41583Y535513D01*
X48677Y537921D01*
X56024Y539383D01*
X63500Y539873D01*
X736600Y539750D01*
D02*
G37*
G36*
X487680Y429260D02*
Y391160D01*
X485140Y388620D01*
X479128D01*
Y392938D01*
X478806Y393716D01*
X478028Y394038D01*
X477520D01*
Y394970D01*
X476250Y396240D01*
X471018D01*
Y401696D01*
X481538D01*
Y426344D01*
X460700D01*
Y401696D01*
X466242D01*
Y396240D01*
X437998D01*
Y401696D01*
X443540D01*
Y426344D01*
X422702D01*
Y401696D01*
X433222D01*
Y396240D01*
X426720D01*
Y394038D01*
X426212D01*
X425434Y393716D01*
X425112Y392938D01*
Y388620D01*
X419100D01*
X416560Y391160D01*
Y429260D01*
X419100Y431800D01*
X485140D01*
X487680Y429260D01*
D02*
G37*
%LPC*%
G36*
X481203Y247461D02*
X479915Y247204D01*
X478822Y246475D01*
X478093Y245382D01*
X477836Y244094D01*
X478093Y242806D01*
X478822Y241713D01*
X479915Y240984D01*
X481203Y240727D01*
X482491Y240984D01*
X483584Y241713D01*
X484313Y242806D01*
X484570Y244094D01*
X484313Y245382D01*
X483584Y246475D01*
X482491Y247204D01*
X481203Y247461D01*
D02*
G37*
G36*
X401193D02*
X399905Y247204D01*
X398812Y246475D01*
X398083Y245382D01*
X397826Y244094D01*
X398083Y242806D01*
X398812Y241713D01*
X399905Y240984D01*
X401193Y240727D01*
X402481Y240984D01*
X403574Y241713D01*
X404303Y242806D01*
X404560Y244094D01*
X404303Y245382D01*
X403574Y246475D01*
X402481Y247204D01*
X401193Y247461D01*
D02*
G37*
G36*
X258331Y349442D02*
X257042Y349185D01*
X255950Y348456D01*
X255220Y347363D01*
X254964Y346075D01*
X255220Y344787D01*
X255950Y343694D01*
X257042Y342965D01*
X258331Y342708D01*
X259619Y342965D01*
X260711Y343694D01*
X261441Y344787D01*
X261697Y346075D01*
X261441Y347363D01*
X260711Y348456D01*
X259619Y349185D01*
X258331Y349442D01*
D02*
G37*
G36*
X409194Y255462D02*
X407906Y255205D01*
X406813Y254476D01*
X406084Y253383D01*
X405827Y252095D01*
X406084Y250807D01*
X406813Y249714D01*
X407906Y248985D01*
X409194Y248728D01*
X410482Y248985D01*
X411575Y249714D01*
X412304Y250807D01*
X412561Y252095D01*
X412304Y253383D01*
X411575Y254476D01*
X410482Y255205D01*
X409194Y255462D01*
D02*
G37*
G36*
X401193D02*
X399905Y255205D01*
X398812Y254476D01*
X398083Y253383D01*
X397826Y252095D01*
X398083Y250807D01*
X398812Y249714D01*
X399905Y248985D01*
X401193Y248728D01*
X402481Y248985D01*
X403574Y249714D01*
X404303Y250807D01*
X404560Y252095D01*
X404303Y253383D01*
X403574Y254476D01*
X402481Y255205D01*
X401193Y255462D01*
D02*
G37*
G36*
X146050Y55103D02*
X141494Y54655D01*
X137113Y53326D01*
X133076Y51168D01*
X129537Y48263D01*
X126632Y44724D01*
X124474Y40687D01*
X123145Y36306D01*
X122697Y31750D01*
X123145Y27194D01*
X124474Y22813D01*
X126632Y18776D01*
X129537Y15237D01*
X133076Y12332D01*
X137113Y10174D01*
X141494Y8845D01*
X146050Y8397D01*
X150606Y8845D01*
X154987Y10174D01*
X159024Y12332D01*
X162563Y15237D01*
X165468Y18776D01*
X167626Y22813D01*
X168955Y27194D01*
X169403Y31750D01*
X168955Y36306D01*
X167626Y40687D01*
X165468Y44724D01*
X162563Y48263D01*
X159024Y51168D01*
X154987Y53326D01*
X150606Y54655D01*
X146050Y55103D01*
D02*
G37*
G36*
Y537703D02*
X141494Y537255D01*
X137113Y535926D01*
X133076Y533768D01*
X129537Y530863D01*
X126632Y527324D01*
X124474Y523287D01*
X123145Y518906D01*
X122697Y514350D01*
X123145Y509794D01*
X124474Y505413D01*
X126632Y501376D01*
X129537Y497837D01*
X133076Y494932D01*
X137113Y492774D01*
X141494Y491445D01*
X146050Y490997D01*
X150606Y491445D01*
X154987Y492774D01*
X159024Y494932D01*
X162563Y497837D01*
X165468Y501376D01*
X167626Y505413D01*
X168955Y509794D01*
X169403Y514350D01*
X168955Y518906D01*
X167626Y523287D01*
X165468Y527324D01*
X162563Y530863D01*
X159024Y533768D01*
X154987Y535926D01*
X150606Y537255D01*
X146050Y537703D01*
D02*
G37*
G36*
X806450Y86853D02*
X801894Y86405D01*
X797513Y85076D01*
X793475Y82918D01*
X789937Y80013D01*
X787032Y76474D01*
X784874Y72437D01*
X783545Y68056D01*
X783097Y63500D01*
X783545Y58944D01*
X784874Y54563D01*
X787032Y50525D01*
X789937Y46987D01*
X793475Y44082D01*
X797513Y41924D01*
X801894Y40595D01*
X806450Y40147D01*
X811006Y40595D01*
X815387Y41924D01*
X819425Y44082D01*
X822963Y46987D01*
X825868Y50525D01*
X828026Y54563D01*
X829355Y58944D01*
X829803Y63500D01*
X829355Y68056D01*
X828026Y72437D01*
X825868Y76474D01*
X822963Y80013D01*
X819425Y82918D01*
X815387Y85076D01*
X811006Y86405D01*
X806450Y86853D01*
D02*
G37*
G36*
X481203Y239460D02*
X479915Y239203D01*
X478822Y238474D01*
X478093Y237381D01*
X477836Y236093D01*
X478093Y234805D01*
X478822Y233712D01*
X479915Y232983D01*
X481203Y232726D01*
X482491Y232983D01*
X483584Y233712D01*
X484313Y234805D01*
X484570Y236093D01*
X484313Y237381D01*
X483584Y238474D01*
X482491Y239203D01*
X481203Y239460D01*
D02*
G37*
G36*
X806450Y505953D02*
X801894Y505505D01*
X797513Y504176D01*
X793475Y502018D01*
X789937Y499113D01*
X787032Y495574D01*
X784874Y491537D01*
X783545Y487156D01*
X783097Y482600D01*
X783545Y478044D01*
X784874Y473663D01*
X787032Y469626D01*
X789937Y466087D01*
X793475Y463182D01*
X797513Y461024D01*
X801894Y459695D01*
X806450Y459247D01*
X811006Y459695D01*
X815387Y461024D01*
X819425Y463182D01*
X822963Y466087D01*
X825868Y469626D01*
X828026Y473663D01*
X829355Y478044D01*
X829803Y482600D01*
X829355Y487156D01*
X828026Y491537D01*
X825868Y495574D01*
X822963Y499113D01*
X819425Y502018D01*
X815387Y504176D01*
X811006Y505505D01*
X806450Y505953D01*
D02*
G37*
G36*
X417195Y303470D02*
X415907Y303214D01*
X414814Y302484D01*
X414085Y301392D01*
X413828Y300103D01*
X414085Y298815D01*
X414814Y297723D01*
X415907Y296993D01*
X417195Y296737D01*
X418483Y296993D01*
X419576Y297723D01*
X420305Y298815D01*
X420562Y300103D01*
X420305Y301392D01*
X419576Y302484D01*
X418483Y303214D01*
X417195Y303470D01*
D02*
G37*
G36*
X489204Y351474D02*
X487916Y351217D01*
X486823Y350488D01*
X486094Y349395D01*
X485837Y348107D01*
X486094Y346819D01*
X486823Y345726D01*
X487916Y344997D01*
X489204Y344740D01*
X490492Y344997D01*
X491585Y345726D01*
X492314Y346819D01*
X492571Y348107D01*
X492314Y349395D01*
X491585Y350488D01*
X490492Y351217D01*
X489204Y351474D01*
D02*
G37*
G36*
X441198D02*
X439910Y351217D01*
X438817Y350488D01*
X438088Y349395D01*
X437831Y348107D01*
X438088Y346819D01*
X438817Y345726D01*
X439910Y344997D01*
X441198Y344740D01*
X442486Y344997D01*
X443579Y345726D01*
X444308Y346819D01*
X444565Y348107D01*
X444308Y349395D01*
X443579Y350488D01*
X442486Y351217D01*
X441198Y351474D01*
D02*
G37*
G36*
X473200Y351466D02*
X471911Y351210D01*
X470819Y350480D01*
X470089Y349388D01*
X469833Y348099D01*
X470089Y346811D01*
X470819Y345719D01*
X471911Y344989D01*
X473200Y344733D01*
X474488Y344989D01*
X475580Y345719D01*
X476310Y346811D01*
X476566Y348099D01*
X476310Y349388D01*
X475580Y350480D01*
X474488Y351210D01*
X473200Y351466D01*
D02*
G37*
G36*
X425196Y351474D02*
X423908Y351217D01*
X422815Y350488D01*
X422086Y349395D01*
X421829Y348107D01*
X422086Y346819D01*
X422815Y345726D01*
X423908Y344997D01*
X425196Y344740D01*
X426484Y344997D01*
X427577Y345726D01*
X428306Y346819D01*
X428563Y348107D01*
X428306Y349395D01*
X427577Y350488D01*
X426484Y351217D01*
X425196Y351474D01*
D02*
G37*
G36*
X401193Y279467D02*
X399905Y279211D01*
X398812Y278481D01*
X398083Y277389D01*
X397826Y276101D01*
X398083Y274812D01*
X398812Y273720D01*
X399905Y272990D01*
X401193Y272734D01*
X402481Y272990D01*
X403574Y273720D01*
X404303Y274812D01*
X404560Y276101D01*
X404303Y277389D01*
X403574Y278481D01*
X402481Y279211D01*
X401193Y279467D01*
D02*
G37*
G36*
X489204Y343473D02*
X487916Y343216D01*
X486823Y342487D01*
X486094Y341394D01*
X485837Y340106D01*
X486094Y338818D01*
X486823Y337725D01*
X487916Y336996D01*
X489204Y336739D01*
X490492Y336996D01*
X491585Y337725D01*
X492314Y338818D01*
X492571Y340106D01*
X492314Y341394D01*
X491585Y342487D01*
X490492Y343216D01*
X489204Y343473D01*
D02*
G37*
G36*
X425193D02*
X423905Y343216D01*
X422813Y342487D01*
X422083Y341394D01*
X421827Y340106D01*
X422083Y338818D01*
X422813Y337725D01*
X423905Y336996D01*
X425193Y336739D01*
X426482Y336996D01*
X427574Y337725D01*
X428304Y338818D01*
X428560Y340106D01*
X428304Y341394D01*
X427574Y342487D01*
X426482Y343216D01*
X425193Y343473D01*
D02*
G37*
G36*
X473200Y343468D02*
X471911Y343211D01*
X470819Y342481D01*
X470089Y341389D01*
X469833Y340101D01*
X470089Y338812D01*
X470819Y337720D01*
X471911Y336991D01*
X473200Y336734D01*
X474488Y336991D01*
X475580Y337720D01*
X476310Y338812D01*
X476566Y340101D01*
X476310Y341389D01*
X475580Y342481D01*
X474488Y343211D01*
X473200Y343468D01*
D02*
G37*
G36*
X401193Y295469D02*
X399905Y295213D01*
X398812Y294483D01*
X398083Y293391D01*
X397826Y292103D01*
X398083Y290814D01*
X398812Y289722D01*
X399905Y288992D01*
X401193Y288736D01*
X402481Y288992D01*
X403574Y289722D01*
X404303Y290814D01*
X404560Y292103D01*
X404303Y293391D01*
X403574Y294483D01*
X402481Y295213D01*
X401193Y295469D01*
D02*
G37*
%LPD*%
D14*
X471119Y414020D02*
D03*
X433121D02*
D03*
D23*
X789081Y189149D02*
D03*
Y179151D02*
D03*
Y184150D02*
D03*
X797860D02*
D03*
Y189149D02*
D03*
Y179151D02*
D03*
D35*
X552450Y398780D02*
D03*
Y408940D02*
D03*
X755650Y474980D02*
D03*
Y464820D02*
D03*
X539750Y398780D02*
D03*
Y408940D02*
D03*
X501650Y398780D02*
D03*
Y408940D02*
D03*
X527050Y398780D02*
D03*
Y408940D02*
D03*
X514350Y398780D02*
D03*
Y408940D02*
D03*
X553720Y119380D02*
D03*
Y109220D02*
D03*
X396875Y424180D02*
D03*
Y414020D02*
D03*
X492125Y156845D02*
D03*
Y167005D02*
D03*
X479425Y156845D02*
D03*
Y167005D02*
D03*
X304800Y474980D02*
D03*
Y464820D02*
D03*
X371475Y414020D02*
D03*
Y424180D02*
D03*
X384175Y414020D02*
D03*
Y424180D02*
D03*
X396875Y464820D02*
D03*
Y474980D02*
D03*
X250825Y213995D02*
D03*
Y224155D02*
D03*
X260350Y213995D02*
D03*
Y224155D02*
D03*
X666750Y443230D02*
D03*
Y433070D02*
D03*
X679450Y367030D02*
D03*
Y356870D02*
D03*
X666750Y367030D02*
D03*
Y356870D02*
D03*
X654050Y443230D02*
D03*
Y433070D02*
D03*
X641350Y443230D02*
D03*
Y433070D02*
D03*
X590550Y411480D02*
D03*
Y401320D02*
D03*
X679450Y401320D02*
D03*
Y411480D02*
D03*
Y433070D02*
D03*
Y443230D02*
D03*
X654050Y356870D02*
D03*
Y367030D02*
D03*
X590550Y367030D02*
D03*
Y356870D02*
D03*
X260350Y252095D02*
D03*
Y262255D02*
D03*
X250825Y262255D02*
D03*
Y252095D02*
D03*
X269875Y252095D02*
D03*
Y262255D02*
D03*
X231775Y252095D02*
D03*
Y262255D02*
D03*
X241300Y262255D02*
D03*
Y252095D02*
D03*
X292100Y474980D02*
D03*
Y464820D02*
D03*
X450850Y464820D02*
D03*
Y474980D02*
D03*
X425450Y464820D02*
D03*
Y474980D02*
D03*
X247650Y464820D02*
D03*
Y474980D02*
D03*
X234950Y464820D02*
D03*
Y474980D02*
D03*
X438150Y464820D02*
D03*
Y474980D02*
D03*
X476250Y464820D02*
D03*
Y474980D02*
D03*
X273050Y464820D02*
D03*
Y474980D02*
D03*
X260350Y464820D02*
D03*
Y474980D02*
D03*
X463550Y464820D02*
D03*
Y474980D02*
D03*
X488950Y464820D02*
D03*
Y474980D02*
D03*
X323850Y464820D02*
D03*
Y474980D02*
D03*
X342900Y424180D02*
D03*
Y414020D02*
D03*
X304800Y424180D02*
D03*
Y414020D02*
D03*
X292100Y414020D02*
D03*
Y424180D02*
D03*
X254000Y424180D02*
D03*
Y414020D02*
D03*
X717550Y464820D02*
D03*
Y474980D02*
D03*
X107950Y465455D02*
D03*
Y455295D02*
D03*
X95250Y455295D02*
D03*
Y465455D02*
D03*
X142875Y465455D02*
D03*
Y455295D02*
D03*
X130175Y455295D02*
D03*
Y465455D02*
D03*
X698500Y464820D02*
D03*
Y474980D02*
D03*
X688975Y464820D02*
D03*
Y474980D02*
D03*
X679450Y464820D02*
D03*
Y474980D02*
D03*
X669925Y464820D02*
D03*
Y474980D02*
D03*
X574675Y464820D02*
D03*
Y474980D02*
D03*
X708025Y464820D02*
D03*
Y474980D02*
D03*
X660400Y464820D02*
D03*
Y474980D02*
D03*
X650875Y464820D02*
D03*
Y474980D02*
D03*
X641350Y464820D02*
D03*
Y474980D02*
D03*
X631825Y464820D02*
D03*
Y474980D02*
D03*
X622300Y464820D02*
D03*
Y474980D02*
D03*
X593725Y464820D02*
D03*
Y474980D02*
D03*
X612775Y464820D02*
D03*
Y474980D02*
D03*
X603250Y464820D02*
D03*
Y474980D02*
D03*
X584200Y464820D02*
D03*
Y474980D02*
D03*
X511175Y191770D02*
D03*
Y201930D02*
D03*
X482600Y201930D02*
D03*
Y191770D02*
D03*
X454025Y201930D02*
D03*
Y191770D02*
D03*
X444500Y201930D02*
D03*
Y191770D02*
D03*
X463550Y201930D02*
D03*
Y191770D02*
D03*
X492125Y201930D02*
D03*
Y191770D02*
D03*
X441198Y325183D02*
D03*
Y315023D02*
D03*
X457200Y245173D02*
D03*
Y235014D02*
D03*
X473202Y363030D02*
D03*
Y373190D02*
D03*
X413200Y363030D02*
D03*
Y373190D02*
D03*
X727075Y474980D02*
D03*
Y464820D02*
D03*
X565150Y474980D02*
D03*
Y464820D02*
D03*
X505206Y373190D02*
D03*
Y363030D02*
D03*
X457200Y265171D02*
D03*
Y255011D02*
D03*
X489204Y373190D02*
D03*
Y363030D02*
D03*
X441198Y259016D02*
D03*
Y269177D02*
D03*
X434975Y201930D02*
D03*
Y191770D02*
D03*
X425196Y363030D02*
D03*
Y373190D02*
D03*
X457200Y349187D02*
D03*
Y339026D02*
D03*
X473202Y259016D02*
D03*
Y269177D02*
D03*
X457200Y275019D02*
D03*
Y285179D02*
D03*
Y309181D02*
D03*
Y299021D02*
D03*
X473202Y315023D02*
D03*
Y325183D02*
D03*
X457200Y329123D02*
D03*
Y318963D02*
D03*
X437200Y363030D02*
D03*
Y373190D02*
D03*
X546100Y156845D02*
D03*
Y167005D02*
D03*
X473075Y201930D02*
D03*
Y191770D02*
D03*
X533400Y156845D02*
D03*
Y167005D02*
D03*
X520700Y201930D02*
D03*
Y191770D02*
D03*
X501650Y191770D02*
D03*
Y201930D02*
D03*
X768071Y179070D02*
D03*
Y189230D02*
D03*
X831571Y189230D02*
D03*
Y179070D02*
D03*
X406400Y191770D02*
D03*
Y201930D02*
D03*
X130175Y424180D02*
D03*
Y414020D02*
D03*
X818871Y179070D02*
D03*
Y189230D02*
D03*
X415925Y201930D02*
D03*
Y191770D02*
D03*
X425450Y191770D02*
D03*
Y201930D02*
D03*
X517525Y156845D02*
D03*
Y167005D02*
D03*
X504825Y156845D02*
D03*
Y167005D02*
D03*
X187960Y91440D02*
D03*
Y81280D02*
D03*
X231775Y224155D02*
D03*
Y213995D02*
D03*
X419100Y109220D02*
D03*
Y119380D02*
D03*
X482600Y109220D02*
D03*
Y119380D02*
D03*
X409575Y414020D02*
D03*
Y424180D02*
D03*
D36*
X229870Y384175D02*
D03*
X240030D02*
D03*
X386080D02*
D03*
X375920D02*
D03*
X763270Y282575D02*
D03*
X773430D02*
D03*
X763270Y269875D02*
D03*
X773430D02*
D03*
X299720Y346075D02*
D03*
X309880D02*
D03*
X52070Y266700D02*
D03*
X62230D02*
D03*
X205105Y320675D02*
D03*
X194945D02*
D03*
X205105Y311150D02*
D03*
X194945D02*
D03*
X205105Y301625D02*
D03*
X194945D02*
D03*
X205105Y292100D02*
D03*
X194945D02*
D03*
X125730Y304800D02*
D03*
X115570D02*
D03*
X205105Y282575D02*
D03*
X194945D02*
D03*
X125730Y279400D02*
D03*
X115570D02*
D03*
X125730Y317500D02*
D03*
X115570D02*
D03*
X125730Y330200D02*
D03*
X115570D02*
D03*
X125730Y342900D02*
D03*
X115570D02*
D03*
X62230Y317500D02*
D03*
X52070D02*
D03*
X62230Y279400D02*
D03*
X52070D02*
D03*
X299720Y288925D02*
D03*
X309880D02*
D03*
X299720Y279400D02*
D03*
X309880D02*
D03*
X299720Y317500D02*
D03*
X309880D02*
D03*
X299720Y298450D02*
D03*
X309880D02*
D03*
X299720Y336550D02*
D03*
X309880D02*
D03*
X299720Y307975D02*
D03*
X309880D02*
D03*
Y260350D02*
D03*
X299720D02*
D03*
X309880Y327025D02*
D03*
X299720D02*
D03*
X309880Y355600D02*
D03*
X299720D02*
D03*
X194945Y336550D02*
D03*
X205105D02*
D03*
X309880Y269875D02*
D03*
X299720D02*
D03*
X125730Y292100D02*
D03*
X115570D02*
D03*
X271780Y285750D02*
D03*
X261620D02*
D03*
Y336550D02*
D03*
X271780D02*
D03*
X229870Y298450D02*
D03*
X240030D02*
D03*
X229870Y285750D02*
D03*
X240030D02*
D03*
X640080Y255651D02*
D03*
X629920D02*
D03*
X640080Y191643D02*
D03*
X629920D02*
D03*
X690880Y231648D02*
D03*
X680720D02*
D03*
X640080D02*
D03*
X629920D02*
D03*
Y243650D02*
D03*
X640080D02*
D03*
Y219646D02*
D03*
X629920D02*
D03*
X680720Y191643D02*
D03*
X690880D02*
D03*
X680720Y207645D02*
D03*
X690880D02*
D03*
X680720Y243650D02*
D03*
X690880D02*
D03*
X680720Y255651D02*
D03*
X690880D02*
D03*
X680720Y279654D02*
D03*
X690880D02*
D03*
X680720Y295656D02*
D03*
X690880D02*
D03*
X680720Y311658D02*
D03*
X690880D02*
D03*
X589280Y191643D02*
D03*
X579120D02*
D03*
X589280Y207645D02*
D03*
X579120D02*
D03*
X589280Y231648D02*
D03*
X579120D02*
D03*
X589280Y255651D02*
D03*
X579120D02*
D03*
X589280Y271653D02*
D03*
X579120D02*
D03*
X589280Y295656D02*
D03*
X579120D02*
D03*
X589280Y311658D02*
D03*
X579120D02*
D03*
X498284Y260096D02*
D03*
X488125D02*
D03*
X498284Y276098D02*
D03*
X488125D02*
D03*
X498277Y292100D02*
D03*
X488117D02*
D03*
X498284Y308102D02*
D03*
X488125D02*
D03*
X347980Y200025D02*
D03*
X337820D02*
D03*
X386270Y308102D02*
D03*
X376110D02*
D03*
X386270Y352425D02*
D03*
X376110D02*
D03*
X386270Y228600D02*
D03*
X376110D02*
D03*
X386270Y324104D02*
D03*
X376110D02*
D03*
X386270Y238095D02*
D03*
X376110D02*
D03*
X386270Y247650D02*
D03*
X376110D02*
D03*
X386270Y278099D02*
D03*
X376110D02*
D03*
X337820Y336550D02*
D03*
X347980D02*
D03*
X488125Y324104D02*
D03*
X498284D02*
D03*
X386080Y368300D02*
D03*
X375920D02*
D03*
X426275Y260096D02*
D03*
X416115D02*
D03*
X376110Y288099D02*
D03*
X386270D02*
D03*
X347980Y355600D02*
D03*
X337820D02*
D03*
X426275Y308102D02*
D03*
X416115D02*
D03*
X426275Y292100D02*
D03*
X416115D02*
D03*
X386270Y298102D02*
D03*
X376110D02*
D03*
X426275Y276098D02*
D03*
X416115D02*
D03*
X386270Y268097D02*
D03*
X376110D02*
D03*
X347980Y241300D02*
D03*
X337820D02*
D03*
X347980Y269875D02*
D03*
X337820D02*
D03*
X347980Y298450D02*
D03*
X337820D02*
D03*
X468122Y292100D02*
D03*
X478282D02*
D03*
X436296D02*
D03*
X446456D02*
D03*
X386270Y258097D02*
D03*
X376110D02*
D03*
X426275Y324104D02*
D03*
X416115D02*
D03*
X347980Y346075D02*
D03*
X337820D02*
D03*
X375920Y339725D02*
D03*
X386080D02*
D03*
X294005Y120650D02*
D03*
X283845D02*
D03*
X435610Y389890D02*
D03*
X425450D02*
D03*
X468630D02*
D03*
X478790D02*
D03*
X563880Y284099D02*
D03*
X553720D02*
D03*
X457190Y389890D02*
D03*
X447030D02*
D03*
X283845Y111125D02*
D03*
X294005D02*
D03*
X283845Y101600D02*
D03*
X294005D02*
D03*
X553720Y271653D02*
D03*
X563880D02*
D03*
X87630Y158750D02*
D03*
X77470D02*
D03*
X43180Y165100D02*
D03*
X33020D02*
D03*
X77470Y184150D02*
D03*
X87630D02*
D03*
Y171450D02*
D03*
X77470D02*
D03*
X261620Y298450D02*
D03*
X271780D02*
D03*
X680720Y219646D02*
D03*
X690880D02*
D03*
D38*
X234950Y410210D02*
D03*
Y427990D02*
D03*
X539750Y181610D02*
D03*
Y199390D02*
D03*
X257175Y142240D02*
D03*
Y124460D02*
D03*
X200025Y162560D02*
D03*
Y180340D02*
D03*
X257175Y162560D02*
D03*
Y180340D02*
D03*
X219075Y162560D02*
D03*
Y180340D02*
D03*
X200025Y124460D02*
D03*
Y142240D02*
D03*
X238125D02*
D03*
Y124460D02*
D03*
Y162560D02*
D03*
Y180340D02*
D03*
D39*
X50165Y298450D02*
D03*
X32385D02*
D03*
X243840Y333375D02*
D03*
X226060D02*
D03*
X688340Y168275D02*
D03*
X670560D02*
D03*
X688340Y327025D02*
D03*
X670560D02*
D03*
X351790Y371475D02*
D03*
X334010D02*
D03*
Y215900D02*
D03*
X351790D02*
D03*
X334010Y284480D02*
D03*
X351790D02*
D03*
X334010Y255270D02*
D03*
X351790D02*
D03*
X73660Y124460D02*
D03*
X91440D02*
D03*
D40*
X325374Y111125D02*
X342900D01*
X671004Y231648D02*
X680720D01*
X379476Y73025D02*
X400685D01*
X416560Y88900D01*
X425450D01*
X360680Y73025D02*
X379476D01*
X307975Y161925D02*
X325374D01*
X304800Y165100D02*
X307975Y161925D01*
X304800Y165100D02*
Y182880D01*
X299720Y187960D02*
X304800Y182880D01*
X325374Y161925D02*
X342900D01*
X283845Y101600D02*
Y111125D01*
Y120650D01*
X276225D02*
X283845D01*
X468630Y411531D02*
X471119Y414020D01*
X468630Y389890D02*
Y411531D01*
X457200Y381000D02*
Y389890D01*
X468630D01*
X433121Y414020D02*
X435610Y411531D01*
Y389890D02*
Y411531D01*
Y389890D02*
X447040D01*
Y383164D02*
X449204Y381000D01*
X447040Y383164D02*
Y389890D01*
X449199Y228981D02*
Y236093D01*
Y228981D02*
X454025Y224155D01*
Y201930D02*
Y224155D01*
X504825Y167005D02*
Y174625D01*
X501650Y177800D02*
X504825Y174625D01*
X517525Y167005D02*
Y174625D01*
X520700Y177800D01*
X704850Y19050D02*
X716280Y30480D01*
Y48260D01*
X699770Y64770D02*
X716280Y48260D01*
X651510Y64770D02*
X699770D01*
X617220Y99060D02*
X651510Y64770D01*
X617220Y99060D02*
Y128270D01*
X607060Y138430D02*
X617220Y128270D01*
X468937Y138430D02*
X607060D01*
X467032Y136525D02*
X468937Y138430D01*
X422275Y136525D02*
X467032D01*
X415925Y142875D02*
X422275Y136525D01*
X415925Y142875D02*
Y175895D01*
X425450Y185420D01*
Y191770D01*
X410845Y196850D02*
X415925Y191770D01*
X410845Y196850D02*
Y206375D01*
X408940Y208280D02*
X410845Y206375D01*
X401320Y208280D02*
X408940D01*
X398780Y205740D02*
X401320Y208280D01*
X362646Y205740D02*
X398780D01*
X356682Y199776D02*
X362646Y205740D01*
X356682Y177988D02*
Y199776D01*
Y177988D02*
X360045Y174625D01*
X379476D01*
X415925Y191770D02*
X425450D01*
X419100Y107950D02*
Y109220D01*
Y107950D02*
X422504Y104546D01*
X433832D01*
X325374Y174625D02*
X342265D01*
X349250Y167640D01*
Y153670D02*
Y167640D01*
Y153670D02*
X360045Y142875D01*
X404802D01*
X423769Y123909D01*
Y110236D02*
Y123909D01*
X422752Y109220D02*
X423769Y110236D01*
X419100Y109220D02*
X422752D01*
X60960Y425326D02*
X69974D01*
X82550Y412750D01*
X121920D01*
X124460Y415290D01*
Y418465D01*
X130175Y424180D01*
X140970Y424017D02*
X146050Y418937D01*
Y410210D02*
Y418937D01*
Y410210D02*
X172085Y384175D01*
X229870D01*
X140889Y424099D02*
X140970Y424017D01*
X130256Y424099D02*
X140889D01*
X130175Y424180D02*
X130256Y424099D01*
X525780Y243840D02*
X538480Y231140D01*
X525780Y243840D02*
Y261620D01*
X523240Y264160D02*
X525780Y261620D01*
X517271Y264160D02*
X523240D01*
X513207Y260096D02*
X517271Y264160D01*
X557530Y311658D02*
X561340D01*
X556260Y310388D02*
X557530Y311658D01*
X556260Y295910D02*
Y310388D01*
Y295910D02*
X557530Y294640D01*
X565150D01*
X566420Y295910D01*
Y316230D01*
X567690Y317500D01*
X607060D01*
X619760Y304800D01*
Y289560D02*
Y304800D01*
Y289560D02*
X627380Y281940D01*
Y273050D02*
Y281940D01*
Y273050D02*
X628650Y271780D01*
X648970D01*
X650240Y273050D01*
Y278384D01*
X651510Y279654D01*
X655003D01*
X659000Y187640D02*
X663003Y191643D01*
X659000Y181481D02*
Y187640D01*
X645160Y167640D02*
X659000Y181481D01*
X572770Y167640D02*
X645160D01*
X553720Y186690D02*
X572770Y167640D01*
X553720Y186690D02*
Y212090D01*
X539750Y226060D02*
X553720Y212090D01*
X535940Y226060D02*
X539750D01*
X513908Y248092D02*
X535940Y226060D01*
X501203Y248092D02*
X513908D01*
X497205Y244094D02*
X501203Y248092D01*
X606996Y191643D02*
X610994Y195641D01*
X622300D01*
X623570Y196911D01*
Y202372D01*
X622300Y203642D02*
X623570Y202372D01*
X596072Y203642D02*
X622300D01*
X591568Y199139D02*
X596072Y203642D01*
X571500Y199139D02*
X591568D01*
X505206Y244094D02*
X512826D01*
X519430Y237490D01*
Y213109D02*
Y237490D01*
Y213109D02*
X521907Y210632D01*
X546100D01*
X549910Y206822D01*
Y185420D02*
Y206822D01*
Y185420D02*
X571500Y163830D01*
X646430D01*
X663003Y180403D01*
Y183642D01*
X650240Y191643D02*
X655003D01*
X647700Y189103D02*
X650240Y191643D01*
X647700Y181610D02*
Y189103D01*
X641350Y175260D02*
X647700Y181610D01*
X575310Y175260D02*
X641350D01*
X561340Y189230D02*
X575310Y175260D01*
X561340Y189230D02*
Y232410D01*
X558800Y234950D02*
X561340Y232410D01*
X546100Y234950D02*
X558800D01*
X533400Y247650D02*
X546100Y234950D01*
X533400Y247650D02*
Y263017D01*
X538480Y268097D01*
X513207Y276098D02*
X539242D01*
X543560Y271780D01*
Y242570D02*
Y271780D01*
Y242570D02*
X547370Y238760D01*
X562610D01*
X565150Y236220D01*
Y190500D02*
Y236220D01*
Y190500D02*
X576580Y179070D01*
X633730D01*
X635000Y180340D01*
Y182372D01*
X633730Y183642D02*
X635000Y182372D01*
X614997Y183642D02*
X633730D01*
X441198Y244094D02*
X445201Y240091D01*
Y202631D02*
Y240091D01*
X444500Y201930D02*
X445201Y202631D01*
X489204Y244094D02*
X493204Y240093D01*
Y235394D02*
Y240093D01*
X493202Y235392D02*
X493204Y235394D01*
X493202Y228600D02*
Y235392D01*
X487502Y222900D02*
X493202Y228600D01*
X487502Y206553D02*
Y222900D01*
Y206553D02*
X492125Y201930D01*
X505206Y228092D02*
X511175Y222123D01*
Y201930D02*
Y222123D01*
X465201Y244094D02*
X469202Y240093D01*
Y230441D02*
Y240093D01*
X463550Y224790D02*
X469202Y230441D01*
X463550Y201930D02*
Y224790D01*
X397195Y232095D02*
X401193Y236093D01*
X397195Y216855D02*
Y232095D01*
X391353Y211013D02*
X397195Y216855D01*
X376730Y211013D02*
X391353D01*
X361683Y226060D02*
X376730Y211013D01*
X322580Y226060D02*
X361683D01*
X317500Y231140D02*
X322580Y226060D01*
X314960Y228600D02*
X317500Y231140D01*
X308229Y228600D02*
X314960D01*
X300990D02*
X308229D01*
X289801Y217411D02*
X300990Y228600D01*
X289801Y203441D02*
Y217411D01*
X281940Y195580D02*
X289801Y203441D01*
X269240Y195580D02*
X281940D01*
X264160Y200025D02*
X269875Y205740D01*
X264160Y193040D02*
Y200025D01*
Y193040D02*
X266700Y190500D01*
X283210D01*
X293370Y200660D01*
X304800D01*
X308229Y204089D01*
Y209550D01*
X436880Y93980D02*
X441960Y88900D01*
X416560Y93980D02*
X436880D01*
X401955Y79375D02*
X416560Y93980D01*
X354965Y79375D02*
X401955D01*
X348615Y73025D02*
X354965Y79375D01*
X325374Y73025D02*
X348615D01*
X325374Y85725D02*
X343535D01*
X362585Y104775D01*
X395605D01*
X398780Y107950D01*
Y109220D01*
X561340Y321310D02*
X608330D01*
X623570Y306070D01*
Y290830D02*
Y306070D01*
Y290830D02*
X631825Y282575D01*
Y276860D02*
Y282575D01*
Y276860D02*
X633095Y275590D01*
X635000D01*
X636270Y276860D01*
Y285750D01*
X637540Y287020D01*
X640080D01*
X641350Y285750D01*
Y276860D02*
Y285750D01*
Y276860D02*
X642620Y275590D01*
X645160D01*
X646430Y276860D01*
Y285750D01*
X647700Y287020D01*
X655762D01*
X659130Y283652D01*
X665038D01*
X667001Y281688D01*
Y275651D02*
Y281688D01*
X663003Y271653D02*
X667001Y275651D01*
X325374Y123825D02*
X342900D01*
X325374Y136525D02*
X340995D01*
X342900Y134620D01*
Y123825D02*
Y134620D01*
X325374Y149225D02*
X342900D01*
X379476D02*
X398780D01*
X360680D02*
X379476D01*
X505206Y308102D02*
X509209Y312105D01*
X515305D01*
X543560Y340360D01*
X635000D01*
X659000Y316360D01*
Y307660D02*
Y316360D01*
Y307660D02*
X663003Y303657D01*
X513207Y300101D02*
X515620D01*
X516890Y298831D01*
Y295910D02*
Y298831D01*
X515620Y294640D02*
X516890Y295910D01*
X505460Y294640D02*
X515620D01*
X504190Y293370D02*
X505460Y294640D01*
X504190Y290830D02*
Y293370D01*
Y290830D02*
X505460Y289560D01*
X575310D01*
X576580Y288290D01*
Y280670D02*
Y288290D01*
Y280670D02*
X577850Y279400D01*
X600710D01*
X601980Y280670D01*
Y283210D01*
X600710Y284480D02*
X601980Y283210D01*
X581660Y284480D02*
X600710D01*
X580390Y285750D02*
X581660Y284480D01*
X580390Y285750D02*
Y288290D01*
X581660Y289560D01*
X605727D01*
X606996Y290830D01*
Y295656D01*
X538480Y300096D02*
X543184D01*
X544830Y298450D01*
X551180D01*
X552450Y299720D01*
Y321310D01*
X557530Y326390D01*
X608330D01*
X627380Y307340D01*
Y293370D02*
Y307340D01*
Y293370D02*
X629920Y290830D01*
X658177D01*
X663003Y295656D01*
X505206Y300101D02*
X509209Y304104D01*
X519430D01*
X520700Y302834D01*
Y301625D02*
Y302834D01*
Y301625D02*
X521970Y300355D01*
X524510D01*
X525780Y301625D01*
Y317500D01*
X545465Y337185D01*
X633095D01*
X655003Y315278D01*
Y311658D02*
Y315278D01*
X497205Y236093D02*
X501208Y232090D01*
Y225425D02*
Y232090D01*
Y225425D02*
X501650Y224983D01*
Y201930D02*
Y224983D01*
X331470Y59055D02*
Y64770D01*
Y59055D02*
X336550Y53975D01*
Y31750D02*
Y53975D01*
X323850Y19050D02*
X336550Y31750D01*
X411480Y101600D02*
X414020Y99060D01*
X444500D01*
X447040Y96520D01*
X482600D01*
X492760Y106680D01*
Y121920D01*
X499110Y128270D01*
X525780D01*
X532257Y121793D01*
X540512D01*
X398780Y101600D02*
Y101610D01*
Y101600D02*
X403860Y96520D01*
X441960D01*
X444500Y93980D01*
X485140D01*
X495300Y104140D01*
Y119380D01*
X501650Y125730D01*
X523240D01*
X532181Y116789D01*
X540512D01*
X125730Y342900D02*
X146050D01*
X241300Y262255D02*
X250825D01*
Y269875D01*
X292100Y317500D02*
X299720D01*
X125730Y330200D02*
X171450D01*
X231775Y252095D02*
X241300D01*
X229870Y254000D02*
X231775Y252095D01*
X219075Y254000D02*
X229870D01*
X125730Y317500D02*
X146050D01*
X205105Y282575D02*
X212725D01*
X292100Y307975D02*
X299720D01*
X623570Y191643D02*
X629920D01*
X619572Y187645D02*
X623570Y191643D01*
X610999Y187645D02*
X619572D01*
X606996Y183642D02*
X610999Y187645D01*
X125730Y279400D02*
X171450D01*
X292100Y298450D02*
X299720D01*
X250825Y252095D02*
X260350D01*
X269875D01*
X271780Y254000D02*
X282575D01*
X269875Y252095D02*
X271780Y254000D01*
X688975Y60325D02*
X704850Y44450D01*
X650875Y60325D02*
X688975D01*
X614680Y96520D02*
X650875Y60325D01*
X614680Y96520D02*
Y125730D01*
X604520Y135890D02*
X614680Y125730D01*
X469900Y135890D02*
X604520D01*
X468059Y134049D02*
X469900Y135890D01*
X420942Y134049D02*
X468059D01*
X412750Y142240D02*
X420942Y134049D01*
X412750Y142240D02*
Y179070D01*
X406400Y185420D02*
X412750Y179070D01*
X406400Y185420D02*
Y191770D01*
X401320D02*
X406400D01*
X391160Y201930D02*
X401320Y191770D01*
X367030Y201930D02*
X391160D01*
X364678Y199578D02*
X367030Y201930D01*
X364678Y194498D02*
Y199578D01*
X360680Y190500D02*
X364678Y194498D01*
X360680Y180340D02*
Y190500D01*
X409575Y400685D02*
X411480Y398780D01*
X409575Y400685D02*
Y414020D01*
X565150Y31750D02*
X577850Y19050D01*
X565150Y31750D02*
Y62230D01*
X580390Y77470D01*
Y119380D01*
X585470Y124460D01*
X552450Y19050D02*
X562610Y29210D01*
Y64770D01*
X577850Y80010D01*
Y124460D01*
X527050Y44450D02*
X535940Y53340D01*
X546102D01*
X575310Y82548D01*
Y119380D01*
X570230Y124460D02*
X575310Y119380D01*
X393192Y332105D02*
Y337058D01*
X390525Y339725D02*
X393192Y337058D01*
X386080Y339725D02*
X390525D01*
X419100Y146050D02*
X424180Y140970D01*
X419100Y146050D02*
Y172720D01*
X429895Y183515D01*
Y231140D01*
X429199Y231836D02*
X429895Y231140D01*
X429199Y231836D02*
Y240091D01*
X425196Y244094D02*
X429199Y240091D01*
X768071Y171450D02*
Y179070D01*
Y171450D02*
X770357Y169164D01*
Y155804D02*
Y169164D01*
X755650Y155804D02*
X770357D01*
X130175Y447675D02*
Y455295D01*
Y447675D02*
X147955D01*
X479425Y167005D02*
X483870D01*
X485775Y165100D01*
Y158750D02*
Y165100D01*
Y158750D02*
X487680Y156845D01*
X492125D01*
X479425Y174625D02*
X482600Y177800D01*
X479425Y167005D02*
Y174625D01*
X142875Y465455D02*
Y473075D01*
X95250Y447675D02*
Y455295D01*
X107950Y465455D02*
Y473075D01*
X200025Y180340D02*
Y191135D01*
X829953Y439412D02*
X831850Y437515D01*
X829953Y439412D02*
Y449763D01*
X836953Y304617D02*
Y316865D01*
X822325D02*
X822952Y316238D01*
Y304617D02*
Y316238D01*
X812800Y316865D02*
X815952Y313713D01*
Y304617D02*
Y313713D01*
X812800Y437515D02*
X815952Y440667D01*
Y449763D01*
X822325Y437515D02*
X822952Y438142D01*
Y449763D01*
X317500Y327025D02*
Y330454D01*
X318516Y331470D01*
X322958D01*
X323974Y330454D01*
Y310896D02*
Y330454D01*
Y310896D02*
X324991Y309880D01*
X349504D01*
X350520Y308864D01*
Y307721D02*
Y308864D01*
X349504Y306705D02*
X350520Y307721D01*
X329628Y306705D02*
X349504D01*
X328613Y305689D02*
X329628Y306705D01*
X328613Y304546D02*
Y305689D01*
Y304546D02*
X329628Y303530D01*
X358140D01*
X360680Y300990D01*
Y244856D02*
Y300990D01*
Y244856D02*
X361696Y243840D01*
X363286D01*
X364302Y244856D01*
Y280106D01*
X368300Y284104D01*
X151130Y414020D02*
Y421640D01*
X132080Y440690D02*
X151130Y421640D01*
X87630Y440690D02*
X132080D01*
X79822Y448498D02*
X87630Y440690D01*
X71120Y448498D02*
X79822D01*
X70292Y449326D02*
X71120Y448498D01*
X60960Y449326D02*
X70292D01*
X401193Y332105D02*
X405191Y336103D01*
Y350459D01*
X404495Y351155D02*
X405191Y350459D01*
X404495Y351155D02*
Y391795D01*
X401508Y394782D02*
X404495Y391795D01*
X170368Y394782D02*
X401508D01*
X151130Y414020D02*
X170368Y394782D01*
X487680Y58420D02*
X501650Y44450D01*
X477520Y58420D02*
X487680D01*
X463550Y72390D02*
X477520Y58420D01*
X463550Y72390D02*
Y81280D01*
X455930Y88900D02*
X463550Y81280D01*
X450850Y88900D02*
X455930D01*
X30480Y172720D02*
X33020Y170180D01*
Y165100D02*
Y170180D01*
X215900Y196215D02*
Y203200D01*
X226695Y213995D01*
X231775D01*
X292100Y260350D02*
X299720D01*
X253365Y276860D02*
X260350Y269875D01*
Y262255D02*
Y269875D01*
X292100D02*
X299720D01*
X292100Y288925D02*
X299720D01*
X292100Y279400D02*
X299720D01*
X405191Y304099D02*
X409194Y308102D01*
X399537Y304099D02*
X405191D01*
X393700Y298262D02*
X399537Y304099D01*
X393700Y295910D02*
Y298262D01*
X391160Y293370D02*
X393700Y295910D01*
X371414Y293370D02*
X391160D01*
X364490Y300294D02*
X371414Y293370D01*
X364490Y300294D02*
Y306070D01*
X362585Y307975D02*
X364490Y306070D01*
X355600Y307975D02*
X362585D01*
X292100Y355600D02*
X299720D01*
X309880Y327025D02*
X314325Y322580D01*
X318442D01*
X321498Y319524D01*
Y308422D02*
Y319524D01*
Y308422D02*
X325120Y304800D01*
Y267970D02*
Y304800D01*
X317500Y260350D02*
X325120Y267970D01*
X205105Y336550D02*
X212725D01*
X317500Y355600D02*
Y363220D01*
X309880Y370840D02*
X317500Y363220D01*
X271780Y370840D02*
X309880D01*
X270510Y369570D02*
X271780Y370840D01*
X270510Y364490D02*
Y369570D01*
Y364490D02*
X271780Y363220D01*
X307340D01*
X309880Y360680D01*
Y355600D02*
Y360680D01*
Y269875D02*
Y273050D01*
X311150Y274320D01*
X318770D01*
X322580Y278130D01*
Y302895D01*
X317500Y307975D02*
X322580Y302895D01*
X187325Y336550D02*
X194945D01*
X317500Y266700D02*
Y269875D01*
X316230Y265430D02*
X317500Y266700D01*
X311150Y265430D02*
X316230D01*
X309880Y264160D02*
X311150Y265430D01*
X309880Y260350D02*
Y264160D01*
X371475Y424180D02*
X384175D01*
X371475D02*
Y431800D01*
X463550Y31750D02*
X476250Y19050D01*
X463550Y31750D02*
Y48260D01*
X455930Y55880D02*
X463550Y48260D01*
X361950Y55880D02*
X455930D01*
X353060Y64770D02*
X361950Y55880D01*
X38100Y190500D02*
X128270D01*
X172908Y235138D01*
X243586D01*
X246126Y232598D01*
Y225425D02*
Y232598D01*
Y225425D02*
X247396Y224155D01*
X250825D01*
X254254D01*
X255524Y225425D01*
Y232598D01*
X258064Y235138D01*
X279781D01*
X282321Y232598D01*
Y228600D02*
Y232598D01*
X48768Y325882D02*
Y336296D01*
Y325882D02*
X52070Y322580D01*
Y317500D02*
Y322580D01*
X400050Y201930D02*
X406400D01*
X421198Y248097D02*
X425196Y252095D01*
X421198Y213802D02*
Y248097D01*
Y213802D02*
X425450Y209550D01*
Y201930D02*
Y209550D01*
X413192Y240091D02*
X417195Y244094D01*
X413192Y232603D02*
Y240091D01*
Y232603D02*
X415925Y229870D01*
Y201930D02*
Y229870D01*
X642811Y171450D02*
X655003Y183642D01*
X574040Y171450D02*
X642811D01*
X557530Y187960D02*
X574040Y171450D01*
X557530Y187960D02*
Y218440D01*
X529590Y246380D02*
X557530Y218440D01*
X529590Y246380D02*
Y267970D01*
X525465Y272095D02*
X529590Y267970D01*
X508955Y272095D02*
X525465D01*
X505206Y275844D02*
X508955Y272095D01*
X505206Y275844D02*
Y276098D01*
X527050Y476250D02*
X552450Y501650D01*
X527050Y462280D02*
Y476250D01*
X539750Y514350D02*
X552450Y527050D01*
X539750Y497840D02*
Y514350D01*
X508000Y466090D02*
X539750Y497840D01*
X508000Y452120D02*
Y466090D01*
X398780Y119380D02*
X403860Y124460D01*
X414020D01*
X419100Y119380D01*
X467868Y124054D02*
X481330D01*
X482600Y122784D01*
Y119380D02*
Y122784D01*
X831571Y158750D02*
Y171450D01*
X828624Y155804D02*
X831571Y158750D01*
X816585Y155804D02*
X828624D01*
X831571Y171450D02*
Y179070D01*
X667004Y219646D02*
X680720D01*
X663003Y223647D02*
X667004Y219646D01*
X405191Y232090D02*
X409194Y236093D01*
X405191Y218435D02*
Y232090D01*
X395293Y208536D02*
X405191Y218435D01*
X360937Y208536D02*
X395293D01*
X354206Y201805D02*
X360937Y208536D01*
X354206Y195455D02*
Y201805D01*
X346075Y187325D02*
X354206Y195455D01*
X325374Y187325D02*
X346075D01*
X353060Y180340D01*
Y162560D02*
Y180340D01*
Y162560D02*
X360045Y155575D01*
X400685D01*
X408940Y147320D01*
Y142240D02*
Y147320D01*
Y142240D02*
X419608Y131572D01*
X469085D01*
X470863Y133350D01*
X600710D01*
X609600Y124460D01*
X716059Y446184D02*
X717550Y447675D01*
X716059Y436941D02*
Y446184D01*
X717550Y474980D02*
Y482600D01*
X742950Y488950D02*
X755650Y501650D01*
X723900Y488950D02*
X742950D01*
X717550Y482600D02*
X723900Y488950D01*
X566420Y406400D02*
X584200Y388620D01*
X566420Y406400D02*
Y411480D01*
X556260Y421640D02*
X566420Y411480D01*
X537210Y421640D02*
X556260D01*
X534670Y419100D02*
X537210Y421640D01*
X534670Y403860D02*
Y419100D01*
Y403860D02*
X539750Y398780D01*
X505206Y340106D02*
X509207Y344106D01*
X514860D01*
X532130Y361376D01*
Y391160D01*
X539750Y398780D01*
X688975Y474980D02*
Y482600D01*
X679450Y474980D02*
Y482600D01*
X692150Y488950D02*
X704850Y501650D01*
X685800Y488950D02*
X692150D01*
X679450Y482600D02*
X685800Y488950D01*
X669925Y474980D02*
Y482600D01*
X660400Y474980D02*
Y482600D01*
X679450Y501650D01*
X513207Y348107D02*
X520700Y355600D01*
Y392430D01*
X527050Y398780D01*
X532130Y403860D01*
Y426720D01*
X537210Y431800D01*
X551180D01*
X576580Y406400D01*
X509270Y403860D02*
X514350Y398780D01*
X509270Y403860D02*
Y416560D01*
X527050Y434340D01*
X574040D01*
X576580Y431800D01*
X505206Y348107D02*
X511810Y354711D01*
Y382270D01*
X509270Y384810D02*
X511810Y382270D01*
X509270Y384810D02*
Y393700D01*
X514350Y398780D01*
X650875Y474980D02*
Y482600D01*
X631825Y474980D02*
Y482600D01*
X622300Y474980D02*
Y482600D01*
X593725Y474980D02*
Y482600D01*
X615950Y447040D02*
X621030Y452120D01*
X561340Y447040D02*
X615950D01*
X612775Y485775D02*
X628650Y501650D01*
X612775Y482600D02*
Y485775D01*
Y474980D02*
Y482600D01*
X603250D02*
Y501650D01*
Y474980D02*
Y482600D01*
X574675Y474980D02*
Y482600D01*
X577850Y492125D02*
Y501650D01*
X574675Y488950D02*
X577850Y492125D01*
X574675Y482600D02*
Y488950D01*
X632460Y444500D02*
X640080Y452120D01*
X579120Y444500D02*
X632460D01*
X575310Y440690D02*
X579120Y444500D01*
X529590Y440690D02*
X575310D01*
X506730Y417830D02*
X529590Y440690D01*
X506730Y403860D02*
Y417830D01*
X501650Y398780D02*
X506730Y403860D01*
X584200Y474980D02*
Y482600D01*
X497205Y348107D02*
Y394335D01*
X501650Y398780D01*
X247650Y501650D02*
X260350Y488950D01*
Y482600D02*
Y488950D01*
Y474980D02*
Y482600D01*
X273050Y474980D02*
Y482600D01*
X260350Y495300D02*
X273050Y482600D01*
X260350Y495300D02*
Y514350D01*
X247650Y527050D02*
X260350Y514350D01*
X414020Y494030D02*
X425450Y482600D01*
X414020Y494030D02*
Y515620D01*
X425450Y527050D01*
Y474980D02*
Y482600D01*
X488950Y488950D02*
X501650Y501650D01*
X488950Y482600D02*
Y488950D01*
Y474980D02*
Y482600D01*
X463550Y474980D02*
Y482600D01*
Y514350D01*
X476250Y527050D01*
X292100Y464820D02*
X304800D01*
X290949Y436601D02*
Y444500D01*
X292100Y445651D01*
Y464820D01*
X375707Y383962D02*
X375920Y384175D01*
X375707Y375849D02*
Y383962D01*
X595630Y130810D02*
X601980Y124460D01*
X496570Y130810D02*
X595630D01*
X490220Y124460D02*
X496570Y130810D01*
X490220Y111760D02*
Y124460D01*
X487680Y109220D02*
X490220Y111760D01*
X482600Y109220D02*
X487680D01*
X782320Y269875D02*
X785495Y266700D01*
X791477D01*
X792716Y265460D01*
X798850D01*
X773430Y269875D02*
X782320D01*
X323451Y449100D02*
X323850Y449499D01*
Y464820D01*
X773430Y282575D02*
Y289560D01*
X770890Y292100D02*
X773430Y289560D01*
X759460Y292100D02*
X770890D01*
X773430Y282575D02*
X793786D01*
X805851Y270510D01*
X810085D01*
X811101Y269494D01*
Y267460D02*
Y269494D01*
X789940Y233459D02*
X798850D01*
X793214Y261460D02*
X798850D01*
X790674Y264000D02*
X793214Y261460D01*
X756760Y264000D02*
X790674D01*
X751840Y259080D02*
X756760Y264000D01*
X641350Y474980D02*
Y482600D01*
Y488950D02*
X654050Y501650D01*
X641350Y482600D02*
Y488950D01*
X708025Y474980D02*
Y482600D01*
X755650Y527050D02*
X765810Y516890D01*
Y491490D02*
Y516890D01*
X755650Y481330D02*
X765810Y491490D01*
X755650Y474980D02*
Y481330D01*
X534670Y381000D02*
X552450Y398780D01*
X534670Y356870D02*
Y381000D01*
X517906Y340106D02*
X534670Y356870D01*
X513207Y340106D02*
X517906D01*
X698500Y482600D02*
X704850Y488950D01*
X717550D01*
X730250Y501650D01*
X698500Y474980D02*
Y482600D01*
X567690Y398780D02*
X584200Y382270D01*
X552450Y398780D02*
X567690D01*
X292100Y346075D02*
X299720D01*
X450850Y474980D02*
Y501650D01*
X48768Y235204D02*
Y247650D01*
X52070Y250952D01*
Y266700D01*
X684530Y367030D02*
X685800Y368300D01*
X679450Y367030D02*
X684530D01*
X476250Y474980D02*
Y501650D01*
X438150Y474980D02*
Y482600D01*
Y514350D01*
X450850Y527050D01*
X433832Y111049D02*
X444500D01*
X445770Y112319D01*
Y116281D01*
X444500Y117551D02*
X445770Y116281D01*
X433832Y117551D02*
X444500D01*
X222250Y501650D02*
X234950Y488950D01*
Y482600D02*
Y488950D01*
Y474980D02*
Y482600D01*
X247650Y474980D02*
Y482600D01*
X234950Y495300D02*
X247650Y482600D01*
X234950Y495300D02*
Y514350D01*
X222250Y527050D02*
X234950Y514350D01*
X284480Y327025D02*
X294005Y336550D01*
X299720D01*
Y327025D02*
Y336550D01*
X674370Y450850D02*
Y452120D01*
X666750Y443230D02*
X674370Y450850D01*
X87630Y184150D02*
X95250D01*
X108585D01*
X240030Y384175D02*
X247015D01*
X252730Y389890D01*
X400050D01*
X43180Y279400D02*
X52070D01*
X158750Y292100D02*
X171450Y304800D01*
X146050Y292100D02*
X158750D01*
X125730D02*
X146050D01*
X125730D02*
Y304800D01*
X371475Y406400D02*
Y414020D01*
X384175Y406400D02*
Y414020D01*
X409575Y424180D02*
Y431800D01*
X553720Y267970D02*
Y271653D01*
Y267970D02*
X554990Y266700D01*
X626110D01*
X629920Y262890D01*
Y255651D02*
Y262890D01*
Y243650D02*
Y255651D01*
X640080Y231648D02*
Y236220D01*
X638175Y238125D02*
X640080Y236220D01*
X631825Y238125D02*
X638175D01*
X629920Y240030D02*
X631825Y238125D01*
X629920Y240030D02*
Y243650D01*
X623951Y255651D02*
X629920D01*
X619760Y251460D02*
X623951Y255651D01*
X603186Y251460D02*
X619760D01*
X598996Y255651D02*
X603186Y251460D01*
X640080Y219646D02*
Y231648D01*
Y219646D02*
X647700D01*
X651701Y215646D01*
X663003D01*
X505206Y284099D02*
X509204Y280101D01*
X540319D01*
X548767Y271653D01*
X553720D01*
X304800Y474980D02*
Y482600D01*
X309880Y487680D01*
X361950D01*
X367030Y482600D01*
X501650Y76200D02*
X521970Y96520D01*
Y109220D01*
X519379Y111811D02*
X521970Y109220D01*
X511048Y111811D02*
X519379D01*
X511048Y116789D02*
X519481D01*
X524510Y111760D01*
Y88900D02*
Y111760D01*
Y88900D02*
X527050Y86360D01*
Y76200D02*
Y86360D01*
X55880Y158750D02*
X68580Y146050D01*
X108585D01*
X413192Y336108D02*
Y352618D01*
X414020Y328930D02*
X417195Y332105D01*
X411673Y328930D02*
X414020D01*
X410850Y328107D02*
X411673Y328930D01*
X396687Y328107D02*
X410850D01*
D41*
X530860Y308102D02*
X533400Y310642D01*
Y313578D01*
X536306Y316484D01*
X543560D01*
X544830Y317754D01*
Y319278D01*
X541020Y323088D02*
X544830Y319278D01*
X541020Y323088D02*
Y327660D01*
X546415Y333055D01*
X629747D01*
X644144Y318658D01*
Y312532D02*
Y318658D01*
X640222Y308610D02*
X644144Y312532D01*
X637540Y308610D02*
X640222D01*
X636270Y307340D02*
X637540Y308610D01*
X636270Y303784D02*
Y307340D01*
Y303784D02*
X637540Y302514D01*
X653859D01*
X655003Y303657D01*
X536194Y310388D02*
X538480Y308102D01*
X536194Y310388D02*
Y312420D01*
X537464Y313690D01*
X544718D01*
X547624Y316596D01*
Y320436D01*
X543814Y324246D02*
X547624Y320436D01*
X543814Y324246D02*
Y326502D01*
X547573Y330261D01*
X628589D01*
X641350Y317500D01*
Y313690D02*
Y317500D01*
X639064Y311404D02*
X641350Y313690D01*
X636382Y311404D02*
X639064D01*
X633476Y308498D02*
X636382Y311404D01*
X633476Y302626D02*
Y308498D01*
Y302626D02*
X636382Y299720D01*
X655384D01*
X656145Y298958D01*
Y296418D02*
Y298958D01*
X655384Y295656D02*
X656145Y296418D01*
X655003Y295656D02*
X655384D01*
X205105Y292100D02*
X212725D01*
X205105Y301625D02*
X212725D01*
X205105Y311150D02*
X212725D01*
X205105Y320675D02*
X212725D01*
X792785Y241460D02*
X798850D01*
X792180Y240856D02*
X792785Y241460D01*
X787844Y240856D02*
X792180D01*
X775970Y252730D02*
X787844Y240856D01*
X769762Y252730D02*
X775970D01*
X767080Y255412D02*
X769762Y252730D01*
X767080Y255412D02*
Y259080D01*
X792782Y237460D02*
X798850D01*
X792180Y238062D02*
X792782Y237460D01*
X786686Y238062D02*
X792180D01*
X774812Y249936D02*
X786686Y238062D01*
X768604Y249936D02*
X774812D01*
X759460Y259080D02*
X768604Y249936D01*
X824040Y247460D02*
X828040Y243459D01*
X811101Y247460D02*
X824040D01*
X811101Y243459D02*
X820420D01*
X782231Y258991D02*
X782320Y259080D01*
X782231Y257645D02*
Y258991D01*
Y257645D02*
X787621Y252255D01*
X792546D01*
X793750Y253459D01*
X798850D01*
X774700Y259080D02*
X776986Y256794D01*
X779130D01*
X786463Y249461D01*
X798850D01*
X824040Y255460D02*
X828040Y259461D01*
X811101Y255460D02*
X824040D01*
X811101Y259461D02*
X820420D01*
D42*
X450850Y165100D02*
Y168948D01*
X448373Y171425D02*
X450850Y168948D01*
X438150Y171425D02*
X448373D01*
X360680Y111760D02*
Y121348D01*
X363157Y123825D01*
X379476D01*
X330200Y259080D02*
Y265430D01*
Y259080D02*
X334010Y255270D01*
X396875Y474980D02*
X405130D01*
X409725Y470385D01*
Y457200D02*
Y470385D01*
X727075Y474980D02*
Y482600D01*
X565150Y474980D02*
Y482600D01*
X323850Y474980D02*
Y482600D01*
X683260Y447040D02*
X685800D01*
X679450Y443230D02*
X683260Y447040D01*
X610870Y401320D02*
X615950Y406400D01*
X590550Y401320D02*
X610870D01*
X654050Y367030D02*
Y381000D01*
X641350Y419100D02*
Y433070D01*
X654050D01*
Y406400D02*
X659130Y411480D01*
X679450D01*
X654050Y419100D02*
Y433070D01*
X666750D01*
X473202Y373190D02*
Y381000D01*
X489204Y373190D02*
Y381000D01*
X396875Y405130D02*
X403225Y398780D01*
X396875Y405130D02*
Y414020D01*
X234950Y398780D02*
Y410210D01*
X688340Y327025D02*
X698500D01*
X685800Y347980D02*
Y353060D01*
X681990Y356870D02*
X685800Y353060D01*
X679450Y356870D02*
X681990D01*
X666750D02*
X679450D01*
X584200Y355600D02*
X589280D01*
X590550Y356870D01*
X368300Y327660D02*
Y331470D01*
Y327660D02*
X371856Y324104D01*
X376110D01*
X371475Y339725D02*
X375920D01*
X368300Y336550D02*
X371475Y339725D01*
X368300Y331470D02*
Y336550D01*
X378071Y360101D02*
X381000D01*
X376110Y358140D02*
X378071Y360101D01*
X376110Y352425D02*
Y358140D01*
X381000Y360101D02*
X382961D01*
X386080Y363220D01*
Y368300D01*
X309880Y346075D02*
X317500D01*
X337820D02*
Y355600D01*
X330200D02*
X337820D01*
X323850Y371475D02*
X334010D01*
X350520Y339090D02*
X355600D01*
X347980Y336550D02*
X350520Y339090D01*
X271780Y336550D02*
X284480D01*
X106680Y330200D02*
X115570D01*
X106680Y342900D02*
X115570D01*
X690880Y279654D02*
X698500D01*
X690880Y295656D02*
X698500D01*
X690880Y311658D02*
X698500D01*
X571500Y295656D02*
X579120D01*
X571500Y311658D02*
X579120D01*
X563880Y284099D02*
X571500D01*
X376110Y298102D02*
Y308102D01*
X368300D02*
X376110D01*
X309880Y279400D02*
Y288925D01*
Y279400D02*
X317500D01*
X243840Y324485D02*
Y333375D01*
Y324485D02*
X247650Y320675D01*
X250825D01*
X240030Y285750D02*
Y298450D01*
X247650D02*
X250825Y301625D01*
X240030Y298450D02*
X247650D01*
X240030Y309880D02*
X241300Y311150D01*
X240030Y298450D02*
Y309880D01*
X187325Y282575D02*
X194945D01*
X106680Y279400D02*
X115570D01*
X62230Y294640D02*
Y302260D01*
Y317500D01*
Y279400D02*
Y294640D01*
Y266700D02*
Y279400D01*
X53975Y294640D02*
X62230D01*
X50165Y298450D02*
X53975Y294640D01*
X50165Y298450D02*
X53975Y302260D01*
X62230D01*
X106680Y304800D02*
X115570D01*
X106680Y317500D02*
X115570D01*
X690880Y231648D02*
X698500D01*
X690880Y243650D02*
X698500D01*
X690880Y255651D02*
X698500D01*
X640080Y243650D02*
X659003D01*
X663003Y239649D01*
X571500Y231648D02*
X579120D01*
X571500Y271653D02*
X579120D01*
X563880D02*
X571500D01*
Y255651D02*
X579120D01*
X376110Y238095D02*
Y247650D01*
X368300D02*
X376110D01*
Y228600D02*
Y238095D01*
Y258097D02*
Y268097D01*
Y278099D01*
Y288099D01*
X368300Y268097D02*
X376110D01*
X334010Y255270D02*
X337820Y251460D01*
Y241300D02*
Y251460D01*
X334010Y255270D02*
X337820Y259080D01*
Y269875D01*
X330200Y280670D02*
X334010Y284480D01*
X330200Y273685D02*
Y280670D01*
X334010Y284480D02*
X337820Y280670D01*
Y269875D02*
Y280670D01*
X330200Y269875D02*
X337820D01*
X334010Y284480D02*
X337820Y288290D01*
Y298450D01*
X332740Y241300D02*
X337820D01*
X330200Y243840D02*
X332740Y241300D01*
X271145Y263525D02*
X282575D01*
X269875Y262255D02*
X271145Y263525D01*
X260350Y224155D02*
Y231140D01*
X230505Y263525D02*
X231775Y262255D01*
X219075Y263525D02*
X230505D01*
X818871Y189230D02*
Y196850D01*
X768071Y189230D02*
Y196850D01*
X690880Y207645D02*
X698500D01*
X690880Y191643D02*
X698500D01*
X690880Y219646D02*
X698500D01*
X629920D02*
Y231648D01*
Y212090D02*
Y219646D01*
X571500Y191643D02*
X579120D01*
X571500Y207645D02*
X579120D01*
X482600Y184150D02*
Y191770D01*
X473075D02*
X482600D01*
X434975D02*
X444500D01*
X454025D01*
X463550D01*
X473075D01*
X492125Y184150D02*
X508699D01*
X511175Y186626D01*
Y191770D01*
X492125Y184150D02*
Y191770D01*
X482600D02*
X492125D01*
X337820Y200025D02*
Y203263D01*
X330200Y203200D02*
Y203263D01*
X334010Y215900D02*
X337820Y212090D01*
Y203263D02*
Y212090D01*
X330200Y203263D02*
X337820D01*
X330200Y212090D02*
X334010Y215900D01*
X330200Y203263D02*
Y212090D01*
X299085Y219075D02*
X308229D01*
X294640Y214630D02*
X299085Y219075D01*
X294640Y207010D02*
Y214630D01*
X755599Y136296D02*
X770357D01*
X698437Y168275D02*
X698497Y168214D01*
X688340Y168275D02*
X698437D01*
X546100Y167005D02*
X553085D01*
X553720Y167640D01*
X520700Y186690D02*
Y191770D01*
Y186690D02*
X523240Y184150D01*
X528320D01*
X530860Y181610D01*
X539750D01*
Y167005D02*
Y181610D01*
Y167005D02*
X546100D01*
X533400D02*
X539750D01*
X434340Y140970D02*
X441960D01*
Y148615D01*
X438150Y152425D02*
X441960Y148615D01*
X434340Y140970D02*
Y148615D01*
X438150Y152425D01*
X379476Y123825D02*
Y136525D01*
Y161925D02*
X380111Y161290D01*
X393482D01*
X394970Y159802D01*
X402372D01*
X405285Y162715D01*
Y177645D01*
X395605Y187325D02*
X405285Y177645D01*
X379476Y187325D02*
X395605D01*
X360680Y161925D02*
X379476D01*
X69850Y171450D02*
X77470D01*
X69850Y158750D02*
X77470D01*
X360680Y85725D02*
X379476D01*
X294005Y101600D02*
Y111125D01*
Y101600D02*
X301625D01*
X492125Y167005D02*
Y184150D01*
X457200Y349187D02*
Y369570D01*
X425196Y373190D02*
X437200D01*
X439610D01*
X443230Y369570D01*
X457200D01*
X414238Y382488D02*
X415290Y383540D01*
X414238Y378803D02*
Y382488D01*
X413200Y377764D02*
X414238Y378803D01*
X413200Y373190D02*
Y377764D01*
X254000Y298450D02*
X261620D01*
X250825Y301625D02*
X254000Y298450D01*
X822325Y345440D02*
X829953Y337812D01*
Y304617D02*
Y337812D01*
X716059Y339440D02*
X722630D01*
X724406Y341216D01*
Y346204D01*
X721360Y349250D02*
X724406Y346204D01*
X330200Y269875D02*
Y273685D01*
Y265430D02*
Y269875D01*
X501650Y381000D02*
X505206Y377444D01*
Y373190D02*
Y377444D01*
X527050Y408940D02*
Y416560D01*
X501650Y408940D02*
Y416560D01*
X514350Y408940D02*
X527050D01*
X539750D02*
X552450D01*
X746760Y464820D02*
X755650D01*
X539750Y408940D02*
Y416560D01*
X361315Y111125D02*
X379476D01*
X360680Y111760D02*
X361315Y111125D01*
X54610Y171450D02*
X69850D01*
X48260Y165100D02*
X54610Y171450D01*
X43180Y165100D02*
X48260D01*
X261620Y285750D02*
Y298450D01*
X123675Y447675D02*
Y463164D01*
X125966Y465455D01*
X130175D01*
X107950Y447675D02*
Y455295D01*
X88750Y458554D02*
Y463164D01*
X91041Y465455D01*
X95250D01*
X130175D02*
X133985D01*
X136525Y462915D01*
Y457771D02*
Y462915D01*
Y457771D02*
X139002Y455295D01*
X142875D01*
X88750Y447675D02*
Y458554D01*
X60960Y457324D02*
X71120D01*
X72349Y458554D01*
X88750D01*
X130175Y414020D02*
X140889D01*
X140970Y414101D01*
X711073Y411439D02*
Y421513D01*
X717550Y427990D01*
X727624D01*
X739602Y439969D01*
Y449689D01*
X711073Y351442D02*
Y411439D01*
X739602Y449689D02*
X756394D01*
X759089Y452384D01*
X778246D01*
X752602Y304691D02*
Y316738D01*
X746760Y322580D02*
X752602Y316738D01*
X716280Y322580D02*
X746760D01*
X708025Y330835D02*
X716280Y322580D01*
X708025Y330835D02*
Y348615D01*
X710852Y351442D01*
X711073D01*
X28575Y302260D02*
X32385Y298450D01*
X19050Y302260D02*
X28575D01*
X19050Y294640D02*
X28575D01*
X32385Y298450D01*
X511175Y156845D02*
Y177800D01*
Y156845D02*
X517525D01*
X504825D02*
X511175D01*
X504825Y148590D02*
Y156845D01*
X517525Y148590D02*
Y156845D01*
X473075Y201930D02*
Y209550D01*
X386270Y268097D02*
X393192D01*
X386270Y258097D02*
Y268097D01*
X288925Y140970D02*
X292100Y137795D01*
Y130810D02*
Y137795D01*
X285750D02*
X288925Y140970D01*
X285750Y130810D02*
Y137795D01*
Y130810D02*
X292100D01*
X351790Y255270D02*
X355600Y259080D01*
Y266065D01*
X347980Y259080D02*
X351790Y255270D01*
X347980Y259080D02*
Y269875D01*
X351790Y284480D02*
X355600Y280670D01*
Y273685D02*
Y280670D01*
X347980D02*
X351790Y284480D01*
X347980Y269875D02*
Y280670D01*
X355600Y266065D02*
Y269875D01*
X347980D02*
X355600D01*
Y273685D01*
X347980Y288290D02*
X351790Y284480D01*
X347980Y288290D02*
Y298450D01*
Y251460D02*
X351790Y255270D01*
X347980Y241300D02*
Y251460D01*
X513207Y284099D02*
X553720D01*
X555600Y355600D02*
X558800Y358800D01*
X544830Y355600D02*
X555600D01*
X555650Y361950D02*
X558800Y358800D01*
X544830Y361950D02*
X555650D01*
X450850Y140970D02*
X458470D01*
X461010D01*
X463550Y143510D01*
Y152425D01*
X453415D02*
X463550D01*
X450850Y149860D02*
X453415Y152425D01*
X450850Y140970D02*
Y149860D01*
X330200Y323875D02*
Y332740D01*
Y323875D02*
X333400Y320675D01*
X330200Y339090D02*
X335280D01*
X337820Y336550D01*
X334010Y332740D02*
X337820Y336550D01*
X330200Y332740D02*
X334010D01*
X257175Y180340D02*
X260350Y183515D01*
X269240D01*
X257175Y180340D02*
X260350Y177165D01*
X269240D01*
Y183515D01*
X271780Y279336D02*
Y285750D01*
X269303Y276860D02*
X271780Y279336D01*
X262255Y276860D02*
X269303D01*
X271780Y285750D02*
Y298450D01*
X463550Y171425D02*
Y171450D01*
X458470Y176530D02*
X463550Y171450D01*
X458470Y176530D02*
Y184150D01*
X187325Y320675D02*
X194945D01*
X187325Y301625D02*
X194945D01*
X187325Y292100D02*
X194945D01*
X187325Y311150D02*
X194945D01*
X229870Y285750D02*
Y298450D01*
Y276860D02*
Y285750D01*
Y298450D02*
Y309880D01*
X226060Y313690D02*
X229870Y309880D01*
X226060Y313690D02*
Y333375D01*
X212725Y358775D02*
X225450D01*
X226060Y358165D01*
Y333375D02*
Y358165D01*
X106680Y292100D02*
X115570D01*
X212725Y330200D02*
X222885D01*
X226060Y333375D01*
X223520Y88900D02*
X226695Y85725D01*
X223520Y88900D02*
Y99060D01*
X229870D01*
X226695Y85725D02*
X229870Y88900D01*
Y99060D01*
X243840Y86995D02*
X245110Y85725D01*
X243840Y86995D02*
Y97790D01*
X245110Y99060D01*
X246380D01*
X252730D01*
X245110Y85725D02*
X251460Y92075D01*
Y97790D01*
X252730Y99060D01*
X285750Y173990D02*
X292100D01*
X288925Y163830D02*
X292100Y167005D01*
Y173990D01*
X285750Y167005D02*
X288925Y163830D01*
X285750Y167005D02*
Y173990D01*
X238125Y180340D02*
X242600Y184816D01*
Y191135D01*
X234950Y183515D02*
X238125Y180340D01*
X234950Y183515D02*
Y188595D01*
X232410Y191135D02*
X234950Y188595D01*
X229870Y191135D02*
X232410D01*
X238125Y124460D02*
X257175D01*
X238125Y114935D02*
Y124460D01*
Y114935D02*
X241300Y111760D01*
X758622Y142799D02*
X770357D01*
X755371Y146050D02*
X758622Y142799D01*
X755371Y146050D02*
X758622Y149301D01*
X770357D01*
X191135Y142240D02*
X200025D01*
X187960Y145415D02*
X191135Y142240D01*
X187960Y145415D02*
Y147955D01*
X87630Y158750D02*
X95250D01*
X108585D01*
X267970Y85725D02*
X271145Y88900D01*
Y99060D01*
X264795Y88900D02*
X267970Y85725D01*
X264795Y88900D02*
Y99060D01*
X271145D01*
X425196Y284099D02*
X426275Y285179D01*
Y292100D01*
X347980Y200025D02*
Y212090D01*
X351790Y215900D01*
X354330Y220980D02*
X360807D01*
X351790Y218440D02*
X354330Y220980D01*
X351790Y215900D02*
Y218440D01*
Y215900D02*
X353060Y214630D01*
X360807D01*
Y220980D01*
X396875Y457350D02*
Y464820D01*
X727075Y457200D02*
Y464820D01*
X717550D02*
X727075D01*
X698500D02*
X708025D01*
X688975D02*
X698500D01*
X679450D02*
X688975D01*
X669925D02*
X679450D01*
X660400D02*
X669925D01*
X650875D02*
X660400D01*
X641350D02*
X650875D01*
X631825D02*
X641350D01*
X622300D02*
X631825D01*
X612775D02*
X622300D01*
X603250D02*
X612775D01*
X565150Y457200D02*
Y464820D01*
X593725D02*
X603250D01*
X584200D02*
X593725D01*
X574675D02*
X584200D01*
X565150D02*
X574675D01*
X708025D02*
X717550D01*
X708025Y457200D02*
Y464820D01*
X688975Y457200D02*
Y464820D01*
X584200Y457200D02*
Y464820D01*
X831571Y189230D02*
Y196850D01*
X396875Y424180D02*
Y431800D01*
X497205Y332100D02*
Y332105D01*
X368300Y368300D02*
X375920D01*
X351790Y371475D02*
X356235Y375920D01*
X360807D01*
X347980Y367665D02*
X351790Y371475D01*
X347980Y355600D02*
Y367665D01*
Y346075D02*
Y355600D01*
X351790Y371475D02*
X354965Y368300D01*
X360807D01*
X347980Y355600D02*
X355600D01*
X497205Y316103D02*
X498284Y317183D01*
Y324104D01*
X260350Y213995D02*
X269875D01*
X274320Y209550D01*
X282321D01*
X269875Y213995D02*
Y231140D01*
X250825Y213995D02*
X260350D01*
X231775Y224155D02*
Y231140D01*
X434975Y201930D02*
Y209550D01*
X219075Y180340D02*
Y187960D01*
X223584Y192468D01*
Y196245D01*
X294005Y120650D02*
X301625D01*
X836953Y439908D02*
Y449763D01*
Y439908D02*
X837148Y439712D01*
Y414238D02*
Y439712D01*
X831850Y408940D02*
X837148Y414238D01*
X553720Y101600D02*
Y109220D01*
X292100Y474980D02*
Y482600D01*
X488950Y457200D02*
Y464820D01*
X438150Y457200D02*
Y464820D01*
X463550Y457200D02*
Y464820D01*
X476250Y457200D02*
Y464820D01*
X450850Y457200D02*
Y464820D01*
X425450Y457200D02*
Y464820D01*
X386080Y384175D02*
X393700D01*
X273050Y457200D02*
Y464820D01*
X234950Y427990D02*
Y439420D01*
X260350Y457200D02*
Y464820D01*
X247650Y457200D02*
Y464820D01*
X234950Y457200D02*
Y464820D01*
X309880Y336550D02*
X317500D01*
X309880Y298450D02*
Y307975D01*
X261620Y331511D02*
X284480Y308651D01*
X261620Y331511D02*
Y336550D01*
X87630Y171450D02*
Y175260D01*
X85090Y177800D02*
X87630Y175260D01*
X80010Y177800D02*
X85090D01*
X77470Y180340D02*
X80010Y177800D01*
X77470Y180340D02*
Y184150D01*
X325374Y98425D02*
X342900D01*
X479425Y145415D02*
Y156845D01*
Y145415D02*
X482600Y142240D01*
X519430D01*
X525780Y148590D01*
X87630Y171450D02*
X95250D01*
X108585D01*
X555650Y374650D02*
X558800Y377800D01*
X544830Y374650D02*
X555650D01*
X555600Y381000D02*
X558800Y377800D01*
X544830Y381000D02*
X555600D01*
X679450Y401320D02*
X685800D01*
Y427551D02*
Y433070D01*
X679450D02*
X685800D01*
Y438150D01*
X586740Y411480D02*
X590550D01*
X584200Y414020D02*
X586740Y411480D01*
X584200Y414020D02*
Y417830D01*
X666750Y367030D02*
Y372110D01*
X670560Y375920D01*
X685800D01*
X654050Y351790D02*
Y356870D01*
Y351790D02*
X657499Y348341D01*
X584200Y373380D02*
X586740D01*
X590550Y369570D01*
Y367030D02*
Y369570D01*
X641350Y443230D02*
X646430D01*
Y452120D01*
Y443230D02*
X654050D01*
X763270Y276225D02*
X786351D01*
X792096Y270480D01*
X746125Y269875D02*
X763270D01*
Y276225D01*
Y282575D01*
X660400Y327025D02*
X670560D01*
X663003Y311658D02*
X680720D01*
X671004Y295656D02*
X680720D01*
X671004Y279654D02*
X680720D01*
X589280Y295656D02*
X598996D01*
X589280Y311658D02*
X598996D01*
X671004Y255651D02*
X680720D01*
X675005Y243650D02*
X680720D01*
X663003Y231648D02*
X675005Y243650D01*
X640080Y255651D02*
X647001D01*
X655003Y263652D01*
X589280Y271653D02*
X598996D01*
X589280Y231648D02*
X594868Y226060D01*
X601409D01*
X606996Y231648D01*
X589280Y255651D02*
X595249Y261620D01*
X601027D01*
X606996Y255651D01*
X520700Y201930D02*
X521970Y203200D01*
X528320D01*
X535940D02*
X539750Y199390D01*
X528320Y203200D02*
X535940D01*
X528320Y195580D02*
Y203200D01*
X535940Y195580D02*
X539750Y199390D01*
X528320Y195580D02*
X535940D01*
X552450Y156845D02*
X553720Y158115D01*
X546100Y156845D02*
X552450D01*
X533400D02*
X546100D01*
X640080Y183642D02*
Y191643D01*
X671004D02*
X680720D01*
X671004Y207645D02*
X680720D01*
X589280Y191643D02*
X598996D01*
X589280Y207645D02*
X598996D01*
X660400Y168275D02*
X670560D01*
X201295Y71120D02*
X207645D01*
X191770D02*
X201295D01*
X187960Y74930D02*
X191770Y71120D01*
X187960Y74930D02*
Y81280D01*
X207010Y88900D02*
Y99060D01*
X203835Y85725D02*
X207010Y88900D01*
X200660D02*
X203835Y85725D01*
X200660Y88900D02*
Y99060D01*
X207010D01*
X190436D02*
X200660D01*
X187960Y96583D02*
X190436Y99060D01*
X187960Y91440D02*
Y96583D01*
X467551Y363030D02*
X473202D01*
X464820Y365760D02*
X467551Y363030D01*
X464820Y365760D02*
Y372110D01*
X461228Y375702D02*
X464820Y372110D01*
X445988Y375702D02*
X461228D01*
X440690Y381000D02*
X445988Y375702D01*
X422801Y381000D02*
X440690D01*
X419100Y377299D02*
X422801Y381000D01*
X419100Y365760D02*
Y377299D01*
X416370Y363030D02*
X419100Y365760D01*
X413200Y363030D02*
X416370D01*
X109220Y195580D02*
X109284Y195516D01*
X124396D01*
X170180Y241300D01*
X281940D01*
X285750Y237490D01*
X322580D01*
X330200Y229870D01*
X363220D01*
X378297Y214793D01*
X388783D01*
X392430Y218440D01*
Y227330D01*
X816585Y142799D02*
X831494D01*
X816585Y136296D02*
X831494D01*
X816585Y149301D02*
X831494D01*
X818871Y171450D02*
Y179070D01*
D43*
X473200Y276101D02*
X473202Y276098D01*
Y269177D02*
Y276098D01*
X481203D02*
X488125D01*
X481203Y308102D02*
X488125D01*
X478282Y287020D02*
X481203Y284099D01*
X478282Y287020D02*
Y292100D01*
X481203Y324104D02*
X488125D01*
X474282D02*
X481203D01*
X473202Y325183D02*
X474282Y324104D01*
X489202Y284102D02*
X489204Y284099D01*
X489202Y284102D02*
Y291023D01*
X488125Y292100D02*
X489202Y291023D01*
X458279Y300101D02*
X465201D01*
X457200Y299021D02*
X458279Y300101D01*
X446278Y297180D02*
X449199Y300101D01*
X446278Y292100D02*
Y297180D01*
X449199Y284099D02*
X455828D01*
X457200Y285179D01*
X462277Y319024D02*
X465201Y316101D01*
X457200Y319024D02*
X462277D01*
X441198Y308102D02*
Y315023D01*
X417195Y316103D02*
Y323024D01*
X416115Y324104D02*
X417195Y323024D01*
X433197Y268097D02*
X440118D01*
X441198Y269177D01*
X426275Y276098D02*
X433197D01*
X462277Y265176D02*
X465201Y268099D01*
X457200Y265176D02*
X462277D01*
X804819Y189149D02*
X806171Y190500D01*
X797860Y189149D02*
X804819D01*
X416115Y308102D02*
X417195Y309181D01*
Y316103D01*
X473200Y308099D02*
X473202Y308102D01*
Y315023D01*
X469202Y296103D02*
X473200Y300101D01*
X469202Y293179D02*
Y296103D01*
X468122Y292100D02*
X469202Y293179D01*
X473200Y300101D02*
X489204D01*
X436118Y295021D02*
X441198Y300101D01*
X436118Y292100D02*
Y295021D01*
Y287020D02*
Y292100D01*
X433197Y284099D02*
X436118Y287020D01*
X433197Y284099D02*
X441198Y276098D01*
X458282Y308099D02*
X465201D01*
X457200Y309181D02*
X458282Y308099D01*
X456120Y308102D02*
X457200Y309181D01*
X449199Y308102D02*
X456120D01*
X449199Y276098D02*
X450279Y275019D01*
X457200D01*
X425196Y316103D02*
Y323024D01*
X426275Y324104D01*
X425196Y316103D02*
X433197D01*
X461195Y328105D02*
X465201Y324099D01*
X458279Y328105D02*
X461195D01*
X457200Y329184D02*
X458279Y328105D01*
X398272Y308102D02*
X401193D01*
X389255Y299085D02*
X398272Y308102D01*
X387253Y299085D02*
X389255D01*
X386270Y298102D02*
X387253Y299085D01*
X481203Y268097D02*
X489204D01*
X474282Y260096D02*
X481203D01*
X473202Y259016D02*
X474282Y260096D01*
X481203D02*
Y268097D01*
X388874Y352425D02*
X401193Y340106D01*
X386270Y352425D02*
X388874D01*
X449199Y252095D02*
X456120Y245173D01*
X457200D01*
X441198Y325183D02*
Y332105D01*
X434277Y259016D02*
X441198D01*
X433197Y260096D02*
X434277Y259016D01*
X449199Y332105D02*
X456120Y339026D01*
X457200D01*
X425196Y300101D02*
X426275Y301180D01*
Y308102D01*
X399156Y314066D02*
X409194Y324104D01*
X398109Y314066D02*
X399156D01*
X392146Y308102D02*
X398109Y314066D01*
X386270Y308102D02*
X392146D01*
X449199Y260096D02*
X454279Y255016D01*
X457200D01*
X417195Y261175D02*
Y268097D01*
X416115Y260096D02*
X417195Y261175D01*
Y268097D02*
Y275019D01*
X416115Y276098D02*
X417195Y275019D01*
Y277178D02*
Y284099D01*
X416115Y276098D02*
X417195Y277178D01*
X497205Y307022D02*
X498284Y308102D01*
X497205Y300101D02*
Y307022D01*
Y275019D02*
X498284Y276098D01*
X497205Y268097D02*
Y275019D01*
Y261175D02*
Y268097D01*
Y261175D02*
X498284Y260096D01*
X497205Y277178D02*
X498284Y276098D01*
X497205Y277178D02*
Y284099D01*
Y291021D01*
X498284Y292100D01*
X497205Y293179D02*
Y300101D01*
Y293179D02*
X498284Y292100D01*
X413192Y352618D02*
Y359085D01*
X413200Y359092D01*
Y363030D01*
X818789Y179151D02*
X818871Y179070D01*
X797860Y179151D02*
X818789D01*
D44*
X553720Y119380D02*
X560070D01*
X562610Y116840D01*
X304800Y414020D02*
X311150D01*
X315951Y418821D01*
Y421599D01*
X342900Y406400D02*
Y414020D01*
X285750Y424180D02*
X292100D01*
X280949Y419379D02*
X285750Y424180D01*
X280949Y416601D02*
Y419379D01*
X254000Y406400D02*
Y414020D01*
X426275Y261175D02*
X433197Y268097D01*
X426275Y260096D02*
Y261175D01*
X433197Y268097D02*
Y276098D01*
X447904Y124054D02*
X450850Y127000D01*
X433832Y124054D02*
X447904D01*
X502793Y106807D02*
X511048D01*
X500380Y109220D02*
X502793Y106807D01*
X500380Y109220D02*
Y119380D01*
X502793Y121793D01*
X511048D01*
X520827D01*
X528320Y114300D01*
Y105410D02*
Y114300D01*
Y105410D02*
X532130Y101600D01*
X544830D01*
X450850Y104546D02*
X467868D01*
X450850Y101600D02*
Y104546D01*
Y111049D01*
X467868D01*
X452831Y117551D02*
X467868D01*
X450850Y115570D02*
X452831Y117551D01*
X450850Y111049D02*
Y115570D01*
X551307Y106807D02*
X553720Y109220D01*
X540512Y106807D02*
X551307D01*
X551129Y111811D02*
X553720Y109220D01*
X540512Y111811D02*
X551129D01*
X342900Y424180D02*
Y431800D01*
X305951D02*
Y436601D01*
X304800Y430649D02*
X305951Y431800D01*
X304800Y424180D02*
Y430649D01*
X311150Y426601D02*
X315951D01*
X308729Y424180D02*
X311150Y426601D01*
X304800Y424180D02*
X308729D01*
X254000D02*
Y429260D01*
X256339Y431599D01*
X260350D01*
X280949Y411599D02*
X285750D01*
X288171Y414020D01*
X292100D01*
X290949Y401320D02*
Y406400D01*
X292100Y407551D01*
Y414020D01*
X413192Y336108D02*
X417195Y332105D01*
X392684Y324104D02*
X396687Y328107D01*
X386270Y324104D02*
X392684D01*
X270844Y-108388D02*
X269634Y-105970D01*
X267216Y-103551D01*
X264797Y-102342D01*
X259960D01*
X257542Y-103551D01*
X255123Y-105970D01*
X253914Y-108388D01*
X252705Y-112016D01*
Y-118062D01*
X253914Y-121690D01*
X255123Y-124109D01*
X257542Y-126527D01*
X259960Y-127737D01*
X264797D01*
X267216Y-126527D01*
X269634Y-124109D01*
X270844Y-121690D01*
X280397Y-102342D02*
X281606Y-103551D01*
X282815Y-102342D01*
X281606Y-101133D01*
X280397Y-102342D01*
X281606Y-110807D02*
Y-127737D01*
X287290Y-110807D02*
Y-127737D01*
Y-118062D02*
X288499Y-114435D01*
X290917Y-112016D01*
X293336Y-110807D01*
X296964D01*
X313773Y-114435D02*
X311354Y-112016D01*
X308935Y-110807D01*
X305308D01*
X302889Y-112016D01*
X300471Y-114435D01*
X299261Y-118062D01*
Y-120481D01*
X300471Y-124109D01*
X302889Y-126527D01*
X305308Y-127737D01*
X308935D01*
X311354Y-126527D01*
X313773Y-124109D01*
X319214Y-110807D02*
Y-122900D01*
X320423Y-126527D01*
X322842Y-127737D01*
X326470D01*
X328888Y-126527D01*
X332516Y-122900D01*
Y-110807D02*
Y-127737D01*
X341586Y-102342D02*
X342795Y-103551D01*
X344004Y-102342D01*
X342795Y-101133D01*
X341586Y-102342D01*
X342795Y-110807D02*
Y-127737D01*
X352106Y-102342D02*
Y-122900D01*
X353315Y-126527D01*
X355734Y-127737D01*
X358153D01*
X348478Y-110807D02*
X356943D01*
X399872Y-108388D02*
X398663Y-105970D01*
X396244Y-103551D01*
X393826Y-102342D01*
X388989D01*
X386570Y-103551D01*
X384152Y-105970D01*
X382942Y-108388D01*
X381733Y-112016D01*
Y-118062D01*
X382942Y-121690D01*
X384152Y-124109D01*
X386570Y-126527D01*
X388989Y-127737D01*
X393826D01*
X396244Y-126527D01*
X398663Y-124109D01*
X399872Y-121690D01*
X413053Y-110807D02*
X410635Y-112016D01*
X408216Y-114435D01*
X407007Y-118062D01*
Y-120481D01*
X408216Y-124109D01*
X410635Y-126527D01*
X413053Y-127737D01*
X416681D01*
X419099Y-126527D01*
X421518Y-124109D01*
X422727Y-120481D01*
Y-118062D01*
X421518Y-114435D01*
X419099Y-112016D01*
X416681Y-110807D01*
X413053D01*
X429499Y-125318D02*
X428290Y-126527D01*
X429499Y-127737D01*
X430708Y-126527D01*
X429499Y-125318D01*
X260350Y-242575D02*
Y-267970D01*
Y-242575D02*
X268815D01*
X272443Y-243785D01*
X274861Y-246203D01*
X276070Y-248622D01*
X277280Y-252250D01*
Y-258296D01*
X276070Y-261924D01*
X274861Y-264342D01*
X272443Y-266761D01*
X268815Y-267970D01*
X260350D01*
X302311D02*
X292637Y-242575D01*
X282963Y-267970D01*
X286591Y-259505D02*
X298684D01*
X316702Y-242575D02*
Y-267970D01*
X308237Y-242575D02*
X325167D01*
X343910D02*
X328190D01*
Y-267970D01*
X343910D01*
X328190Y-254668D02*
X337864D01*
X349352Y-251040D02*
X348143Y-252250D01*
X349352Y-253459D01*
X350561Y-252250D01*
X349352Y-251040D01*
Y-265551D02*
X348143Y-266761D01*
X349352Y-267970D01*
X350561Y-266761D01*
X349352Y-265551D01*
X413656Y-242575D02*
X410028Y-243785D01*
X407609Y-247412D01*
X406400Y-253459D01*
Y-257087D01*
X407609Y-263133D01*
X410028Y-266761D01*
X413656Y-267970D01*
X416074D01*
X419702Y-266761D01*
X422120Y-263133D01*
X423330Y-257087D01*
Y-253459D01*
X422120Y-247412D01*
X419702Y-243785D01*
X416074Y-242575D01*
X413656D01*
X441106D02*
X429013Y-259505D01*
X447152D01*
X441106Y-242575D02*
Y-267970D01*
X451627Y-271598D02*
X468556Y-242575D01*
X477505D02*
X473877Y-243785D01*
X471458Y-247412D01*
X470249Y-253459D01*
Y-257087D01*
X471458Y-263133D01*
X473877Y-266761D01*
X477505Y-267970D01*
X479923D01*
X483551Y-266761D01*
X485970Y-263133D01*
X487179Y-257087D01*
Y-253459D01*
X485970Y-247412D01*
X483551Y-243785D01*
X479923Y-242575D01*
X477505D01*
X494072Y-248622D02*
Y-247412D01*
X495281Y-244994D01*
X496490Y-243785D01*
X498909Y-242575D01*
X503746D01*
X506164Y-243785D01*
X507374Y-244994D01*
X508583Y-247412D01*
Y-249831D01*
X507374Y-252250D01*
X504955Y-255877D01*
X492862Y-267970D01*
X509792D01*
X515476Y-271598D02*
X532405Y-242575D01*
X535308Y-248622D02*
Y-247412D01*
X536517Y-244994D01*
X537726Y-243785D01*
X540145Y-242575D01*
X544982D01*
X547400Y-243785D01*
X548610Y-244994D01*
X549819Y-247412D01*
Y-249831D01*
X548610Y-252250D01*
X546191Y-255877D01*
X534098Y-267970D01*
X551028D01*
X563967Y-242575D02*
X560339Y-243785D01*
X557921Y-247412D01*
X556712Y-253459D01*
Y-257087D01*
X557921Y-263133D01*
X560339Y-266761D01*
X563967Y-267970D01*
X566386D01*
X570013Y-266761D01*
X572432Y-263133D01*
X573641Y-257087D01*
Y-253459D01*
X572432Y-247412D01*
X570013Y-243785D01*
X566386Y-242575D01*
X563967D01*
X579325Y-247412D02*
X581743Y-246203D01*
X585371Y-242575D01*
Y-267970D01*
X600366Y-242575D02*
X613668D01*
X606412Y-252250D01*
X610040D01*
X612459Y-253459D01*
X613668Y-254668D01*
X614877Y-258296D01*
Y-260714D01*
X613668Y-264342D01*
X611249Y-266761D01*
X607622Y-267970D01*
X603994D01*
X600366Y-266761D01*
X599157Y-265551D01*
X597947Y-263133D01*
X270844Y-108388D02*
X269634Y-105970D01*
X267216Y-103551D01*
X264797Y-102342D01*
X259960D01*
X257542Y-103551D01*
X255123Y-105970D01*
X253914Y-108388D01*
X252705Y-112016D01*
Y-118062D01*
X253914Y-121690D01*
X255123Y-124109D01*
X257542Y-126527D01*
X259960Y-127737D01*
X264797D01*
X267216Y-126527D01*
X269634Y-124109D01*
X270844Y-121690D01*
X280397Y-102342D02*
X281606Y-103551D01*
X282815Y-102342D01*
X281606Y-101133D01*
X280397Y-102342D01*
X281606Y-110807D02*
Y-127737D01*
X287290Y-110807D02*
Y-127737D01*
Y-118062D02*
X288499Y-114435D01*
X290917Y-112016D01*
X293336Y-110807D01*
X296964D01*
X313773Y-114435D02*
X311354Y-112016D01*
X308935Y-110807D01*
X305308D01*
X302889Y-112016D01*
X300471Y-114435D01*
X299261Y-118062D01*
Y-120481D01*
X300471Y-124109D01*
X302889Y-126527D01*
X305308Y-127737D01*
X308935D01*
X311354Y-126527D01*
X313773Y-124109D01*
X319214Y-110807D02*
Y-122900D01*
X320423Y-126527D01*
X322842Y-127737D01*
X326470D01*
X328888Y-126527D01*
X332516Y-122900D01*
Y-110807D02*
Y-127737D01*
X341586Y-102342D02*
X342795Y-103551D01*
X344004Y-102342D01*
X342795Y-101133D01*
X341586Y-102342D01*
X342795Y-110807D02*
Y-127737D01*
X352106Y-102342D02*
Y-122900D01*
X353315Y-126527D01*
X355734Y-127737D01*
X358153D01*
X348478Y-110807D02*
X356943D01*
X399872Y-108388D02*
X398663Y-105970D01*
X396244Y-103551D01*
X393826Y-102342D01*
X388989D01*
X386570Y-103551D01*
X384152Y-105970D01*
X382942Y-108388D01*
X381733Y-112016D01*
Y-118062D01*
X382942Y-121690D01*
X384152Y-124109D01*
X386570Y-126527D01*
X388989Y-127737D01*
X393826D01*
X396244Y-126527D01*
X398663Y-124109D01*
X399872Y-121690D01*
X413053Y-110807D02*
X410635Y-112016D01*
X408216Y-114435D01*
X407007Y-118062D01*
Y-120481D01*
X408216Y-124109D01*
X410635Y-126527D01*
X413053Y-127737D01*
X416681D01*
X419099Y-126527D01*
X421518Y-124109D01*
X422727Y-120481D01*
Y-118062D01*
X421518Y-114435D01*
X419099Y-112016D01*
X416681Y-110807D01*
X413053D01*
X429499Y-125318D02*
X428290Y-126527D01*
X429499Y-127737D01*
X430708Y-126527D01*
X429499Y-125318D01*
X260350Y-242575D02*
Y-267970D01*
Y-242575D02*
X268815D01*
X272443Y-243785D01*
X274861Y-246203D01*
X276070Y-248622D01*
X277280Y-252250D01*
Y-258296D01*
X276070Y-261924D01*
X274861Y-264342D01*
X272443Y-266761D01*
X268815Y-267970D01*
X260350D01*
X302311D02*
X292637Y-242575D01*
X282963Y-267970D01*
X286591Y-259505D02*
X298684D01*
X316702Y-242575D02*
Y-267970D01*
X308237Y-242575D02*
X325167D01*
X343910D02*
X328190D01*
Y-267970D01*
X343910D01*
X328190Y-254668D02*
X337864D01*
X349352Y-251040D02*
X348143Y-252250D01*
X349352Y-253459D01*
X350561Y-252250D01*
X349352Y-251040D01*
Y-265551D02*
X348143Y-266761D01*
X349352Y-267970D01*
X350561Y-266761D01*
X349352Y-265551D01*
X413656Y-242575D02*
X410028Y-243785D01*
X407609Y-247412D01*
X406400Y-253459D01*
Y-257087D01*
X407609Y-263133D01*
X410028Y-266761D01*
X413656Y-267970D01*
X416074D01*
X419702Y-266761D01*
X422120Y-263133D01*
X423330Y-257087D01*
Y-253459D01*
X422120Y-247412D01*
X419702Y-243785D01*
X416074Y-242575D01*
X413656D01*
X441106D02*
X429013Y-259505D01*
X447152D01*
X441106Y-242575D02*
Y-267970D01*
X451627Y-271598D02*
X468556Y-242575D01*
X477505D02*
X473877Y-243785D01*
X471458Y-247412D01*
X470249Y-253459D01*
Y-257087D01*
X471458Y-263133D01*
X473877Y-266761D01*
X477505Y-267970D01*
X479923D01*
X483551Y-266761D01*
X485970Y-263133D01*
X487179Y-257087D01*
Y-253459D01*
X485970Y-247412D01*
X483551Y-243785D01*
X479923Y-242575D01*
X477505D01*
X494072Y-248622D02*
Y-247412D01*
X495281Y-244994D01*
X496490Y-243785D01*
X498909Y-242575D01*
X503746D01*
X506164Y-243785D01*
X507374Y-244994D01*
X508583Y-247412D01*
Y-249831D01*
X507374Y-252250D01*
X504955Y-255877D01*
X492862Y-267970D01*
X509792D01*
X515476Y-271598D02*
X532405Y-242575D01*
X535308Y-248622D02*
Y-247412D01*
X536517Y-244994D01*
X537726Y-243785D01*
X540145Y-242575D01*
X544982D01*
X547400Y-243785D01*
X548610Y-244994D01*
X549819Y-247412D01*
Y-249831D01*
X548610Y-252250D01*
X546191Y-255877D01*
X534098Y-267970D01*
X551028D01*
X563967Y-242575D02*
X560339Y-243785D01*
X557921Y-247412D01*
X556712Y-253459D01*
Y-257087D01*
X557921Y-263133D01*
X560339Y-266761D01*
X563967Y-267970D01*
X566386D01*
X570013Y-266761D01*
X572432Y-263133D01*
X573641Y-257087D01*
Y-253459D01*
X572432Y-247412D01*
X570013Y-243785D01*
X566386Y-242575D01*
X563967D01*
X579325Y-247412D02*
X581743Y-246203D01*
X585371Y-242575D01*
Y-267970D01*
X600366Y-242575D02*
X613668D01*
X606412Y-252250D01*
X610040D01*
X612459Y-253459D01*
X613668Y-254668D01*
X614877Y-258296D01*
Y-260714D01*
X613668Y-264342D01*
X611249Y-266761D01*
X607622Y-267970D01*
X603994D01*
X600366Y-266761D01*
X599157Y-265551D01*
X597947Y-263133D01*
D45*
X494347Y254953D02*
X497205Y252095D01*
X492585Y254953D02*
X494347D01*
X488125Y259413D02*
X492585Y254953D01*
X488125Y259413D02*
Y260096D01*
X630580Y111760D02*
Y122530D01*
X628650Y124460D02*
X630580Y122530D01*
X622300Y124460D02*
X628650D01*
X792096Y270480D02*
X793115Y269461D01*
X798850D01*
D46*
X292100Y323532D02*
Y327025D01*
Y323532D02*
X293370Y322262D01*
X308610D01*
X309880Y320993D01*
Y317500D02*
Y320993D01*
X811101Y251460D02*
X828040D01*
X449199Y242951D02*
Y244094D01*
Y242951D02*
X457136Y235014D01*
X457200D01*
X820420Y236220D02*
X828040D01*
X817179Y239461D02*
X820420Y236220D01*
X811101Y239461D02*
X817179D01*
X821055Y267335D02*
X828040D01*
X817179Y263459D02*
X821055Y267335D01*
X811101Y263459D02*
X817179D01*
X789940Y245460D02*
X798850D01*
X789940Y259080D02*
X791561Y257460D01*
X798850D01*
X309880Y307975D02*
Y311467D01*
X308610Y312738D02*
X309880Y311467D01*
X288567Y312738D02*
X308610D01*
X284480Y308651D02*
X288567Y312738D01*
D47*
X196850Y501650D02*
Y527050D01*
X755650Y19050D02*
Y44450D01*
X196850Y19050D02*
Y44450D01*
X247650Y19050D02*
Y44450D01*
X273050Y19050D02*
Y44450D01*
X222250Y19050D02*
Y44450D01*
X69850Y-193675D02*
X92075D01*
X57150Y-184150D02*
X66675Y-193675D01*
X79375D01*
X57150Y-184150D02*
Y-171450D01*
X66675Y-161925D01*
X79375D01*
X136525Y-193675D02*
X149225D01*
X158750Y-184150D01*
X136525Y-193675D02*
Y-161925D01*
X149225D02*
X158750Y-171450D01*
X136525Y-161925D02*
X149225D01*
X92075Y-193675D02*
Y-177800D01*
X123825Y-193675D02*
X142875D01*
X123825D02*
Y-177800D01*
X92075D02*
X107950Y-161925D01*
X92075Y-184150D02*
X123825D01*
X107950Y-161925D02*
X123825Y-177800D01*
X130175Y-161925D02*
X139700D01*
X158750Y-184150D02*
Y-171450D01*
D48*
X704850Y133350D02*
X717550Y146050D01*
Y241300D01*
X746125Y269875D01*
X711835Y111760D02*
X733425Y133350D01*
X688950Y111760D02*
X711835D01*
X649580D02*
X669950D01*
X831494Y129464D02*
Y136296D01*
X823951Y121920D02*
X831494Y129464D01*
X744220Y121920D02*
X823951D01*
X720090Y97790D02*
X744220Y121920D01*
X673100Y97790D02*
X720090D01*
X669950Y100940D02*
X673100Y97790D01*
X669950Y100940D02*
Y111760D01*
X831494Y136296D02*
Y142799D01*
Y149301D01*
X-1295Y-286487D02*
Y-76937D01*
Y-286487D02*
X868655D01*
Y-76937D01*
X-1295D02*
X868655D01*
X227305Y-286487D02*
Y-76937D01*
Y-146787D02*
X868655D01*
X227305Y-216637D02*
X868655D01*
X424155D02*
Y-146787D01*
X-1295Y-286487D02*
Y-76937D01*
Y-286487D02*
X868655D01*
Y-76937D01*
X-1295D02*
X868655D01*
X227305Y-286487D02*
Y-76937D01*
Y-146787D02*
X868655D01*
X227305Y-216637D02*
X868655D01*
X424155D02*
Y-146787D01*
D49*
X51816Y95250D02*
Y119126D01*
X57150Y124460D01*
X73660D01*
X139700Y158750D02*
X164465D01*
X139700Y171450D02*
X164465D01*
X139700Y184150D02*
X164465D01*
X139700D02*
Y193675D01*
Y148590D02*
Y158750D01*
Y148590D02*
X142240Y146050D01*
X164465D01*
X139700Y171450D02*
Y184150D01*
Y158750D02*
Y171450D01*
X111760Y95250D02*
Y120650D01*
X107950Y124460D02*
X111760Y120650D01*
X91440Y124460D02*
X107950D01*
X367157Y316103D02*
X385191D01*
X362585Y320675D02*
X367157Y316103D01*
X352400Y320675D02*
X362585D01*
D50*
X788787Y464937D02*
X806450Y482600D01*
X824113Y500263D01*
X788787D02*
X806450Y482600D01*
X824113Y464937D01*
X788787Y45837D02*
X806450Y63500D01*
X824113Y81163D01*
X788787D02*
X806450Y63500D01*
X824113Y45837D01*
X128387Y496687D02*
X146050Y514350D01*
X163713Y532013D01*
X128387D02*
X146050Y514350D01*
X163713Y496687D01*
X128387Y14087D02*
X146050Y31750D01*
X163713Y49413D01*
X128387D02*
X146050Y31750D01*
X163713Y14087D01*
D51*
X119380Y418846D02*
Y419100D01*
X118364Y417830D02*
X119380Y418846D01*
X116431Y417830D02*
X118364D01*
X115415Y418846D02*
X116431Y417830D01*
X115415Y418846D02*
Y425450D01*
X114399Y426466D02*
X115415Y425450D01*
X87884Y426466D02*
X114399D01*
X78994Y435356D02*
X87884Y426466D01*
X72390Y435356D02*
X78994D01*
X70358Y433324D02*
X72390Y435356D01*
X60960Y433324D02*
X70358D01*
X118222Y426608D02*
X119380Y425450D01*
X118209Y426608D02*
X118222D01*
X115557Y429260D02*
X118209Y426608D01*
X89042Y429260D02*
X115557D01*
X80152Y438150D02*
X89042Y429260D01*
X72390Y438150D02*
X80152D01*
X69215Y441325D02*
X72390Y438150D01*
X60960Y441325D02*
X69215D01*
X780771Y177800D02*
X782122Y179151D01*
X789081D01*
X776806Y175415D02*
X780771Y171450D01*
X776806Y175415D02*
Y179443D01*
X779308Y181945D01*
X783311D01*
X785515Y184150D01*
X789081D01*
D52*
X263311Y-191228D02*
X261981Y-189898D01*
X259986Y-189233D01*
X257325D01*
X255330Y-189898D01*
X254000Y-191228D01*
Y-192558D01*
X254665Y-193889D01*
X255330Y-194554D01*
X256660Y-195219D01*
X260651Y-196549D01*
X261981Y-197214D01*
X262646Y-197879D01*
X263311Y-199209D01*
Y-201205D01*
X261981Y-202535D01*
X259986Y-203200D01*
X257325D01*
X255330Y-202535D01*
X254000Y-201205D01*
X270428Y-189233D02*
X269098Y-189898D01*
X267768Y-191228D01*
X267102Y-192558D01*
X266437Y-194554D01*
Y-197879D01*
X267102Y-199874D01*
X267768Y-201205D01*
X269098Y-202535D01*
X270428Y-203200D01*
X273088D01*
X274418Y-202535D01*
X275749Y-201205D01*
X276414Y-199874D01*
X277079Y-197879D01*
Y-194554D01*
X276414Y-192558D01*
X275749Y-191228D01*
X274418Y-189898D01*
X273088Y-189233D01*
X270428D01*
X280338D02*
Y-203200D01*
X288319D01*
X289849Y-189233D02*
Y-203200D01*
Y-189233D02*
X294504D01*
X296500Y-189898D01*
X297830Y-191228D01*
X298495Y-192558D01*
X299160Y-194554D01*
Y-197879D01*
X298495Y-199874D01*
X297830Y-201205D01*
X296500Y-202535D01*
X294504Y-203200D01*
X289849D01*
X310932Y-189233D02*
X302286D01*
Y-203200D01*
X310932D01*
X302286Y-195884D02*
X307607D01*
X313260Y-189233D02*
Y-203200D01*
Y-189233D02*
X319246D01*
X321241Y-189898D01*
X321906Y-190563D01*
X322571Y-191893D01*
Y-193224D01*
X321906Y-194554D01*
X321241Y-195219D01*
X319246Y-195884D01*
X313260D01*
X317916D02*
X322571Y-203200D01*
X254000Y-163833D02*
Y-177800D01*
X261981D01*
X274152D02*
X268832Y-163833D01*
X263511Y-177800D01*
X265506Y-173144D02*
X272157D01*
X277411Y-163833D02*
X282732Y-170484D01*
Y-177800D01*
X288053Y-163833D02*
X282732Y-170484D01*
X298495Y-163833D02*
X289849D01*
Y-177800D01*
X298495D01*
X289849Y-170484D02*
X295169D01*
X300823Y-163833D02*
Y-177800D01*
Y-163833D02*
X306809D01*
X308804Y-164498D01*
X309469Y-165163D01*
X310134Y-166493D01*
Y-167824D01*
X309469Y-169154D01*
X308804Y-169819D01*
X306809Y-170484D01*
X300823D01*
X305478D02*
X310134Y-177800D01*
X332215Y-165828D02*
X331550Y-164498D01*
X329555Y-163833D01*
X328225D01*
X326229Y-164498D01*
X324899Y-166493D01*
X324234Y-169819D01*
Y-173144D01*
X324899Y-175805D01*
X326229Y-177135D01*
X328225Y-177800D01*
X328890D01*
X330885Y-177135D01*
X332215Y-175805D01*
X332880Y-173809D01*
Y-173144D01*
X332215Y-171149D01*
X330885Y-169819D01*
X328890Y-169154D01*
X328225D01*
X326229Y-169819D01*
X324899Y-171149D01*
X324234Y-173144D01*
D53*
X850900Y420370D02*
D03*
D54*
X121463Y-225425D02*
G03*
X117475Y-221437I-3988J0D01*
G01*
Y-229413D02*
G03*
X121463Y-225425I0J3988D01*
G01*
X95097Y-227737D02*
G03*
X99187Y-229413I4090J4150D01*
G01*
X88087Y-219507D02*
G03*
X88874Y-221437I2761J0D01*
G01*
X89763Y-133197D02*
G03*
X88087Y-137287I4150J-4090D01*
G01*
X89763Y-133197D02*
G03*
X88087Y-137287I4150J-4090D01*
G01*
X115062Y-130988D02*
G03*
X119050Y-127000I0J3988D01*
G01*
Y-158750D02*
G03*
X115062Y-154762I-3988J0D01*
G01*
X119050Y-158750D02*
G03*
X115062Y-154762I-3988J0D01*
G01*
Y-162738D02*
G03*
X119050Y-158750I0J3988D01*
G01*
X115062Y-162738D02*
G03*
X119050Y-158750I0J3988D01*
G01*
X98323Y-161062D02*
G03*
X102413Y-162738I4090J4150D01*
G01*
X98323Y-161062D02*
G03*
X102413Y-162738I4090J4150D01*
G01*
X88087Y-149657D02*
G03*
X88874Y-151587I2761J0D01*
G01*
X88087Y-149657D02*
G03*
X88874Y-151587I2761J0D01*
G01*
X102235Y-123063D02*
G03*
X98450Y-124612I0J-5397D01*
G01*
X102235Y-123063D02*
G03*
X98450Y-124612I0J-5397D01*
G01*
X119050Y-127000D02*
G03*
X115062Y-123012I-3988J0D01*
G01*
X44450Y-177800D02*
X107950Y-241300D01*
X171450Y-177800D01*
X69850D02*
X92583Y-155067D01*
X69850Y-177800D02*
X87300Y-195250D01*
X44450Y-177800D02*
X107950Y-114300D01*
X44450Y-177800D02*
X171450D01*
X88138Y-192075D02*
X93650Y-186487D01*
X96063D01*
Y-217475D02*
Y-186487D01*
Y-217475D02*
X100000Y-221412D01*
X117475D01*
X107950Y-241300D02*
Y-229362D01*
Y-215900D02*
X146050Y-177800D01*
X107950Y-221412D02*
Y-163500D01*
X100000Y-221412D02*
X117475D01*
X96063Y-217475D02*
X100000Y-221412D01*
X96063Y-217475D02*
Y-186487D01*
X93650D02*
X96063D01*
X88138Y-192075D02*
X93650Y-186487D01*
X96063Y-203962D02*
X107950Y-215900D01*
X99060Y-229362D02*
X117475D01*
X99187D02*
X117475D01*
X88900Y-221412D02*
X95123Y-227711D01*
X88138Y-219075D02*
Y-192075D01*
Y-219507D02*
Y-192075D01*
X107950Y-139700D02*
X146050Y-177800D01*
X107950Y-114300D02*
X171450Y-177800D01*
X107950Y-154737D02*
Y-130937D01*
X98171Y-149479D02*
X107950Y-139700D01*
X88138Y-149657D02*
Y-137287D01*
X89789Y-133223D02*
X98425Y-124587D01*
X96063Y-147625D02*
X103175Y-154737D01*
X96063Y-147625D02*
Y-138100D01*
X103175Y-130937D01*
X115062D01*
X88138Y-149657D02*
Y-137287D01*
X89789Y-133223D02*
X98425Y-124587D01*
X96063Y-147625D02*
X103175Y-154737D01*
X96063Y-147625D02*
Y-138100D01*
X103175Y-130937D01*
X115062D01*
X88900Y-151562D02*
X98349Y-161036D01*
X88900Y-177800D02*
X107950Y-196850D01*
X127000Y-177800D01*
X110363Y-154737D02*
X115062D01*
X103175D02*
X115062D01*
X103175D02*
X115062D01*
X111125Y-162687D02*
X115062D01*
X102413D02*
X115062D01*
X102413D02*
X115062D01*
X88900Y-151562D02*
X98349Y-161036D01*
X107950Y-158750D02*
X127000Y-177800D01*
X88900D02*
X107950Y-158750D01*
Y-122987D02*
Y-114300D01*
X102235Y-122987D02*
X115062D01*
X102235D02*
X115062D01*
D55*
X50800Y28575D02*
D03*
X730250Y76200D02*
D03*
X171450Y473075D02*
D03*
X82550Y355600D02*
D03*
Y241300D02*
D03*
D56*
X172720Y81280D02*
D03*
Y106680D02*
D03*
X147320Y81280D02*
D03*
Y106680D02*
D03*
X501650Y76200D02*
D03*
X527050D02*
D03*
X450850D02*
D03*
X552450D02*
D03*
X476250D02*
D03*
X222250Y527050D02*
D03*
Y501650D02*
D03*
X450850Y527050D02*
D03*
X476250Y501650D02*
D03*
X450850D02*
D03*
X730250D02*
D03*
X755650Y527050D02*
D03*
X654050Y501650D02*
D03*
X476250Y527050D02*
D03*
X501650Y501650D02*
D03*
X425450Y527050D02*
D03*
X247650D02*
D03*
Y501650D02*
D03*
X577850Y527050D02*
D03*
Y501650D02*
D03*
X603250D02*
D03*
X628650D02*
D03*
X603250Y527050D02*
D03*
X628650D02*
D03*
X654050D02*
D03*
X679450D02*
D03*
Y501650D02*
D03*
X704850Y527050D02*
D03*
Y501650D02*
D03*
X730250Y527050D02*
D03*
X755650Y501650D02*
D03*
X552450Y527050D02*
D03*
Y501650D02*
D03*
X527050D02*
D03*
Y527050D02*
D03*
X298450D02*
D03*
X273050D02*
D03*
Y501650D02*
D03*
X298450D02*
D03*
X501650Y527050D02*
D03*
X400050D02*
D03*
X349250Y501650D02*
D03*
X425450D02*
D03*
X323850Y527050D02*
D03*
X349250D02*
D03*
X323850Y501650D02*
D03*
X374650D02*
D03*
Y527050D02*
D03*
X400050Y501650D02*
D03*
X196850Y527050D02*
D03*
X222250Y44450D02*
D03*
Y19050D02*
D03*
X450850Y44450D02*
D03*
X476250Y19050D02*
D03*
X450850D02*
D03*
X730250D02*
D03*
X755650Y44450D02*
D03*
X654050Y19050D02*
D03*
X476250Y44450D02*
D03*
X501650Y19050D02*
D03*
X425450Y44450D02*
D03*
X247650D02*
D03*
Y19050D02*
D03*
X577850Y44450D02*
D03*
Y19050D02*
D03*
X603250D02*
D03*
X628650D02*
D03*
X603250Y44450D02*
D03*
X628650D02*
D03*
X654050D02*
D03*
X679450D02*
D03*
Y19050D02*
D03*
X704850Y44450D02*
D03*
Y19050D02*
D03*
X730250Y44450D02*
D03*
X755650Y19050D02*
D03*
X552450Y44450D02*
D03*
Y19050D02*
D03*
X527050D02*
D03*
Y44450D02*
D03*
X298450D02*
D03*
X273050D02*
D03*
Y19050D02*
D03*
X298450D02*
D03*
X501650Y44450D02*
D03*
X400050D02*
D03*
X349250Y19050D02*
D03*
X425450D02*
D03*
X323850Y44450D02*
D03*
X349250D02*
D03*
X323850Y19050D02*
D03*
X374650D02*
D03*
Y44450D02*
D03*
X400050Y19050D02*
D03*
X196850Y44450D02*
D03*
X146050Y292100D02*
D03*
X171450Y304800D02*
D03*
X33528Y260604D02*
D03*
X48768Y235204D02*
D03*
Y336296D02*
D03*
X33528Y361696D02*
D03*
X171450Y279400D02*
D03*
X146050Y317500D02*
D03*
X171450Y330200D02*
D03*
Y254000D02*
D03*
X146050Y266700D02*
D03*
X38100Y190500D02*
D03*
X590550Y107950D02*
D03*
D57*
X704850Y133350D02*
D03*
X679450Y82550D02*
D03*
X733425Y133350D02*
D03*
Y158344D02*
D03*
Y178359D02*
D03*
Y203352D02*
D03*
D58*
X425450Y76200D02*
D03*
X196850Y501650D02*
D03*
Y19050D02*
D03*
X146050Y342900D02*
D03*
D59*
X806450Y482600D02*
D03*
X146050Y514350D02*
D03*
X806450Y63500D02*
D03*
X146050Y31750D02*
D03*
D60*
X113030Y219710D02*
D03*
Y377190D02*
D03*
D61*
X81788Y48260D02*
D03*
D62*
X111760Y95250D02*
D03*
D63*
X51816D02*
D03*
D64*
X760527Y102641D02*
D03*
Y234061D02*
D03*
D65*
X846501Y220459D02*
D03*
Y282461D02*
D03*
D66*
X342900Y111125D02*
D03*
X411480Y109220D02*
D03*
X513207Y268097D02*
D03*
X425450Y88900D02*
D03*
X360680Y73025D02*
D03*
X505206Y268097D02*
D03*
X99875Y494030D02*
D03*
X276225Y120650D02*
D03*
X299720Y187960D02*
D03*
X424180Y165100D02*
D03*
X342900Y161925D02*
D03*
X258331Y346075D02*
D03*
X571500Y224790D02*
D03*
X614997Y231648D02*
D03*
X553720Y175260D02*
D03*
X530860Y308102D02*
D03*
X538480Y256101D02*
D03*
X457200Y381000D02*
D03*
X449204D02*
D03*
X449199Y236093D02*
D03*
X501650Y177800D02*
D03*
X520700D02*
D03*
X481203Y236093D02*
D03*
X473202D02*
D03*
X450850Y165100D02*
D03*
X473200Y252100D02*
D03*
X140970Y424017D02*
D03*
X187960Y123190D02*
D03*
X127000Y162560D02*
D03*
X538480Y231140D02*
D03*
X513207Y260096D02*
D03*
X561340Y311658D02*
D03*
X589280Y238760D02*
D03*
X505206Y252095D02*
D03*
X513207Y236093D02*
D03*
X561340Y162560D02*
D03*
X538480Y220980D02*
D03*
X497205Y244094D02*
D03*
X571500Y199139D02*
D03*
X505206Y244094D02*
D03*
X538480Y214630D02*
D03*
X505206Y260096D02*
D03*
X538480Y268097D02*
D03*
X513207Y252095D02*
D03*
Y276098D02*
D03*
X123675Y447675D02*
D03*
X139700Y193675D02*
D03*
X812800Y396240D02*
D03*
X457200Y369570D02*
D03*
X727075Y482600D02*
D03*
X565150D02*
D03*
X323850D02*
D03*
X68580Y522351D02*
D03*
X90170D02*
D03*
X685800Y447040D02*
D03*
X593725Y457200D02*
D03*
X698500D02*
D03*
X574675D02*
D03*
X717550D02*
D03*
X140970Y414101D02*
D03*
X789940Y393700D02*
D03*
X784860Y423799D02*
D03*
X721360Y389890D02*
D03*
X473202Y381000D02*
D03*
X501650D02*
D03*
X489204D02*
D03*
X403225Y398780D02*
D03*
X342900Y406400D02*
D03*
X234950Y398780D02*
D03*
X254000Y406400D02*
D03*
X789940Y349250D02*
D03*
X698500Y327025D02*
D03*
X685800Y347980D02*
D03*
X721360Y349250D02*
D03*
X584200Y355600D02*
D03*
X604520Y347980D02*
D03*
X525201Y367030D02*
D03*
X368300Y331470D02*
D03*
X381000Y360101D02*
D03*
X317500Y346075D02*
D03*
X330200Y355600D02*
D03*
X323850Y371475D02*
D03*
X355600Y339090D02*
D03*
X292100Y327025D02*
D03*
X284480Y336550D02*
D03*
X106680Y330200D02*
D03*
Y342900D02*
D03*
X698500Y279654D02*
D03*
Y295656D02*
D03*
Y311658D02*
D03*
X571500Y295656D02*
D03*
Y311658D02*
D03*
Y284099D02*
D03*
X473200Y276101D02*
D03*
X481203Y276098D02*
D03*
Y308102D02*
D03*
X473200Y284099D02*
D03*
X481203D02*
D03*
Y324104D02*
D03*
X489204Y284099D02*
D03*
X465201Y276101D02*
D03*
X433197Y308102D02*
D03*
X465201Y300101D02*
D03*
X449199D02*
D03*
X465201Y284099D02*
D03*
X449199D02*
D03*
X465201Y316101D02*
D03*
X449199Y324104D02*
D03*
Y316103D02*
D03*
X441198Y308102D02*
D03*
Y284099D02*
D03*
X368300Y308102D02*
D03*
X417195Y316103D02*
D03*
X317500Y279400D02*
D03*
X187325Y282575D02*
D03*
X106680Y279400D02*
D03*
X62230Y294640D02*
D03*
Y302260D02*
D03*
X106680Y304800D02*
D03*
Y317500D02*
D03*
X789940Y245460D02*
D03*
Y259080D02*
D03*
X828040Y267335D02*
D03*
Y251460D02*
D03*
Y236220D02*
D03*
X698500Y231648D02*
D03*
Y243650D02*
D03*
Y255651D02*
D03*
X571500Y231648D02*
D03*
Y271653D02*
D03*
Y255651D02*
D03*
X497205Y252095D02*
D03*
X433197Y268097D02*
D03*
Y276098D02*
D03*
X449199Y244094D02*
D03*
X465201Y268099D02*
D03*
X368300Y247650D02*
D03*
Y268097D02*
D03*
X330200Y273685D02*
D03*
Y243840D02*
D03*
Y265430D02*
D03*
X282575Y263525D02*
D03*
X260350Y231140D02*
D03*
X219075Y263525D02*
D03*
X818871Y196850D02*
D03*
X806171Y190500D02*
D03*
X768071Y196850D02*
D03*
X698500Y207645D02*
D03*
Y191643D02*
D03*
Y219646D02*
D03*
X629920Y212090D02*
D03*
X525201Y217170D02*
D03*
X571500Y191643D02*
D03*
Y207645D02*
D03*
X492125Y184150D02*
D03*
X482600D02*
D03*
X385191Y220091D02*
D03*
X330200Y203200D02*
D03*
X299720Y180340D02*
D03*
Y173990D02*
D03*
X294640Y207010D02*
D03*
X234599Y196215D02*
D03*
X755599Y136296D02*
D03*
X698497Y168214D02*
D03*
X645160Y154940D02*
D03*
X636270D02*
D03*
X528320Y184150D02*
D03*
X553720Y167640D02*
D03*
X450850Y127000D02*
D03*
X434340Y140970D02*
D03*
X441960D02*
D03*
X360680Y111760D02*
D03*
Y161925D02*
D03*
X69850Y171450D02*
D03*
Y158750D02*
D03*
X562610Y116840D02*
D03*
X360680Y85725D02*
D03*
X304800Y73660D02*
D03*
X301625Y101600D02*
D03*
X229870Y71120D02*
D03*
X223520D02*
D03*
X241935D02*
D03*
X248285D02*
D03*
X342900Y64770D02*
D03*
X544830Y101600D02*
D03*
X409725Y457200D02*
D03*
X415290Y383540D02*
D03*
X822325Y345440D02*
D03*
X831850Y391160D02*
D03*
X539750Y416560D02*
D03*
X527050D02*
D03*
X501650D02*
D03*
X746760Y464820D02*
D03*
X539750Y426720D02*
D03*
X571500Y373380D02*
D03*
X552450Y391160D02*
D03*
X76200Y427101D02*
D03*
X107950Y447675D02*
D03*
X88750D02*
D03*
X579120Y238760D02*
D03*
X19050Y294640D02*
D03*
Y302260D02*
D03*
X441198Y244094D02*
D03*
X489204D02*
D03*
X505206Y228092D02*
D03*
X465201Y244094D02*
D03*
X441325Y398780D02*
D03*
X505206Y236093D02*
D03*
X513207Y228092D02*
D03*
X317500Y231140D02*
D03*
X269240Y140335D02*
D03*
Y195580D02*
D03*
X401193Y236093D02*
D03*
X450914Y442024D02*
D03*
X476250D02*
D03*
X655320Y452120D02*
D03*
X269875Y205740D02*
D03*
X269240Y133985D02*
D03*
X360680Y196850D02*
D03*
X661670Y452120D02*
D03*
X401193Y220091D02*
D03*
Y228092D02*
D03*
X504825Y148590D02*
D03*
X517525D02*
D03*
X511175Y177800D02*
D03*
X433197Y340106D02*
D03*
X441198Y348107D02*
D03*
X433197D02*
D03*
X449199D02*
D03*
X538480Y308102D02*
D03*
X187960Y210820D02*
D03*
X473075Y209550D02*
D03*
X481203Y244094D02*
D03*
X492125Y209550D02*
D03*
X180340Y179070D02*
D03*
X623570Y326390D02*
D03*
X513207Y324104D02*
D03*
X505206Y332105D02*
D03*
X629920Y321310D02*
D03*
X513207Y332105D02*
D03*
X505206Y324104D02*
D03*
Y316103D02*
D03*
X441960Y88900D02*
D03*
X450850Y157480D02*
D03*
X441198Y236093D02*
D03*
X398780Y109220D02*
D03*
X561340Y321310D02*
D03*
X342900Y123825D02*
D03*
X411480Y119380D02*
D03*
X513207Y316103D02*
D03*
X342900Y117475D02*
D03*
Y149225D02*
D03*
X424180Y157480D02*
D03*
X417195Y236093D02*
D03*
X398780Y149225D02*
D03*
X360680D02*
D03*
X505206Y308102D02*
D03*
X513207Y300101D02*
D03*
X538480Y300096D02*
D03*
X614997Y295656D02*
D03*
X561340Y299720D02*
D03*
X505206Y300101D02*
D03*
X473200Y308099D02*
D03*
X489204Y300101D02*
D03*
X473200D02*
D03*
X441198Y276098D02*
D03*
X433197Y284099D02*
D03*
X441198Y300101D02*
D03*
X449199Y308102D02*
D03*
X465201Y308099D02*
D03*
X449199Y276098D02*
D03*
X433197Y316103D02*
D03*
X425196D02*
D03*
X465201Y324099D02*
D03*
X401193Y308102D02*
D03*
X481203Y260096D02*
D03*
Y268097D02*
D03*
X489204D02*
D03*
X393192D02*
D03*
X285750Y130810D02*
D03*
X292100D02*
D03*
X321310Y254000D02*
D03*
Y247650D02*
D03*
X355600Y273685D02*
D03*
Y266065D02*
D03*
X513207Y308102D02*
D03*
X119380Y419100D02*
D03*
Y425450D02*
D03*
X292100Y243840D02*
D03*
X269240Y127635D02*
D03*
X409194Y228092D02*
D03*
X207010Y111760D02*
D03*
X570230Y116840D02*
D03*
X497205Y236093D02*
D03*
X331470Y64770D02*
D03*
X360680Y360045D02*
D03*
X322580Y64770D02*
D03*
X368300Y375920D02*
D03*
X411480Y101600D02*
D03*
X401193Y252095D02*
D03*
X398780Y101610D02*
D03*
X409194Y252095D02*
D03*
X182880Y142400D02*
D03*
X570230Y109220D02*
D03*
X489204Y236093D02*
D03*
X358140Y482600D02*
D03*
X489204Y348107D02*
D03*
X212725Y292100D02*
D03*
X250825Y269875D02*
D03*
X292100Y317500D02*
D03*
X212725Y301625D02*
D03*
X219075Y254000D02*
D03*
X513207Y284099D02*
D03*
X212725Y311150D02*
D03*
Y282575D02*
D03*
X292100Y307975D02*
D03*
X212725Y320675D02*
D03*
X544830Y355600D02*
D03*
Y361950D02*
D03*
X401193Y340106D02*
D03*
Y324104D02*
D03*
X449199Y252095D02*
D03*
X458470Y140970D02*
D03*
X450850D02*
D03*
X330200Y332740D02*
D03*
Y339090D02*
D03*
X269240Y177165D02*
D03*
Y183515D02*
D03*
X262255Y276860D02*
D03*
X292100Y298450D02*
D03*
X282575Y254000D02*
D03*
X360680Y180340D02*
D03*
X433197Y244094D02*
D03*
X389890Y196850D02*
D03*
X317563Y219075D02*
D03*
X411480Y398780D02*
D03*
X425196Y220091D02*
D03*
X585470Y124460D02*
D03*
X629920Y347980D02*
D03*
X425196Y228092D02*
D03*
X577850Y124460D02*
D03*
X636270Y347980D02*
D03*
X433197Y236093D02*
D03*
X570230Y124460D02*
D03*
X642620Y347980D02*
D03*
X425196Y236093D02*
D03*
X458470Y184150D02*
D03*
X473200Y244099D02*
D03*
X458470Y209550D02*
D03*
X360680Y138430D02*
D03*
X374650Y331470D02*
D03*
X780771Y177800D02*
D03*
X360680Y132080D02*
D03*
X381000Y331470D02*
D03*
X780771Y171450D02*
D03*
X393192Y332105D02*
D03*
X424180Y140970D02*
D03*
X425196Y244094D02*
D03*
X409194Y260096D02*
D03*
X755650Y155804D02*
D03*
X622300Y124460D02*
D03*
X299720Y195580D02*
D03*
X368300Y347980D02*
D03*
X317500Y371475D02*
D03*
X187325Y320675D02*
D03*
Y301625D02*
D03*
Y292100D02*
D03*
Y311150D02*
D03*
X212725Y358775D02*
D03*
Y330200D02*
D03*
X229870Y276860D02*
D03*
X106680Y292100D02*
D03*
X449199Y340106D02*
D03*
X441198Y332105D02*
D03*
X385191Y316103D02*
D03*
X409194Y276098D02*
D03*
X481200Y252100D02*
D03*
X340360Y482600D02*
D03*
X481203Y340106D02*
D03*
X130175Y447675D02*
D03*
X147955D02*
D03*
X465201Y236093D02*
D03*
X482600Y177800D02*
D03*
X142875Y473075D02*
D03*
X95250Y447675D02*
D03*
X409194Y348107D02*
D03*
X107950Y473075D02*
D03*
X229870Y99060D02*
D03*
X223520D02*
D03*
X200025Y191135D02*
D03*
X831850Y437515D02*
D03*
X323850Y203200D02*
D03*
X836953Y316865D02*
D03*
X317500Y203200D02*
D03*
X187960Y193675D02*
D03*
X822325Y316865D02*
D03*
X398780Y165100D02*
D03*
X401193Y268097D02*
D03*
X252730Y99060D02*
D03*
X246380D02*
D03*
X812800Y316865D02*
D03*
X398780Y172720D02*
D03*
X409194Y268097D02*
D03*
X812800Y437515D02*
D03*
X330200Y195580D02*
D03*
X822325Y437515D02*
D03*
X323850Y195580D02*
D03*
X285750Y173990D02*
D03*
X292100D02*
D03*
X330200Y298450D02*
D03*
X409194Y292100D02*
D03*
X368300Y360045D02*
D03*
Y284104D02*
D03*
X317500Y327025D02*
D03*
Y317500D02*
D03*
X393192Y316103D02*
D03*
X317500Y298450D02*
D03*
X409194Y300101D02*
D03*
X76200Y473075D02*
D03*
Y463852D02*
D03*
Y453255D02*
D03*
Y444500D02*
D03*
X95250Y158750D02*
D03*
X229870Y191135D02*
D03*
X242600D02*
D03*
X187960Y173990D02*
D03*
X269240Y164465D02*
D03*
X241300Y111760D02*
D03*
X755371Y146050D02*
D03*
X187960Y147955D02*
D03*
X151130Y414020D02*
D03*
X401193Y332105D02*
D03*
X140970Y403860D02*
D03*
X269240Y120650D02*
D03*
X400050Y381000D02*
D03*
X417195Y348107D02*
D03*
X409194Y244094D02*
D03*
X450850Y88900D02*
D03*
X401193Y244094D02*
D03*
X355600Y243840D02*
D03*
X368300Y64770D02*
D03*
X360680D02*
D03*
X355600Y236220D02*
D03*
X30480Y172720D02*
D03*
X215900Y196215D02*
D03*
X369570Y196850D02*
D03*
X349250Y482600D02*
D03*
X481203Y348107D02*
D03*
X501650Y482600D02*
D03*
X234950Y346075D02*
D03*
X401193Y300101D02*
D03*
X284480Y279400D02*
D03*
X241300Y346075D02*
D03*
X284480Y288925D02*
D03*
X401193Y284099D02*
D03*
X248323Y346075D02*
D03*
X264795Y99060D02*
D03*
X271145D02*
D03*
X360807Y214630D02*
D03*
X425196Y284099D02*
D03*
Y268097D02*
D03*
X433197Y260096D02*
D03*
X360807Y220980D02*
D03*
X409194Y340106D02*
D03*
X396875Y457350D02*
D03*
X584200Y457200D02*
D03*
X688975D02*
D03*
X708025D02*
D03*
X727075D02*
D03*
X565150D02*
D03*
X831571Y196850D02*
D03*
X396875Y431800D02*
D03*
X497205Y332105D02*
D03*
X481200Y332100D02*
D03*
X489204Y332105D02*
D03*
X425196D02*
D03*
X433197D02*
D03*
X449199D02*
D03*
X368300Y368300D02*
D03*
X355600Y355600D02*
D03*
X360807Y368300D02*
D03*
Y375920D02*
D03*
X497205Y316103D02*
D03*
X425196Y300101D02*
D03*
X409194Y324104D02*
D03*
X449199Y260096D02*
D03*
X433197Y252095D02*
D03*
X441198D02*
D03*
X417195Y284099D02*
D03*
Y268097D02*
D03*
X269875Y231140D02*
D03*
X231775D02*
D03*
X434975Y209550D02*
D03*
X223584Y196245D02*
D03*
X301625Y120650D02*
D03*
X450850Y101600D02*
D03*
X708025Y426720D02*
D03*
X831850Y408940D02*
D03*
X553720Y101600D02*
D03*
X292100Y482600D02*
D03*
X488950Y457200D02*
D03*
X438150D02*
D03*
X463550D02*
D03*
X476250D02*
D03*
X450850D02*
D03*
X425450D02*
D03*
X393700Y384175D02*
D03*
X342900Y431800D02*
D03*
X273050Y457200D02*
D03*
X234950Y439420D02*
D03*
X260350Y457200D02*
D03*
X247650D02*
D03*
X234950D02*
D03*
X317500Y336550D02*
D03*
X257175Y358775D02*
D03*
X284480Y308651D02*
D03*
X744220Y259080D02*
D03*
X95250Y171450D02*
D03*
X342900Y98425D02*
D03*
X525780Y148590D02*
D03*
X812800Y408940D02*
D03*
X831850Y345440D02*
D03*
X812800D02*
D03*
X292100Y260350D02*
D03*
X253365Y276860D02*
D03*
X292100Y269875D02*
D03*
X244475Y276860D02*
D03*
X208280Y196215D02*
D03*
X497205Y228092D02*
D03*
X292100Y288925D02*
D03*
Y279400D02*
D03*
X355600Y307975D02*
D03*
X409194Y308102D02*
D03*
X284480Y355600D02*
D03*
X417195Y300103D02*
D03*
X355600Y332740D02*
D03*
X368300Y290830D02*
D03*
X292100Y355600D02*
D03*
X317500Y260350D02*
D03*
X401193Y276101D02*
D03*
X212725Y336550D02*
D03*
X317500Y355600D02*
D03*
X355600Y298450D02*
D03*
X317500Y307975D02*
D03*
X187325Y336550D02*
D03*
X401193Y292103D02*
D03*
X317500Y269875D02*
D03*
X371475Y431800D02*
D03*
X408940Y381000D02*
D03*
X353060Y64770D02*
D03*
X400050Y201930D02*
D03*
X425196Y252095D02*
D03*
X417195Y244094D02*
D03*
X505206Y276098D02*
D03*
X646430Y452120D02*
D03*
X685800Y401320D02*
D03*
Y427551D02*
D03*
Y438150D02*
D03*
X584200Y417830D02*
D03*
X685800Y375920D02*
D03*
X657499Y348341D02*
D03*
X584200Y373380D02*
D03*
X544830Y381000D02*
D03*
Y374650D02*
D03*
X501650Y457200D02*
D03*
X576580Y422549D02*
D03*
X514350Y457200D02*
D03*
X617220Y347980D02*
D03*
X527050Y462280D02*
D03*
X623570Y347980D02*
D03*
X508000Y452120D02*
D03*
X610870Y347980D02*
D03*
X398780Y119380D02*
D03*
X409194Y220091D02*
D03*
X514350Y391160D02*
D03*
X497205Y340106D02*
D03*
X501650Y391160D02*
D03*
X489204Y340106D02*
D03*
X398780Y132080D02*
D03*
X401193Y348107D02*
D03*
X831571Y171450D02*
D03*
X409194Y236093D02*
D03*
X609600Y124460D02*
D03*
X721360Y360680D02*
D03*
X717550Y447675D02*
D03*
X571500Y347980D02*
D03*
X717550Y482600D02*
D03*
X688975D02*
D03*
X584200Y388620D02*
D03*
X505206Y340106D02*
D03*
X679450Y482600D02*
D03*
X571500Y381000D02*
D03*
X669925Y482600D02*
D03*
X565150Y391160D02*
D03*
X660400Y482600D02*
D03*
X576580Y406400D02*
D03*
X513207Y348107D02*
D03*
X576580Y431800D02*
D03*
X650875Y482600D02*
D03*
X505206Y348107D02*
D03*
X584200Y439420D02*
D03*
X631825Y482600D02*
D03*
X622300D02*
D03*
X603250Y457200D02*
D03*
X527050Y426720D02*
D03*
X614680Y452120D02*
D03*
X593725Y482600D02*
D03*
X612775D02*
D03*
X561340Y447040D02*
D03*
X621030Y452120D02*
D03*
X603250Y482600D02*
D03*
X552450Y457200D02*
D03*
X627380Y452120D02*
D03*
X574675Y482600D02*
D03*
X633730Y452120D02*
D03*
X584200Y482600D02*
D03*
X640080Y452120D02*
D03*
X497205Y348107D02*
D03*
X473200Y340101D02*
D03*
X260350Y482600D02*
D03*
X273050D02*
D03*
X473200Y348099D02*
D03*
X425450Y482600D02*
D03*
X381000Y449580D02*
D03*
X488950Y482600D02*
D03*
X387350Y457200D02*
D03*
X463550Y482600D02*
D03*
X375707Y375849D02*
D03*
X668020Y452120D02*
D03*
X601980Y124460D02*
D03*
X648970Y347980D02*
D03*
X782320Y269875D02*
D03*
X759460Y292100D02*
D03*
X789940Y233459D02*
D03*
X751840Y259080D02*
D03*
X584200Y431800D02*
D03*
X641350Y482600D02*
D03*
X708025D02*
D03*
X571500Y355600D02*
D03*
X513207Y340106D02*
D03*
X698500Y482600D02*
D03*
X584200Y382270D02*
D03*
X292100Y346075D02*
D03*
X236855Y276860D02*
D03*
X685800Y368300D02*
D03*
X438150Y482600D02*
D03*
X234950D02*
D03*
X465201Y340101D02*
D03*
X247650Y482600D02*
D03*
X465201Y348099D02*
D03*
X284480Y317650D02*
D03*
Y327025D02*
D03*
X674370Y452120D02*
D03*
X95250Y184150D02*
D03*
X400050Y389890D02*
D03*
X409194Y332105D02*
D03*
X43180Y279400D02*
D03*
X371475Y406400D02*
D03*
X425196Y348107D02*
D03*
X384175Y406400D02*
D03*
X425193Y340106D02*
D03*
X660400Y327025D02*
D03*
X497205Y300101D02*
D03*
Y284099D02*
D03*
Y268097D02*
D03*
X528320Y195580D02*
D03*
Y203200D02*
D03*
X553720Y158115D02*
D03*
X640080Y183642D02*
D03*
X660400Y168275D02*
D03*
X201295Y71120D02*
D03*
X207645D02*
D03*
X594360Y59690D02*
D03*
X579120D02*
D03*
X586740D02*
D03*
X505460D02*
D03*
X499110D02*
D03*
X543560D02*
D03*
X537210D02*
D03*
X767080Y259080D02*
D03*
X721360Y405130D02*
D03*
X759460Y259080D02*
D03*
X721360Y397510D02*
D03*
X749300Y389890D02*
D03*
X828040Y243459D02*
D03*
X749300Y382270D02*
D03*
X820420Y243459D02*
D03*
X782320Y259080D02*
D03*
X749300Y360680D02*
D03*
X774700Y259080D02*
D03*
X749300Y353060D02*
D03*
X828040Y259461D02*
D03*
X820420D02*
D03*
X409575Y431800D02*
D03*
X360680Y384810D02*
D03*
X394970Y398780D02*
D03*
X505206Y284099D02*
D03*
X367030Y482600D02*
D03*
X411480Y389890D02*
D03*
X417195Y340106D02*
D03*
X200660Y99060D02*
D03*
X207010D02*
D03*
X55880Y158750D02*
D03*
X187960Y184150D02*
D03*
X127000Y144780D02*
D03*
X220980Y111760D02*
D03*
X417195Y252095D02*
D03*
X401193Y260096D02*
D03*
X457200Y292100D02*
D03*
X433197Y300101D02*
D03*
X465201Y332100D02*
D03*
X417195Y332105D02*
D03*
X481203Y316103D02*
D03*
X489204Y252095D02*
D03*
X465201Y260101D02*
D03*
X187960Y161290D02*
D03*
X182880Y154399D02*
D03*
X818871Y171450D02*
D03*
X831494Y149301D02*
D03*
X663003Y215646D02*
D03*
X598996Y255651D02*
D03*
Y207645D02*
D03*
Y191643D02*
D03*
X671004Y207645D02*
D03*
Y191643D02*
D03*
X606996Y255651D02*
D03*
Y231648D02*
D03*
X598996Y271653D02*
D03*
X655003Y263652D02*
D03*
X663003Y231648D02*
D03*
X671004Y255651D02*
D03*
X606996Y303657D02*
D03*
X614997Y279654D02*
D03*
X598996Y311658D02*
D03*
Y295656D02*
D03*
X671004Y287655D02*
D03*
Y279654D02*
D03*
Y295656D02*
D03*
X663003Y311658D02*
D03*
Y223647D02*
D03*
X655003Y183642D02*
D03*
X606996D02*
D03*
Y311658D02*
D03*
X655003D02*
D03*
X663003Y295656D02*
D03*
X606996D02*
D03*
X663003Y303657D02*
D03*
X622999Y279654D02*
D03*
X663003Y271653D02*
D03*
X655003D02*
D03*
X663003Y255651D02*
D03*
X655003D02*
D03*
Y295656D02*
D03*
X614997Y215646D02*
D03*
X606996D02*
D03*
X598996Y231648D02*
D03*
Y215646D02*
D03*
Y199644D02*
D03*
Y183642D02*
D03*
X671004Y215646D02*
D03*
Y199644D02*
D03*
Y183642D02*
D03*
X606996Y271653D02*
D03*
Y239649D02*
D03*
X671004Y263652D02*
D03*
X663003D02*
D03*
Y239649D02*
D03*
X614997Y303657D02*
D03*
X598996D02*
D03*
X606996Y279654D02*
D03*
X671004Y303657D02*
D03*
X663003Y287655D02*
D03*
Y279654D02*
D03*
X614997Y183642D02*
D03*
X655003Y207645D02*
D03*
Y191643D02*
D03*
Y223647D02*
D03*
X614997Y191643D02*
D03*
X663003Y183642D02*
D03*
X606996Y191643D02*
D03*
X663003D02*
D03*
X606996Y199644D02*
D03*
X663003D02*
D03*
X606996Y207645D02*
D03*
X614997Y199644D02*
D03*
X655003D02*
D03*
Y279654D02*
D03*
X614997Y207645D02*
D03*
X663003D02*
D03*
X655003Y303657D02*
D03*
X614997Y223647D02*
D03*
Y239649D02*
D03*
X671004Y231648D02*
D03*
D67*
X315951Y431599D02*
D03*
X268450Y434101D02*
D03*
Y449100D02*
D03*
X300949Y436601D02*
D03*
X260469Y426601D02*
D03*
X260350Y436601D02*
D03*
X315951Y421599D02*
D03*
X295951Y401320D02*
D03*
X280949Y416601D02*
D03*
X315951Y426601D02*
D03*
X305951Y436601D02*
D03*
X268450Y439100D02*
D03*
X280949Y436601D02*
D03*
X260350Y431599D02*
D03*
Y441599D02*
D03*
X290949Y401320D02*
D03*
X280949Y411599D02*
D03*
X336550Y431599D02*
D03*
X328450Y449100D02*
D03*
X280949Y431599D02*
D03*
X290949Y436601D02*
D03*
X323451Y449100D02*
D03*
X280949Y426601D02*
D03*
X328450Y444101D02*
D03*
Y439100D02*
D03*
Y434101D02*
D03*
Y429100D02*
D03*
D68*
X615950Y419100D02*
D03*
X654050D02*
D03*
Y381000D02*
D03*
X615950D02*
D03*
X654050Y406400D02*
D03*
Y393700D02*
D03*
X615950D02*
D03*
Y406400D02*
D03*
X628650Y419100D02*
D03*
X641350D02*
D03*
Y406400D02*
D03*
X628650D02*
D03*
Y393700D02*
D03*
X641350D02*
D03*
Y381000D02*
D03*
X628650D02*
D03*
X260350Y311150D02*
D03*
X250825Y320675D02*
D03*
Y311150D02*
D03*
Y301625D02*
D03*
X241300Y311150D02*
D03*
X226060Y152400D02*
D03*
X213360D02*
D03*
X238760D02*
D03*
X213360Y139700D02*
D03*
X226060D02*
D03*
X787121D02*
D03*
Y152400D02*
D03*
X799821D02*
D03*
Y139700D02*
D03*
D69*
X438150Y-171454D02*
Y-190500D01*
Y-171454D02*
X446312D01*
X449033Y-172361D01*
X449940Y-173268D01*
X450847Y-175082D01*
Y-176896D01*
X449940Y-178710D01*
X449033Y-179617D01*
X446312Y-180524D01*
X438150D02*
X446312D01*
X449033Y-181430D01*
X449940Y-182337D01*
X450847Y-184151D01*
Y-186872D01*
X449940Y-188686D01*
X449033Y-189593D01*
X446312Y-190500D01*
X438150D01*
X455110Y-183244D02*
X465993D01*
Y-181430D01*
X465086Y-179617D01*
X464179Y-178710D01*
X462365Y-177803D01*
X459645D01*
X457831Y-178710D01*
X456017Y-180524D01*
X455110Y-183244D01*
Y-185058D01*
X456017Y-187779D01*
X457831Y-189593D01*
X459645Y-190500D01*
X462365D01*
X464179Y-189593D01*
X465993Y-187779D01*
X480958Y-177803D02*
Y-190500D01*
Y-180524D02*
X479144Y-178710D01*
X477330Y-177803D01*
X474609D01*
X472795Y-178710D01*
X470981Y-180524D01*
X470075Y-183244D01*
Y-185058D01*
X470981Y-187779D01*
X472795Y-189593D01*
X474609Y-190500D01*
X477330D01*
X479144Y-189593D01*
X480958Y-187779D01*
X496920Y-177803D02*
Y-192314D01*
X496013Y-195035D01*
X495106Y-195942D01*
X493293Y-196849D01*
X490572D01*
X488758Y-195942D01*
X496920Y-180524D02*
X495106Y-178710D01*
X493293Y-177803D01*
X490572D01*
X488758Y-178710D01*
X486944Y-180524D01*
X486037Y-183244D01*
Y-185058D01*
X486944Y-187779D01*
X488758Y-189593D01*
X490572Y-190500D01*
X493293D01*
X495106Y-189593D01*
X496920Y-187779D01*
X501999Y-171454D02*
Y-190500D01*
X505990Y-183244D02*
X516873D01*
Y-181430D01*
X515966Y-179617D01*
X515059Y-178710D01*
X513245Y-177803D01*
X510524D01*
X508711Y-178710D01*
X506897Y-180524D01*
X505990Y-183244D01*
Y-185058D01*
X506897Y-187779D01*
X508711Y-189593D01*
X510524Y-190500D01*
X513245D01*
X515059Y-189593D01*
X516873Y-187779D01*
X520954Y-171454D02*
Y-190500D01*
Y-171454D02*
X529117D01*
X531838Y-172361D01*
X532745Y-173268D01*
X533652Y-175082D01*
Y-176896D01*
X532745Y-178710D01*
X531838Y-179617D01*
X529117Y-180524D01*
X520954D02*
X529117D01*
X531838Y-181430D01*
X532745Y-182337D01*
X533652Y-184151D01*
Y-186872D01*
X532745Y-188686D01*
X531838Y-189593D01*
X529117Y-190500D01*
X520954D01*
X542449Y-177803D02*
X540635Y-178710D01*
X538821Y-180524D01*
X537914Y-183244D01*
Y-185058D01*
X538821Y-187779D01*
X540635Y-189593D01*
X542449Y-190500D01*
X545170D01*
X546984Y-189593D01*
X548798Y-187779D01*
X549705Y-185058D01*
Y-183244D01*
X548798Y-180524D01*
X546984Y-178710D01*
X545170Y-177803D01*
X542449D01*
X553877D02*
Y-190500D01*
Y-181430D02*
X556598Y-178710D01*
X558411Y-177803D01*
X561132D01*
X562946Y-178710D01*
X563853Y-181430D01*
Y-190500D01*
X568841Y-183244D02*
X579725D01*
Y-181430D01*
X578818Y-179617D01*
X577911Y-178710D01*
X576097Y-177803D01*
X573376D01*
X571562Y-178710D01*
X569748Y-180524D01*
X568841Y-183244D01*
Y-185058D01*
X569748Y-187779D01*
X571562Y-189593D01*
X573376Y-190500D01*
X576097D01*
X577911Y-189593D01*
X579725Y-187779D01*
X598770Y-171454D02*
Y-190500D01*
Y-171454D02*
X606933D01*
X609654Y-172361D01*
X610561Y-173268D01*
X611468Y-175082D01*
Y-176896D01*
X610561Y-178710D01*
X609654Y-179617D01*
X606933Y-180524D01*
X598770D02*
X606933D01*
X609654Y-181430D01*
X610561Y-182337D01*
X611468Y-184151D01*
Y-186872D01*
X610561Y-188686D01*
X609654Y-189593D01*
X606933Y-190500D01*
X598770D01*
X615731Y-171454D02*
Y-190500D01*
X630604Y-177803D02*
Y-190500D01*
Y-180524D02*
X628791Y-178710D01*
X626977Y-177803D01*
X624256D01*
X622442Y-178710D01*
X620628Y-180524D01*
X619721Y-183244D01*
Y-185058D01*
X620628Y-187779D01*
X622442Y-189593D01*
X624256Y-190500D01*
X626977D01*
X628791Y-189593D01*
X630604Y-187779D01*
X646567Y-180524D02*
X644753Y-178710D01*
X642939Y-177803D01*
X640218D01*
X638404Y-178710D01*
X636590Y-180524D01*
X635683Y-183244D01*
Y-185058D01*
X636590Y-187779D01*
X638404Y-189593D01*
X640218Y-190500D01*
X642939D01*
X644753Y-189593D01*
X646567Y-187779D01*
X650648Y-171454D02*
Y-190500D01*
X659717Y-177803D02*
X650648Y-186872D01*
X654276Y-183244D02*
X660624Y-190500D01*
X678582Y-171454D02*
Y-190500D01*
Y-171454D02*
X686745D01*
X689465Y-172361D01*
X690372Y-173268D01*
X691279Y-175082D01*
Y-176896D01*
X690372Y-178710D01*
X689465Y-179617D01*
X686745Y-180524D01*
X678582D01*
X684931D02*
X691279Y-190500D01*
X695542Y-183244D02*
X706425D01*
Y-181430D01*
X705518Y-179617D01*
X704611Y-178710D01*
X702797Y-177803D01*
X700077D01*
X698263Y-178710D01*
X696449Y-180524D01*
X695542Y-183244D01*
Y-185058D01*
X696449Y-187779D01*
X698263Y-189593D01*
X700077Y-190500D01*
X702797D01*
X704611Y-189593D01*
X706425Y-187779D01*
X710507Y-177803D02*
X715948Y-190500D01*
X721390Y-177803D02*
X715948Y-190500D01*
X739438Y-171454D02*
Y-190500D01*
Y-171454D02*
X747601D01*
X750322Y-172361D01*
X751228Y-173268D01*
X752135Y-175082D01*
Y-176896D01*
X751228Y-178710D01*
X750322Y-179617D01*
X747601Y-180524D01*
X739438D02*
X747601D01*
X750322Y-181430D01*
X751228Y-182337D01*
X752135Y-184151D01*
Y-186872D01*
X751228Y-188686D01*
X750322Y-189593D01*
X747601Y-190500D01*
X739438D01*
X765468Y-171454D02*
X756398Y-184151D01*
X770002D01*
X765468Y-171454D02*
Y-190500D01*
X438150Y-171454D02*
Y-190500D01*
Y-171454D02*
X446312D01*
X449033Y-172361D01*
X449940Y-173268D01*
X450847Y-175082D01*
Y-176896D01*
X449940Y-178710D01*
X449033Y-179617D01*
X446312Y-180524D01*
X438150D02*
X446312D01*
X449033Y-181430D01*
X449940Y-182337D01*
X450847Y-184151D01*
Y-186872D01*
X449940Y-188686D01*
X449033Y-189593D01*
X446312Y-190500D01*
X438150D01*
X455110Y-183244D02*
X465993D01*
Y-181430D01*
X465086Y-179617D01*
X464179Y-178710D01*
X462365Y-177803D01*
X459645D01*
X457831Y-178710D01*
X456017Y-180524D01*
X455110Y-183244D01*
Y-185058D01*
X456017Y-187779D01*
X457831Y-189593D01*
X459645Y-190500D01*
X462365D01*
X464179Y-189593D01*
X465993Y-187779D01*
X480958Y-177803D02*
Y-190500D01*
Y-180524D02*
X479144Y-178710D01*
X477330Y-177803D01*
X474609D01*
X472795Y-178710D01*
X470981Y-180524D01*
X470075Y-183244D01*
Y-185058D01*
X470981Y-187779D01*
X472795Y-189593D01*
X474609Y-190500D01*
X477330D01*
X479144Y-189593D01*
X480958Y-187779D01*
X496920Y-177803D02*
Y-192314D01*
X496013Y-195035D01*
X495106Y-195942D01*
X493293Y-196849D01*
X490572D01*
X488758Y-195942D01*
X496920Y-180524D02*
X495106Y-178710D01*
X493293Y-177803D01*
X490572D01*
X488758Y-178710D01*
X486944Y-180524D01*
X486037Y-183244D01*
Y-185058D01*
X486944Y-187779D01*
X488758Y-189593D01*
X490572Y-190500D01*
X493293D01*
X495106Y-189593D01*
X496920Y-187779D01*
X501999Y-171454D02*
Y-190500D01*
X505990Y-183244D02*
X516873D01*
Y-181430D01*
X515966Y-179617D01*
X515059Y-178710D01*
X513245Y-177803D01*
X510524D01*
X508711Y-178710D01*
X506897Y-180524D01*
X505990Y-183244D01*
Y-185058D01*
X506897Y-187779D01*
X508711Y-189593D01*
X510524Y-190500D01*
X513245D01*
X515059Y-189593D01*
X516873Y-187779D01*
X520954Y-171454D02*
Y-190500D01*
Y-171454D02*
X529117D01*
X531838Y-172361D01*
X532745Y-173268D01*
X533652Y-175082D01*
Y-176896D01*
X532745Y-178710D01*
X531838Y-179617D01*
X529117Y-180524D01*
X520954D02*
X529117D01*
X531838Y-181430D01*
X532745Y-182337D01*
X533652Y-184151D01*
Y-186872D01*
X532745Y-188686D01*
X531838Y-189593D01*
X529117Y-190500D01*
X520954D01*
X542449Y-177803D02*
X540635Y-178710D01*
X538821Y-180524D01*
X537914Y-183244D01*
Y-185058D01*
X538821Y-187779D01*
X540635Y-189593D01*
X542449Y-190500D01*
X545170D01*
X546984Y-189593D01*
X548798Y-187779D01*
X549705Y-185058D01*
Y-183244D01*
X548798Y-180524D01*
X546984Y-178710D01*
X545170Y-177803D01*
X542449D01*
X553877D02*
Y-190500D01*
Y-181430D02*
X556598Y-178710D01*
X558411Y-177803D01*
X561132D01*
X562946Y-178710D01*
X563853Y-181430D01*
Y-190500D01*
X568841Y-183244D02*
X579725D01*
Y-181430D01*
X578818Y-179617D01*
X577911Y-178710D01*
X576097Y-177803D01*
X573376D01*
X571562Y-178710D01*
X569748Y-180524D01*
X568841Y-183244D01*
Y-185058D01*
X569748Y-187779D01*
X571562Y-189593D01*
X573376Y-190500D01*
X576097D01*
X577911Y-189593D01*
X579725Y-187779D01*
X598770Y-171454D02*
Y-190500D01*
Y-171454D02*
X606933D01*
X609654Y-172361D01*
X610561Y-173268D01*
X611468Y-175082D01*
Y-176896D01*
X610561Y-178710D01*
X609654Y-179617D01*
X606933Y-180524D01*
X598770D02*
X606933D01*
X609654Y-181430D01*
X610561Y-182337D01*
X611468Y-184151D01*
Y-186872D01*
X610561Y-188686D01*
X609654Y-189593D01*
X606933Y-190500D01*
X598770D01*
X615731Y-171454D02*
Y-190500D01*
X630604Y-177803D02*
Y-190500D01*
Y-180524D02*
X628791Y-178710D01*
X626977Y-177803D01*
X624256D01*
X622442Y-178710D01*
X620628Y-180524D01*
X619721Y-183244D01*
Y-185058D01*
X620628Y-187779D01*
X622442Y-189593D01*
X624256Y-190500D01*
X626977D01*
X628791Y-189593D01*
X630604Y-187779D01*
X646567Y-180524D02*
X644753Y-178710D01*
X642939Y-177803D01*
X640218D01*
X638404Y-178710D01*
X636590Y-180524D01*
X635683Y-183244D01*
Y-185058D01*
X636590Y-187779D01*
X638404Y-189593D01*
X640218Y-190500D01*
X642939D01*
X644753Y-189593D01*
X646567Y-187779D01*
X650648Y-171454D02*
Y-190500D01*
X659717Y-177803D02*
X650648Y-186872D01*
X654276Y-183244D02*
X660624Y-190500D01*
X678582Y-171454D02*
Y-190500D01*
Y-171454D02*
X686745D01*
X689465Y-172361D01*
X690372Y-173268D01*
X691279Y-175082D01*
Y-176896D01*
X690372Y-178710D01*
X689465Y-179617D01*
X686745Y-180524D01*
X678582D01*
X684931D02*
X691279Y-190500D01*
X695542Y-183244D02*
X706425D01*
Y-181430D01*
X705518Y-179617D01*
X704611Y-178710D01*
X702797Y-177803D01*
X700077D01*
X698263Y-178710D01*
X696449Y-180524D01*
X695542Y-183244D01*
Y-185058D01*
X696449Y-187779D01*
X698263Y-189593D01*
X700077Y-190500D01*
X702797D01*
X704611Y-189593D01*
X706425Y-187779D01*
X710507Y-177803D02*
X715948Y-190500D01*
X721390Y-177803D02*
X715948Y-190500D01*
X739438Y-171454D02*
Y-190500D01*
Y-171454D02*
X747601D01*
X750322Y-172361D01*
X751228Y-173268D01*
X752135Y-175082D01*
Y-176896D01*
X751228Y-178710D01*
X750322Y-179617D01*
X747601Y-180524D01*
X739438D02*
X747601D01*
X750322Y-181430D01*
X751228Y-182337D01*
X752135Y-184151D01*
Y-186872D01*
X751228Y-188686D01*
X750322Y-189593D01*
X747601Y-190500D01*
X739438D01*
X765468Y-171454D02*
X756398Y-184151D01*
X770002D01*
X765468Y-171454D02*
Y-190500D01*
D73*
X60960Y449326D02*
D03*
Y441325D02*
D03*
Y433324D02*
D03*
Y457324D02*
D03*
Y425326D02*
D03*
D74*
X8961Y414576D02*
D03*
Y468074D02*
D03*
D75*
X36960Y399326D02*
D03*
Y483324D02*
D03*
D76*
X829953Y304617D02*
D03*
Y449763D02*
D03*
X836953Y304617D02*
D03*
X822952D02*
D03*
X815952D02*
D03*
Y449763D02*
D03*
X822952D02*
D03*
X836953D02*
D03*
D77*
X716059Y339440D02*
D03*
Y436941D02*
D03*
D78*
X849602Y449153D02*
D03*
Y305227D02*
D03*
D79*
X752602Y304691D02*
D03*
X739602Y449689D02*
D03*
D80*
X711073Y351442D02*
D03*
Y411439D02*
D03*
D81*
X511048Y116789D02*
D03*
Y111811D02*
D03*
X540512D02*
D03*
Y106807D02*
D03*
Y116789D02*
D03*
Y121793D02*
D03*
X511048Y106807D02*
D03*
Y121793D02*
D03*
D82*
X811101Y259461D02*
D03*
Y255460D02*
D03*
Y243459D02*
D03*
Y247460D02*
D03*
Y267460D02*
D03*
Y263459D02*
D03*
Y251460D02*
D03*
Y239461D02*
D03*
Y235460D02*
D03*
D83*
X798850Y249461D02*
D03*
Y253459D02*
D03*
Y237460D02*
D03*
Y241460D02*
D03*
Y261460D02*
D03*
Y233459D02*
D03*
Y265460D02*
D03*
Y269461D02*
D03*
Y245460D02*
D03*
Y257460D02*
D03*
D84*
X812902Y216959D02*
D03*
Y285961D02*
D03*
D85*
X203835Y85725D02*
D03*
X226695D02*
D03*
X267970D02*
D03*
X245110D02*
D03*
D86*
X288925Y140970D02*
D03*
Y163830D02*
D03*
D87*
X325374Y187325D02*
D03*
Y98425D02*
D03*
X379476Y149225D02*
D03*
X325374D02*
D03*
Y136525D02*
D03*
Y123825D02*
D03*
Y85725D02*
D03*
Y73025D02*
D03*
X379476Y85725D02*
D03*
Y161925D02*
D03*
Y187325D02*
D03*
Y136525D02*
D03*
Y123825D02*
D03*
Y111125D02*
D03*
X325374Y174625D02*
D03*
X379476D02*
D03*
X325374Y161925D02*
D03*
X379476Y73025D02*
D03*
X325374Y111125D02*
D03*
X379476Y98425D02*
D03*
D88*
X282321Y228600D02*
D03*
Y209550D02*
D03*
X308229D02*
D03*
Y228600D02*
D03*
Y219075D02*
D03*
D89*
X433832Y111049D02*
D03*
Y117551D02*
D03*
X467868Y124054D02*
D03*
Y104546D02*
D03*
Y111049D02*
D03*
Y117551D02*
D03*
X433832Y124054D02*
D03*
Y104546D02*
D03*
D90*
X108585Y146050D02*
D03*
Y184150D02*
D03*
Y171450D02*
D03*
Y158750D02*
D03*
X164465Y184150D02*
D03*
Y171450D02*
D03*
Y158750D02*
D03*
Y146050D02*
D03*
D91*
X649580Y111760D02*
D03*
X630580D02*
D03*
X688950D02*
D03*
X669950D02*
D03*
X225450Y358775D02*
D03*
X244450D02*
D03*
X352400Y320675D02*
D03*
X333400D02*
D03*
D92*
X558800Y358800D02*
D03*
Y377800D02*
D03*
X438150Y152425D02*
D03*
Y171425D02*
D03*
X463550Y152425D02*
D03*
Y171425D02*
D03*
D93*
X793471Y146050D02*
D03*
D94*
X770357Y136296D02*
D03*
Y155804D02*
D03*
Y149301D02*
D03*
Y142799D02*
D03*
X816585Y155804D02*
D03*
Y149301D02*
D03*
Y142799D02*
D03*
Y136296D02*
D03*
D95*
X498158Y191770D02*
X501650D01*
X496888Y193040D02*
X498158Y191770D01*
X496888Y193040D02*
Y206690D01*
X494030Y209550D02*
X496888Y206690D01*
X492125Y209550D02*
X494030D01*
D96*
X27062Y53975D02*
Y58328D01*
X27546Y59780D01*
X28029Y60263D01*
X28997Y60747D01*
X30448D01*
X31415Y60263D01*
X31899Y59780D01*
X32383Y58328D01*
Y53975D01*
X22225D01*
X29964Y70276D02*
X30932Y69792D01*
X31899Y68825D01*
X32383Y67857D01*
Y65922D01*
X31899Y64955D01*
X30932Y63988D01*
X29964Y63504D01*
X28513Y63020D01*
X26095D01*
X24643Y63504D01*
X23676Y63988D01*
X22709Y64955D01*
X22225Y65922D01*
Y67857D01*
X22709Y68825D01*
X23676Y69792D01*
X24643Y70276D01*
X32383Y73130D02*
X22225D01*
X32383D02*
Y77483D01*
X31899Y78934D01*
X31415Y79418D01*
X30448Y79902D01*
X29481D01*
X28513Y79418D01*
X28029Y78934D01*
X27546Y77483D01*
Y73130D02*
Y77483D01*
X27062Y78934D01*
X26578Y79418D01*
X25611Y79902D01*
X24160D01*
X23192Y79418D01*
X22709Y78934D01*
X22225Y77483D01*
Y73130D01*
X32383Y90156D02*
X22225D01*
X32383D02*
Y94509D01*
X31899Y95961D01*
X31415Y96444D01*
X30448Y96928D01*
X29481D01*
X28513Y96444D01*
X28029Y95961D01*
X27546Y94509D01*
Y90156D01*
Y93542D02*
X22225Y96928D01*
X26095Y99201D02*
Y105006D01*
X27062D01*
X28029Y104522D01*
X28513Y104038D01*
X28997Y103071D01*
Y101620D01*
X28513Y100653D01*
X27546Y99685D01*
X26095Y99201D01*
X25127D01*
X23676Y99685D01*
X22709Y100653D01*
X22225Y101620D01*
Y103071D01*
X22709Y104038D01*
X23676Y105006D01*
X28997Y107183D02*
X22225Y110085D01*
X28997Y112987D02*
X22225Y110085D01*
X32383Y114632D02*
X22225D01*
X32383D02*
Y118985D01*
X31899Y120436D01*
X31415Y120920D01*
X30448Y121404D01*
X29481D01*
X28513Y120920D01*
X28029Y120436D01*
X27546Y118985D01*
Y114632D02*
Y118985D01*
X27062Y120436D01*
X26578Y120920D01*
X25611Y121404D01*
X24160D01*
X23192Y120920D01*
X22709Y120436D01*
X22225Y118985D01*
Y114632D01*
X32383Y128514D02*
X25611Y123677D01*
Y130933D01*
X32383Y128514D02*
X22225D01*
D97*
X16002Y487350D02*
D03*
M02*
