M48
;Layer_Color=9474304
;FILE_FORMAT=4:4
METRIC,LZ
;TYPE=PLATED
T1F00S00C0.1524
T2F00S00C0.2032
T3F00S00C0.3048
T4F00S00C0.3810
T5F00S00C0.7620
T6F00S00C1.0160
T7F00S00C1.6002
T8F00S00C3.1750
T9F00S00C3.2512
%
T01
X00260469Y00426601
X0026035Y00431599
Y00436601
Y00441599
X0026845Y004391
Y00434101
Y004491
X00280949Y00436601
Y00431599
Y00426601
Y00416601
Y00411599
X00290949Y0040132
X00295951
X00300949Y00436601
X00305951
X00315951Y00431599
Y00426601
Y00421599
X0032845Y004291
Y00434101
Y004391
Y00444101
Y004491
X00323451
X0033655Y00431599
X00290949Y00436601
T02
X00201295Y0007112
X00207645
X0022352
Y0009906
X0022098Y0011176
X0020701
Y0009906
X0020066
X0018796Y0012319
X002413Y0011176
X0024638Y0009906
X0025273
X00264795
X00271145
X0026924Y0012065
X00276225
X00301625
Y001016
X003048Y0007366
X0032258Y0006477
X0033147
X003429
X0035306
X0036068
X003683
X0036068Y00073025
Y00085725
Y0011176
X003429Y00111125
Y00117475
Y00123825
Y00098425
X0039878Y0010161
Y0010922
Y0011938
X0041148
Y0010922
Y001016
X0042545Y000889
X0044196
X0045085
Y001016
X0049911Y0005969
X0050546
X0053721
X0054356
X0057912
X0058674
X0059436
X0060198Y0012446
X006096
X006223
X0058547
X0057785
X0057023
Y0011684
X0056261
X0057023Y0010922
X0055372Y001016
X0054483
X0022987Y0009906
Y0007112
X00241935
X00248285
X0063627Y0015494
X0064516
X006604Y00168275
X00663003Y00183642
X00655003
Y00191643
X00663003
X00671004
Y00199644
Y00207645
Y00215646
X00663003
Y00223647
Y00231648
Y00239649
Y00255651
X00671004
Y00263652
X00663003
X00655003
Y00271653
X00663003
Y00279654
X00671004
Y00287655
Y00295656
X00663003
Y00303657
Y00311658
X00655003
Y00303657
Y00295656
X00663003Y00287655
X00655003Y00279654
Y00255651
Y00223647
Y00207645
Y00199644
X00663003
Y00207645
X00671004Y00183642
X0064008
X0062992Y0021209
X00671004Y00231648
X006985
Y0024365
Y00255651
Y00279654
Y00295656
Y00311658
Y00327025
X006858Y0034798
Y003683
Y0037592
Y0040132
Y00427551
Y0043815
Y0044704
X00688975Y004572
X006985
X00708025
X0071755
X00727075
X0071755Y00447675
X00708025Y0042672
X0072136Y0040513
Y0039751
Y0038989
X007493
Y0038227
Y0036068
Y0035306
X0072136Y0034925
Y0036068
X00657499Y00348341
X0064897Y0034798
X0064262
X0063627
X0062992
Y0032131
X006604Y00327025
X00671004Y00303657
X0075946Y002921
Y0025908
X0075184
X0074422
X0076708
X007747
X0078232
X0078994
Y0024546
Y00233459
X0082042Y00243459
X0082804
Y0023622
Y0025146
Y00259461
X0082042
X0082804Y00267335
X0078232Y00269875
X008128Y00316865
X00822325
X00836953
X0083185Y0034544
X00822325
X008128
X0078994Y0034925
Y003937
X008128Y0039624
Y0040894
X0083185
Y0039116
Y00437515
X00822325
X008128
X0078486Y00423799
X0074676Y0046482
X00727075Y004826
X0071755
X00708025
X006985
X00688975
X0067945
X00669925
X006604
X00650875
X0064135
X00631825
X0063373Y0045212
X0062738
X0064008
X0064643
X0065532
X0066167
X0066802
X0067437
X006985Y00219646
Y00207645
Y00191643
X00698497Y00168214
X0075565Y00155804
X00755371Y0014605
X00755599Y00136296
X00780771Y0017145
Y001778
X00768071Y0019685
X00806171Y001905
X00818871Y0019685
X00831571
Y0017145
X00818871
X00831494Y00149301
X00614997Y00183642
X00606996
X00598996
Y00191643
Y00199644
Y00207645
Y00215646
X00606996
X00614997
Y00207645
X00606996
Y00199644
Y00191643
X00614997
Y00199644
Y00223647
Y00231648
X00606996
X00598996
X00606996Y00239649
X00614997
X00606996Y00255651
X00598996
Y00271653
X00606996
Y00279654
X00614997
X00622999
X00614997Y00295656
X00606996
Y00303657
Y00311658
X00598996
Y00303657
Y00295656
X00614997Y00303657
X0062357Y0032639
Y0034798
X0061722
X0061087
X0060452
X005842Y003556
X005715
Y0034798
Y0037338
Y00381
X005842Y0038227
Y0038862
Y0037338
X0056515Y0039116
X0055245
X0054483Y00381
Y0037465
Y0036195
Y003556
X00525201Y0036703
X00513207Y00348107
X00505206
Y00340106
Y00332105
X00513207
Y00324104
X00505206
Y00316103
X00513207
Y00308102
X00505206
Y00300101
X00513207
Y00284099
Y00276098
Y00268097
X00505206
Y00260096
X00513207
Y00252095
X00505206
Y00244094
X00497205
Y00252095
X00489204
Y00244094
X00481203
Y00236093
X00473202
X00465201
Y00244094
X004732Y00244099
Y002521
X004812
X00481203Y00260096
Y00268097
Y00276098
Y00284099
X00489204
X00497205
X00505206
Y00276098
X00497205Y00268097
X00489204
X00465201Y00268099
Y00260101
Y00276101
X004732
Y00284099
X00465201
Y00300101
X004732
Y00308099
X00465201
Y00316101
Y00324099
Y003321
Y00340101
X004732
Y00348099
X00465201
X00449199Y00348107
X00441198
X00433197
Y00340106
Y00332105
X00441198
X00449199
Y00324104
Y00316103
Y00308102
Y00300101
X00441198
Y00308102
X00433197
Y00316103
X00425196
X00417195
Y00300103
X00409194Y00300101
Y002921
X00401193Y00292103
Y00300101
Y00308102
X00409194
Y00324104
X00401193
Y00332105
Y00340106
X00409194
Y00348107
X00417195
X00425196
X00425193Y00340106
X00417195
Y00332105
X00425196
X00409194
X00393192
X00381Y0033147
X0037465
X003683
X003556Y0033274
Y0033909
Y003556
X0036068Y00360045
X003683
Y003683
X00360807
Y0037592
X003683
X00375707Y00375849
X00381Y00360101
X003683Y0034798
X00401193Y00348107
X0040005Y00381
X0040894
X0041529Y0038354
X0041148Y0038989
Y0039878
X00403225
X0039497
X0040005Y0038989
X003937Y00384175
X00384175Y004064
X00371475
Y004318
X00396875
X00409575
X00409725Y004572
X00396875Y0045735
X0038735Y004572
X00381Y0044958
X0036703Y004826
X0035814
X0034925
X0034036
X0032385
X002921
X0027305
X0026035
X0024765
X0023495
Y004572
X0024765
X0026035
X0027305
X0023495Y0043942
Y0039878
X00254Y004064
X00257175Y00358775
X00258331Y00346075
X00248323
X002413
X0023495
X002921
Y003556
X0028448
Y0033655
Y00327025
X002921
Y003175
X0028448Y0031765
Y00308651
X002921Y00307975
Y0029845
Y00288925
X0028448
Y002794
X002921
Y00269875
Y0026035
X00282575Y00263525
Y00254
X002921Y0024384
X0032131Y0024765
Y00254
X003175Y0026035
Y00269875
Y002794
X003302Y00273685
Y0026543
Y0024384
X003175Y0023114
X00317563Y00219075
X003175Y002032
X0032385
X003302
Y0019558
X0032385
X0029972
Y0018796
Y0018034
Y0017399
X002921
X0028575
X0026924Y00177165
Y00183515
Y0019558
X00269875Y0020574
Y0023114
X0026035
X00231775
X00234599Y00196215
X0022987Y00191135
X002426
X0026924Y00164465
Y00140335
Y00133985
Y00127635
X0028575Y0013081
X002921
X003429Y00149225
Y00161925
X0036068
Y00149225
Y0013843
Y0013208
X0039878
Y00149225
Y001651
Y0017272
X0040005Y0020193
X0038989Y0019685
X0036957
X0036068
Y0018034
X00360807Y0021463
Y0022098
X003556Y0023622
Y0024384
X003683Y0024765
Y00268097
X003556Y00266065
Y00273685
X003683Y00284104
Y0029083
Y00308102
X003556Y00307975
Y0029845
X003302
X003175
Y00307975
Y003175
Y00327025
Y0033655
Y00346075
Y003556
X003302
Y0033909
Y0033274
X0032385Y00371475
X003175
X0036068Y0038481
X003429Y004064
Y004318
X0042545Y004572
X0043815
X0045085
X0046355
X0047625
X0048895
X0050165
X00508Y0045212
X0051435Y004572
X0052705Y0046228
X0055245Y004572
X0056515
X00574675
X005842
X00593725
X0060325
X0061468Y0045212
X0062103
X006223Y004826
X00612775
X0060325
X00593725
X005842
X00574675
X0056515
X0056134Y0044704
X0057658Y004318
X005842
Y0043942
Y0041783
X0057658Y00422549
Y004064
X0053975Y0041656
Y0042672
X0052705
Y0041656
X0050165
Y0039116
Y00381
X00489204
X00473202
X004572
X00449204
X004572Y0036957
X00449199Y00340106
X00481203
Y00348107
X00489204
Y00340106
Y00332105
X00497205
Y00340106
Y00348107
X00513207Y00340106
X00497205Y00316103
Y00300101
X00489204
X00481203Y00308102
Y00316103
Y00324104
X004812Y003321
X004572Y002921
X00449199Y00284099
X00441198
Y00276098
X00433197
Y00268097
X00425196
X00417195
X00409194
Y00260096
Y00252095
X00401193
Y00244094
Y00236093
Y00228092
Y00220091
X00409194
Y00228092
Y00236093
X00417195
X00425196
Y00228092
Y00220091
X00434975Y0020955
X0045847
X00473075
X00492125
X00497205Y00228092
X00505206
Y00236093
X00513207
Y00228092
X00525201Y0021717
X0053848Y0021463
Y0022098
Y0023114
Y00256101
Y00268097
Y00300096
Y00308102
X0053086
X0056134Y00311658
Y0032131
X005715Y00311658
Y00295656
Y00284099
Y00271653
Y00255651
Y00231648
Y0022479
Y00207645
Y00199139
Y00191643
X0055372Y0017526
Y0016764
Y00158115
X0056134Y0016256
X0052578Y0014859
X00517525
X00504825
X0050165Y001778
X00511175
X005207
X0052832Y0018415
Y0019558
Y002032
X00492125Y0018415
X004826
Y001778
X0045847Y0018415
X0045085Y001651
Y0015748
Y0014097
X0045847
X0044196
X0043434
X0042418
Y0015748
Y001651
X0045085Y00127
X00449199Y00236093
Y00244094
X00441198
Y00236093
X00433197
Y00244094
X00425196
Y00252095
X00433197
Y00260096
X00449199
Y00252095
X00441198
X00417195
Y00244094
X00409194
X00401193Y00260096
Y00268097
X00393192
X00401193Y00276101
Y00284099
X00409194Y00276098
X00417195Y00284099
X00425196
X00433197
Y00300101
X00425196
X00449199Y00276098
X00489204Y00236093
X00497205
X0057912Y0023876
X0058928
X0056134Y0029972
X0051435Y0039116
X00441325Y0039878
X00450914Y00442024
X0047625
X0048895Y004826
X0050165
X0046355
X0043815
X0042545
X00393192Y00316103
X00385191
Y00220091
X0029464Y0020701
X00262255Y0027686
X00253365
X00244475
X00236855
X0022987
X00250825Y00269875
X00219075Y00263525
Y00254
X00212725Y00282575
Y002921
Y00301625
Y0031115
Y00320675
Y003302
Y0033655
Y00358775
X00187325Y0033655
Y00320675
Y0031115
Y00301625
Y002921
Y00282575
X0018796Y0021082
Y00193675
Y0018415
Y0017399
X0018034Y0017907
X0018796Y0016129
X0018288Y00154399
X0018796Y00147955
X0018288Y001424
X00127Y0014478
Y0016256
X0009525Y0015875
Y0017145
Y0018415
X0006985Y0017145
Y0015875
X0005588
X0003048Y0017272
X0004318Y002794
X0006223Y0029464
Y0030226
X0001905
Y0029464
X0010668Y002921
Y002794
Y003048
Y003175
Y003302
Y003429
X0011938Y004191
Y0042545
X0014097Y00424017
Y00414101
X0015113Y0041402
X0014097Y0040386
X00147955Y00447675
X00130175
X00123675
X0010795
X0009525
X0008875
X000762Y004445
Y00453255
Y00463852
Y00473075
X0010795
X00099875Y0049403
X00142875Y00473075
X000762Y00427101
X001397Y00193675
X00200025Y00191135
X0020828Y00196215
X002159
X00223584Y00196245
X0009017Y00522351
X0006858
T03
X00787121Y001397
Y001524
X00799821
Y001397
X0065405Y00381
Y003937
Y004064
Y004191
X0064135
X0062865
Y004064
X0064135
Y003937
X0062865
Y00381
X0064135
X0061595
Y003937
Y004064
Y004191
X0026035Y0031115
X00250825
Y00320675
Y00301625
X002413Y0031115
X0023876Y001524
X0022606
X0021336
Y001397
X0022606
T04
X00846501Y00220459
Y00282461
T05
X0019685Y0001905
X0022225
Y0004445
X0019685
X0017272Y0008128
Y0010668
X0014732
Y0008128
X0024765Y0004445
Y0001905
X0027305
Y0004445
X0029845
Y0001905
X0032385
X0034925
Y0004445
X0032385
X0037465
X0040005
X0042545
X0045085
Y0001905
X0047625
Y0004445
X0050165
Y0001905
X0052705
X0055245
X0057785
Y0004445
X0060325
Y0001905
X0055245Y0004445
X0052705
X0042545Y0001905
X0040005
X0037465
X0062865
X0065405
Y0004445
X0062865
X0067945
Y0001905
X0070485
X0073025
Y0004445
X0075565
Y0001905
X0070485Y0004445
Y0050165
X0073025
X0075565
X0067945
X0065405
X0062865
X0060325
X0057785
X0055245
X0052705
X0050165
X0047625
X0045085
X0042545
X0040005
X0037465
X0034925
X0032385
X0029845
X0027305
X0024765
X0022225
X0019685
Y0052705
X0022225
X0024765
X0027305
X0029845
X0032385
X0034925
X0037465
X0040005
X0042545
X0045085
X0047625
X0050165
X0052705
X0055245
X0057785
X0060325
X0062865
X0065405
X0067945
X0070485
X0073025
X0075565
T06
X00081788Y0004826
X0011176Y0009525
X00051816
X0042545Y000762
X0045085
X0047625
X0050165
X0052705
X0055245
X0059055Y0010795
X0067945Y0008255
X00760527Y00102641
X00733425Y0013335
Y00158344
Y00178359
Y00203352
X00760527Y00234061
X0070485Y0013335
X0017145Y00254
Y002794
Y003048
Y003302
X0014605Y003175
Y002921
Y002667
Y003429
X00048768Y00336296
X00033528Y00361696
Y00260604
X00048768Y00235204
X000381Y001905
T07
X0011303Y0021971
Y0037719
T08
X0014605Y0003175
X0080645Y000635
Y004826
X0014605Y0051435
T09
X0008255Y002413
Y003556
M30
