G04 Layer_Color=14424576*
%FSLAX44Y44*%
%MOMM*%
G71*
G01*
G75*
%ADD44C,0.2540*%
%ADD48C,0.5080*%
%ADD54C,0.0254*%
%ADD165C,0.3302*%
%ADD166C,0.2286*%
D44*
X3206750Y-2057400D02*
Y-1993900D01*
X1143000Y-2374900D02*
Y-2311400D01*
X1905000Y-2374900D02*
Y-2311400D01*
X2667000Y-2374900D02*
Y-2311400D01*
X3429000Y-2374900D02*
Y-2311400D01*
X4191000Y-2374900D02*
Y-2311400D01*
X381000Y-2374900D02*
Y-2311400D01*
X-381000Y-2374900D02*
Y-2311400D01*
X-1143000Y-2374900D02*
Y-2311400D01*
X-1905000Y-2374900D02*
Y-2311400D01*
X-2667000Y-2374900D02*
Y-2311400D01*
X-3556000Y-2438400D02*
Y-2184400D01*
Y-2438400D02*
X-3302000D01*
X-3429000Y3022600D02*
X4826000D01*
X-3429000Y-2311400D02*
Y3022600D01*
X4191000D02*
Y3086100D01*
X3429000Y3022600D02*
Y3086100D01*
X2667000Y3022600D02*
Y3086100D01*
X1905000Y3022600D02*
Y3086100D01*
X1143000Y3022600D02*
Y3086100D01*
X698500D02*
X762000Y3022600D01*
X825500Y3086100D01*
X381000Y3022600D02*
Y3086100D01*
X-381000Y3022600D02*
Y3086100D01*
X-1143000Y3022600D02*
Y3086100D01*
X-1905000Y3022600D02*
Y3086100D01*
X-2667000Y3022600D02*
Y3086100D01*
X-3556000Y2895600D02*
Y3149600D01*
X-3302000D01*
X-3492500Y2260600D02*
X-3429000D01*
X-3492500Y1498600D02*
X-3429000D01*
X-3492500Y736600D02*
X-3429000D01*
X-3492500Y292100D02*
X-3429000Y355600D01*
X-3492500Y419100D02*
X-3429000Y355600D01*
X-3492500Y-25400D02*
X-3429000D01*
X-3492500Y-787400D02*
X-3429000D01*
X-3492500Y-1549400D02*
X-3429000D01*
X3055874Y-2069592D02*
X3068320D01*
X3076194Y-2084324D02*
Y-2071624D01*
X3078226Y-2069592D01*
X3086608D01*
X3088640Y-2071624D01*
Y-2084324D02*
Y-2071624D01*
X3086608Y-2086356D02*
X3088640Y-2084324D01*
X3078226Y-2086356D02*
X3086608D01*
X3076194Y-2084324D02*
X3078226Y-2086356D01*
X3077464Y-2118106D02*
Y-2101342D01*
Y-2109724D02*
X3089910D01*
X3097784D02*
X3106166D01*
X3118104Y-2118106D02*
Y-2101342D01*
X3128518D01*
X3130550Y-2103374D01*
Y-2107692D02*
Y-2103374D01*
X3128518Y-2109724D02*
X3130550Y-2107692D01*
X3118104Y-2109724D02*
X3128518D01*
X3097784Y-2101342D02*
X3110230D01*
X3097784Y-2118106D02*
Y-2101342D01*
Y-2118106D02*
X3110230D01*
X3096514Y-2086356D02*
Y-2069592D01*
Y-2086356D02*
X3108960D01*
X3116834Y-2077974D02*
X3125216D01*
X3137154Y-2086356D02*
Y-2069592D01*
X3147568D01*
X3149600Y-2071624D01*
Y-2075942D02*
Y-2071624D01*
X3147568Y-2077974D02*
X3149600Y-2075942D01*
X3137154Y-2077974D02*
X3147568D01*
X3116834Y-2069592D02*
X3129280D01*
X3116834Y-2086356D02*
Y-2069592D01*
Y-2086356D02*
X3129280D01*
X3141218Y-2077974D02*
X3149600Y-2086356D01*
X3169920D02*
Y-2073656D01*
X3165856Y-2069592D02*
X3169920Y-2073656D01*
X3161538Y-2069592D02*
X3165856D01*
X3157474Y-2073656D02*
X3161538Y-2069592D01*
X3157474Y-2086356D02*
Y-2073656D01*
Y-2080006D02*
X3169920D01*
X3158744Y-2101342D02*
X3171190D01*
X3164840Y-2118106D02*
Y-2101342D01*
X3158744Y-2118106D02*
X3171190D01*
X3189478Y-2101342D02*
X3191510Y-2103374D01*
X3181096Y-2101342D02*
X3189478D01*
X3179064Y-2103374D02*
X3181096Y-2101342D01*
X3179064Y-2107692D02*
Y-2103374D01*
Y-2107692D02*
X3181096Y-2109724D01*
X3189478D01*
X3191510Y-2111756D01*
Y-2116074D02*
Y-2111756D01*
X3189478Y-2118106D02*
X3191510Y-2116074D01*
X3181096Y-2118106D02*
X3189478D01*
X3179064Y-2116074D02*
X3181096Y-2118106D01*
X3199384Y-2109724D02*
X3207766D01*
X3199384Y-2101342D02*
X3211830D01*
X3199384Y-2118106D02*
Y-2101342D01*
Y-2118106D02*
X3211830D01*
X3210560Y-2073656D02*
Y-2071624D01*
X3208528Y-2069592D02*
X3210560Y-2071624D01*
X3200146Y-2069592D02*
X3208528D01*
X3198114Y-2071624D02*
X3200146Y-2069592D01*
X3198114Y-2084324D02*
Y-2071624D01*
Y-2084324D02*
X3200146Y-2086356D01*
X3208528D01*
X3210560Y-2084324D01*
Y-2082038D01*
X3218434Y-2077974D02*
X3226816D01*
X3218434Y-2069592D02*
X3230880D01*
X3218434Y-2086356D02*
Y-2069592D01*
Y-2086356D02*
X3230880D01*
X3249168Y-2069592D02*
X3251200Y-2071624D01*
X3240786Y-2069592D02*
X3249168D01*
X3238754Y-2071624D02*
X3240786Y-2069592D01*
X3238754Y-2075942D02*
Y-2071624D01*
Y-2075942D02*
X3240786Y-2077974D01*
X3249168D01*
X3251200Y-2080006D01*
Y-2084324D02*
Y-2080006D01*
X3249168Y-2086356D02*
X3251200Y-2084324D01*
X3240786Y-2086356D02*
X3249168D01*
X3238754Y-2084324D02*
X3240786Y-2086356D01*
X3291840Y-2082038D02*
Y-2069592D01*
X3287776Y-2086356D02*
X3291840Y-2082038D01*
X3283458Y-2086356D02*
X3287776D01*
X3279394Y-2082038D02*
X3283458Y-2086356D01*
X3279394Y-2082038D02*
Y-2069592D01*
X3299714Y-2086356D02*
Y-2069592D01*
X3312160Y-2086356D02*
Y-2069592D01*
X3320034Y-2086356D02*
X3332480D01*
X3320034D02*
Y-2069592D01*
X3340354Y-2077974D02*
X3348736D01*
X3340354Y-2069592D02*
X3352800D01*
X3340354Y-2086356D02*
Y-2069592D01*
Y-2086356D02*
X3352800D01*
X3371088Y-2069592D02*
X3373120Y-2071624D01*
X3362706Y-2069592D02*
X3371088D01*
X3360674Y-2071624D02*
X3362706Y-2069592D01*
X3360674Y-2075942D02*
Y-2071624D01*
Y-2075942D02*
X3362706Y-2077974D01*
X3371088D01*
X3373120Y-2080006D01*
Y-2084324D02*
Y-2080006D01*
X3371088Y-2086356D02*
X3373120Y-2084324D01*
X3362706Y-2086356D02*
X3371088D01*
X3360674Y-2084324D02*
X3362706Y-2086356D01*
X3391408Y-2069592D02*
X3393440Y-2071624D01*
X3383026Y-2069592D02*
X3391408D01*
X3380994Y-2071624D02*
X3383026Y-2069592D01*
X3380994Y-2075942D02*
Y-2071624D01*
Y-2075942D02*
X3383026Y-2077974D01*
X3391408D01*
X3393440Y-2080006D01*
Y-2084324D02*
Y-2080006D01*
X3391408Y-2086356D02*
X3393440Y-2084324D01*
X3383026Y-2086356D02*
X3391408D01*
X3380994Y-2084324D02*
X3383026Y-2086356D01*
X3382264Y-2118106D02*
X3394710D01*
X3382264D02*
Y-2101342D01*
X3394710D01*
X3402584Y-2118106D02*
Y-2101342D01*
X3410966D01*
X3415030Y-2105406D01*
Y-2113788D02*
Y-2105406D01*
X3410966Y-2118106D02*
X3415030Y-2113788D01*
X3402584Y-2118106D02*
X3410966D01*
X3382264Y-2109724D02*
X3390646D01*
X3361944Y-2118106D02*
X3374390D01*
X3368040D02*
Y-2101342D01*
X3361944D02*
X3374390D01*
X3341624Y-2118106D02*
Y-2101342D01*
X3354070D01*
X3321304Y-2118106D02*
X3333750D01*
X3327400D02*
Y-2101342D01*
X3321304D02*
X3333750D01*
X3341624Y-2109724D02*
X3350006D01*
X3313430Y-2105406D02*
Y-2103374D01*
X3311398Y-2101342D02*
X3313430Y-2103374D01*
X3303016Y-2101342D02*
X3311398D01*
X3300984Y-2103374D02*
X3303016Y-2101342D01*
X3300984Y-2116074D02*
Y-2103374D01*
Y-2116074D02*
X3303016Y-2118106D01*
X3311398D01*
X3313430Y-2116074D01*
Y-2113788D01*
X3299714Y-2071624D02*
X3312160Y-2084324D01*
X3280664Y-2118106D02*
X3293110D01*
X3280664D02*
Y-2101342D01*
X3293110D01*
X3280664Y-2109724D02*
X3289046D01*
X3260344Y-2118106D02*
Y-2101342D01*
X3270758D01*
X3272790Y-2103374D01*
Y-2107692D02*
Y-2103374D01*
X3270758Y-2109724D02*
X3272790Y-2107692D01*
X3260344Y-2109724D02*
X3270758D01*
X3240024Y-2116074D02*
X3242056Y-2118106D01*
X3250438D01*
X3252470Y-2116074D01*
Y-2111756D01*
X3250438Y-2109724D02*
X3252470Y-2111756D01*
X3242056Y-2109724D02*
X3250438D01*
X3240024Y-2107692D02*
X3242056Y-2109724D01*
X3240024Y-2107692D02*
Y-2103374D01*
X3242056Y-2101342D01*
X3250438D01*
X3252470Y-2103374D01*
X3190240Y-2086356D02*
Y-2069592D01*
X3177794Y-2086356D02*
Y-2069592D01*
Y-2071624D02*
X3190240Y-2084324D01*
X3138424Y-2118106D02*
Y-2101342D01*
Y-2118106D02*
X3144520Y-2111756D01*
X3150870Y-2118106D01*
Y-2101342D01*
X3122168Y-2109724D02*
X3130550Y-2118106D01*
X3089910D02*
Y-2101342D01*
X3057144D02*
X3069590D01*
X3036824Y-2116074D02*
Y-2103374D01*
X3038856Y-2101342D01*
X3047238D01*
X3049270Y-2103374D01*
Y-2116074D02*
Y-2103374D01*
X3047238Y-2118106D02*
X3049270Y-2116074D01*
X3038856Y-2118106D02*
X3047238D01*
X3036824Y-2116074D02*
X3038856Y-2118106D01*
X2984500Y-2171700D02*
X2997200D01*
X2954020Y-2155190D02*
Y-2153412D01*
Y-2155190D02*
X2965958Y-2167128D01*
Y-2169160D02*
Y-2167128D01*
X2934970Y-2169160D02*
Y-2167128D01*
X2946908Y-2155190D01*
Y-2153412D01*
X2934970Y-2155190D02*
Y-2153412D01*
Y-2155190D02*
X2946908Y-2167128D01*
Y-2169160D02*
Y-2167128D01*
X2896870Y-2169160D02*
Y-2167128D01*
X2908808Y-2155190D01*
Y-2153412D01*
Y-2194560D02*
Y-2192528D01*
X2896870Y-2180590D02*
X2908808Y-2192528D01*
X2896870Y-2180590D02*
Y-2178812D01*
Y-2192528D02*
X2908808Y-2180590D01*
X2896870Y-2194560D02*
Y-2192528D01*
Y-2155190D02*
Y-2153412D01*
Y-2155190D02*
X2908808Y-2167128D01*
Y-2169160D02*
Y-2167128D01*
X2921762Y-2169160D02*
Y-2167128D01*
X2923794D01*
Y-2169160D02*
Y-2167128D01*
X2921762Y-2169160D02*
X2923794D01*
X2965958Y-2155190D02*
Y-2153412D01*
X2954020Y-2167128D02*
X2965958Y-2155190D01*
X2954020Y-2169160D02*
Y-2167128D01*
X3108452Y-2211578D02*
X3108960Y-2209800D01*
X3107182Y-2213102D02*
X3108452Y-2211578D01*
X3105150Y-2213610D02*
X3107182Y-2213102D01*
X3103372D02*
X3105150Y-2213610D01*
X3101848Y-2211578D02*
X3103372Y-2213102D01*
X3101340Y-2209800D02*
X3101848Y-2211578D01*
X3101340Y-2209800D02*
X3101848Y-2207768D01*
X3103372Y-2206498D01*
X3105150Y-2205990D01*
X3107182Y-2206498D01*
X3108452Y-2207768D01*
X3108960Y-2209800D01*
X2882900Y-1930400D02*
X3206750D01*
X2882900Y-2311400D02*
Y-1803400D01*
X3206750D01*
Y-1930400D02*
Y-1803400D01*
Y-1930400D02*
X3543300D01*
Y-1803400D01*
X3206750D02*
X3543300D01*
X2127250Y-2247900D02*
X2882900D01*
X2127250Y-2184400D02*
X2882900D01*
X2908808Y-2180590D02*
Y-2178812D01*
X2946908Y-2194560D02*
Y-2192528D01*
X2934970Y-2180590D02*
X2946908Y-2192528D01*
X2934970Y-2180590D02*
Y-2178812D01*
X2965958Y-2180590D02*
Y-2178812D01*
X2954020Y-2192528D02*
X2965958Y-2180590D01*
X2954020Y-2194560D02*
Y-2192528D01*
X2985008Y-2194560D02*
Y-2192528D01*
X2973070Y-2180590D02*
X2985008Y-2192528D01*
X2973070Y-2180590D02*
Y-2178812D01*
X2985008Y-2180590D02*
Y-2178812D01*
X2973070Y-2192528D02*
X2985008Y-2180590D01*
X2973070Y-2194560D02*
Y-2192528D01*
X2991612Y-2167128D02*
Y-2155190D01*
X2985770Y-2161286D02*
X2997708D01*
X3004820Y-2186686D02*
X3016758D01*
X3003550Y-2197100D02*
X3016250D01*
X3010662Y-2192528D02*
Y-2180590D01*
X2992120Y-2224278D02*
X2994152Y-2226310D01*
X3002026D01*
X3004058Y-2224278D01*
Y-2220214D01*
X3002026Y-2218436D02*
X3004058Y-2220214D01*
X2994152Y-2218436D02*
X3002026D01*
X2992120Y-2216404D02*
X2994152Y-2218436D01*
X2992120Y-2216404D02*
Y-2212340D01*
X2994152Y-2210562D01*
X3002026D01*
X3004058Y-2212340D01*
X2973070Y-2210562D02*
X2985008D01*
X2973070Y-2226310D02*
Y-2210562D01*
Y-2226310D02*
X2985008D01*
X2973070Y-2218436D02*
X2980944D01*
X2954020Y-2226310D02*
Y-2210562D01*
Y-2226310D02*
X2965958D01*
X2940812Y-2218436D02*
X2946908D01*
Y-2224278D02*
Y-2218436D01*
X2944876Y-2226310D02*
X2946908Y-2224278D01*
X2937002Y-2226310D02*
X2944876D01*
X2934970Y-2224278D02*
X2937002Y-2226310D01*
X2934970Y-2224278D02*
Y-2212340D01*
X2937002Y-2210562D01*
X2944876D01*
X2946908Y-2212340D01*
X2915920D02*
X2927858Y-2224278D01*
X2915920Y-2226310D02*
Y-2210562D01*
X2896870Y-2226310D02*
Y-2214372D01*
X2900934Y-2210562D01*
X2904744D01*
X2908808Y-2214372D01*
Y-2226310D02*
Y-2214372D01*
X2896870Y-2220214D02*
X2908808D01*
X2927858Y-2226310D02*
Y-2210562D01*
X2921762Y-2194560D02*
Y-2192528D01*
X2923794D01*
Y-2194560D02*
Y-2192528D01*
X2921762Y-2194560D02*
X2923794D01*
X2946908Y-2180590D02*
Y-2178812D01*
X2934970Y-2192528D02*
X2946908Y-2180590D01*
X2934970Y-2194560D02*
Y-2192528D01*
X2965958Y-2194560D02*
Y-2192528D01*
X2954020Y-2180590D02*
X2965958Y-2192528D01*
X2954020Y-2180590D02*
Y-2178812D01*
X3040634Y-2194560D02*
X3044444D01*
X3046476Y-2190496D01*
Y-2182622D01*
X3044444Y-2178812D02*
X3046476Y-2182622D01*
X3040634Y-2178812D02*
X3044444D01*
X3038602Y-2182622D02*
X3040634Y-2178812D01*
X3038602Y-2190496D02*
Y-2182622D01*
Y-2190496D02*
X3040634Y-2194560D01*
X3061462D02*
Y-2192528D01*
X3063494D01*
Y-2194560D02*
Y-2192528D01*
X3061462Y-2194560D02*
X3063494D01*
X3078734D02*
X3082544D01*
X3084576Y-2190496D01*
Y-2182622D01*
X3082544Y-2178812D02*
X3084576Y-2182622D01*
X3078734Y-2178812D02*
X3082544D01*
X3076702Y-2182622D02*
X3078734Y-2178812D01*
X3076702Y-2190496D02*
Y-2182622D01*
Y-2190496D02*
X3078734Y-2194560D01*
X3097784D02*
X3101594D01*
X3103626Y-2190496D01*
Y-2182622D01*
X3101594Y-2178812D02*
X3103626Y-2182622D01*
X3097784Y-2178812D02*
X3101594D01*
X3095752Y-2182622D02*
X3097784Y-2178812D01*
X3095752Y-2190496D02*
Y-2182622D01*
Y-2190496D02*
X3097784Y-2194560D01*
X3112770Y-2178812D02*
X3124708D01*
X3112770Y-2184654D02*
Y-2178812D01*
Y-2184654D02*
X3122676D01*
X3124708Y-2186686D01*
Y-2192528D02*
Y-2186686D01*
X3122676Y-2194560D02*
X3124708Y-2192528D01*
X3114802Y-2194560D02*
X3122676D01*
X3112770Y-2192528D02*
X3114802Y-2194560D01*
X3081020Y-2226310D02*
X3092958D01*
X3081020D02*
Y-2222246D01*
X3085084Y-2218436D01*
X3090926D01*
X3092958Y-2216404D01*
Y-2212340D01*
X3090926Y-2210562D02*
X3092958Y-2212340D01*
X3083052Y-2210562D02*
X3090926D01*
X3081020Y-2212340D02*
X3083052Y-2210562D01*
X3071876Y-2212340D02*
Y-2210562D01*
X3061970Y-2224278D02*
X3071876Y-2212340D01*
X3061970Y-2226310D02*
Y-2224278D01*
X3048762Y-2226310D02*
Y-2210562D01*
X3044952Y-2214372D02*
X3048762Y-2210562D01*
X3044952Y-2226310D02*
X3052826D01*
X3016250Y-2228850D02*
X3028950D01*
X3023362Y-2224278D02*
Y-2212340D01*
X3017520Y-2218436D02*
X3029458D01*
X3030220Y-2296160D02*
Y-2280412D01*
X3038094D01*
X3042158Y-2284222D01*
Y-2292096D02*
Y-2284222D01*
X3038094Y-2296160D02*
X3042158Y-2292096D01*
X3030220Y-2296160D02*
X3038094D01*
X3049270Y-2294128D02*
Y-2282190D01*
X3051302Y-2280412D01*
X3059176D01*
X3061208Y-2282190D01*
Y-2294128D02*
Y-2282190D01*
X3059176Y-2296160D02*
X3061208Y-2294128D01*
X3051302Y-2296160D02*
X3059176D01*
X3049270Y-2294128D02*
X3051302Y-2296160D01*
X3087370D02*
Y-2280412D01*
Y-2282190D02*
X3099308Y-2294128D01*
Y-2296160D02*
Y-2280412D01*
X3106420Y-2294128D02*
Y-2282190D01*
X3108452Y-2280412D01*
X3116326D01*
X3118358Y-2282190D01*
Y-2294128D02*
Y-2282190D01*
X3116326Y-2296160D02*
X3118358Y-2294128D01*
X3108452Y-2296160D02*
X3116326D01*
X3106420Y-2294128D02*
X3108452Y-2296160D01*
X3125470Y-2280412D02*
X3137408D01*
X3125470D02*
X3131312D01*
Y-2296160D02*
Y-2280412D01*
X3163570Y-2294128D02*
X3165602Y-2296160D01*
X3173476D01*
X3175508Y-2294128D01*
Y-2290064D01*
X3173476Y-2288286D02*
X3175508Y-2290064D01*
X3165602Y-2288286D02*
X3173476D01*
X3163570Y-2286254D02*
X3165602Y-2288286D01*
X3163570Y-2286254D02*
Y-2282190D01*
X3165602Y-2280412D01*
X3173476D01*
X3175508Y-2282190D01*
X3194558Y-2284222D02*
Y-2282190D01*
X3192526Y-2280412D02*
X3194558Y-2282190D01*
X3184652Y-2280412D02*
X3192526D01*
X3182620Y-2282190D02*
X3184652Y-2280412D01*
X3182620Y-2294128D02*
Y-2282190D01*
Y-2294128D02*
X3184652Y-2296160D01*
X3192526D01*
X3194558Y-2294128D01*
Y-2292096D01*
X3201670Y-2290064D02*
X3213608D01*
X3201670Y-2296160D02*
Y-2284222D01*
X3205734Y-2280412D01*
X3209544D01*
X3213608Y-2284222D01*
Y-2296160D02*
Y-2284222D01*
X3220720Y-2296160D02*
Y-2280412D01*
Y-2296160D02*
X3232658D01*
X3239770Y-2288286D02*
X3247644D01*
X3239770Y-2296160D02*
X3251708D01*
X3239770D02*
Y-2280412D01*
X3251708D01*
X3277870Y-2296160D02*
Y-2280412D01*
X3285744D01*
X3289808Y-2284222D01*
Y-2292096D02*
Y-2284222D01*
X3285744Y-2296160D02*
X3289808Y-2292096D01*
X3277870Y-2296160D02*
X3285744D01*
X3296920Y-2288286D02*
X3306826D01*
X3308858Y-2286254D01*
Y-2282190D01*
X3306826Y-2280412D02*
X3308858Y-2282190D01*
X3296920Y-2280412D02*
X3306826D01*
X3296920Y-2296160D02*
Y-2280412D01*
X3300984Y-2288286D02*
X3308858Y-2296160D01*
X3327908D02*
Y-2284222D01*
X3323844Y-2280412D02*
X3327908Y-2284222D01*
X3320034Y-2280412D02*
X3323844D01*
X3315970Y-2284222D02*
X3320034Y-2280412D01*
X3315970Y-2296160D02*
Y-2284222D01*
Y-2290064D02*
X3327908D01*
X3346958Y-2296160D02*
Y-2280412D01*
X3340862Y-2290064D02*
X3346958Y-2296160D01*
X3335020D02*
X3340862Y-2290064D01*
X3335020Y-2296160D02*
Y-2280412D01*
X3354070D02*
X3366008D01*
X3359912Y-2296160D02*
Y-2280412D01*
X3354070Y-2296160D02*
X3366008D01*
X3373120D02*
Y-2280412D01*
Y-2282190D02*
X3385058Y-2294128D01*
Y-2296160D02*
Y-2280412D01*
X3398012Y-2288286D02*
X3404108D01*
Y-2294128D02*
Y-2288286D01*
X3402076Y-2296160D02*
X3404108Y-2294128D01*
X3394202Y-2296160D02*
X3402076D01*
X3392170Y-2294128D02*
X3394202Y-2296160D01*
X3392170Y-2294128D02*
Y-2282190D01*
X3394202Y-2280412D01*
X3402076D01*
X3404108Y-2282190D01*
X3543300Y-2311400D02*
X3556000D01*
X2127250Y-2057400D02*
X2882900D01*
X3543300D01*
X2127250Y-2120900D02*
X2882900D01*
X3263900Y-1866900D02*
X3543300D01*
X2882900D02*
X3263900D01*
X2127250Y-2311400D02*
Y-1993900D01*
X2882900D01*
X3543300D01*
X4127500Y-2184400D02*
X4699000D01*
X4127500Y-2311400D02*
Y-2184400D01*
X4725670Y-2211578D02*
X4727702Y-2213610D01*
X4735576D01*
X4737608Y-2211578D01*
Y-2207514D01*
X4735576Y-2205736D02*
X4737608Y-2207514D01*
X4727702Y-2205736D02*
X4735576D01*
X4725670Y-2203704D02*
X4727702Y-2205736D01*
X4725670Y-2203704D02*
Y-2199640D01*
X4727702Y-2197862D01*
X4735576D01*
X4737608Y-2199640D01*
X4744720Y-2213610D02*
X4756658D01*
X4699000Y-2311400D02*
Y-2184400D01*
X4826000D01*
Y-1943100D02*
Y-1930400D01*
X4782820Y-2213610D02*
X4794758D01*
X4782820D02*
Y-2197862D01*
X4794758D01*
X4782820Y-2205736D02*
X4790694D01*
X4763770D02*
X4775708D01*
X4763770Y-2213610D02*
X4775708D01*
X4763770D02*
Y-2211578D01*
X4775708Y-2199640D01*
Y-2197862D01*
X4763770D02*
X4775708D01*
X4750562Y-2213610D02*
Y-2197862D01*
X4744720D02*
X4756658D01*
X4747006Y-2278888D02*
Y-2236978D01*
X4767834D01*
X4778502Y-2247392D01*
Y-2268474D02*
Y-2247392D01*
X4767834Y-2278888D02*
X4778502Y-2268474D01*
X4747006Y-2278888D02*
X4767834D01*
X-3429000Y-2311400D02*
X4826000D01*
X-3039872Y-2433066D02*
Y-2401570D01*
X-3047746Y-2409444D02*
X-3039872Y-2401570D01*
X-3047746Y-2433066D02*
X-3031998D01*
X-2289810Y-2405634D02*
X-2285746Y-2401570D01*
X-2269998D01*
X-2266188Y-2405634D01*
Y-2413508D02*
Y-2405634D01*
X-2269998Y-2417318D02*
X-2266188Y-2413508D01*
X-2281936Y-2417318D02*
X-2269998D01*
X-2289810Y-2425192D02*
X-2281936Y-2417318D01*
X-2289810Y-2433066D02*
Y-2425192D01*
Y-2433066D02*
X-2266188D01*
X-1527810Y-2429256D02*
X-1523746Y-2433066D01*
X-1507998D01*
X-1504188Y-2429256D01*
Y-2421382D01*
X-1507998Y-2417318D02*
X-1504188Y-2421382D01*
X-1519936Y-2417318D02*
X-1507998D01*
X-1519936D02*
X-1504188Y-2401570D01*
X-1527810D02*
X-1504188D01*
X-765810Y-2421382D02*
X-742188D01*
X-765810D02*
X-745998Y-2401570D01*
Y-2433066D02*
Y-2401570D01*
X-3810D02*
X19812D01*
X-3810Y-2413508D02*
Y-2401570D01*
Y-2413508D02*
X16002D01*
X19812Y-2417318D01*
Y-2429256D02*
Y-2417318D01*
X16002Y-2433066D02*
X19812Y-2429256D01*
X254Y-2433066D02*
X16002D01*
X-3810Y-2429256D02*
X254Y-2433066D01*
X762000Y-2311400D02*
X825500Y-2374900D01*
X698500D02*
X762000Y-2311400D01*
X758190Y-2421382D02*
X766064Y-2413508D01*
X778002D01*
X781812Y-2417318D01*
Y-2429256D02*
Y-2417318D01*
X778002Y-2433066D02*
X781812Y-2429256D01*
X766064Y-2433066D02*
X778002D01*
X758190Y-2425192D02*
X766064Y-2433066D01*
X758190Y-2425192D02*
Y-2409444D01*
X766064Y-2401570D01*
X778002D01*
X1520190D02*
X1543812D01*
Y-2409444D02*
Y-2401570D01*
X1520190Y-2433066D02*
X1543812Y-2409444D01*
X2286254Y-2417318D02*
X2302002D01*
X2282190Y-2421382D02*
X2286254Y-2417318D01*
X2282190Y-2429256D02*
Y-2421382D01*
Y-2429256D02*
X2286254Y-2433066D01*
X2302002D01*
X2305812Y-2429256D01*
Y-2421382D01*
X2302002Y-2417318D02*
X2305812Y-2421382D01*
X2302002Y-2417318D02*
X2305812Y-2413508D01*
Y-2405634D01*
X2302002Y-2401570D02*
X2305812Y-2405634D01*
X2286254Y-2401570D02*
X2302002D01*
X2282190Y-2405634D02*
X2286254Y-2401570D01*
X2282190Y-2413508D02*
Y-2405634D01*
Y-2413508D02*
X2286254Y-2417318D01*
X3048254Y-2433066D02*
X3059938D01*
X3067812Y-2425192D01*
Y-2413508D01*
Y-2409444D01*
X3059938Y-2401570D02*
X3067812Y-2409444D01*
X3048254Y-2401570D02*
X3059938D01*
X3044190Y-2405634D02*
X3048254Y-2401570D01*
X3044190Y-2417318D02*
Y-2405634D01*
Y-2417318D02*
X3048254Y-2421382D01*
X3059938D01*
X3067812Y-2413508D01*
X3206750Y-1993900D02*
Y-1930400D01*
X3589528Y-2286254D02*
X3592068Y-2288794D01*
X3602736D01*
X3605276Y-2286254D01*
Y-2280920D01*
X3602736Y-2278380D02*
X3605276Y-2280920D01*
X3592068Y-2278380D02*
X3602736D01*
X3589528Y-2275586D02*
X3592068Y-2278380D01*
X3589528Y-2275586D02*
Y-2270506D01*
X3592068Y-2267712D01*
X3602736D01*
X3605276Y-2270506D01*
X3614928Y-2288794D02*
Y-2267712D01*
Y-2278380D02*
X3630676D01*
X3640328D02*
X3650742D01*
X3665728D02*
X3676142D01*
X3665728Y-2267712D02*
X3681476D01*
X3665728Y-2288794D02*
Y-2267712D01*
Y-2288794D02*
X3681476D01*
X3640328D02*
X3656076D01*
X3640328D02*
Y-2267712D01*
X3656076D01*
X3630676Y-2288794D02*
Y-2267712D01*
X3691128D02*
X3706876D01*
X3852164Y-2433066D02*
X3860038D01*
X3864102Y-2425192D01*
Y-2409444D01*
X3860038Y-2401570D02*
X3864102Y-2409444D01*
X3852164Y-2401570D02*
X3860038D01*
X3848354Y-2409444D02*
X3852164Y-2401570D01*
X3848354Y-2425192D02*
Y-2409444D01*
Y-2425192D02*
X3852164Y-2433066D01*
X3810254D02*
X3826002D01*
X3810254Y-2409444D02*
X3818128Y-2401570D01*
Y-2433066D02*
Y-2401570D01*
X4580128Y-2433066D02*
Y-2401570D01*
X4572254Y-2409444D02*
X4580128Y-2401570D01*
X4572254Y-2433066D02*
X4588002D01*
X4610354D02*
X4626102D01*
X4610354Y-2409444D02*
X4618228Y-2401570D01*
Y-2433066D02*
Y-2401570D01*
X-10160Y3136392D02*
X9652D01*
X13462Y3132582D01*
Y3120644D02*
Y3132582D01*
X9652Y3116834D02*
X13462Y3120644D01*
X-6096Y3116834D02*
X9652D01*
X-10160Y3120644D02*
X-6096Y3116834D01*
X-752348D02*
Y3148330D01*
X-772160Y3128518D02*
X-752348Y3148330D01*
X-772160Y3128518D02*
X-748538D01*
X-1534160Y3148330D02*
X-1510538D01*
X-1526286Y3132582D02*
X-1510538Y3148330D01*
X-1526286Y3132582D02*
X-1514348D01*
X-1510538Y3128518D01*
Y3120644D02*
Y3128518D01*
X-1514348Y3116834D02*
X-1510538Y3120644D01*
X-1530096Y3116834D02*
X-1514348D01*
X-1534160Y3120644D02*
X-1530096Y3116834D01*
X-2296160D02*
X-2272538D01*
X-2296160D02*
Y3124708D01*
X-2288286Y3132582D01*
X-2276348D01*
X-2272538Y3136392D01*
Y3144266D01*
X-2276348Y3148330D02*
X-2272538Y3144266D01*
X-2292096Y3148330D02*
X-2276348D01*
X-2296160Y3144266D02*
X-2292096Y3148330D01*
X-3054096Y3116834D02*
X-3038348D01*
X-3054096Y3140456D02*
X-3046222Y3148330D01*
Y3116834D02*
Y3148330D01*
X-3540760Y2645918D02*
X-3517138D01*
Y2634234D02*
Y2657856D01*
X-3525012Y2665730D02*
X-3517138Y2657856D01*
X-3532886Y2665730D02*
X-3525012D01*
X-3540760Y2657856D02*
X-3532886Y2665730D01*
X-3540760Y2634234D02*
Y2657856D01*
Y1887982D02*
X-3520948D01*
X-3540760Y1872234D02*
Y1887982D01*
Y1903730D01*
X-3520948D01*
X-3517138Y1899666D01*
Y1891792D02*
Y1899666D01*
X-3520948Y1887982D02*
X-3517138Y1891792D01*
X-3520948Y1887982D02*
X-3517138Y1883918D01*
Y1876044D02*
Y1883918D01*
X-3520948Y1872234D02*
X-3517138Y1876044D01*
X-3540760Y1872234D02*
X-3520948D01*
X-3517138Y1114044D02*
Y1118108D01*
X-3520948Y1110234D02*
X-3517138Y1114044D01*
X-3536696Y1110234D02*
X-3520948D01*
X-3540760Y1114044D02*
X-3536696Y1110234D01*
X-3540760Y1114044D02*
Y1137666D01*
X-3536696Y1141730D01*
X-3520948D01*
X-3517138Y1137666D01*
Y1133856D02*
Y1137666D01*
X-3540760Y348234D02*
Y379730D01*
X-3525012D01*
X-3517138Y371856D01*
Y356108D02*
Y371856D01*
X-3525012Y348234D02*
X-3517138Y356108D01*
X-3540760Y348234D02*
X-3525012D01*
X-3540760Y-398018D02*
X-3525012D01*
X-3540760Y-382270D02*
X-3517138D01*
X-3540760Y-413766D02*
Y-382270D01*
Y-413766D02*
X-3517138D01*
X-3540760Y-1175766D02*
Y-1144270D01*
X-3517138D01*
X-3540760Y-1160018D02*
X-3525012D01*
X-3528822Y-1922018D02*
X-3517138D01*
Y-1933956D02*
Y-1922018D01*
X-3520948Y-1937766D02*
X-3517138Y-1933956D01*
X-3536696Y-1937766D02*
X-3520948D01*
X-3540760Y-1933956D02*
X-3536696Y-1937766D01*
X-3540760Y-1933956D02*
Y-1910334D01*
X-3536696Y-1906270D01*
X-3520948D01*
X-3517138Y-1910334D01*
X3021584Y-2169160D02*
X3025394D01*
X3027426Y-2165096D01*
Y-2157222D01*
X3025394Y-2153412D02*
X3027426Y-2157222D01*
X3021584Y-2153412D02*
X3025394D01*
X3019552Y-2157222D02*
X3021584Y-2153412D01*
X3019552Y-2165096D02*
Y-2157222D01*
Y-2165096D02*
X3021584Y-2169160D01*
X3042412D02*
Y-2167128D01*
X3044444D01*
Y-2169160D02*
Y-2167128D01*
X3042412Y-2169160D02*
X3044444D01*
X3059684D02*
X3063494D01*
X3065526Y-2165096D01*
Y-2157222D01*
X3063494Y-2153412D02*
X3065526Y-2157222D01*
X3059684Y-2153412D02*
X3063494D01*
X3057652Y-2157222D02*
X3059684Y-2153412D01*
X3057652Y-2165096D02*
Y-2157222D01*
Y-2165096D02*
X3059684Y-2169160D01*
X3076702D02*
X3084576D01*
X3076702Y-2157222D02*
X3080512Y-2153412D01*
Y-2169160D02*
Y-2153412D01*
X4917440Y-1166368D02*
X4933188D01*
X4917440Y-1182116D02*
Y-1150620D01*
X4941062D01*
X4826000Y-1549400D02*
X4889500D01*
X4929378Y-1928368D02*
X4941062D01*
Y-1940306D02*
Y-1928368D01*
X4937252Y-1944116D02*
X4941062Y-1940306D01*
X4921504Y-1944116D02*
X4937252D01*
X4917440Y-1940306D02*
X4921504Y-1944116D01*
X4917440Y-1940306D02*
Y-1916684D01*
X4921504Y-1912620D01*
X4937252D01*
X4941062Y-1916684D01*
X4699000Y-2438400D02*
X4953000D01*
Y-2184400D01*
X4826000Y-2311400D02*
Y3022600D01*
X4699000Y3149600D02*
X4953000D01*
Y2895600D02*
Y3149600D01*
X4611878Y3116834D02*
Y3148330D01*
X4604004Y3140456D02*
X4611878Y3148330D01*
X4604004Y3116834D02*
X4619752D01*
X4565904D02*
X4581652D01*
X4565904Y3140456D02*
X4573778Y3148330D01*
Y3116834D02*
Y3148330D01*
X3845814Y3116834D02*
X3853688D01*
X3857752Y3124708D01*
Y3140456D01*
X3853688Y3148330D02*
X3857752Y3140456D01*
X3845814Y3148330D02*
X3853688D01*
X3842004Y3140456D02*
X3845814Y3148330D01*
X3842004Y3124708D02*
Y3140456D01*
Y3124708D02*
X3845814Y3116834D01*
X3803904D02*
X3819652D01*
X3803904Y3140456D02*
X3811778Y3148330D01*
Y3116834D02*
Y3148330D01*
X3041904Y3116834D02*
X3053588D01*
X3061462Y3124708D01*
Y3136392D01*
Y3140456D01*
X3053588Y3148330D02*
X3061462Y3140456D01*
X3041904Y3148330D02*
X3053588D01*
X3037840Y3144266D02*
X3041904Y3148330D01*
X3037840Y3132582D02*
Y3144266D01*
Y3132582D02*
X3041904Y3128518D01*
X3053588D01*
X3061462Y3136392D01*
X2275840D02*
X2279904Y3132582D01*
X2275840Y3136392D02*
Y3144266D01*
X2279904Y3148330D01*
X2295652D01*
X2299462Y3144266D01*
Y3136392D02*
Y3144266D01*
X2295652Y3132582D02*
X2299462Y3136392D01*
X2295652Y3132582D02*
X2299462Y3128518D01*
Y3120644D02*
Y3128518D01*
X2295652Y3116834D02*
X2299462Y3120644D01*
X2279904Y3116834D02*
X2295652D01*
X2275840Y3120644D02*
X2279904Y3116834D01*
X2275840Y3120644D02*
Y3128518D01*
X2279904Y3132582D01*
X2295652D01*
X1513840Y3148330D02*
X1537462D01*
Y3140456D02*
Y3148330D01*
X1513840Y3116834D02*
X1537462Y3140456D01*
X751840Y3128518D02*
X759714Y3136392D01*
X771652D01*
X775462Y3132582D01*
Y3120644D02*
Y3132582D01*
X771652Y3116834D02*
X775462Y3120644D01*
X759714Y3116834D02*
X771652D01*
X751840Y3124708D02*
X759714Y3116834D01*
X751840Y3124708D02*
Y3140456D01*
X759714Y3148330D01*
X771652D01*
X-10160Y3136392D02*
Y3148330D01*
X13462D01*
X4917440Y2639568D02*
X4941062D01*
X4917440Y2627884D02*
Y2651506D01*
X4925314Y2659380D01*
X4933188D01*
X4941062Y2651506D01*
Y2627884D02*
Y2651506D01*
X4826000Y2260600D02*
X4889500D01*
X4917440Y1881632D02*
X4937252D01*
X4917440Y1865884D02*
Y1881632D01*
Y1897380D01*
X4937252D01*
X4941062Y1893316D01*
Y1885442D02*
Y1893316D01*
X4937252Y1881632D02*
X4941062Y1885442D01*
X4937252Y1881632D02*
X4941062Y1877568D01*
Y1869694D02*
Y1877568D01*
X4937252Y1865884D02*
X4941062Y1869694D01*
X4917440Y1865884D02*
X4937252D01*
X4826000Y1498600D02*
X4889500D01*
X4941062Y1107694D02*
Y1111758D01*
X4937252Y1103884D02*
X4941062Y1107694D01*
X4921504Y1103884D02*
X4937252D01*
X4917440Y1107694D02*
X4921504Y1103884D01*
X4917440Y1107694D02*
Y1131316D01*
X4921504Y1135380D01*
X4937252D01*
X4941062Y1131316D01*
Y1127506D02*
Y1131316D01*
X4826000Y730250D02*
X4889500D01*
X4826000Y355600D02*
X4889500Y292100D01*
X4826000Y355600D02*
X4889500Y419100D01*
X4917440Y341884D02*
Y373380D01*
X4933188D01*
X4941062Y365506D01*
Y349758D02*
Y365506D01*
X4933188Y341884D02*
X4941062Y349758D01*
X4917440Y341884D02*
X4933188D01*
X4826000Y-19050D02*
X4889500D01*
X4917440Y-404368D02*
X4933188D01*
X4917440Y-388620D02*
X4941062D01*
X4917440Y-420116D02*
Y-388620D01*
Y-420116D02*
X4941062D01*
X4826000Y-787400D02*
X4889500D01*
X3543300Y-1803400D02*
X4826000D01*
X3543300Y-2184400D02*
X4127500D01*
X3543300Y-2247900D02*
X4127500D01*
X3543300Y-1930400D02*
X4826000D01*
X3543300Y-2311400D02*
Y-1930400D01*
X3589528Y-2222754D02*
X3592068Y-2225294D01*
X3602736D01*
X3605276Y-2222754D01*
Y-2217420D01*
X3602736Y-2214880D02*
X3605276Y-2217420D01*
X3592068Y-2214880D02*
X3602736D01*
X3589528Y-2212086D02*
X3592068Y-2214880D01*
X3589528Y-2212086D02*
Y-2207006D01*
X3592068Y-2204212D01*
X3602736D01*
X3605276Y-2207006D01*
X3630676Y-2209546D02*
Y-2207006D01*
X3628136Y-2204212D02*
X3630676Y-2207006D01*
X3617468Y-2204212D02*
X3628136D01*
X3614928Y-2207006D02*
X3617468Y-2204212D01*
X3614928Y-2222754D02*
Y-2207006D01*
Y-2222754D02*
X3617468Y-2225294D01*
X3628136D01*
X3630676Y-2222754D01*
Y-2219960D01*
X3640328Y-2217420D02*
X3656076D01*
X3640328Y-2225294D02*
Y-2209546D01*
X3645662Y-2204212D01*
X3650742D01*
X3656076Y-2209546D01*
Y-2225294D02*
Y-2209546D01*
X3665728Y-2225294D02*
Y-2204212D01*
Y-2225294D02*
X3681476D01*
X3691128Y-2214880D02*
X3701542D01*
X3691128Y-2204212D02*
X3706876D01*
X3691128Y-2225294D02*
Y-2204212D01*
Y-2225294D02*
X3706876D01*
X3061970Y-2086356D02*
Y-2069592D01*
X3055874D02*
X3061970D01*
X3063240Y-2118106D02*
Y-2101342D01*
X3057144D02*
X3063240D01*
X3699002Y-2288794D02*
Y-2267712D01*
X3691128D02*
X3699002D01*
X3206750Y-2057400D02*
Y-1993900D01*
X1143000Y-2374900D02*
Y-2311400D01*
X1905000Y-2374900D02*
Y-2311400D01*
X2667000Y-2374900D02*
Y-2311400D01*
X3429000Y-2374900D02*
Y-2311400D01*
X4191000Y-2374900D02*
Y-2311400D01*
X381000Y-2374900D02*
Y-2311400D01*
X-381000Y-2374900D02*
Y-2311400D01*
X-1143000Y-2374900D02*
Y-2311400D01*
X-1905000Y-2374900D02*
Y-2311400D01*
X-2667000Y-2374900D02*
Y-2311400D01*
X-3556000Y-2438400D02*
Y-2184400D01*
Y-2438400D02*
X-3302000D01*
X-3429000Y3022600D02*
X4826000D01*
X-3429000Y-2311400D02*
Y3022600D01*
X4191000D02*
Y3086100D01*
X3429000Y3022600D02*
Y3086100D01*
X2667000Y3022600D02*
Y3086100D01*
X1905000Y3022600D02*
Y3086100D01*
X1143000Y3022600D02*
Y3086100D01*
X698500D02*
X762000Y3022600D01*
X825500Y3086100D01*
X381000Y3022600D02*
Y3086100D01*
X-381000Y3022600D02*
Y3086100D01*
X-1143000Y3022600D02*
Y3086100D01*
X-1905000Y3022600D02*
Y3086100D01*
X-2667000Y3022600D02*
Y3086100D01*
X-3556000Y2895600D02*
Y3149600D01*
X-3302000D01*
X-3492500Y2260600D02*
X-3429000D01*
X-3492500Y1498600D02*
X-3429000D01*
X-3492500Y736600D02*
X-3429000D01*
X-3492500Y292100D02*
X-3429000Y355600D01*
X-3492500Y419100D02*
X-3429000Y355600D01*
X-3492500Y-25400D02*
X-3429000D01*
X-3492500Y-787400D02*
X-3429000D01*
X-3492500Y-1549400D02*
X-3429000D01*
X3055874Y-2069592D02*
X3068320D01*
X3076194Y-2084324D02*
Y-2071624D01*
X3078226Y-2069592D01*
X3086608D01*
X3088640Y-2071624D01*
Y-2084324D02*
Y-2071624D01*
X3086608Y-2086356D02*
X3088640Y-2084324D01*
X3078226Y-2086356D02*
X3086608D01*
X3076194Y-2084324D02*
X3078226Y-2086356D01*
X3077464Y-2118106D02*
Y-2101342D01*
Y-2109724D02*
X3089910D01*
X3097784D02*
X3106166D01*
X3118104Y-2118106D02*
Y-2101342D01*
X3128518D01*
X3130550Y-2103374D01*
Y-2107692D02*
Y-2103374D01*
X3128518Y-2109724D02*
X3130550Y-2107692D01*
X3118104Y-2109724D02*
X3128518D01*
X3097784Y-2101342D02*
X3110230D01*
X3097784Y-2118106D02*
Y-2101342D01*
Y-2118106D02*
X3110230D01*
X3096514Y-2086356D02*
Y-2069592D01*
Y-2086356D02*
X3108960D01*
X3116834Y-2077974D02*
X3125216D01*
X3137154Y-2086356D02*
Y-2069592D01*
X3147568D01*
X3149600Y-2071624D01*
Y-2075942D02*
Y-2071624D01*
X3147568Y-2077974D02*
X3149600Y-2075942D01*
X3137154Y-2077974D02*
X3147568D01*
X3116834Y-2069592D02*
X3129280D01*
X3116834Y-2086356D02*
Y-2069592D01*
Y-2086356D02*
X3129280D01*
X3141218Y-2077974D02*
X3149600Y-2086356D01*
X3169920D02*
Y-2073656D01*
X3165856Y-2069592D02*
X3169920Y-2073656D01*
X3161538Y-2069592D02*
X3165856D01*
X3157474Y-2073656D02*
X3161538Y-2069592D01*
X3157474Y-2086356D02*
Y-2073656D01*
Y-2080006D02*
X3169920D01*
X3158744Y-2101342D02*
X3171190D01*
X3164840Y-2118106D02*
Y-2101342D01*
X3158744Y-2118106D02*
X3171190D01*
X3189478Y-2101342D02*
X3191510Y-2103374D01*
X3181096Y-2101342D02*
X3189478D01*
X3179064Y-2103374D02*
X3181096Y-2101342D01*
X3179064Y-2107692D02*
Y-2103374D01*
Y-2107692D02*
X3181096Y-2109724D01*
X3189478D01*
X3191510Y-2111756D01*
Y-2116074D02*
Y-2111756D01*
X3189478Y-2118106D02*
X3191510Y-2116074D01*
X3181096Y-2118106D02*
X3189478D01*
X3179064Y-2116074D02*
X3181096Y-2118106D01*
X3199384Y-2109724D02*
X3207766D01*
X3199384Y-2101342D02*
X3211830D01*
X3199384Y-2118106D02*
Y-2101342D01*
Y-2118106D02*
X3211830D01*
X3210560Y-2073656D02*
Y-2071624D01*
X3208528Y-2069592D02*
X3210560Y-2071624D01*
X3200146Y-2069592D02*
X3208528D01*
X3198114Y-2071624D02*
X3200146Y-2069592D01*
X3198114Y-2084324D02*
Y-2071624D01*
Y-2084324D02*
X3200146Y-2086356D01*
X3208528D01*
X3210560Y-2084324D01*
Y-2082038D01*
X3218434Y-2077974D02*
X3226816D01*
X3218434Y-2069592D02*
X3230880D01*
X3218434Y-2086356D02*
Y-2069592D01*
Y-2086356D02*
X3230880D01*
X3249168Y-2069592D02*
X3251200Y-2071624D01*
X3240786Y-2069592D02*
X3249168D01*
X3238754Y-2071624D02*
X3240786Y-2069592D01*
X3238754Y-2075942D02*
Y-2071624D01*
Y-2075942D02*
X3240786Y-2077974D01*
X3249168D01*
X3251200Y-2080006D01*
Y-2084324D02*
Y-2080006D01*
X3249168Y-2086356D02*
X3251200Y-2084324D01*
X3240786Y-2086356D02*
X3249168D01*
X3238754Y-2084324D02*
X3240786Y-2086356D01*
X3291840Y-2082038D02*
Y-2069592D01*
X3287776Y-2086356D02*
X3291840Y-2082038D01*
X3283458Y-2086356D02*
X3287776D01*
X3279394Y-2082038D02*
X3283458Y-2086356D01*
X3279394Y-2082038D02*
Y-2069592D01*
X3299714Y-2086356D02*
Y-2069592D01*
X3312160Y-2086356D02*
Y-2069592D01*
X3320034Y-2086356D02*
X3332480D01*
X3320034D02*
Y-2069592D01*
X3340354Y-2077974D02*
X3348736D01*
X3340354Y-2069592D02*
X3352800D01*
X3340354Y-2086356D02*
Y-2069592D01*
Y-2086356D02*
X3352800D01*
X3371088Y-2069592D02*
X3373120Y-2071624D01*
X3362706Y-2069592D02*
X3371088D01*
X3360674Y-2071624D02*
X3362706Y-2069592D01*
X3360674Y-2075942D02*
Y-2071624D01*
Y-2075942D02*
X3362706Y-2077974D01*
X3371088D01*
X3373120Y-2080006D01*
Y-2084324D02*
Y-2080006D01*
X3371088Y-2086356D02*
X3373120Y-2084324D01*
X3362706Y-2086356D02*
X3371088D01*
X3360674Y-2084324D02*
X3362706Y-2086356D01*
X3391408Y-2069592D02*
X3393440Y-2071624D01*
X3383026Y-2069592D02*
X3391408D01*
X3380994Y-2071624D02*
X3383026Y-2069592D01*
X3380994Y-2075942D02*
Y-2071624D01*
Y-2075942D02*
X3383026Y-2077974D01*
X3391408D01*
X3393440Y-2080006D01*
Y-2084324D02*
Y-2080006D01*
X3391408Y-2086356D02*
X3393440Y-2084324D01*
X3383026Y-2086356D02*
X3391408D01*
X3380994Y-2084324D02*
X3383026Y-2086356D01*
X3382264Y-2118106D02*
X3394710D01*
X3382264D02*
Y-2101342D01*
X3394710D01*
X3402584Y-2118106D02*
Y-2101342D01*
X3410966D01*
X3415030Y-2105406D01*
Y-2113788D02*
Y-2105406D01*
X3410966Y-2118106D02*
X3415030Y-2113788D01*
X3402584Y-2118106D02*
X3410966D01*
X3382264Y-2109724D02*
X3390646D01*
X3361944Y-2118106D02*
X3374390D01*
X3368040D02*
Y-2101342D01*
X3361944D02*
X3374390D01*
X3341624Y-2118106D02*
Y-2101342D01*
X3354070D01*
X3321304Y-2118106D02*
X3333750D01*
X3327400D02*
Y-2101342D01*
X3321304D02*
X3333750D01*
X3341624Y-2109724D02*
X3350006D01*
X3313430Y-2105406D02*
Y-2103374D01*
X3311398Y-2101342D02*
X3313430Y-2103374D01*
X3303016Y-2101342D02*
X3311398D01*
X3300984Y-2103374D02*
X3303016Y-2101342D01*
X3300984Y-2116074D02*
Y-2103374D01*
Y-2116074D02*
X3303016Y-2118106D01*
X3311398D01*
X3313430Y-2116074D01*
Y-2113788D01*
X3299714Y-2071624D02*
X3312160Y-2084324D01*
X3280664Y-2118106D02*
X3293110D01*
X3280664D02*
Y-2101342D01*
X3293110D01*
X3280664Y-2109724D02*
X3289046D01*
X3260344Y-2118106D02*
Y-2101342D01*
X3270758D01*
X3272790Y-2103374D01*
Y-2107692D02*
Y-2103374D01*
X3270758Y-2109724D02*
X3272790Y-2107692D01*
X3260344Y-2109724D02*
X3270758D01*
X3240024Y-2116074D02*
X3242056Y-2118106D01*
X3250438D01*
X3252470Y-2116074D01*
Y-2111756D01*
X3250438Y-2109724D02*
X3252470Y-2111756D01*
X3242056Y-2109724D02*
X3250438D01*
X3240024Y-2107692D02*
X3242056Y-2109724D01*
X3240024Y-2107692D02*
Y-2103374D01*
X3242056Y-2101342D01*
X3250438D01*
X3252470Y-2103374D01*
X3190240Y-2086356D02*
Y-2069592D01*
X3177794Y-2086356D02*
Y-2069592D01*
Y-2071624D02*
X3190240Y-2084324D01*
X3138424Y-2118106D02*
Y-2101342D01*
Y-2118106D02*
X3144520Y-2111756D01*
X3150870Y-2118106D01*
Y-2101342D01*
X3122168Y-2109724D02*
X3130550Y-2118106D01*
X3089910D02*
Y-2101342D01*
X3057144D02*
X3069590D01*
X3036824Y-2116074D02*
Y-2103374D01*
X3038856Y-2101342D01*
X3047238D01*
X3049270Y-2103374D01*
Y-2116074D02*
Y-2103374D01*
X3047238Y-2118106D02*
X3049270Y-2116074D01*
X3038856Y-2118106D02*
X3047238D01*
X3036824Y-2116074D02*
X3038856Y-2118106D01*
X2984500Y-2171700D02*
X2997200D01*
X2954020Y-2155190D02*
Y-2153412D01*
Y-2155190D02*
X2965958Y-2167128D01*
Y-2169160D02*
Y-2167128D01*
X2934970Y-2169160D02*
Y-2167128D01*
X2946908Y-2155190D01*
Y-2153412D01*
X2934970Y-2155190D02*
Y-2153412D01*
Y-2155190D02*
X2946908Y-2167128D01*
Y-2169160D02*
Y-2167128D01*
X2896870Y-2169160D02*
Y-2167128D01*
X2908808Y-2155190D01*
Y-2153412D01*
Y-2194560D02*
Y-2192528D01*
X2896870Y-2180590D02*
X2908808Y-2192528D01*
X2896870Y-2180590D02*
Y-2178812D01*
Y-2192528D02*
X2908808Y-2180590D01*
X2896870Y-2194560D02*
Y-2192528D01*
Y-2155190D02*
Y-2153412D01*
Y-2155190D02*
X2908808Y-2167128D01*
Y-2169160D02*
Y-2167128D01*
X2921762Y-2169160D02*
Y-2167128D01*
X2923794D01*
Y-2169160D02*
Y-2167128D01*
X2921762Y-2169160D02*
X2923794D01*
X2965958Y-2155190D02*
Y-2153412D01*
X2954020Y-2167128D02*
X2965958Y-2155190D01*
X2954020Y-2169160D02*
Y-2167128D01*
X3108452Y-2211578D02*
X3108960Y-2209800D01*
X3107182Y-2213102D02*
X3108452Y-2211578D01*
X3105150Y-2213610D02*
X3107182Y-2213102D01*
X3103372D02*
X3105150Y-2213610D01*
X3101848Y-2211578D02*
X3103372Y-2213102D01*
X3101340Y-2209800D02*
X3101848Y-2211578D01*
X3101340Y-2209800D02*
X3101848Y-2207768D01*
X3103372Y-2206498D01*
X3105150Y-2205990D01*
X3107182Y-2206498D01*
X3108452Y-2207768D01*
X3108960Y-2209800D01*
X2882900Y-1930400D02*
X3206750D01*
X2882900Y-2311400D02*
Y-1803400D01*
X3206750D01*
Y-1930400D02*
Y-1803400D01*
Y-1930400D02*
X3543300D01*
Y-1803400D01*
X3206750D02*
X3543300D01*
X2127250Y-2247900D02*
X2882900D01*
X2127250Y-2184400D02*
X2882900D01*
X2908808Y-2180590D02*
Y-2178812D01*
X2946908Y-2194560D02*
Y-2192528D01*
X2934970Y-2180590D02*
X2946908Y-2192528D01*
X2934970Y-2180590D02*
Y-2178812D01*
X2965958Y-2180590D02*
Y-2178812D01*
X2954020Y-2192528D02*
X2965958Y-2180590D01*
X2954020Y-2194560D02*
Y-2192528D01*
X2985008Y-2194560D02*
Y-2192528D01*
X2973070Y-2180590D02*
X2985008Y-2192528D01*
X2973070Y-2180590D02*
Y-2178812D01*
X2985008Y-2180590D02*
Y-2178812D01*
X2973070Y-2192528D02*
X2985008Y-2180590D01*
X2973070Y-2194560D02*
Y-2192528D01*
X2991612Y-2167128D02*
Y-2155190D01*
X2985770Y-2161286D02*
X2997708D01*
X3004820Y-2186686D02*
X3016758D01*
X3003550Y-2197100D02*
X3016250D01*
X3010662Y-2192528D02*
Y-2180590D01*
X2992120Y-2224278D02*
X2994152Y-2226310D01*
X3002026D01*
X3004058Y-2224278D01*
Y-2220214D01*
X3002026Y-2218436D02*
X3004058Y-2220214D01*
X2994152Y-2218436D02*
X3002026D01*
X2992120Y-2216404D02*
X2994152Y-2218436D01*
X2992120Y-2216404D02*
Y-2212340D01*
X2994152Y-2210562D01*
X3002026D01*
X3004058Y-2212340D01*
X2973070Y-2210562D02*
X2985008D01*
X2973070Y-2226310D02*
Y-2210562D01*
Y-2226310D02*
X2985008D01*
X2973070Y-2218436D02*
X2980944D01*
X2954020Y-2226310D02*
Y-2210562D01*
Y-2226310D02*
X2965958D01*
X2940812Y-2218436D02*
X2946908D01*
Y-2224278D02*
Y-2218436D01*
X2944876Y-2226310D02*
X2946908Y-2224278D01*
X2937002Y-2226310D02*
X2944876D01*
X2934970Y-2224278D02*
X2937002Y-2226310D01*
X2934970Y-2224278D02*
Y-2212340D01*
X2937002Y-2210562D01*
X2944876D01*
X2946908Y-2212340D01*
X2915920D02*
X2927858Y-2224278D01*
X2915920Y-2226310D02*
Y-2210562D01*
X2896870Y-2226310D02*
Y-2214372D01*
X2900934Y-2210562D01*
X2904744D01*
X2908808Y-2214372D01*
Y-2226310D02*
Y-2214372D01*
X2896870Y-2220214D02*
X2908808D01*
X2927858Y-2226310D02*
Y-2210562D01*
X2921762Y-2194560D02*
Y-2192528D01*
X2923794D01*
Y-2194560D02*
Y-2192528D01*
X2921762Y-2194560D02*
X2923794D01*
X2946908Y-2180590D02*
Y-2178812D01*
X2934970Y-2192528D02*
X2946908Y-2180590D01*
X2934970Y-2194560D02*
Y-2192528D01*
X2965958Y-2194560D02*
Y-2192528D01*
X2954020Y-2180590D02*
X2965958Y-2192528D01*
X2954020Y-2180590D02*
Y-2178812D01*
X3040634Y-2194560D02*
X3044444D01*
X3046476Y-2190496D01*
Y-2182622D01*
X3044444Y-2178812D02*
X3046476Y-2182622D01*
X3040634Y-2178812D02*
X3044444D01*
X3038602Y-2182622D02*
X3040634Y-2178812D01*
X3038602Y-2190496D02*
Y-2182622D01*
Y-2190496D02*
X3040634Y-2194560D01*
X3061462D02*
Y-2192528D01*
X3063494D01*
Y-2194560D02*
Y-2192528D01*
X3061462Y-2194560D02*
X3063494D01*
X3078734D02*
X3082544D01*
X3084576Y-2190496D01*
Y-2182622D01*
X3082544Y-2178812D02*
X3084576Y-2182622D01*
X3078734Y-2178812D02*
X3082544D01*
X3076702Y-2182622D02*
X3078734Y-2178812D01*
X3076702Y-2190496D02*
Y-2182622D01*
Y-2190496D02*
X3078734Y-2194560D01*
X3097784D02*
X3101594D01*
X3103626Y-2190496D01*
Y-2182622D01*
X3101594Y-2178812D02*
X3103626Y-2182622D01*
X3097784Y-2178812D02*
X3101594D01*
X3095752Y-2182622D02*
X3097784Y-2178812D01*
X3095752Y-2190496D02*
Y-2182622D01*
Y-2190496D02*
X3097784Y-2194560D01*
X3112770Y-2178812D02*
X3124708D01*
X3112770Y-2184654D02*
Y-2178812D01*
Y-2184654D02*
X3122676D01*
X3124708Y-2186686D01*
Y-2192528D02*
Y-2186686D01*
X3122676Y-2194560D02*
X3124708Y-2192528D01*
X3114802Y-2194560D02*
X3122676D01*
X3112770Y-2192528D02*
X3114802Y-2194560D01*
X3081020Y-2226310D02*
X3092958D01*
X3081020D02*
Y-2222246D01*
X3085084Y-2218436D01*
X3090926D01*
X3092958Y-2216404D01*
Y-2212340D01*
X3090926Y-2210562D02*
X3092958Y-2212340D01*
X3083052Y-2210562D02*
X3090926D01*
X3081020Y-2212340D02*
X3083052Y-2210562D01*
X3071876Y-2212340D02*
Y-2210562D01*
X3061970Y-2224278D02*
X3071876Y-2212340D01*
X3061970Y-2226310D02*
Y-2224278D01*
X3048762Y-2226310D02*
Y-2210562D01*
X3044952Y-2214372D02*
X3048762Y-2210562D01*
X3044952Y-2226310D02*
X3052826D01*
X3016250Y-2228850D02*
X3028950D01*
X3023362Y-2224278D02*
Y-2212340D01*
X3017520Y-2218436D02*
X3029458D01*
X3030220Y-2296160D02*
Y-2280412D01*
X3038094D01*
X3042158Y-2284222D01*
Y-2292096D02*
Y-2284222D01*
X3038094Y-2296160D02*
X3042158Y-2292096D01*
X3030220Y-2296160D02*
X3038094D01*
X3049270Y-2294128D02*
Y-2282190D01*
X3051302Y-2280412D01*
X3059176D01*
X3061208Y-2282190D01*
Y-2294128D02*
Y-2282190D01*
X3059176Y-2296160D02*
X3061208Y-2294128D01*
X3051302Y-2296160D02*
X3059176D01*
X3049270Y-2294128D02*
X3051302Y-2296160D01*
X3087370D02*
Y-2280412D01*
Y-2282190D02*
X3099308Y-2294128D01*
Y-2296160D02*
Y-2280412D01*
X3106420Y-2294128D02*
Y-2282190D01*
X3108452Y-2280412D01*
X3116326D01*
X3118358Y-2282190D01*
Y-2294128D02*
Y-2282190D01*
X3116326Y-2296160D02*
X3118358Y-2294128D01*
X3108452Y-2296160D02*
X3116326D01*
X3106420Y-2294128D02*
X3108452Y-2296160D01*
X3125470Y-2280412D02*
X3137408D01*
X3125470D02*
X3131312D01*
Y-2296160D02*
Y-2280412D01*
X3163570Y-2294128D02*
X3165602Y-2296160D01*
X3173476D01*
X3175508Y-2294128D01*
Y-2290064D01*
X3173476Y-2288286D02*
X3175508Y-2290064D01*
X3165602Y-2288286D02*
X3173476D01*
X3163570Y-2286254D02*
X3165602Y-2288286D01*
X3163570Y-2286254D02*
Y-2282190D01*
X3165602Y-2280412D01*
X3173476D01*
X3175508Y-2282190D01*
X3194558Y-2284222D02*
Y-2282190D01*
X3192526Y-2280412D02*
X3194558Y-2282190D01*
X3184652Y-2280412D02*
X3192526D01*
X3182620Y-2282190D02*
X3184652Y-2280412D01*
X3182620Y-2294128D02*
Y-2282190D01*
Y-2294128D02*
X3184652Y-2296160D01*
X3192526D01*
X3194558Y-2294128D01*
Y-2292096D01*
X3201670Y-2290064D02*
X3213608D01*
X3201670Y-2296160D02*
Y-2284222D01*
X3205734Y-2280412D01*
X3209544D01*
X3213608Y-2284222D01*
Y-2296160D02*
Y-2284222D01*
X3220720Y-2296160D02*
Y-2280412D01*
Y-2296160D02*
X3232658D01*
X3239770Y-2288286D02*
X3247644D01*
X3239770Y-2296160D02*
X3251708D01*
X3239770D02*
Y-2280412D01*
X3251708D01*
X3277870Y-2296160D02*
Y-2280412D01*
X3285744D01*
X3289808Y-2284222D01*
Y-2292096D02*
Y-2284222D01*
X3285744Y-2296160D02*
X3289808Y-2292096D01*
X3277870Y-2296160D02*
X3285744D01*
X3296920Y-2288286D02*
X3306826D01*
X3308858Y-2286254D01*
Y-2282190D01*
X3306826Y-2280412D02*
X3308858Y-2282190D01*
X3296920Y-2280412D02*
X3306826D01*
X3296920Y-2296160D02*
Y-2280412D01*
X3300984Y-2288286D02*
X3308858Y-2296160D01*
X3327908D02*
Y-2284222D01*
X3323844Y-2280412D02*
X3327908Y-2284222D01*
X3320034Y-2280412D02*
X3323844D01*
X3315970Y-2284222D02*
X3320034Y-2280412D01*
X3315970Y-2296160D02*
Y-2284222D01*
Y-2290064D02*
X3327908D01*
X3346958Y-2296160D02*
Y-2280412D01*
X3340862Y-2290064D02*
X3346958Y-2296160D01*
X3335020D02*
X3340862Y-2290064D01*
X3335020Y-2296160D02*
Y-2280412D01*
X3354070D02*
X3366008D01*
X3359912Y-2296160D02*
Y-2280412D01*
X3354070Y-2296160D02*
X3366008D01*
X3373120D02*
Y-2280412D01*
Y-2282190D02*
X3385058Y-2294128D01*
Y-2296160D02*
Y-2280412D01*
X3398012Y-2288286D02*
X3404108D01*
Y-2294128D02*
Y-2288286D01*
X3402076Y-2296160D02*
X3404108Y-2294128D01*
X3394202Y-2296160D02*
X3402076D01*
X3392170Y-2294128D02*
X3394202Y-2296160D01*
X3392170Y-2294128D02*
Y-2282190D01*
X3394202Y-2280412D01*
X3402076D01*
X3404108Y-2282190D01*
X3543300Y-2311400D02*
X3556000D01*
X2127250Y-2057400D02*
X2882900D01*
X3543300D01*
X2127250Y-2120900D02*
X2882900D01*
X3263900Y-1866900D02*
X3543300D01*
X2882900D02*
X3263900D01*
X2127250Y-2311400D02*
Y-1993900D01*
X2882900D01*
X3543300D01*
X4127500Y-2184400D02*
X4699000D01*
X4127500Y-2311400D02*
Y-2184400D01*
X4725670Y-2211578D02*
X4727702Y-2213610D01*
X4735576D01*
X4737608Y-2211578D01*
Y-2207514D01*
X4735576Y-2205736D02*
X4737608Y-2207514D01*
X4727702Y-2205736D02*
X4735576D01*
X4725670Y-2203704D02*
X4727702Y-2205736D01*
X4725670Y-2203704D02*
Y-2199640D01*
X4727702Y-2197862D01*
X4735576D01*
X4737608Y-2199640D01*
X4744720Y-2213610D02*
X4756658D01*
X4699000Y-2311400D02*
Y-2184400D01*
X4826000D01*
Y-1943100D02*
Y-1930400D01*
X4782820Y-2213610D02*
X4794758D01*
X4782820D02*
Y-2197862D01*
X4794758D01*
X4782820Y-2205736D02*
X4790694D01*
X4763770D02*
X4775708D01*
X4763770Y-2213610D02*
X4775708D01*
X4763770D02*
Y-2211578D01*
X4775708Y-2199640D01*
Y-2197862D01*
X4763770D02*
X4775708D01*
X4750562Y-2213610D02*
Y-2197862D01*
X4744720D02*
X4756658D01*
X4747006Y-2278888D02*
Y-2236978D01*
X4767834D01*
X4778502Y-2247392D01*
Y-2268474D02*
Y-2247392D01*
X4767834Y-2278888D02*
X4778502Y-2268474D01*
X4747006Y-2278888D02*
X4767834D01*
X-3429000Y-2311400D02*
X4826000D01*
X-3039872Y-2433066D02*
Y-2401570D01*
X-3047746Y-2409444D02*
X-3039872Y-2401570D01*
X-3047746Y-2433066D02*
X-3031998D01*
X-2289810Y-2405634D02*
X-2285746Y-2401570D01*
X-2269998D01*
X-2266188Y-2405634D01*
Y-2413508D02*
Y-2405634D01*
X-2269998Y-2417318D02*
X-2266188Y-2413508D01*
X-2281936Y-2417318D02*
X-2269998D01*
X-2289810Y-2425192D02*
X-2281936Y-2417318D01*
X-2289810Y-2433066D02*
Y-2425192D01*
Y-2433066D02*
X-2266188D01*
X-1527810Y-2429256D02*
X-1523746Y-2433066D01*
X-1507998D01*
X-1504188Y-2429256D01*
Y-2421382D01*
X-1507998Y-2417318D02*
X-1504188Y-2421382D01*
X-1519936Y-2417318D02*
X-1507998D01*
X-1519936D02*
X-1504188Y-2401570D01*
X-1527810D02*
X-1504188D01*
X-765810Y-2421382D02*
X-742188D01*
X-765810D02*
X-745998Y-2401570D01*
Y-2433066D02*
Y-2401570D01*
X-3810D02*
X19812D01*
X-3810Y-2413508D02*
Y-2401570D01*
Y-2413508D02*
X16002D01*
X19812Y-2417318D01*
Y-2429256D02*
Y-2417318D01*
X16002Y-2433066D02*
X19812Y-2429256D01*
X254Y-2433066D02*
X16002D01*
X-3810Y-2429256D02*
X254Y-2433066D01*
X762000Y-2311400D02*
X825500Y-2374900D01*
X698500D02*
X762000Y-2311400D01*
X758190Y-2421382D02*
X766064Y-2413508D01*
X778002D01*
X781812Y-2417318D01*
Y-2429256D02*
Y-2417318D01*
X778002Y-2433066D02*
X781812Y-2429256D01*
X766064Y-2433066D02*
X778002D01*
X758190Y-2425192D02*
X766064Y-2433066D01*
X758190Y-2425192D02*
Y-2409444D01*
X766064Y-2401570D01*
X778002D01*
X1520190D02*
X1543812D01*
Y-2409444D02*
Y-2401570D01*
X1520190Y-2433066D02*
X1543812Y-2409444D01*
X2286254Y-2417318D02*
X2302002D01*
X2282190Y-2421382D02*
X2286254Y-2417318D01*
X2282190Y-2429256D02*
Y-2421382D01*
Y-2429256D02*
X2286254Y-2433066D01*
X2302002D01*
X2305812Y-2429256D01*
Y-2421382D01*
X2302002Y-2417318D02*
X2305812Y-2421382D01*
X2302002Y-2417318D02*
X2305812Y-2413508D01*
Y-2405634D01*
X2302002Y-2401570D02*
X2305812Y-2405634D01*
X2286254Y-2401570D02*
X2302002D01*
X2282190Y-2405634D02*
X2286254Y-2401570D01*
X2282190Y-2413508D02*
Y-2405634D01*
Y-2413508D02*
X2286254Y-2417318D01*
X3048254Y-2433066D02*
X3059938D01*
X3067812Y-2425192D01*
Y-2413508D01*
Y-2409444D01*
X3059938Y-2401570D02*
X3067812Y-2409444D01*
X3048254Y-2401570D02*
X3059938D01*
X3044190Y-2405634D02*
X3048254Y-2401570D01*
X3044190Y-2417318D02*
Y-2405634D01*
Y-2417318D02*
X3048254Y-2421382D01*
X3059938D01*
X3067812Y-2413508D01*
X3206750Y-1993900D02*
Y-1930400D01*
X3589528Y-2286254D02*
X3592068Y-2288794D01*
X3602736D01*
X3605276Y-2286254D01*
Y-2280920D01*
X3602736Y-2278380D02*
X3605276Y-2280920D01*
X3592068Y-2278380D02*
X3602736D01*
X3589528Y-2275586D02*
X3592068Y-2278380D01*
X3589528Y-2275586D02*
Y-2270506D01*
X3592068Y-2267712D01*
X3602736D01*
X3605276Y-2270506D01*
X3614928Y-2288794D02*
Y-2267712D01*
Y-2278380D02*
X3630676D01*
X3640328D02*
X3650742D01*
X3665728D02*
X3676142D01*
X3665728Y-2267712D02*
X3681476D01*
X3665728Y-2288794D02*
Y-2267712D01*
Y-2288794D02*
X3681476D01*
X3640328D02*
X3656076D01*
X3640328D02*
Y-2267712D01*
X3656076D01*
X3630676Y-2288794D02*
Y-2267712D01*
X3691128D02*
X3706876D01*
X3852164Y-2433066D02*
X3860038D01*
X3864102Y-2425192D01*
Y-2409444D01*
X3860038Y-2401570D02*
X3864102Y-2409444D01*
X3852164Y-2401570D02*
X3860038D01*
X3848354Y-2409444D02*
X3852164Y-2401570D01*
X3848354Y-2425192D02*
Y-2409444D01*
Y-2425192D02*
X3852164Y-2433066D01*
X3810254D02*
X3826002D01*
X3810254Y-2409444D02*
X3818128Y-2401570D01*
Y-2433066D02*
Y-2401570D01*
X4580128Y-2433066D02*
Y-2401570D01*
X4572254Y-2409444D02*
X4580128Y-2401570D01*
X4572254Y-2433066D02*
X4588002D01*
X4610354D02*
X4626102D01*
X4610354Y-2409444D02*
X4618228Y-2401570D01*
Y-2433066D02*
Y-2401570D01*
X-10160Y3136392D02*
X9652D01*
X13462Y3132582D01*
Y3120644D02*
Y3132582D01*
X9652Y3116834D02*
X13462Y3120644D01*
X-6096Y3116834D02*
X9652D01*
X-10160Y3120644D02*
X-6096Y3116834D01*
X-752348D02*
Y3148330D01*
X-772160Y3128518D02*
X-752348Y3148330D01*
X-772160Y3128518D02*
X-748538D01*
X-1534160Y3148330D02*
X-1510538D01*
X-1526286Y3132582D02*
X-1510538Y3148330D01*
X-1526286Y3132582D02*
X-1514348D01*
X-1510538Y3128518D01*
Y3120644D02*
Y3128518D01*
X-1514348Y3116834D02*
X-1510538Y3120644D01*
X-1530096Y3116834D02*
X-1514348D01*
X-1534160Y3120644D02*
X-1530096Y3116834D01*
X-2296160D02*
X-2272538D01*
X-2296160D02*
Y3124708D01*
X-2288286Y3132582D01*
X-2276348D01*
X-2272538Y3136392D01*
Y3144266D01*
X-2276348Y3148330D02*
X-2272538Y3144266D01*
X-2292096Y3148330D02*
X-2276348D01*
X-2296160Y3144266D02*
X-2292096Y3148330D01*
X-3054096Y3116834D02*
X-3038348D01*
X-3054096Y3140456D02*
X-3046222Y3148330D01*
Y3116834D02*
Y3148330D01*
X-3540760Y2645918D02*
X-3517138D01*
Y2634234D02*
Y2657856D01*
X-3525012Y2665730D02*
X-3517138Y2657856D01*
X-3532886Y2665730D02*
X-3525012D01*
X-3540760Y2657856D02*
X-3532886Y2665730D01*
X-3540760Y2634234D02*
Y2657856D01*
Y1887982D02*
X-3520948D01*
X-3540760Y1872234D02*
Y1887982D01*
Y1903730D01*
X-3520948D01*
X-3517138Y1899666D01*
Y1891792D02*
Y1899666D01*
X-3520948Y1887982D02*
X-3517138Y1891792D01*
X-3520948Y1887982D02*
X-3517138Y1883918D01*
Y1876044D02*
Y1883918D01*
X-3520948Y1872234D02*
X-3517138Y1876044D01*
X-3540760Y1872234D02*
X-3520948D01*
X-3517138Y1114044D02*
Y1118108D01*
X-3520948Y1110234D02*
X-3517138Y1114044D01*
X-3536696Y1110234D02*
X-3520948D01*
X-3540760Y1114044D02*
X-3536696Y1110234D01*
X-3540760Y1114044D02*
Y1137666D01*
X-3536696Y1141730D01*
X-3520948D01*
X-3517138Y1137666D01*
Y1133856D02*
Y1137666D01*
X-3540760Y348234D02*
Y379730D01*
X-3525012D01*
X-3517138Y371856D01*
Y356108D02*
Y371856D01*
X-3525012Y348234D02*
X-3517138Y356108D01*
X-3540760Y348234D02*
X-3525012D01*
X-3540760Y-398018D02*
X-3525012D01*
X-3540760Y-382270D02*
X-3517138D01*
X-3540760Y-413766D02*
Y-382270D01*
Y-413766D02*
X-3517138D01*
X-3540760Y-1175766D02*
Y-1144270D01*
X-3517138D01*
X-3540760Y-1160018D02*
X-3525012D01*
X-3528822Y-1922018D02*
X-3517138D01*
Y-1933956D02*
Y-1922018D01*
X-3520948Y-1937766D02*
X-3517138Y-1933956D01*
X-3536696Y-1937766D02*
X-3520948D01*
X-3540760Y-1933956D02*
X-3536696Y-1937766D01*
X-3540760Y-1933956D02*
Y-1910334D01*
X-3536696Y-1906270D01*
X-3520948D01*
X-3517138Y-1910334D01*
X3021584Y-2169160D02*
X3025394D01*
X3027426Y-2165096D01*
Y-2157222D01*
X3025394Y-2153412D02*
X3027426Y-2157222D01*
X3021584Y-2153412D02*
X3025394D01*
X3019552Y-2157222D02*
X3021584Y-2153412D01*
X3019552Y-2165096D02*
Y-2157222D01*
Y-2165096D02*
X3021584Y-2169160D01*
X3042412D02*
Y-2167128D01*
X3044444D01*
Y-2169160D02*
Y-2167128D01*
X3042412Y-2169160D02*
X3044444D01*
X3059684D02*
X3063494D01*
X3065526Y-2165096D01*
Y-2157222D01*
X3063494Y-2153412D02*
X3065526Y-2157222D01*
X3059684Y-2153412D02*
X3063494D01*
X3057652Y-2157222D02*
X3059684Y-2153412D01*
X3057652Y-2165096D02*
Y-2157222D01*
Y-2165096D02*
X3059684Y-2169160D01*
X3076702D02*
X3084576D01*
X3076702Y-2157222D02*
X3080512Y-2153412D01*
Y-2169160D02*
Y-2153412D01*
X4917440Y-1166368D02*
X4933188D01*
X4917440Y-1182116D02*
Y-1150620D01*
X4941062D01*
X4826000Y-1549400D02*
X4889500D01*
X4929378Y-1928368D02*
X4941062D01*
Y-1940306D02*
Y-1928368D01*
X4937252Y-1944116D02*
X4941062Y-1940306D01*
X4921504Y-1944116D02*
X4937252D01*
X4917440Y-1940306D02*
X4921504Y-1944116D01*
X4917440Y-1940306D02*
Y-1916684D01*
X4921504Y-1912620D01*
X4937252D01*
X4941062Y-1916684D01*
X4699000Y-2438400D02*
X4953000D01*
Y-2184400D01*
X4826000Y-2311400D02*
Y3022600D01*
X4699000Y3149600D02*
X4953000D01*
Y2895600D02*
Y3149600D01*
X4611878Y3116834D02*
Y3148330D01*
X4604004Y3140456D02*
X4611878Y3148330D01*
X4604004Y3116834D02*
X4619752D01*
X4565904D02*
X4581652D01*
X4565904Y3140456D02*
X4573778Y3148330D01*
Y3116834D02*
Y3148330D01*
X3845814Y3116834D02*
X3853688D01*
X3857752Y3124708D01*
Y3140456D01*
X3853688Y3148330D02*
X3857752Y3140456D01*
X3845814Y3148330D02*
X3853688D01*
X3842004Y3140456D02*
X3845814Y3148330D01*
X3842004Y3124708D02*
Y3140456D01*
Y3124708D02*
X3845814Y3116834D01*
X3803904D02*
X3819652D01*
X3803904Y3140456D02*
X3811778Y3148330D01*
Y3116834D02*
Y3148330D01*
X3041904Y3116834D02*
X3053588D01*
X3061462Y3124708D01*
Y3136392D01*
Y3140456D01*
X3053588Y3148330D02*
X3061462Y3140456D01*
X3041904Y3148330D02*
X3053588D01*
X3037840Y3144266D02*
X3041904Y3148330D01*
X3037840Y3132582D02*
Y3144266D01*
Y3132582D02*
X3041904Y3128518D01*
X3053588D01*
X3061462Y3136392D01*
X2275840D02*
X2279904Y3132582D01*
X2275840Y3136392D02*
Y3144266D01*
X2279904Y3148330D01*
X2295652D01*
X2299462Y3144266D01*
Y3136392D02*
Y3144266D01*
X2295652Y3132582D02*
X2299462Y3136392D01*
X2295652Y3132582D02*
X2299462Y3128518D01*
Y3120644D02*
Y3128518D01*
X2295652Y3116834D02*
X2299462Y3120644D01*
X2279904Y3116834D02*
X2295652D01*
X2275840Y3120644D02*
X2279904Y3116834D01*
X2275840Y3120644D02*
Y3128518D01*
X2279904Y3132582D01*
X2295652D01*
X1513840Y3148330D02*
X1537462D01*
Y3140456D02*
Y3148330D01*
X1513840Y3116834D02*
X1537462Y3140456D01*
X751840Y3128518D02*
X759714Y3136392D01*
X771652D01*
X775462Y3132582D01*
Y3120644D02*
Y3132582D01*
X771652Y3116834D02*
X775462Y3120644D01*
X759714Y3116834D02*
X771652D01*
X751840Y3124708D02*
X759714Y3116834D01*
X751840Y3124708D02*
Y3140456D01*
X759714Y3148330D01*
X771652D01*
X-10160Y3136392D02*
Y3148330D01*
X13462D01*
X4917440Y2639568D02*
X4941062D01*
X4917440Y2627884D02*
Y2651506D01*
X4925314Y2659380D01*
X4933188D01*
X4941062Y2651506D01*
Y2627884D02*
Y2651506D01*
X4826000Y2260600D02*
X4889500D01*
X4917440Y1881632D02*
X4937252D01*
X4917440Y1865884D02*
Y1881632D01*
Y1897380D01*
X4937252D01*
X4941062Y1893316D01*
Y1885442D02*
Y1893316D01*
X4937252Y1881632D02*
X4941062Y1885442D01*
X4937252Y1881632D02*
X4941062Y1877568D01*
Y1869694D02*
Y1877568D01*
X4937252Y1865884D02*
X4941062Y1869694D01*
X4917440Y1865884D02*
X4937252D01*
X4826000Y1498600D02*
X4889500D01*
X4941062Y1107694D02*
Y1111758D01*
X4937252Y1103884D02*
X4941062Y1107694D01*
X4921504Y1103884D02*
X4937252D01*
X4917440Y1107694D02*
X4921504Y1103884D01*
X4917440Y1107694D02*
Y1131316D01*
X4921504Y1135380D01*
X4937252D01*
X4941062Y1131316D01*
Y1127506D02*
Y1131316D01*
X4826000Y730250D02*
X4889500D01*
X4826000Y355600D02*
X4889500Y292100D01*
X4826000Y355600D02*
X4889500Y419100D01*
X4917440Y341884D02*
Y373380D01*
X4933188D01*
X4941062Y365506D01*
Y349758D02*
Y365506D01*
X4933188Y341884D02*
X4941062Y349758D01*
X4917440Y341884D02*
X4933188D01*
X4826000Y-19050D02*
X4889500D01*
X4917440Y-404368D02*
X4933188D01*
X4917440Y-388620D02*
X4941062D01*
X4917440Y-420116D02*
Y-388620D01*
Y-420116D02*
X4941062D01*
X4826000Y-787400D02*
X4889500D01*
X3543300Y-1803400D02*
X4826000D01*
X3543300Y-2184400D02*
X4127500D01*
X3543300Y-2247900D02*
X4127500D01*
X3543300Y-1930400D02*
X4826000D01*
X3543300Y-2311400D02*
Y-1930400D01*
X3589528Y-2222754D02*
X3592068Y-2225294D01*
X3602736D01*
X3605276Y-2222754D01*
Y-2217420D01*
X3602736Y-2214880D02*
X3605276Y-2217420D01*
X3592068Y-2214880D02*
X3602736D01*
X3589528Y-2212086D02*
X3592068Y-2214880D01*
X3589528Y-2212086D02*
Y-2207006D01*
X3592068Y-2204212D01*
X3602736D01*
X3605276Y-2207006D01*
X3630676Y-2209546D02*
Y-2207006D01*
X3628136Y-2204212D02*
X3630676Y-2207006D01*
X3617468Y-2204212D02*
X3628136D01*
X3614928Y-2207006D02*
X3617468Y-2204212D01*
X3614928Y-2222754D02*
Y-2207006D01*
Y-2222754D02*
X3617468Y-2225294D01*
X3628136D01*
X3630676Y-2222754D01*
Y-2219960D01*
X3640328Y-2217420D02*
X3656076D01*
X3640328Y-2225294D02*
Y-2209546D01*
X3645662Y-2204212D01*
X3650742D01*
X3656076Y-2209546D01*
Y-2225294D02*
Y-2209546D01*
X3665728Y-2225294D02*
Y-2204212D01*
Y-2225294D02*
X3681476D01*
X3691128Y-2214880D02*
X3701542D01*
X3691128Y-2204212D02*
X3706876D01*
X3691128Y-2225294D02*
Y-2204212D01*
Y-2225294D02*
X3706876D01*
X3061970Y-2086356D02*
Y-2069592D01*
X3055874D02*
X3061970D01*
X3063240Y-2118106D02*
Y-2101342D01*
X3057144D02*
X3063240D01*
X3699002Y-2288794D02*
Y-2267712D01*
X3691128D02*
X3699002D01*
X2534556Y-2012955D02*
X2530928Y-2014165D01*
X2528509Y-2017793D01*
X2527300Y-2023839D01*
Y-2027467D01*
X2528509Y-2033513D01*
X2530928Y-2037141D01*
X2534556Y-2038350D01*
X2536974D01*
X2540602Y-2037141D01*
X2543020Y-2033513D01*
X2544230Y-2027467D01*
Y-2023839D01*
X2543020Y-2017793D01*
X2540602Y-2014165D01*
X2536974Y-2012955D01*
X2534556D01*
X2562006D02*
X2549913Y-2029885D01*
X2568052D01*
X2562006Y-2012955D02*
Y-2038350D01*
X2572527Y-2041978D02*
X2589456Y-2012955D01*
X2598405D02*
X2594777Y-2014165D01*
X2592358Y-2017793D01*
X2591149Y-2023839D01*
Y-2027467D01*
X2592358Y-2033513D01*
X2594777Y-2037141D01*
X2598405Y-2038350D01*
X2600823D01*
X2604451Y-2037141D01*
X2606870Y-2033513D01*
X2608079Y-2027467D01*
Y-2023839D01*
X2606870Y-2017793D01*
X2604451Y-2014165D01*
X2600823Y-2012955D01*
X2598405D01*
X2614972Y-2019002D02*
Y-2017793D01*
X2616181Y-2015374D01*
X2617390Y-2014165D01*
X2619809Y-2012955D01*
X2624646D01*
X2627064Y-2014165D01*
X2628274Y-2015374D01*
X2629483Y-2017793D01*
Y-2020211D01*
X2628274Y-2022630D01*
X2625855Y-2026257D01*
X2613763Y-2038350D01*
X2630692D01*
X2636376Y-2041978D02*
X2653305Y-2012955D01*
X2654998Y-2017793D02*
X2657417Y-2016583D01*
X2661045Y-2012955D01*
Y-2038350D01*
X2676039Y-2012955D02*
X2689341D01*
X2682086Y-2022630D01*
X2685714D01*
X2688132Y-2023839D01*
X2689341Y-2025048D01*
X2690551Y-2028676D01*
Y-2031094D01*
X2689341Y-2034722D01*
X2686923Y-2037141D01*
X2683295Y-2038350D01*
X2679667D01*
X2676039Y-2037141D01*
X2674830Y-2035932D01*
X2673621Y-2033513D01*
X3297279Y-1954232D02*
X3296070Y-1951813D01*
X3293651Y-1949395D01*
X3291233Y-1948185D01*
X3286396D01*
X3283977Y-1949395D01*
X3281559Y-1951813D01*
X3280349Y-1954232D01*
X3279140Y-1957860D01*
Y-1963906D01*
X3280349Y-1967534D01*
X3281559Y-1969952D01*
X3283977Y-1972371D01*
X3286396Y-1973580D01*
X3291233D01*
X3293651Y-1972371D01*
X3296070Y-1969952D01*
X3297279Y-1967534D01*
X3318925Y-1956650D02*
Y-1973580D01*
Y-1960278D02*
X3316506Y-1957860D01*
X3314088Y-1956650D01*
X3310460D01*
X3308041Y-1957860D01*
X3305623Y-1960278D01*
X3304413Y-1963906D01*
Y-1966324D01*
X3305623Y-1969952D01*
X3308041Y-1972371D01*
X3310460Y-1973580D01*
X3314088D01*
X3316506Y-1972371D01*
X3318925Y-1969952D01*
X3325697Y-1948185D02*
Y-1973580D01*
X3349156Y-1954232D02*
X3347947Y-1951813D01*
X3345529Y-1949395D01*
X3343110Y-1948185D01*
X3338273D01*
X3335854Y-1949395D01*
X3333436Y-1951813D01*
X3332227Y-1954232D01*
X3331017Y-1957860D01*
Y-1963906D01*
X3332227Y-1967534D01*
X3333436Y-1969952D01*
X3335854Y-1972371D01*
X3338273Y-1973580D01*
X3343110D01*
X3345529Y-1972371D01*
X3347947Y-1969952D01*
X3349156Y-1967534D01*
X3370802Y-1956650D02*
Y-1973580D01*
Y-1960278D02*
X3368384Y-1957860D01*
X3365965Y-1956650D01*
X3362337D01*
X3359919Y-1957860D01*
X3357500Y-1960278D01*
X3356291Y-1963906D01*
Y-1966324D01*
X3357500Y-1969952D01*
X3359919Y-1972371D01*
X3362337Y-1973580D01*
X3365965D01*
X3368384Y-1972371D01*
X3370802Y-1969952D01*
X3392085Y-1948185D02*
Y-1973580D01*
Y-1960278D02*
X3389667Y-1957860D01*
X3387248Y-1956650D01*
X3383621D01*
X3381202Y-1957860D01*
X3378783Y-1960278D01*
X3377574Y-1963906D01*
Y-1966324D01*
X3378783Y-1969952D01*
X3381202Y-1972371D01*
X3383621Y-1973580D01*
X3387248D01*
X3389667Y-1972371D01*
X3392085Y-1969952D01*
X2534556Y-2012955D02*
X2530928Y-2014165D01*
X2528509Y-2017793D01*
X2527300Y-2023839D01*
Y-2027467D01*
X2528509Y-2033513D01*
X2530928Y-2037141D01*
X2534556Y-2038350D01*
X2536974D01*
X2540602Y-2037141D01*
X2543020Y-2033513D01*
X2544230Y-2027467D01*
Y-2023839D01*
X2543020Y-2017793D01*
X2540602Y-2014165D01*
X2536974Y-2012955D01*
X2534556D01*
X2562006D02*
X2549913Y-2029885D01*
X2568052D01*
X2562006Y-2012955D02*
Y-2038350D01*
X2572527Y-2041978D02*
X2589456Y-2012955D01*
X2598405D02*
X2594777Y-2014165D01*
X2592358Y-2017793D01*
X2591149Y-2023839D01*
Y-2027467D01*
X2592358Y-2033513D01*
X2594777Y-2037141D01*
X2598405Y-2038350D01*
X2600823D01*
X2604451Y-2037141D01*
X2606870Y-2033513D01*
X2608079Y-2027467D01*
Y-2023839D01*
X2606870Y-2017793D01*
X2604451Y-2014165D01*
X2600823Y-2012955D01*
X2598405D01*
X2614972Y-2019002D02*
Y-2017793D01*
X2616181Y-2015374D01*
X2617390Y-2014165D01*
X2619809Y-2012955D01*
X2624646D01*
X2627064Y-2014165D01*
X2628274Y-2015374D01*
X2629483Y-2017793D01*
Y-2020211D01*
X2628274Y-2022630D01*
X2625855Y-2026257D01*
X2613763Y-2038350D01*
X2630692D01*
X2636376Y-2041978D02*
X2653305Y-2012955D01*
X2654998Y-2017793D02*
X2657417Y-2016583D01*
X2661045Y-2012955D01*
Y-2038350D01*
X2676039Y-2012955D02*
X2689341D01*
X2682086Y-2022630D01*
X2685714D01*
X2688132Y-2023839D01*
X2689341Y-2025048D01*
X2690551Y-2028676D01*
Y-2031094D01*
X2689341Y-2034722D01*
X2686923Y-2037141D01*
X2683295Y-2038350D01*
X2679667D01*
X2676039Y-2037141D01*
X2674830Y-2035932D01*
X2673621Y-2033513D01*
X3297279Y-1954232D02*
X3296070Y-1951813D01*
X3293651Y-1949395D01*
X3291233Y-1948185D01*
X3286396D01*
X3283977Y-1949395D01*
X3281559Y-1951813D01*
X3280349Y-1954232D01*
X3279140Y-1957860D01*
Y-1963906D01*
X3280349Y-1967534D01*
X3281559Y-1969952D01*
X3283977Y-1972371D01*
X3286396Y-1973580D01*
X3291233D01*
X3293651Y-1972371D01*
X3296070Y-1969952D01*
X3297279Y-1967534D01*
X3318925Y-1956650D02*
Y-1973580D01*
Y-1960278D02*
X3316506Y-1957860D01*
X3314088Y-1956650D01*
X3310460D01*
X3308041Y-1957860D01*
X3305623Y-1960278D01*
X3304413Y-1963906D01*
Y-1966324D01*
X3305623Y-1969952D01*
X3308041Y-1972371D01*
X3310460Y-1973580D01*
X3314088D01*
X3316506Y-1972371D01*
X3318925Y-1969952D01*
X3325697Y-1948185D02*
Y-1973580D01*
X3349156Y-1954232D02*
X3347947Y-1951813D01*
X3345529Y-1949395D01*
X3343110Y-1948185D01*
X3338273D01*
X3335854Y-1949395D01*
X3333436Y-1951813D01*
X3332227Y-1954232D01*
X3331017Y-1957860D01*
Y-1963906D01*
X3332227Y-1967534D01*
X3333436Y-1969952D01*
X3335854Y-1972371D01*
X3338273Y-1973580D01*
X3343110D01*
X3345529Y-1972371D01*
X3347947Y-1969952D01*
X3349156Y-1967534D01*
X3370802Y-1956650D02*
Y-1973580D01*
Y-1960278D02*
X3368384Y-1957860D01*
X3365965Y-1956650D01*
X3362337D01*
X3359919Y-1957860D01*
X3357500Y-1960278D01*
X3356291Y-1963906D01*
Y-1966324D01*
X3357500Y-1969952D01*
X3359919Y-1972371D01*
X3362337Y-1973580D01*
X3365965D01*
X3368384Y-1972371D01*
X3370802Y-1969952D01*
X3392085Y-1948185D02*
Y-1973580D01*
Y-1960278D02*
X3389667Y-1957860D01*
X3387248Y-1956650D01*
X3383621D01*
X3381202Y-1957860D01*
X3378783Y-1960278D01*
X3377574Y-1963906D01*
Y-1966324D01*
X3378783Y-1969952D01*
X3381202Y-1972371D01*
X3383621Y-1973580D01*
X3387248D01*
X3389667Y-1972371D01*
X3392085Y-1969952D01*
X3779545Y-2271056D02*
X3781964Y-2269847D01*
X3785592Y-2266219D01*
Y-2291613D01*
X3825377Y-2266219D02*
X3822958Y-2267428D01*
X3820540Y-2269847D01*
X3819330Y-2272265D01*
X3818121Y-2275893D01*
Y-2281939D01*
X3819330Y-2285567D01*
X3820540Y-2287986D01*
X3822958Y-2290404D01*
X3825377Y-2291613D01*
X3830214D01*
X3832632Y-2290404D01*
X3835051Y-2287986D01*
X3836260Y-2285567D01*
X3837469Y-2281939D01*
Y-2275893D01*
X3836260Y-2272265D01*
X3835051Y-2269847D01*
X3832632Y-2267428D01*
X3830214Y-2266219D01*
X3825377D01*
X3843394D02*
Y-2291613D01*
Y-2266219D02*
X3859115D01*
X3843394Y-2278311D02*
X3853069D01*
X3881970Y-2271056D02*
X3884389Y-2269847D01*
X3888016Y-2266219D01*
Y-2291613D01*
X3779545Y-2202719D02*
Y-2228113D01*
Y-2202719D02*
X3796475Y-2228113D01*
Y-2202719D02*
Y-2228113D01*
X3810744Y-2202719D02*
X3808326Y-2203928D01*
X3805907Y-2206347D01*
X3804698Y-2208765D01*
X3803489Y-2212393D01*
Y-2218439D01*
X3804698Y-2222067D01*
X3805907Y-2224486D01*
X3808326Y-2226904D01*
X3810744Y-2228113D01*
X3815581D01*
X3818000Y-2226904D01*
X3820418Y-2224486D01*
X3821628Y-2222067D01*
X3822837Y-2218439D01*
Y-2212393D01*
X3821628Y-2208765D01*
X3820418Y-2206347D01*
X3818000Y-2203928D01*
X3815581Y-2202719D01*
X3810744D01*
X3828763D02*
Y-2228113D01*
Y-2202719D02*
X3845692Y-2228113D01*
Y-2202719D02*
Y-2228113D01*
X3868426Y-2202719D02*
X3852706D01*
Y-2228113D01*
X3868426D01*
X3852706Y-2214812D02*
X3862380D01*
X2947993Y-1847113D02*
X2938319Y-1821719D01*
X2928645Y-1847113D01*
X2932273Y-1838649D02*
X2944366D01*
X2953919Y-1835021D02*
X2964803D01*
X2968430Y-1833811D01*
X2969640Y-1832602D01*
X2970849Y-1830184D01*
Y-1826556D01*
X2969640Y-1824137D01*
X2968430Y-1822928D01*
X2964803Y-1821719D01*
X2953919D01*
Y-1847113D01*
X2976532Y-1835021D02*
X2987416D01*
X2991043Y-1833811D01*
X2992253Y-1832602D01*
X2993462Y-1830184D01*
Y-1826556D01*
X2992253Y-1824137D01*
X2991043Y-1822928D01*
X2987416Y-1821719D01*
X2976532D01*
Y-1847113D01*
X2999146Y-1821719D02*
Y-1847113D01*
Y-1821719D02*
X3010029D01*
X3013657Y-1822928D01*
X3014866Y-1824137D01*
X3016075Y-1826556D01*
Y-1828974D01*
X3014866Y-1831393D01*
X3013657Y-1832602D01*
X3010029Y-1833811D01*
X2999146D01*
X3007610D02*
X3016075Y-1847113D01*
X3029014Y-1821719D02*
X3026596Y-1822928D01*
X3024177Y-1825347D01*
X3022968Y-1827765D01*
X3021759Y-1831393D01*
Y-1837439D01*
X3022968Y-1841067D01*
X3024177Y-1843486D01*
X3026596Y-1845904D01*
X3029014Y-1847113D01*
X3033851D01*
X3036270Y-1845904D01*
X3038688Y-1843486D01*
X3039898Y-1841067D01*
X3041107Y-1837439D01*
Y-1831393D01*
X3039898Y-1827765D01*
X3038688Y-1825347D01*
X3036270Y-1822928D01*
X3033851Y-1821719D01*
X3029014D01*
X3047032D02*
X3056707Y-1847113D01*
X3066381Y-1821719D02*
X3056707Y-1847113D01*
X3085366Y-1821719D02*
X3069646D01*
Y-1847113D01*
X3085366D01*
X3069646Y-1833811D02*
X3079320D01*
X3089598Y-1821719D02*
Y-1847113D01*
Y-1821719D02*
X3098063D01*
X3101691Y-1822928D01*
X3104110Y-1825347D01*
X3105319Y-1827765D01*
X3106528Y-1831393D01*
Y-1837439D01*
X3105319Y-1841067D01*
X3104110Y-1843486D01*
X3101691Y-1845904D01*
X3098063Y-1847113D01*
X3089598D01*
X2946784Y-1891265D02*
X2945575Y-1888847D01*
X2943157Y-1886428D01*
X2940738Y-1885219D01*
X2935901D01*
X2933482Y-1886428D01*
X2931064Y-1888847D01*
X2929855Y-1891265D01*
X2928645Y-1894893D01*
Y-1900939D01*
X2929855Y-1904567D01*
X2931064Y-1906986D01*
X2933482Y-1909404D01*
X2935901Y-1910613D01*
X2940738D01*
X2943157Y-1909404D01*
X2945575Y-1906986D01*
X2946784Y-1904567D01*
X2953919Y-1885219D02*
Y-1910613D01*
X2970849Y-1885219D02*
Y-1910613D01*
X2953919Y-1897312D02*
X2970849D01*
X2993583Y-1885219D02*
X2977863D01*
Y-1910613D01*
X2993583D01*
X2977863Y-1897312D02*
X2987537D01*
X3015954Y-1891265D02*
X3014745Y-1888847D01*
X3012326Y-1886428D01*
X3009908Y-1885219D01*
X3005071D01*
X3002652Y-1886428D01*
X3000234Y-1888847D01*
X2999025Y-1891265D01*
X2997815Y-1894893D01*
Y-1900939D01*
X2999025Y-1904567D01*
X3000234Y-1906986D01*
X3002652Y-1909404D01*
X3005071Y-1910613D01*
X3009908D01*
X3012326Y-1909404D01*
X3014745Y-1906986D01*
X3015954Y-1904567D01*
X3023089Y-1885219D02*
Y-1910613D01*
X3040019Y-1885219D02*
X3023089Y-1902148D01*
X3029135Y-1896102D02*
X3040019Y-1910613D01*
X3061423Y-1885219D02*
X3045702D01*
Y-1910613D01*
X3061423D01*
X3045702Y-1897312D02*
X3055376D01*
X3065655Y-1885219D02*
Y-1910613D01*
Y-1885219D02*
X3074120D01*
X3077748Y-1886428D01*
X3080166Y-1888847D01*
X3081375Y-1891265D01*
X3082585Y-1894893D01*
Y-1900939D01*
X3081375Y-1904567D01*
X3080166Y-1906986D01*
X3077748Y-1909404D01*
X3074120Y-1910613D01*
X3065655D01*
X2928645Y-1948719D02*
Y-1974113D01*
Y-1948719D02*
X2937110D01*
X2940738Y-1949928D01*
X2943157Y-1952347D01*
X2944366Y-1954765D01*
X2945575Y-1958393D01*
Y-1964439D01*
X2944366Y-1968067D01*
X2943157Y-1970486D01*
X2940738Y-1972904D01*
X2937110Y-1974113D01*
X2928645D01*
X2951259Y-1948719D02*
Y-1974113D01*
Y-1948719D02*
X2962142D01*
X2965770Y-1949928D01*
X2966979Y-1951137D01*
X2968188Y-1953556D01*
Y-1955974D01*
X2966979Y-1958393D01*
X2965770Y-1959602D01*
X2962142Y-1960811D01*
X2951259D01*
X2959724D02*
X2968188Y-1974113D01*
X2993220D02*
X2983546Y-1948719D01*
X2973872Y-1974113D01*
X2977500Y-1965648D02*
X2989592D01*
X2999146Y-1948719D02*
Y-1974113D01*
Y-1948719D02*
X3014866D01*
X2999146Y-1960811D02*
X3008820D01*
X3026233Y-1948719D02*
Y-1974113D01*
X3017768Y-1948719D02*
X3034698D01*
X3037721D02*
Y-1974113D01*
X3043042Y-1948719D02*
Y-1974113D01*
Y-1948719D02*
X3059972Y-1974113D01*
Y-1948719D02*
Y-1974113D01*
X3085124Y-1954765D02*
X3083915Y-1952347D01*
X3081496Y-1949928D01*
X3079078Y-1948719D01*
X3074241D01*
X3071822Y-1949928D01*
X3069404Y-1952347D01*
X3068195Y-1954765D01*
X3066985Y-1958393D01*
Y-1964439D01*
X3068195Y-1968067D01*
X3069404Y-1970486D01*
X3071822Y-1972904D01*
X3074241Y-1974113D01*
X3079078D01*
X3081496Y-1972904D01*
X3083915Y-1970486D01*
X3085124Y-1968067D01*
Y-1964439D01*
X3079078D02*
X3085124D01*
X2944366Y-2012219D02*
X2928645D01*
Y-2037613D01*
X2944366D01*
X2928645Y-2024312D02*
X2938319D01*
X2948598Y-2012219D02*
Y-2037613D01*
Y-2012219D02*
X2965528Y-2037613D01*
Y-2012219D02*
Y-2037613D01*
X2990681Y-2018265D02*
X2989471Y-2015847D01*
X2987053Y-2013428D01*
X2984634Y-2012219D01*
X2979797D01*
X2977379Y-2013428D01*
X2974960Y-2015847D01*
X2973751Y-2018265D01*
X2972542Y-2021893D01*
Y-2027939D01*
X2973751Y-2031567D01*
X2974960Y-2033986D01*
X2977379Y-2036404D01*
X2979797Y-2037613D01*
X2984634D01*
X2987053Y-2036404D01*
X2989471Y-2033986D01*
X2990681Y-2031567D01*
Y-2027939D01*
X2984634D02*
X2990681D01*
X2996485Y-2012219D02*
Y-2037613D01*
Y-2012219D02*
X3007368D01*
X3010996Y-2013428D01*
X3012206Y-2014637D01*
X3013415Y-2017056D01*
Y-2019474D01*
X3012206Y-2021893D01*
X3010996Y-2023102D01*
X3007368Y-2024312D01*
X2996485D01*
X3004950D02*
X3013415Y-2037613D01*
X2160295Y-2012219D02*
Y-2037613D01*
Y-2012219D02*
X2168760D01*
X2172388Y-2013428D01*
X2174807Y-2015847D01*
X2176016Y-2018265D01*
X2177225Y-2021893D01*
Y-2027939D01*
X2176016Y-2031567D01*
X2174807Y-2033986D01*
X2172388Y-2036404D01*
X2168760Y-2037613D01*
X2160295D01*
X2202257D02*
X2192583Y-2012219D01*
X2182909Y-2037613D01*
X2186536Y-2029149D02*
X2198629D01*
X2216647Y-2012219D02*
Y-2037613D01*
X2208182Y-2012219D02*
X2225112D01*
X2243856D02*
X2228135D01*
Y-2037613D01*
X2243856D01*
X2228135Y-2024312D02*
X2237809D01*
X2160295Y-2075719D02*
Y-2101113D01*
Y-2075719D02*
X2168760D01*
X2172388Y-2076928D01*
X2174807Y-2079347D01*
X2176016Y-2081765D01*
X2177225Y-2085393D01*
Y-2091439D01*
X2176016Y-2095067D01*
X2174807Y-2097486D01*
X2172388Y-2099904D01*
X2168760Y-2101113D01*
X2160295D01*
X2198629Y-2075719D02*
X2182909D01*
Y-2101113D01*
X2198629D01*
X2182909Y-2087811D02*
X2192583D01*
X2219791Y-2079347D02*
X2217373Y-2076928D01*
X2213745Y-2075719D01*
X2208908D01*
X2205280Y-2076928D01*
X2202861Y-2079347D01*
Y-2081765D01*
X2204071Y-2084184D01*
X2205280Y-2085393D01*
X2207699Y-2086602D01*
X2214954Y-2089021D01*
X2217373Y-2090230D01*
X2218582Y-2091439D01*
X2219791Y-2093858D01*
Y-2097486D01*
X2217373Y-2099904D01*
X2213745Y-2101113D01*
X2208908D01*
X2205280Y-2099904D01*
X2202861Y-2097486D01*
X2225475Y-2075719D02*
Y-2101113D01*
X2248934Y-2081765D02*
X2247725Y-2079347D01*
X2245307Y-2076928D01*
X2242888Y-2075719D01*
X2238051D01*
X2235633Y-2076928D01*
X2233214Y-2079347D01*
X2232005Y-2081765D01*
X2230795Y-2085393D01*
Y-2091439D01*
X2232005Y-2095067D01*
X2233214Y-2097486D01*
X2235633Y-2099904D01*
X2238051Y-2101113D01*
X2242888D01*
X2245307Y-2099904D01*
X2247725Y-2097486D01*
X2248934Y-2095067D01*
Y-2091439D01*
X2242888D02*
X2248934D01*
X2254739Y-2075719D02*
Y-2101113D01*
Y-2075719D02*
X2271669Y-2101113D01*
Y-2075719D02*
Y-2101113D01*
X2314356Y-2075719D02*
X2298635D01*
Y-2101113D01*
X2314356D01*
X2298635Y-2087811D02*
X2308309D01*
X2318588Y-2075719D02*
Y-2101113D01*
Y-2075719D02*
X2335518Y-2101113D01*
Y-2075719D02*
Y-2101113D01*
X2360670Y-2081765D02*
X2359461Y-2079347D01*
X2357043Y-2076928D01*
X2354624Y-2075719D01*
X2349787D01*
X2347369Y-2076928D01*
X2344950Y-2079347D01*
X2343741Y-2081765D01*
X2342532Y-2085393D01*
Y-2091439D01*
X2343741Y-2095067D01*
X2344950Y-2097486D01*
X2347369Y-2099904D01*
X2349787Y-2101113D01*
X2354624D01*
X2357043Y-2099904D01*
X2359461Y-2097486D01*
X2360670Y-2095067D01*
Y-2091439D01*
X2354624D02*
X2360670D01*
X2366475Y-2075719D02*
Y-2101113D01*
Y-2075719D02*
X2377358D01*
X2380986Y-2076928D01*
X2382195Y-2078137D01*
X2383405Y-2080556D01*
Y-2082974D01*
X2382195Y-2085393D01*
X2380986Y-2086602D01*
X2377358Y-2087811D01*
X2366475D01*
X2374940D02*
X2383405Y-2101113D01*
X2160295Y-2152521D02*
X2171179D01*
X2174807Y-2151311D01*
X2176016Y-2150102D01*
X2177225Y-2147684D01*
Y-2144056D01*
X2176016Y-2141637D01*
X2174807Y-2140428D01*
X2171179Y-2139219D01*
X2160295D01*
Y-2164613D01*
X2182909Y-2139219D02*
Y-2164613D01*
Y-2139219D02*
X2193792D01*
X2197420Y-2140428D01*
X2198629Y-2141637D01*
X2199838Y-2144056D01*
Y-2146474D01*
X2198629Y-2148893D01*
X2197420Y-2150102D01*
X2193792Y-2151311D01*
X2182909D01*
X2191373D02*
X2199838Y-2164613D01*
X2212778Y-2139219D02*
X2210359Y-2140428D01*
X2207940Y-2142847D01*
X2206731Y-2145265D01*
X2205522Y-2148893D01*
Y-2154939D01*
X2206731Y-2158567D01*
X2207940Y-2160986D01*
X2210359Y-2163404D01*
X2212778Y-2164613D01*
X2217614D01*
X2220033Y-2163404D01*
X2222452Y-2160986D01*
X2223661Y-2158567D01*
X2224870Y-2154939D01*
Y-2148893D01*
X2223661Y-2145265D01*
X2222452Y-2142847D01*
X2220033Y-2140428D01*
X2217614Y-2139219D01*
X2212778D01*
X2242888D02*
Y-2158567D01*
X2241679Y-2162195D01*
X2240470Y-2163404D01*
X2238051Y-2164613D01*
X2235633D01*
X2233214Y-2163404D01*
X2232005Y-2162195D01*
X2230795Y-2158567D01*
Y-2156149D01*
X2265139Y-2139219D02*
X2249418D01*
Y-2164613D01*
X2265139D01*
X2249418Y-2151311D02*
X2259092D01*
X2287510Y-2145265D02*
X2286301Y-2142847D01*
X2283882Y-2140428D01*
X2281464Y-2139219D01*
X2276627D01*
X2274208Y-2140428D01*
X2271790Y-2142847D01*
X2270580Y-2145265D01*
X2269371Y-2148893D01*
Y-2154939D01*
X2270580Y-2158567D01*
X2271790Y-2160986D01*
X2274208Y-2163404D01*
X2276627Y-2164613D01*
X2281464D01*
X2283882Y-2163404D01*
X2286301Y-2160986D01*
X2287510Y-2158567D01*
X2303109Y-2139219D02*
Y-2164613D01*
X2294645Y-2139219D02*
X2311574D01*
X2350271D02*
X2334550D01*
Y-2164613D01*
X2350271D01*
X2334550Y-2151311D02*
X2344225D01*
X2354503Y-2139219D02*
Y-2164613D01*
Y-2139219D02*
X2371433Y-2164613D01*
Y-2139219D02*
Y-2164613D01*
X2396586Y-2145265D02*
X2395376Y-2142847D01*
X2392958Y-2140428D01*
X2390539Y-2139219D01*
X2385702D01*
X2383284Y-2140428D01*
X2380865Y-2142847D01*
X2379656Y-2145265D01*
X2378447Y-2148893D01*
Y-2154939D01*
X2379656Y-2158567D01*
X2380865Y-2160986D01*
X2383284Y-2163404D01*
X2385702Y-2164613D01*
X2390539D01*
X2392958Y-2163404D01*
X2395376Y-2160986D01*
X2396586Y-2158567D01*
Y-2154939D01*
X2390539D02*
X2396586D01*
X2402390Y-2139219D02*
Y-2164613D01*
Y-2139219D02*
X2413274D01*
X2416901Y-2140428D01*
X2418111Y-2141637D01*
X2419320Y-2144056D01*
Y-2146474D01*
X2418111Y-2148893D01*
X2416901Y-2150102D01*
X2413274Y-2151311D01*
X2402390D01*
X2410855D02*
X2419320Y-2164613D01*
X2176016Y-2202719D02*
X2160295D01*
Y-2228113D01*
X2176016D01*
X2160295Y-2214812D02*
X2169969D01*
X2180248Y-2202719D02*
Y-2228113D01*
Y-2202719D02*
X2197178Y-2228113D01*
Y-2202719D02*
Y-2228113D01*
X2222331Y-2208765D02*
X2221121Y-2206347D01*
X2218703Y-2203928D01*
X2216284Y-2202719D01*
X2211447D01*
X2209029Y-2203928D01*
X2206610Y-2206347D01*
X2205401Y-2208765D01*
X2204192Y-2212393D01*
Y-2218439D01*
X2205401Y-2222067D01*
X2206610Y-2224486D01*
X2209029Y-2226904D01*
X2211447Y-2228113D01*
X2216284D01*
X2218703Y-2226904D01*
X2221121Y-2224486D01*
X2222331Y-2222067D01*
Y-2218439D01*
X2216284D02*
X2222331D01*
X2228135Y-2202719D02*
Y-2228113D01*
Y-2202719D02*
X2239019D01*
X2242646Y-2203928D01*
X2243856Y-2205137D01*
X2245065Y-2207556D01*
Y-2209974D01*
X2243856Y-2212393D01*
X2242646Y-2213602D01*
X2239019Y-2214812D01*
X2228135D01*
X2236600D02*
X2245065Y-2228113D01*
X2270701Y-2202719D02*
Y-2228113D01*
Y-2202719D02*
X2280375Y-2228113D01*
X2290049Y-2202719D02*
X2280375Y-2228113D01*
X2290049Y-2202719D02*
Y-2228113D01*
X2315444Y-2208765D02*
X2314235Y-2206347D01*
X2311816Y-2203928D01*
X2309398Y-2202719D01*
X2304561D01*
X2302142Y-2203928D01*
X2299724Y-2206347D01*
X2298514Y-2208765D01*
X2297305Y-2212393D01*
Y-2218439D01*
X2298514Y-2222067D01*
X2299724Y-2224486D01*
X2302142Y-2226904D01*
X2304561Y-2228113D01*
X2309398D01*
X2311816Y-2226904D01*
X2314235Y-2224486D01*
X2315444Y-2222067D01*
Y-2218439D01*
X2309398D02*
X2315444D01*
X2321248Y-2202719D02*
Y-2228113D01*
Y-2202719D02*
X2332132D01*
X2335760Y-2203928D01*
X2336969Y-2205137D01*
X2338178Y-2207556D01*
Y-2209974D01*
X2336969Y-2212393D01*
X2335760Y-2213602D01*
X2332132Y-2214812D01*
X2321248D01*
X2329713D02*
X2338178Y-2228113D01*
X2344445Y-2266219D02*
Y-2291613D01*
Y-2266219D02*
X2361375Y-2291613D01*
Y-2266219D02*
Y-2291613D01*
X2384109Y-2266219D02*
X2368389D01*
Y-2291613D01*
X2384109D01*
X2368389Y-2278311D02*
X2378063D01*
X2388342Y-2266219D02*
X2405271Y-2291613D01*
Y-2266219D02*
X2388342Y-2291613D01*
X2419420Y-2266219D02*
Y-2291613D01*
X2410955Y-2266219D02*
X2427885D01*
X2470209Y-2291613D02*
X2460535Y-2266219D01*
X2450861Y-2291613D01*
X2454489Y-2283148D02*
X2466581D01*
X2493064Y-2269847D02*
X2490645Y-2267428D01*
X2487018Y-2266219D01*
X2482181D01*
X2478553Y-2267428D01*
X2476134Y-2269847D01*
Y-2272265D01*
X2477344Y-2274684D01*
X2478553Y-2275893D01*
X2480971Y-2277102D01*
X2488227Y-2279521D01*
X2490645Y-2280730D01*
X2491855Y-2281939D01*
X2493064Y-2284358D01*
Y-2287986D01*
X2490645Y-2290404D01*
X2487018Y-2291613D01*
X2482181D01*
X2478553Y-2290404D01*
X2476134Y-2287986D01*
X2515677Y-2269847D02*
X2513259Y-2267428D01*
X2509631Y-2266219D01*
X2504794D01*
X2501166Y-2267428D01*
X2498748Y-2269847D01*
Y-2272265D01*
X2499957Y-2274684D01*
X2501166Y-2275893D01*
X2503585Y-2277102D01*
X2510840Y-2279521D01*
X2513259Y-2280730D01*
X2514468Y-2281939D01*
X2515677Y-2284358D01*
Y-2287986D01*
X2513259Y-2290404D01*
X2509631Y-2291613D01*
X2504794D01*
X2501166Y-2290404D01*
X2498748Y-2287986D01*
X2537081Y-2266219D02*
X2521361D01*
Y-2291613D01*
X2537081D01*
X2521361Y-2278311D02*
X2531035D01*
X2541314Y-2266219D02*
Y-2291613D01*
Y-2266219D02*
X2550988Y-2291613D01*
X2560662Y-2266219D02*
X2550988Y-2291613D01*
X2560662Y-2266219D02*
Y-2291613D01*
X2567917Y-2266219D02*
Y-2291613D01*
Y-2266219D02*
X2578801D01*
X2582429Y-2267428D01*
X2583638Y-2268637D01*
X2584847Y-2271056D01*
Y-2273474D01*
X2583638Y-2275893D01*
X2582429Y-2277102D01*
X2578801Y-2278311D01*
X2567917D02*
X2578801D01*
X2582429Y-2279521D01*
X2583638Y-2280730D01*
X2584847Y-2283148D01*
Y-2286776D01*
X2583638Y-2289195D01*
X2582429Y-2290404D01*
X2578801Y-2291613D01*
X2567917D01*
X2590531Y-2266219D02*
Y-2291613D01*
X2605042D01*
X2607823Y-2266219D02*
X2617497Y-2278311D01*
Y-2291613D01*
X2627172Y-2266219D02*
X2617497Y-2278311D01*
X221278Y1485265D02*
X211604Y1510660D01*
X201930Y1485265D01*
X205558Y1493730D02*
X217650D01*
X227204Y1510660D02*
Y1485265D01*
X241715D01*
X244496Y1510660D02*
Y1485265D01*
X259007D01*
X281742Y1510660D02*
Y1492521D01*
X282951Y1488893D01*
X285369Y1486474D01*
X288997Y1485265D01*
X291416D01*
X295043Y1486474D01*
X297462Y1488893D01*
X298671Y1492521D01*
Y1510660D01*
X305685D02*
Y1485265D01*
Y1510660D02*
X322615Y1485265D01*
Y1510660D02*
Y1485265D01*
X329628Y1510660D02*
Y1485265D01*
X343414Y1510660D02*
Y1485265D01*
X334949Y1510660D02*
X351879D01*
X371832Y1507032D02*
X369413Y1509450D01*
X365785Y1510660D01*
X360948D01*
X357321Y1509450D01*
X354902Y1507032D01*
Y1504613D01*
X356111Y1502195D01*
X357321Y1500985D01*
X359739Y1499776D01*
X366995Y1497358D01*
X369413Y1496148D01*
X370622Y1494939D01*
X371832Y1492521D01*
Y1488893D01*
X369413Y1486474D01*
X365785Y1485265D01*
X360948D01*
X357321Y1486474D01*
X354902Y1488893D01*
X416816Y1485265D02*
X407142Y1510660D01*
X397468Y1485265D01*
X401096Y1493730D02*
X413189D01*
X422742Y1510660D02*
Y1485265D01*
Y1510660D02*
X433625D01*
X437253Y1509450D01*
X438462Y1508241D01*
X439672Y1505822D01*
Y1503404D01*
X438462Y1500985D01*
X437253Y1499776D01*
X433625Y1498567D01*
X422742D01*
X431207D02*
X439672Y1485265D01*
X461075Y1510660D02*
X445355D01*
Y1485265D01*
X461075D01*
X445355Y1498567D02*
X455029D01*
X485261Y1510660D02*
Y1485265D01*
X490582Y1510660D02*
Y1485265D01*
Y1510660D02*
X507511Y1485265D01*
Y1510660D02*
Y1485265D01*
X534478Y1510660D02*
Y1485265D01*
Y1510660D02*
X544152Y1485265D01*
X553826Y1510660D02*
X544152Y1485265D01*
X553826Y1510660D02*
Y1485265D01*
X561082Y1510660D02*
Y1485265D01*
X566402Y1510660D02*
Y1485265D01*
X580914D01*
X600625Y1507032D02*
X598206Y1509450D01*
X594578Y1510660D01*
X589741D01*
X586113Y1509450D01*
X583695Y1507032D01*
Y1504613D01*
X584904Y1502195D01*
X586113Y1500985D01*
X588532Y1499776D01*
X595788Y1497358D01*
X598206Y1496148D01*
X599415Y1494939D01*
X600625Y1492521D01*
Y1488893D01*
X598206Y1486474D01*
X594578Y1485265D01*
X589741D01*
X586113Y1486474D01*
X583695Y1488893D01*
X-234950Y1476370D02*
Y1450975D01*
Y1476370D02*
X-219230D01*
X-234950Y1464277D02*
X-225276D01*
X-216327Y1476370D02*
Y1450975D01*
X-192868Y1470323D02*
X-194077Y1472742D01*
X-196495Y1475160D01*
X-198914Y1476370D01*
X-203751D01*
X-206169Y1475160D01*
X-208588Y1472742D01*
X-209797Y1470323D01*
X-211007Y1466695D01*
Y1460649D01*
X-209797Y1457021D01*
X-208588Y1454603D01*
X-206169Y1452184D01*
X-203751Y1450975D01*
X-198914D01*
X-196495Y1452184D01*
X-194077Y1454603D01*
X-192868Y1457021D01*
Y1460649D01*
X-198914D02*
X-192868D01*
X-187063Y1476370D02*
Y1458231D01*
X-185854Y1454603D01*
X-183435Y1452184D01*
X-179807Y1450975D01*
X-177389D01*
X-173761Y1452184D01*
X-171343Y1454603D01*
X-170133Y1458231D01*
Y1476370D01*
X-163120D02*
Y1450975D01*
Y1476370D02*
X-152236D01*
X-148609Y1475160D01*
X-147399Y1473951D01*
X-146190Y1471532D01*
Y1469114D01*
X-147399Y1466695D01*
X-148609Y1465486D01*
X-152236Y1464277D01*
X-163120D01*
X-154655D02*
X-146190Y1450975D01*
X-124786Y1476370D02*
X-140506D01*
Y1450975D01*
X-124786D01*
X-140506Y1464277D02*
X-130832D01*
X84240Y1472742D02*
X81821Y1475160D01*
X78193Y1476370D01*
X73356D01*
X69728Y1475160D01*
X67310Y1472742D01*
Y1470323D01*
X68519Y1467905D01*
X69728Y1466695D01*
X72147Y1465486D01*
X79403Y1463068D01*
X81821Y1461858D01*
X83030Y1460649D01*
X84240Y1458231D01*
Y1454603D01*
X81821Y1452184D01*
X78193Y1450975D01*
X73356D01*
X69728Y1452184D01*
X67310Y1454603D01*
X89923Y1476370D02*
Y1450975D01*
X112174Y1476370D02*
X95244Y1450975D01*
Y1476370D02*
X112174D01*
X95244Y1450975D02*
X112174D01*
X133578Y1476370D02*
X117857D01*
Y1450975D01*
X133578D01*
X117857Y1464277D02*
X127531D01*
X408515Y1476370D02*
Y1450975D01*
X400050Y1476370D02*
X416980D01*
X427258D02*
X424840Y1475160D01*
X422421Y1472742D01*
X421212Y1470323D01*
X420003Y1466695D01*
Y1460649D01*
X421212Y1457021D01*
X422421Y1454603D01*
X424840Y1452184D01*
X427258Y1450975D01*
X432095D01*
X434514Y1452184D01*
X436933Y1454603D01*
X438142Y1457021D01*
X439351Y1460649D01*
Y1466695D01*
X438142Y1470323D01*
X436933Y1472742D01*
X434514Y1475160D01*
X432095Y1476370D01*
X427258D01*
X445276D02*
Y1450975D01*
X459788D01*
X478289Y1476370D02*
X462569D01*
Y1450975D01*
X478289D01*
X462569Y1464277D02*
X472243D01*
X482522Y1476370D02*
Y1450975D01*
Y1476370D02*
X493405D01*
X497033Y1475160D01*
X498242Y1473951D01*
X499452Y1471532D01*
Y1469114D01*
X498242Y1466695D01*
X497033Y1465486D01*
X493405Y1464277D01*
X482522D01*
X490987D02*
X499452Y1450975D01*
X524483D02*
X514809Y1476370D01*
X505135Y1450975D01*
X508763Y1459440D02*
X520855D01*
X530409Y1476370D02*
Y1450975D01*
Y1476370D02*
X547338Y1450975D01*
Y1476370D02*
Y1450975D01*
X572491Y1470323D02*
X571282Y1472742D01*
X568863Y1475160D01*
X566445Y1476370D01*
X561608D01*
X559189Y1475160D01*
X556771Y1472742D01*
X555561Y1470323D01*
X554352Y1466695D01*
Y1460649D01*
X555561Y1457021D01*
X556771Y1454603D01*
X559189Y1452184D01*
X561608Y1450975D01*
X566445D01*
X568863Y1452184D01*
X571282Y1454603D01*
X572491Y1457021D01*
X595346Y1476370D02*
X579626D01*
Y1450975D01*
X595346D01*
X579626Y1464277D02*
X589300D01*
X750570Y1463068D02*
X761453D01*
X765081Y1464277D01*
X766290Y1465486D01*
X767500Y1467905D01*
Y1471532D01*
X766290Y1473951D01*
X765081Y1475160D01*
X761453Y1476370D01*
X750570D01*
Y1450975D01*
X773183Y1476370D02*
Y1450975D01*
X787694D01*
X809824D02*
X800150Y1476370D01*
X790476Y1450975D01*
X794103Y1459440D02*
X806196D01*
X824214Y1476370D02*
Y1450975D01*
X815749Y1476370D02*
X832679D01*
X851423D02*
X835702D01*
Y1450975D01*
X851423D01*
X835702Y1464277D02*
X845376D01*
X855655Y1476370D02*
Y1450975D01*
Y1476370D02*
X864120D01*
X867748Y1475160D01*
X870166Y1472742D01*
X871376Y1470323D01*
X872585Y1466695D01*
Y1460649D01*
X871376Y1457021D01*
X870166Y1454603D01*
X867748Y1452184D01*
X864120Y1450975D01*
X855655D01*
X994046Y1476370D02*
X991627Y1475160D01*
X989209Y1472742D01*
X987999Y1470323D01*
X986790Y1466695D01*
Y1460649D01*
X987999Y1457021D01*
X989209Y1454603D01*
X991627Y1452184D01*
X994046Y1450975D01*
X998883D01*
X1001301Y1452184D01*
X1003720Y1454603D01*
X1004929Y1457021D01*
X1006138Y1460649D01*
Y1466695D01*
X1004929Y1470323D01*
X1003720Y1472742D01*
X1001301Y1475160D01*
X998883Y1476370D01*
X994046D01*
X997673Y1455812D02*
X1004929Y1448557D01*
X1020528Y1476370D02*
Y1450975D01*
X1012064Y1476370D02*
X1028993D01*
X1032017D02*
X1041691Y1464277D01*
Y1450975D01*
X1051365Y1476370D02*
X1041691Y1464277D01*
D48*
X3840448Y-1859177D02*
X3838332Y-1854945D01*
X3834099Y-1850712D01*
X3829867Y-1848596D01*
X3821402D01*
X3817169Y-1850712D01*
X3812937Y-1854945D01*
X3810821Y-1859177D01*
X3808705Y-1865526D01*
Y-1876107D01*
X3810821Y-1882455D01*
X3812937Y-1886688D01*
X3817169Y-1890920D01*
X3821402Y-1893037D01*
X3829867D01*
X3834099Y-1890920D01*
X3838332Y-1886688D01*
X3840448Y-1882455D01*
X3852933Y-1848596D02*
Y-1893037D01*
X3862245Y-1848596D02*
Y-1893037D01*
Y-1848596D02*
X3881291D01*
X3887639Y-1850712D01*
X3889756Y-1852829D01*
X3891872Y-1857061D01*
Y-1861293D01*
X3889756Y-1865526D01*
X3887639Y-1867642D01*
X3881291Y-1869758D01*
X3862245D01*
X3877058D02*
X3891872Y-1893037D01*
X3933561Y-1859177D02*
X3931445Y-1854945D01*
X3927213Y-1850712D01*
X3922980Y-1848596D01*
X3914515D01*
X3910283Y-1850712D01*
X3906050Y-1854945D01*
X3903934Y-1859177D01*
X3901818Y-1865526D01*
Y-1876107D01*
X3903934Y-1882455D01*
X3906050Y-1886688D01*
X3910283Y-1890920D01*
X3914515Y-1893037D01*
X3922980D01*
X3927213Y-1890920D01*
X3931445Y-1886688D01*
X3933561Y-1882455D01*
X3946047Y-1848596D02*
Y-1880339D01*
X3948163Y-1886688D01*
X3952395Y-1890920D01*
X3958744Y-1893037D01*
X3962976D01*
X3969325Y-1890920D01*
X3973558Y-1886688D01*
X3975674Y-1880339D01*
Y-1848596D01*
X3987948D02*
Y-1893037D01*
X4012072Y-1848596D02*
Y-1893037D01*
X3997259Y-1848596D02*
X4026886D01*
X4063920Y-1859177D02*
X4061804Y-1854945D01*
X4057571Y-1850712D01*
X4053339Y-1848596D01*
X4044874D01*
X4040641Y-1850712D01*
X4036409Y-1854945D01*
X4034293Y-1859177D01*
X4032177Y-1865526D01*
Y-1876107D01*
X4034293Y-1882455D01*
X4036409Y-1886688D01*
X4040641Y-1890920D01*
X4044874Y-1893037D01*
X4053339D01*
X4057571Y-1890920D01*
X4061804Y-1886688D01*
X4063920Y-1882455D01*
X4089103Y-1848596D02*
X4084870Y-1850712D01*
X4080638Y-1854945D01*
X4078522Y-1859177D01*
X4076406Y-1865526D01*
Y-1876107D01*
X4078522Y-1882455D01*
X4080638Y-1886688D01*
X4084870Y-1890920D01*
X4089103Y-1893037D01*
X4097568D01*
X4101800Y-1890920D01*
X4106032Y-1886688D01*
X4108149Y-1882455D01*
X4110265Y-1876107D01*
Y-1865526D01*
X4108149Y-1859177D01*
X4106032Y-1854945D01*
X4101800Y-1850712D01*
X4097568Y-1848596D01*
X4089103D01*
X4122751Y-1888804D02*
X4120634Y-1890920D01*
X4122751Y-1893037D01*
X4124867Y-1890920D01*
X4122751Y-1888804D01*
X3840448Y-1859177D02*
X3838332Y-1854945D01*
X3834099Y-1850712D01*
X3829867Y-1848596D01*
X3821402D01*
X3817169Y-1850712D01*
X3812937Y-1854945D01*
X3810821Y-1859177D01*
X3808705Y-1865526D01*
Y-1876107D01*
X3810821Y-1882455D01*
X3812937Y-1886688D01*
X3817169Y-1890920D01*
X3821402Y-1893037D01*
X3829867D01*
X3834099Y-1890920D01*
X3838332Y-1886688D01*
X3840448Y-1882455D01*
X3852933Y-1848596D02*
Y-1893037D01*
X3862245Y-1848596D02*
Y-1893037D01*
Y-1848596D02*
X3881291D01*
X3887639Y-1850712D01*
X3889756Y-1852829D01*
X3891872Y-1857061D01*
Y-1861293D01*
X3889756Y-1865526D01*
X3887639Y-1867642D01*
X3881291Y-1869758D01*
X3862245D01*
X3877058D02*
X3891872Y-1893037D01*
X3933561Y-1859177D02*
X3931445Y-1854945D01*
X3927213Y-1850712D01*
X3922980Y-1848596D01*
X3914515D01*
X3910283Y-1850712D01*
X3906050Y-1854945D01*
X3903934Y-1859177D01*
X3901818Y-1865526D01*
Y-1876107D01*
X3903934Y-1882455D01*
X3906050Y-1886688D01*
X3910283Y-1890920D01*
X3914515Y-1893037D01*
X3922980D01*
X3927213Y-1890920D01*
X3931445Y-1886688D01*
X3933561Y-1882455D01*
X3946047Y-1848596D02*
Y-1880339D01*
X3948163Y-1886688D01*
X3952395Y-1890920D01*
X3958744Y-1893037D01*
X3962976D01*
X3969325Y-1890920D01*
X3973558Y-1886688D01*
X3975674Y-1880339D01*
Y-1848596D01*
X3987948D02*
Y-1893037D01*
X4012072Y-1848596D02*
Y-1893037D01*
X3997259Y-1848596D02*
X4026886D01*
X4063920Y-1859177D02*
X4061804Y-1854945D01*
X4057571Y-1850712D01*
X4053339Y-1848596D01*
X4044874D01*
X4040641Y-1850712D01*
X4036409Y-1854945D01*
X4034293Y-1859177D01*
X4032177Y-1865526D01*
Y-1876107D01*
X4034293Y-1882455D01*
X4036409Y-1886688D01*
X4040641Y-1890920D01*
X4044874Y-1893037D01*
X4053339D01*
X4057571Y-1890920D01*
X4061804Y-1886688D01*
X4063920Y-1882455D01*
X4089103Y-1848596D02*
X4084870Y-1850712D01*
X4080638Y-1854945D01*
X4078522Y-1859177D01*
X4076406Y-1865526D01*
Y-1876107D01*
X4078522Y-1882455D01*
X4080638Y-1886688D01*
X4084870Y-1890920D01*
X4089103Y-1893037D01*
X4097568D01*
X4101800Y-1890920D01*
X4106032Y-1886688D01*
X4108149Y-1882455D01*
X4110265Y-1876107D01*
Y-1865526D01*
X4108149Y-1859177D01*
X4106032Y-1854945D01*
X4101800Y-1850712D01*
X4097568Y-1848596D01*
X4089103D01*
X4122751Y-1888804D02*
X4120634Y-1890920D01*
X4122751Y-1893037D01*
X4124867Y-1890920D01*
X4122751Y-1888804D01*
D54*
X-175299Y1419860D02*
G03*
X-175299Y1419860I-2501J0D01*
G01*
X-170180Y1206500D02*
G03*
X-170180Y1206500I-7620J0D01*
G01*
X-161544Y1046480D02*
G03*
X-161544Y1046480I-16256J0D01*
G01*
X-173355Y996950D02*
G03*
X-173355Y989330I0J-3810D01*
G01*
X-182245D02*
G03*
X-182245Y996950I0J3810D01*
G01*
X-170815Y949960D02*
G03*
X-170815Y929640I0J-10160D01*
G01*
X-184785D02*
G03*
X-184785Y949960I0J10160D01*
G01*
X-167640Y896620D02*
G03*
X-167640Y876300I0J-10160D01*
G01*
X-187960D02*
G03*
X-187960Y896620I0J10160D01*
G01*
X-167640Y843280D02*
G03*
X-167640Y822960I0J-10160D01*
G01*
X-187960D02*
G03*
X-187960Y843280I0J10160D01*
G01*
X-165100Y789940D02*
G03*
X-165100Y769620I0J-10160D01*
G01*
X-190500D02*
G03*
X-190500Y789940I0J10160D01*
G01*
X-177800Y1362710D02*
Y1370330D01*
X-181610Y1366520D02*
X-173990D01*
X-171450Y1253490D02*
Y1266190D01*
X-184150Y1253490D02*
X-171450D01*
X-184150D02*
Y1266190D01*
X-171450D01*
X-169799Y1145159D02*
Y1161161D01*
X-185801Y1145159D02*
X-169799D01*
X-185801D02*
Y1161161D01*
X-169799D01*
X-193675Y1099820D02*
X-177800Y1115695D01*
X-193675Y1099820D02*
X-177800Y1083945D01*
X-161925Y1099820D01*
X-177800Y1115695D02*
X-161925Y1099820D01*
X-182245Y989330D02*
X-173355D01*
X-182245Y996950D02*
X-173355D01*
X-184785Y929640D02*
X-170815D01*
X-184785Y949960D02*
X-170815D01*
X-187960Y876300D02*
X-167640D01*
X-187960Y896620D02*
X-167640D01*
X-187960Y822960D02*
X-167640D01*
X-187960Y843280D02*
X-167640D01*
X-190500Y769620D02*
X-165100D01*
X-190500Y789940D02*
X-165100D01*
X381000Y215900D02*
Y368300D01*
X533400D01*
Y215900D02*
Y368300D01*
X381000Y215900D02*
X533400D01*
X260350Y381000D02*
X336550D01*
Y457200D01*
X260350D02*
X336550D01*
X260350Y381000D02*
Y457200D01*
X123825Y431800D02*
X136525D01*
Y415925D02*
Y431800D01*
X123825Y415925D02*
X136525D01*
X123825D02*
Y431800D01*
X-267970Y753110D02*
Y1578610D01*
X1090930D01*
Y753110D02*
Y1578610D01*
X-267970Y753110D02*
X1090930D01*
X-267970Y1515110D02*
X1090930D01*
X-267970Y1480820D02*
X1090930D01*
X-87630Y753110D02*
Y1480820D01*
X295910Y753110D02*
Y1480820D01*
X679450Y753110D02*
Y1480820D01*
X935990Y753110D02*
Y1480820D01*
X-267970Y1446530D02*
X1090930D01*
X-267970Y1393190D02*
X1090930D01*
X-267970Y1339850D02*
X1090930D01*
X-267970Y1286510D02*
X1090930D01*
X-267970Y1233170D02*
X1090930D01*
X-267970Y1179830D02*
X1090930D01*
X-267970Y1126490D02*
X1090930D01*
X-267970Y1073150D02*
X1090930D01*
X-267970Y1019810D02*
X1090930D01*
X-267970Y966470D02*
X1090930D01*
X-267970Y913130D02*
X1090930D01*
X-267970Y859790D02*
X1090930D01*
X-267970Y806450D02*
X1090930D01*
X590296Y174942D02*
X679704D01*
Y320358D01*
X590296D02*
X679704D01*
X590296Y174942D02*
Y320358D01*
D165*
X4164305Y-2255898D02*
X4180630D01*
X4186071Y-2254084D01*
X4187885Y-2252270D01*
X4189699Y-2248642D01*
Y-2243200D01*
X4187885Y-2239573D01*
X4186071Y-2237759D01*
X4180630Y-2235945D01*
X4164305D01*
Y-2274037D01*
X4225433Y-2245014D02*
X4223619Y-2241386D01*
X4219991Y-2237759D01*
X4216364Y-2235945D01*
X4209108D01*
X4205480Y-2237759D01*
X4201852Y-2241386D01*
X4200038Y-2245014D01*
X4198224Y-2250456D01*
Y-2259525D01*
X4200038Y-2264967D01*
X4201852Y-2268595D01*
X4205480Y-2272223D01*
X4209108Y-2274037D01*
X4216364D01*
X4219991Y-2272223D01*
X4223619Y-2268595D01*
X4225433Y-2264967D01*
X4236135Y-2235945D02*
Y-2274037D01*
Y-2235945D02*
X4252460D01*
X4257902Y-2237759D01*
X4259716Y-2239573D01*
X4261530Y-2243200D01*
Y-2246828D01*
X4259716Y-2250456D01*
X4257902Y-2252270D01*
X4252460Y-2254084D01*
X4236135D02*
X4252460D01*
X4257902Y-2255898D01*
X4259716Y-2257711D01*
X4261530Y-2261339D01*
Y-2266781D01*
X4259716Y-2270409D01*
X4257902Y-2272223D01*
X4252460Y-2274037D01*
X4236135D01*
X4299984Y-2235945D02*
Y-2274037D01*
Y-2235945D02*
X4316309D01*
X4321751Y-2237759D01*
X4323565Y-2239573D01*
X4325379Y-2243200D01*
Y-2246828D01*
X4323565Y-2250456D01*
X4321751Y-2252270D01*
X4316309Y-2254084D01*
X4299984D01*
X4312681D02*
X4325379Y-2274037D01*
X4357485Y-2235945D02*
X4333904D01*
Y-2274037D01*
X4357485D01*
X4333904Y-2254084D02*
X4348415D01*
X4363833Y-2235945D02*
X4378344Y-2274037D01*
X4392856Y-2235945D02*
X4378344Y-2274037D01*
X4427682Y-2235945D02*
Y-2274037D01*
Y-2235945D02*
X4444008D01*
X4449449Y-2237759D01*
X4451263Y-2239573D01*
X4453077Y-2243200D01*
Y-2246828D01*
X4451263Y-2250456D01*
X4449449Y-2252270D01*
X4444008Y-2254084D01*
X4427682D02*
X4444008D01*
X4449449Y-2255898D01*
X4451263Y-2257711D01*
X4453077Y-2261339D01*
Y-2266781D01*
X4451263Y-2270409D01*
X4449449Y-2272223D01*
X4444008Y-2274037D01*
X4427682D01*
X4479741Y-2235945D02*
X4461602Y-2261339D01*
X4488811D01*
X4479741Y-2235945D02*
Y-2274037D01*
X3580105Y-2083545D02*
Y-2121637D01*
Y-2083545D02*
X3596430D01*
X3601871Y-2085359D01*
X3603685Y-2087173D01*
X3605499Y-2090800D01*
Y-2094428D01*
X3603685Y-2098056D01*
X3601871Y-2099870D01*
X3596430Y-2101684D01*
X3580105D02*
X3596430D01*
X3601871Y-2103498D01*
X3603685Y-2105311D01*
X3605499Y-2108939D01*
Y-2114381D01*
X3603685Y-2118009D01*
X3601871Y-2119823D01*
X3596430Y-2121637D01*
X3580105D01*
X3614024Y-2107125D02*
X3635791D01*
Y-2103498D01*
X3633977Y-2099870D01*
X3632163Y-2098056D01*
X3628535Y-2096242D01*
X3623094D01*
X3619466Y-2098056D01*
X3615838Y-2101684D01*
X3614024Y-2107125D01*
Y-2110753D01*
X3615838Y-2116195D01*
X3619466Y-2119823D01*
X3623094Y-2121637D01*
X3628535D01*
X3632163Y-2119823D01*
X3635791Y-2116195D01*
X3665721Y-2096242D02*
Y-2121637D01*
Y-2101684D02*
X3662093Y-2098056D01*
X3658465Y-2096242D01*
X3653023D01*
X3649395Y-2098056D01*
X3645768Y-2101684D01*
X3643954Y-2107125D01*
Y-2110753D01*
X3645768Y-2116195D01*
X3649395Y-2119823D01*
X3653023Y-2121637D01*
X3658465D01*
X3662093Y-2119823D01*
X3665721Y-2116195D01*
X3697645Y-2096242D02*
Y-2125264D01*
X3695831Y-2130706D01*
X3694017Y-2132520D01*
X3690389Y-2134334D01*
X3684948D01*
X3681320Y-2132520D01*
X3697645Y-2101684D02*
X3694017Y-2098056D01*
X3690389Y-2096242D01*
X3684948D01*
X3681320Y-2098056D01*
X3677692Y-2101684D01*
X3675878Y-2107125D01*
Y-2110753D01*
X3677692Y-2116195D01*
X3681320Y-2119823D01*
X3684948Y-2121637D01*
X3690389D01*
X3694017Y-2119823D01*
X3697645Y-2116195D01*
X3707803Y-2083545D02*
Y-2121637D01*
X3715784Y-2107125D02*
X3737551D01*
Y-2103498D01*
X3735737Y-2099870D01*
X3733923Y-2098056D01*
X3730295Y-2096242D01*
X3724854D01*
X3721226Y-2098056D01*
X3717598Y-2101684D01*
X3715784Y-2107125D01*
Y-2110753D01*
X3717598Y-2116195D01*
X3721226Y-2119823D01*
X3724854Y-2121637D01*
X3730295D01*
X3733923Y-2119823D01*
X3737551Y-2116195D01*
X3745714Y-2083545D02*
Y-2121637D01*
Y-2083545D02*
X3762038D01*
X3767480Y-2085359D01*
X3769294Y-2087173D01*
X3771108Y-2090800D01*
Y-2094428D01*
X3769294Y-2098056D01*
X3767480Y-2099870D01*
X3762038Y-2101684D01*
X3745714D02*
X3762038D01*
X3767480Y-2103498D01*
X3769294Y-2105311D01*
X3771108Y-2108939D01*
Y-2114381D01*
X3769294Y-2118009D01*
X3767480Y-2119823D01*
X3762038Y-2121637D01*
X3745714D01*
X3788703Y-2096242D02*
X3785075Y-2098056D01*
X3781447Y-2101684D01*
X3779633Y-2107125D01*
Y-2110753D01*
X3781447Y-2116195D01*
X3785075Y-2119823D01*
X3788703Y-2121637D01*
X3794144D01*
X3797772Y-2119823D01*
X3801400Y-2116195D01*
X3803214Y-2110753D01*
Y-2107125D01*
X3801400Y-2101684D01*
X3797772Y-2098056D01*
X3794144Y-2096242D01*
X3788703D01*
X3811558D02*
Y-2121637D01*
Y-2103498D02*
X3817000Y-2098056D01*
X3820627Y-2096242D01*
X3826069D01*
X3829697Y-2098056D01*
X3831511Y-2103498D01*
Y-2121637D01*
X3841487Y-2107125D02*
X3863254D01*
Y-2103498D01*
X3861440Y-2099870D01*
X3859626Y-2098056D01*
X3855998Y-2096242D01*
X3850557D01*
X3846929Y-2098056D01*
X3843301Y-2101684D01*
X3841487Y-2107125D01*
Y-2110753D01*
X3843301Y-2116195D01*
X3846929Y-2119823D01*
X3850557Y-2121637D01*
X3855998D01*
X3859626Y-2119823D01*
X3863254Y-2116195D01*
X3901346Y-2083545D02*
Y-2121637D01*
Y-2083545D02*
X3917671D01*
X3923112Y-2085359D01*
X3924926Y-2087173D01*
X3926740Y-2090800D01*
Y-2094428D01*
X3924926Y-2098056D01*
X3923112Y-2099870D01*
X3917671Y-2101684D01*
X3901346D02*
X3917671D01*
X3923112Y-2103498D01*
X3924926Y-2105311D01*
X3926740Y-2108939D01*
Y-2114381D01*
X3924926Y-2118009D01*
X3923112Y-2119823D01*
X3917671Y-2121637D01*
X3901346D01*
X3935266Y-2083545D02*
Y-2121637D01*
X3965013Y-2096242D02*
Y-2121637D01*
Y-2101684D02*
X3961386Y-2098056D01*
X3957758Y-2096242D01*
X3952316D01*
X3948688Y-2098056D01*
X3945061Y-2101684D01*
X3943247Y-2107125D01*
Y-2110753D01*
X3945061Y-2116195D01*
X3948688Y-2119823D01*
X3952316Y-2121637D01*
X3957758D01*
X3961386Y-2119823D01*
X3965013Y-2116195D01*
X3996938Y-2101684D02*
X3993310Y-2098056D01*
X3989683Y-2096242D01*
X3984241D01*
X3980613Y-2098056D01*
X3976985Y-2101684D01*
X3975171Y-2107125D01*
Y-2110753D01*
X3976985Y-2116195D01*
X3980613Y-2119823D01*
X3984241Y-2121637D01*
X3989683D01*
X3993310Y-2119823D01*
X3996938Y-2116195D01*
X4005101Y-2083545D02*
Y-2121637D01*
X4023240Y-2096242D02*
X4005101Y-2114381D01*
X4012356Y-2107125D02*
X4025053Y-2121637D01*
X3580105Y-2007345D02*
Y-2045437D01*
Y-2007345D02*
X3603685D01*
X3580105Y-2025484D02*
X3594616D01*
X3637061Y-2045437D02*
X3622550Y-2007345D01*
X3608039Y-2045437D01*
X3613480Y-2032739D02*
X3631619D01*
X3645949Y-2007345D02*
Y-2045437D01*
Y-2007345D02*
X3662274D01*
X3667716Y-2009159D01*
X3669530Y-2010973D01*
X3671344Y-2014600D01*
Y-2018228D01*
X3669530Y-2021856D01*
X3667716Y-2023670D01*
X3662274Y-2025484D01*
X3645949D02*
X3662274D01*
X3667716Y-2027298D01*
X3669530Y-2029111D01*
X3671344Y-2032739D01*
Y-2038181D01*
X3669530Y-2041809D01*
X3667716Y-2043623D01*
X3662274Y-2045437D01*
X3645949D01*
X3679869Y-2007345D02*
Y-2045437D01*
Y-2007345D02*
X3696194D01*
X3701636Y-2009159D01*
X3703450Y-2010973D01*
X3705263Y-2014600D01*
Y-2018228D01*
X3703450Y-2021856D01*
X3701636Y-2023670D01*
X3696194Y-2025484D01*
X3679869D01*
X3692566D02*
X3705263Y-2045437D01*
X3713789Y-2007345D02*
Y-2045437D01*
X3748978Y-2016414D02*
X3747165Y-2012786D01*
X3743537Y-2009159D01*
X3739909Y-2007345D01*
X3732653D01*
X3729026Y-2009159D01*
X3725398Y-2012786D01*
X3723584Y-2016414D01*
X3721770Y-2021856D01*
Y-2030925D01*
X3723584Y-2036367D01*
X3725398Y-2039995D01*
X3729026Y-2043623D01*
X3732653Y-2045437D01*
X3739909D01*
X3743537Y-2043623D01*
X3747165Y-2039995D01*
X3748978Y-2036367D01*
X3788703Y-2045437D02*
X3774192Y-2007345D01*
X3759680Y-2045437D01*
X3765122Y-2032739D02*
X3783261D01*
X3810288Y-2007345D02*
Y-2045437D01*
X3797591Y-2007345D02*
X3822986D01*
X3827520D02*
Y-2045437D01*
X3846385Y-2007345D02*
X3842757Y-2009159D01*
X3839129Y-2012786D01*
X3837315Y-2016414D01*
X3835501Y-2021856D01*
Y-2030925D01*
X3837315Y-2036367D01*
X3839129Y-2039995D01*
X3842757Y-2043623D01*
X3846385Y-2045437D01*
X3853640D01*
X3857268Y-2043623D01*
X3860896Y-2039995D01*
X3862710Y-2036367D01*
X3864524Y-2030925D01*
Y-2021856D01*
X3862710Y-2016414D01*
X3860896Y-2012786D01*
X3857268Y-2009159D01*
X3853640Y-2007345D01*
X3846385D01*
X3873412D02*
Y-2045437D01*
Y-2007345D02*
X3898806Y-2045437D01*
Y-2007345D02*
Y-2045437D01*
X3939256Y-2007345D02*
Y-2045437D01*
Y-2007345D02*
X3951953D01*
X3957395Y-2009159D01*
X3961023Y-2012786D01*
X3962837Y-2016414D01*
X3964651Y-2021856D01*
Y-2030925D01*
X3962837Y-2036367D01*
X3961023Y-2039995D01*
X3957395Y-2043623D01*
X3951953Y-2045437D01*
X3939256D01*
X3973176Y-2007345D02*
Y-2045437D01*
Y-2007345D02*
X3989501D01*
X3994943Y-2009159D01*
X3996757Y-2010973D01*
X3998571Y-2014600D01*
Y-2018228D01*
X3996757Y-2021856D01*
X3994943Y-2023670D01*
X3989501Y-2025484D01*
X3973176D01*
X3985873D02*
X3998571Y-2045437D01*
X4036118D02*
X4021607Y-2007345D01*
X4007096Y-2045437D01*
X4012538Y-2032739D02*
X4030677D01*
X4045006Y-2007345D02*
X4054076Y-2045437D01*
X4063145Y-2007345D02*
X4054076Y-2045437D01*
X4063145Y-2007345D02*
X4072215Y-2045437D01*
X4081284Y-2007345D02*
X4072215Y-2045437D01*
X4088903Y-2007345D02*
Y-2045437D01*
X4096884Y-2007345D02*
Y-2045437D01*
Y-2007345D02*
X4122278Y-2045437D01*
Y-2007345D02*
Y-2045437D01*
X4160007Y-2016414D02*
X4158193Y-2012786D01*
X4154566Y-2009159D01*
X4150938Y-2007345D01*
X4143682D01*
X4140055Y-2009159D01*
X4136427Y-2012786D01*
X4134613Y-2016414D01*
X4132799Y-2021856D01*
Y-2030925D01*
X4134613Y-2036367D01*
X4136427Y-2039995D01*
X4140055Y-2043623D01*
X4143682Y-2045437D01*
X4150938D01*
X4154566Y-2043623D01*
X4158193Y-2039995D01*
X4160007Y-2036367D01*
Y-2030925D01*
X4150938D02*
X4160007D01*
X4172342Y-2043623D02*
X4170528Y-2045437D01*
X4168714Y-2043623D01*
X4170528Y-2041809D01*
X4172342Y-2043623D01*
Y-2047251D01*
X4170528Y-2050878D01*
X4168714Y-2052692D01*
X4164305Y-2255898D02*
X4180630D01*
X4186071Y-2254084D01*
X4187885Y-2252270D01*
X4189699Y-2248642D01*
Y-2243200D01*
X4187885Y-2239573D01*
X4186071Y-2237759D01*
X4180630Y-2235945D01*
X4164305D01*
Y-2274037D01*
X4225433Y-2245014D02*
X4223619Y-2241386D01*
X4219991Y-2237759D01*
X4216364Y-2235945D01*
X4209108D01*
X4205480Y-2237759D01*
X4201852Y-2241386D01*
X4200038Y-2245014D01*
X4198224Y-2250456D01*
Y-2259525D01*
X4200038Y-2264967D01*
X4201852Y-2268595D01*
X4205480Y-2272223D01*
X4209108Y-2274037D01*
X4216364D01*
X4219991Y-2272223D01*
X4223619Y-2268595D01*
X4225433Y-2264967D01*
X4236135Y-2235945D02*
Y-2274037D01*
Y-2235945D02*
X4252460D01*
X4257902Y-2237759D01*
X4259716Y-2239573D01*
X4261530Y-2243200D01*
Y-2246828D01*
X4259716Y-2250456D01*
X4257902Y-2252270D01*
X4252460Y-2254084D01*
X4236135D02*
X4252460D01*
X4257902Y-2255898D01*
X4259716Y-2257711D01*
X4261530Y-2261339D01*
Y-2266781D01*
X4259716Y-2270409D01*
X4257902Y-2272223D01*
X4252460Y-2274037D01*
X4236135D01*
X4299984Y-2235945D02*
Y-2274037D01*
Y-2235945D02*
X4316309D01*
X4321751Y-2237759D01*
X4323565Y-2239573D01*
X4325379Y-2243200D01*
Y-2246828D01*
X4323565Y-2250456D01*
X4321751Y-2252270D01*
X4316309Y-2254084D01*
X4299984D01*
X4312681D02*
X4325379Y-2274037D01*
X4357485Y-2235945D02*
X4333904D01*
Y-2274037D01*
X4357485D01*
X4333904Y-2254084D02*
X4348415D01*
X4363833Y-2235945D02*
X4378344Y-2274037D01*
X4392856Y-2235945D02*
X4378344Y-2274037D01*
X4427682Y-2235945D02*
Y-2274037D01*
Y-2235945D02*
X4444008D01*
X4449449Y-2237759D01*
X4451263Y-2239573D01*
X4453077Y-2243200D01*
Y-2246828D01*
X4451263Y-2250456D01*
X4449449Y-2252270D01*
X4444008Y-2254084D01*
X4427682D02*
X4444008D01*
X4449449Y-2255898D01*
X4451263Y-2257711D01*
X4453077Y-2261339D01*
Y-2266781D01*
X4451263Y-2270409D01*
X4449449Y-2272223D01*
X4444008Y-2274037D01*
X4427682D01*
X4479741Y-2235945D02*
X4461602Y-2261339D01*
X4488811D01*
X4479741Y-2235945D02*
Y-2274037D01*
X3580105Y-2083545D02*
Y-2121637D01*
Y-2083545D02*
X3596430D01*
X3601871Y-2085359D01*
X3603685Y-2087173D01*
X3605499Y-2090800D01*
Y-2094428D01*
X3603685Y-2098056D01*
X3601871Y-2099870D01*
X3596430Y-2101684D01*
X3580105D02*
X3596430D01*
X3601871Y-2103498D01*
X3603685Y-2105311D01*
X3605499Y-2108939D01*
Y-2114381D01*
X3603685Y-2118009D01*
X3601871Y-2119823D01*
X3596430Y-2121637D01*
X3580105D01*
X3614024Y-2107125D02*
X3635791D01*
Y-2103498D01*
X3633977Y-2099870D01*
X3632163Y-2098056D01*
X3628535Y-2096242D01*
X3623094D01*
X3619466Y-2098056D01*
X3615838Y-2101684D01*
X3614024Y-2107125D01*
Y-2110753D01*
X3615838Y-2116195D01*
X3619466Y-2119823D01*
X3623094Y-2121637D01*
X3628535D01*
X3632163Y-2119823D01*
X3635791Y-2116195D01*
X3665721Y-2096242D02*
Y-2121637D01*
Y-2101684D02*
X3662093Y-2098056D01*
X3658465Y-2096242D01*
X3653023D01*
X3649395Y-2098056D01*
X3645768Y-2101684D01*
X3643954Y-2107125D01*
Y-2110753D01*
X3645768Y-2116195D01*
X3649395Y-2119823D01*
X3653023Y-2121637D01*
X3658465D01*
X3662093Y-2119823D01*
X3665721Y-2116195D01*
X3697645Y-2096242D02*
Y-2125264D01*
X3695831Y-2130706D01*
X3694017Y-2132520D01*
X3690389Y-2134334D01*
X3684948D01*
X3681320Y-2132520D01*
X3697645Y-2101684D02*
X3694017Y-2098056D01*
X3690389Y-2096242D01*
X3684948D01*
X3681320Y-2098056D01*
X3677692Y-2101684D01*
X3675878Y-2107125D01*
Y-2110753D01*
X3677692Y-2116195D01*
X3681320Y-2119823D01*
X3684948Y-2121637D01*
X3690389D01*
X3694017Y-2119823D01*
X3697645Y-2116195D01*
X3707803Y-2083545D02*
Y-2121637D01*
X3715784Y-2107125D02*
X3737551D01*
Y-2103498D01*
X3735737Y-2099870D01*
X3733923Y-2098056D01*
X3730295Y-2096242D01*
X3724854D01*
X3721226Y-2098056D01*
X3717598Y-2101684D01*
X3715784Y-2107125D01*
Y-2110753D01*
X3717598Y-2116195D01*
X3721226Y-2119823D01*
X3724854Y-2121637D01*
X3730295D01*
X3733923Y-2119823D01*
X3737551Y-2116195D01*
X3745714Y-2083545D02*
Y-2121637D01*
Y-2083545D02*
X3762038D01*
X3767480Y-2085359D01*
X3769294Y-2087173D01*
X3771108Y-2090800D01*
Y-2094428D01*
X3769294Y-2098056D01*
X3767480Y-2099870D01*
X3762038Y-2101684D01*
X3745714D02*
X3762038D01*
X3767480Y-2103498D01*
X3769294Y-2105311D01*
X3771108Y-2108939D01*
Y-2114381D01*
X3769294Y-2118009D01*
X3767480Y-2119823D01*
X3762038Y-2121637D01*
X3745714D01*
X3788703Y-2096242D02*
X3785075Y-2098056D01*
X3781447Y-2101684D01*
X3779633Y-2107125D01*
Y-2110753D01*
X3781447Y-2116195D01*
X3785075Y-2119823D01*
X3788703Y-2121637D01*
X3794144D01*
X3797772Y-2119823D01*
X3801400Y-2116195D01*
X3803214Y-2110753D01*
Y-2107125D01*
X3801400Y-2101684D01*
X3797772Y-2098056D01*
X3794144Y-2096242D01*
X3788703D01*
X3811558D02*
Y-2121637D01*
Y-2103498D02*
X3817000Y-2098056D01*
X3820627Y-2096242D01*
X3826069D01*
X3829697Y-2098056D01*
X3831511Y-2103498D01*
Y-2121637D01*
X3841487Y-2107125D02*
X3863254D01*
Y-2103498D01*
X3861440Y-2099870D01*
X3859626Y-2098056D01*
X3855998Y-2096242D01*
X3850557D01*
X3846929Y-2098056D01*
X3843301Y-2101684D01*
X3841487Y-2107125D01*
Y-2110753D01*
X3843301Y-2116195D01*
X3846929Y-2119823D01*
X3850557Y-2121637D01*
X3855998D01*
X3859626Y-2119823D01*
X3863254Y-2116195D01*
X3901346Y-2083545D02*
Y-2121637D01*
Y-2083545D02*
X3917671D01*
X3923112Y-2085359D01*
X3924926Y-2087173D01*
X3926740Y-2090800D01*
Y-2094428D01*
X3924926Y-2098056D01*
X3923112Y-2099870D01*
X3917671Y-2101684D01*
X3901346D02*
X3917671D01*
X3923112Y-2103498D01*
X3924926Y-2105311D01*
X3926740Y-2108939D01*
Y-2114381D01*
X3924926Y-2118009D01*
X3923112Y-2119823D01*
X3917671Y-2121637D01*
X3901346D01*
X3935266Y-2083545D02*
Y-2121637D01*
X3965013Y-2096242D02*
Y-2121637D01*
Y-2101684D02*
X3961386Y-2098056D01*
X3957758Y-2096242D01*
X3952316D01*
X3948688Y-2098056D01*
X3945061Y-2101684D01*
X3943247Y-2107125D01*
Y-2110753D01*
X3945061Y-2116195D01*
X3948688Y-2119823D01*
X3952316Y-2121637D01*
X3957758D01*
X3961386Y-2119823D01*
X3965013Y-2116195D01*
X3996938Y-2101684D02*
X3993310Y-2098056D01*
X3989683Y-2096242D01*
X3984241D01*
X3980613Y-2098056D01*
X3976985Y-2101684D01*
X3975171Y-2107125D01*
Y-2110753D01*
X3976985Y-2116195D01*
X3980613Y-2119823D01*
X3984241Y-2121637D01*
X3989683D01*
X3993310Y-2119823D01*
X3996938Y-2116195D01*
X4005101Y-2083545D02*
Y-2121637D01*
X4023240Y-2096242D02*
X4005101Y-2114381D01*
X4012356Y-2107125D02*
X4025053Y-2121637D01*
X3580105Y-2007345D02*
Y-2045437D01*
Y-2007345D02*
X3603685D01*
X3580105Y-2025484D02*
X3594616D01*
X3637061Y-2045437D02*
X3622550Y-2007345D01*
X3608039Y-2045437D01*
X3613480Y-2032739D02*
X3631619D01*
X3645949Y-2007345D02*
Y-2045437D01*
Y-2007345D02*
X3662274D01*
X3667716Y-2009159D01*
X3669530Y-2010973D01*
X3671344Y-2014600D01*
Y-2018228D01*
X3669530Y-2021856D01*
X3667716Y-2023670D01*
X3662274Y-2025484D01*
X3645949D02*
X3662274D01*
X3667716Y-2027298D01*
X3669530Y-2029111D01*
X3671344Y-2032739D01*
Y-2038181D01*
X3669530Y-2041809D01*
X3667716Y-2043623D01*
X3662274Y-2045437D01*
X3645949D01*
X3679869Y-2007345D02*
Y-2045437D01*
Y-2007345D02*
X3696194D01*
X3701636Y-2009159D01*
X3703450Y-2010973D01*
X3705263Y-2014600D01*
Y-2018228D01*
X3703450Y-2021856D01*
X3701636Y-2023670D01*
X3696194Y-2025484D01*
X3679869D01*
X3692566D02*
X3705263Y-2045437D01*
X3713789Y-2007345D02*
Y-2045437D01*
X3748978Y-2016414D02*
X3747165Y-2012786D01*
X3743537Y-2009159D01*
X3739909Y-2007345D01*
X3732653D01*
X3729026Y-2009159D01*
X3725398Y-2012786D01*
X3723584Y-2016414D01*
X3721770Y-2021856D01*
Y-2030925D01*
X3723584Y-2036367D01*
X3725398Y-2039995D01*
X3729026Y-2043623D01*
X3732653Y-2045437D01*
X3739909D01*
X3743537Y-2043623D01*
X3747165Y-2039995D01*
X3748978Y-2036367D01*
X3788703Y-2045437D02*
X3774192Y-2007345D01*
X3759680Y-2045437D01*
X3765122Y-2032739D02*
X3783261D01*
X3810288Y-2007345D02*
Y-2045437D01*
X3797591Y-2007345D02*
X3822986D01*
X3827520D02*
Y-2045437D01*
X3846385Y-2007345D02*
X3842757Y-2009159D01*
X3839129Y-2012786D01*
X3837315Y-2016414D01*
X3835501Y-2021856D01*
Y-2030925D01*
X3837315Y-2036367D01*
X3839129Y-2039995D01*
X3842757Y-2043623D01*
X3846385Y-2045437D01*
X3853640D01*
X3857268Y-2043623D01*
X3860896Y-2039995D01*
X3862710Y-2036367D01*
X3864524Y-2030925D01*
Y-2021856D01*
X3862710Y-2016414D01*
X3860896Y-2012786D01*
X3857268Y-2009159D01*
X3853640Y-2007345D01*
X3846385D01*
X3873412D02*
Y-2045437D01*
Y-2007345D02*
X3898806Y-2045437D01*
Y-2007345D02*
Y-2045437D01*
X3939256Y-2007345D02*
Y-2045437D01*
Y-2007345D02*
X3951953D01*
X3957395Y-2009159D01*
X3961023Y-2012786D01*
X3962837Y-2016414D01*
X3964651Y-2021856D01*
Y-2030925D01*
X3962837Y-2036367D01*
X3961023Y-2039995D01*
X3957395Y-2043623D01*
X3951953Y-2045437D01*
X3939256D01*
X3973176Y-2007345D02*
Y-2045437D01*
Y-2007345D02*
X3989501D01*
X3994943Y-2009159D01*
X3996757Y-2010973D01*
X3998571Y-2014600D01*
Y-2018228D01*
X3996757Y-2021856D01*
X3994943Y-2023670D01*
X3989501Y-2025484D01*
X3973176D01*
X3985873D02*
X3998571Y-2045437D01*
X4036118D02*
X4021607Y-2007345D01*
X4007096Y-2045437D01*
X4012538Y-2032739D02*
X4030677D01*
X4045006Y-2007345D02*
X4054076Y-2045437D01*
X4063145Y-2007345D02*
X4054076Y-2045437D01*
X4063145Y-2007345D02*
X4072215Y-2045437D01*
X4081284Y-2007345D02*
X4072215Y-2045437D01*
X4088903Y-2007345D02*
Y-2045437D01*
X4096884Y-2007345D02*
Y-2045437D01*
Y-2007345D02*
X4122278Y-2045437D01*
Y-2007345D02*
Y-2045437D01*
X4160007Y-2016414D02*
X4158193Y-2012786D01*
X4154566Y-2009159D01*
X4150938Y-2007345D01*
X4143682D01*
X4140055Y-2009159D01*
X4136427Y-2012786D01*
X4134613Y-2016414D01*
X4132799Y-2021856D01*
Y-2030925D01*
X4134613Y-2036367D01*
X4136427Y-2039995D01*
X4140055Y-2043623D01*
X4143682Y-2045437D01*
X4150938D01*
X4154566Y-2043623D01*
X4158193Y-2039995D01*
X4160007Y-2036367D01*
Y-2030925D01*
X4150938D02*
X4160007D01*
X4172342Y-2043623D02*
X4170528Y-2045437D01*
X4168714Y-2043623D01*
X4170528Y-2041809D01*
X4172342Y-2043623D01*
Y-2047251D01*
X4170528Y-2050878D01*
X4168714Y-2052692D01*
D166*
X81280Y1562728D02*
Y1530985D01*
Y1562728D02*
X91861D01*
X96396Y1561217D01*
X99419Y1558194D01*
X100931Y1555170D01*
X102442Y1550636D01*
Y1543078D01*
X100931Y1538543D01*
X99419Y1535520D01*
X96396Y1532497D01*
X91861Y1530985D01*
X81280D01*
X109547Y1562728D02*
Y1530985D01*
Y1562728D02*
X123151D01*
X127685Y1561217D01*
X129197Y1559705D01*
X130709Y1556682D01*
Y1553659D01*
X129197Y1550636D01*
X127685Y1549124D01*
X123151Y1547612D01*
X109547D01*
X120128D02*
X130709Y1530985D01*
X137813Y1562728D02*
Y1530985D01*
X144464Y1562728D02*
Y1530985D01*
X162603D01*
X166080Y1562728D02*
Y1530985D01*
X184219D01*
X235310Y1555170D02*
X233799Y1558194D01*
X230775Y1561217D01*
X227752Y1562728D01*
X221706D01*
X218683Y1561217D01*
X215660Y1558194D01*
X214148Y1555170D01*
X212636Y1550636D01*
Y1543078D01*
X214148Y1538543D01*
X215660Y1535520D01*
X218683Y1532497D01*
X221706Y1530985D01*
X227752D01*
X230775Y1532497D01*
X233799Y1535520D01*
X235310Y1538543D01*
X244228Y1562728D02*
Y1530985D01*
X265391Y1562728D02*
Y1530985D01*
X244228Y1547612D02*
X265391D01*
X298343Y1530985D02*
X286250Y1562728D01*
X274158Y1530985D01*
X278692Y1541566D02*
X293808D01*
X305750Y1562728D02*
Y1530985D01*
Y1562728D02*
X319354D01*
X323889Y1561217D01*
X325400Y1559705D01*
X326912Y1556682D01*
Y1553659D01*
X325400Y1550636D01*
X323889Y1549124D01*
X319354Y1547612D01*
X305750D01*
X316331D02*
X326912Y1530985D01*
X344597Y1562728D02*
Y1530985D01*
X334016Y1562728D02*
X355178D01*
X360469Y1552147D02*
X358957Y1550636D01*
X360469Y1549124D01*
X361981Y1550636D01*
X360469Y1552147D01*
Y1534008D02*
X358957Y1532497D01*
X360469Y1530985D01*
X361981Y1532497D01*
X360469Y1534008D01*
X404456Y1562728D02*
Y1530985D01*
X393875Y1562728D02*
X415037D01*
X427886D02*
X424862Y1561217D01*
X421839Y1558194D01*
X420328Y1555170D01*
X418816Y1550636D01*
Y1543078D01*
X420328Y1538543D01*
X421839Y1535520D01*
X424862Y1532497D01*
X427886Y1530985D01*
X433932D01*
X436955Y1532497D01*
X439978Y1535520D01*
X441490Y1538543D01*
X443001Y1543078D01*
Y1550636D01*
X441490Y1555170D01*
X439978Y1558194D01*
X436955Y1561217D01*
X433932Y1562728D01*
X427886D01*
X450408Y1546101D02*
X464012D01*
X468547Y1547612D01*
X470059Y1549124D01*
X471570Y1552147D01*
Y1556682D01*
X470059Y1559705D01*
X468547Y1561217D01*
X464012Y1562728D01*
X450408D01*
Y1530985D01*
X508150Y1562728D02*
Y1537031D01*
X509662Y1532497D01*
X512685Y1530985D01*
X515708D01*
X503616Y1552147D02*
X514197D01*
X527801D02*
X524778Y1550636D01*
X521755Y1547612D01*
X520243Y1543078D01*
Y1540054D01*
X521755Y1535520D01*
X524778Y1532497D01*
X527801Y1530985D01*
X532336D01*
X535359Y1532497D01*
X538382Y1535520D01*
X539894Y1540054D01*
Y1543078D01*
X538382Y1547612D01*
X535359Y1550636D01*
X532336Y1552147D01*
X527801D01*
X571788Y1562728D02*
Y1530985D01*
Y1562728D02*
X585392D01*
X589927Y1561217D01*
X591438Y1559705D01*
X592950Y1556682D01*
Y1553659D01*
X591438Y1550636D01*
X589927Y1549124D01*
X585392Y1547612D01*
X571788D02*
X585392D01*
X589927Y1546101D01*
X591438Y1544589D01*
X592950Y1541566D01*
Y1537031D01*
X591438Y1534008D01*
X589927Y1532497D01*
X585392Y1530985D01*
X571788D01*
X609124Y1562728D02*
X606101Y1561217D01*
X603078Y1558194D01*
X601566Y1555170D01*
X600055Y1550636D01*
Y1543078D01*
X601566Y1538543D01*
X603078Y1535520D01*
X606101Y1532497D01*
X609124Y1530985D01*
X615170D01*
X618194Y1532497D01*
X621217Y1535520D01*
X622728Y1538543D01*
X624240Y1543078D01*
Y1550636D01*
X622728Y1555170D01*
X621217Y1558194D01*
X618194Y1561217D01*
X615170Y1562728D01*
X609124D01*
X642228D02*
Y1530985D01*
X631647Y1562728D02*
X652809D01*
X667169D02*
Y1530985D01*
X656588Y1562728D02*
X677750D01*
X690598D02*
X687575Y1561217D01*
X684552Y1558194D01*
X683040Y1555170D01*
X681529Y1550636D01*
Y1543078D01*
X683040Y1538543D01*
X684552Y1535520D01*
X687575Y1532497D01*
X690598Y1530985D01*
X696645D01*
X699668Y1532497D01*
X702691Y1535520D01*
X704202Y1538543D01*
X705714Y1543078D01*
Y1550636D01*
X704202Y1555170D01*
X702691Y1558194D01*
X699668Y1561217D01*
X696645Y1562728D01*
X690598D01*
X713121D02*
Y1530985D01*
Y1562728D02*
X725213Y1530985D01*
X737306Y1562728D02*
X725213Y1530985D01*
X737306Y1562728D02*
Y1530985D01*
X84179Y1431194D02*
X82667Y1434217D01*
X78133Y1435728D01*
X75110D01*
X70575Y1434217D01*
X67552Y1429682D01*
X66040Y1422124D01*
Y1414566D01*
X67552Y1408520D01*
X70575Y1405497D01*
X75110Y1403985D01*
X76621D01*
X81156Y1405497D01*
X84179Y1408520D01*
X85691Y1413055D01*
Y1414566D01*
X84179Y1419101D01*
X81156Y1422124D01*
X76621Y1423636D01*
X75110D01*
X70575Y1422124D01*
X67552Y1419101D01*
X66040Y1414566D01*
X94155Y1407008D02*
X92644Y1405497D01*
X94155Y1403985D01*
X95667Y1405497D01*
X94155Y1407008D01*
X111690Y1435728D02*
X107155Y1434217D01*
X104132Y1429682D01*
X102620Y1422124D01*
Y1417589D01*
X104132Y1410031D01*
X107155Y1405497D01*
X111690Y1403985D01*
X114713D01*
X119248Y1405497D01*
X122271Y1410031D01*
X123782Y1417589D01*
Y1422124D01*
X122271Y1429682D01*
X119248Y1434217D01*
X114713Y1435728D01*
X111690D01*
X386984Y1431194D02*
Y1403985D01*
X373380Y1417589D02*
X400588D01*
X412983Y1435728D02*
X429611D01*
X420541Y1423636D01*
X425076D01*
X428099Y1422124D01*
X429611Y1420612D01*
X431122Y1416078D01*
Y1413055D01*
X429611Y1408520D01*
X426588Y1405497D01*
X422053Y1403985D01*
X417518D01*
X412983Y1405497D01*
X411472Y1407008D01*
X409960Y1410031D01*
X439738Y1407008D02*
X438227Y1405497D01*
X439738Y1403985D01*
X441250Y1405497D01*
X439738Y1407008D01*
X457273Y1435728D02*
X452738Y1434217D01*
X449715Y1429682D01*
X448203Y1422124D01*
Y1417589D01*
X449715Y1410031D01*
X452738Y1405497D01*
X457273Y1403985D01*
X460296D01*
X464831Y1405497D01*
X467854Y1410031D01*
X469365Y1417589D01*
Y1422124D01*
X467854Y1429682D01*
X464831Y1434217D01*
X460296Y1435728D01*
X457273D01*
X476470Y1399450D02*
X497632Y1435728D01*
X499748Y1417589D02*
X526957D01*
X539352Y1435728D02*
X555979D01*
X546909Y1423636D01*
X551444D01*
X554467Y1422124D01*
X555979Y1420612D01*
X557491Y1416078D01*
Y1413055D01*
X555979Y1408520D01*
X552956Y1405497D01*
X548421Y1403985D01*
X543886D01*
X539352Y1405497D01*
X537840Y1407008D01*
X536328Y1410031D01*
X566107Y1407008D02*
X564595Y1405497D01*
X566107Y1403985D01*
X567618Y1405497D01*
X566107Y1407008D01*
X583641Y1435728D02*
X579106Y1434217D01*
X576083Y1429682D01*
X574571Y1422124D01*
Y1417589D01*
X576083Y1410031D01*
X579106Y1405497D01*
X583641Y1403985D01*
X586664D01*
X591199Y1405497D01*
X594222Y1410031D01*
X595734Y1417589D01*
Y1422124D01*
X594222Y1429682D01*
X591199Y1434217D01*
X586664Y1435728D01*
X583641D01*
X731520Y1419101D02*
X745124D01*
X749659Y1420612D01*
X751171Y1422124D01*
X752682Y1425147D01*
Y1429682D01*
X751171Y1432705D01*
X749659Y1434217D01*
X745124Y1435728D01*
X731520D01*
Y1403985D01*
X759787Y1435728D02*
Y1403985D01*
X777925D01*
X805587D02*
X793495Y1435728D01*
X781402Y1403985D01*
X785937Y1414566D02*
X801053D01*
X823575Y1435728D02*
Y1403985D01*
X812994Y1435728D02*
X834156D01*
X857586D02*
X837935D01*
Y1403985D01*
X857586D01*
X837935Y1420612D02*
X850028D01*
X862876Y1435728D02*
Y1403985D01*
Y1435728D02*
X873457D01*
X877992Y1434217D01*
X881015Y1431194D01*
X882527Y1428170D01*
X884038Y1423636D01*
Y1416078D01*
X882527Y1411543D01*
X881015Y1408520D01*
X877992Y1405497D01*
X873457Y1403985D01*
X862876D01*
X989572Y1428170D02*
Y1429682D01*
X991083Y1432705D01*
X992595Y1434217D01*
X995618Y1435728D01*
X1001664D01*
X1004687Y1434217D01*
X1006199Y1432705D01*
X1007711Y1429682D01*
Y1426659D01*
X1006199Y1423636D01*
X1003176Y1419101D01*
X988060Y1403985D01*
X1009222D01*
X1037489Y1435728D02*
X1022373Y1403985D01*
X1016327Y1435728D02*
X1037489D01*
X73598Y1382388D02*
X69063Y1380877D01*
X67552Y1377854D01*
Y1374830D01*
X69063Y1371807D01*
X72086Y1370296D01*
X78133Y1368784D01*
X82667Y1367272D01*
X85691Y1364249D01*
X87202Y1361226D01*
Y1356691D01*
X85691Y1353668D01*
X84179Y1352157D01*
X79644Y1350645D01*
X73598D01*
X69063Y1352157D01*
X67552Y1353668D01*
X66040Y1356691D01*
Y1361226D01*
X67552Y1364249D01*
X70575Y1367272D01*
X75110Y1368784D01*
X81156Y1370296D01*
X84179Y1371807D01*
X85691Y1374830D01*
Y1377854D01*
X84179Y1380877D01*
X79644Y1382388D01*
X73598D01*
X95818Y1353668D02*
X94307Y1352157D01*
X95818Y1350645D01*
X97330Y1352157D01*
X95818Y1353668D01*
X113352Y1382388D02*
X108818Y1380877D01*
X105795Y1376342D01*
X104283Y1368784D01*
Y1364249D01*
X105795Y1356691D01*
X108818Y1352157D01*
X113352Y1350645D01*
X116376D01*
X120910Y1352157D01*
X123934Y1356691D01*
X125445Y1364249D01*
Y1368784D01*
X123934Y1376342D01*
X120910Y1380877D01*
X116376Y1382388D01*
X113352D01*
X386984Y1377854D02*
Y1350645D01*
X373380Y1364249D02*
X400588D01*
X412983Y1382388D02*
X429611D01*
X420541Y1370296D01*
X425076D01*
X428099Y1368784D01*
X429611Y1367272D01*
X431122Y1362738D01*
Y1359715D01*
X429611Y1355180D01*
X426588Y1352157D01*
X422053Y1350645D01*
X417518D01*
X412983Y1352157D01*
X411472Y1353668D01*
X409960Y1356691D01*
X439738Y1353668D02*
X438227Y1352157D01*
X439738Y1350645D01*
X441250Y1352157D01*
X439738Y1353668D01*
X457273Y1382388D02*
X452738Y1380877D01*
X449715Y1376342D01*
X448203Y1368784D01*
Y1364249D01*
X449715Y1356691D01*
X452738Y1352157D01*
X457273Y1350645D01*
X460296D01*
X464831Y1352157D01*
X467854Y1356691D01*
X469365Y1364249D01*
Y1368784D01*
X467854Y1376342D01*
X464831Y1380877D01*
X460296Y1382388D01*
X457273D01*
X476470Y1346110D02*
X497632Y1382388D01*
X499748Y1364249D02*
X526957D01*
X539352Y1382388D02*
X555979D01*
X546909Y1370296D01*
X551444D01*
X554467Y1368784D01*
X555979Y1367272D01*
X557491Y1362738D01*
Y1359715D01*
X555979Y1355180D01*
X552956Y1352157D01*
X548421Y1350645D01*
X543886D01*
X539352Y1352157D01*
X537840Y1353668D01*
X536328Y1356691D01*
X566107Y1353668D02*
X564595Y1352157D01*
X566107Y1350645D01*
X567618Y1352157D01*
X566107Y1353668D01*
X583641Y1382388D02*
X579106Y1380877D01*
X576083Y1376342D01*
X574571Y1368784D01*
Y1364249D01*
X576083Y1356691D01*
X579106Y1352157D01*
X583641Y1350645D01*
X586664D01*
X591199Y1352157D01*
X594222Y1356691D01*
X595734Y1364249D01*
Y1368784D01*
X594222Y1376342D01*
X591199Y1380877D01*
X586664Y1382388D01*
X583641D01*
X731520Y1365761D02*
X745124D01*
X749659Y1367272D01*
X751171Y1368784D01*
X752682Y1371807D01*
Y1376342D01*
X751171Y1379365D01*
X749659Y1380877D01*
X745124Y1382388D01*
X731520D01*
Y1350645D01*
X759787Y1382388D02*
Y1350645D01*
X777925D01*
X805587D02*
X793495Y1382388D01*
X781402Y1350645D01*
X785937Y1361226D02*
X801053D01*
X823575Y1382388D02*
Y1350645D01*
X812994Y1382388D02*
X834156D01*
X857586D02*
X837935D01*
Y1350645D01*
X857586D01*
X837935Y1367272D02*
X850028D01*
X862876Y1382388D02*
Y1350645D01*
Y1382388D02*
X873457D01*
X877992Y1380877D01*
X881015Y1377854D01*
X882527Y1374830D01*
X884038Y1370296D01*
Y1362738D01*
X882527Y1358203D01*
X881015Y1355180D01*
X877992Y1352157D01*
X873457Y1350645D01*
X862876D01*
X996522Y1382388D02*
X981406Y1350645D01*
X975360Y1382388D02*
X996522D01*
X1023277Y1371807D02*
X1021766Y1367272D01*
X1018742Y1364249D01*
X1014208Y1362738D01*
X1012696D01*
X1008161Y1364249D01*
X1005138Y1367272D01*
X1003627Y1371807D01*
Y1373319D01*
X1005138Y1377854D01*
X1008161Y1380877D01*
X1012696Y1382388D01*
X1014208D01*
X1018742Y1380877D01*
X1021766Y1377854D01*
X1023277Y1371807D01*
Y1364249D01*
X1021766Y1356691D01*
X1018742Y1352157D01*
X1014208Y1350645D01*
X1011184D01*
X1006650Y1352157D01*
X1005138Y1355180D01*
X1047009Y1382388D02*
X1031893Y1361226D01*
X1054567D01*
X1047009Y1382388D02*
Y1350645D01*
X53340Y1323002D02*
X56363Y1324514D01*
X60898Y1329048D01*
Y1297305D01*
X78130Y1321490D02*
Y1323002D01*
X79641Y1326025D01*
X81153Y1327537D01*
X84176Y1329048D01*
X90223D01*
X93246Y1327537D01*
X94757Y1326025D01*
X96269Y1323002D01*
Y1319979D01*
X94757Y1316956D01*
X91734Y1312421D01*
X76618Y1297305D01*
X97781D01*
X106397Y1300328D02*
X104885Y1298817D01*
X106397Y1297305D01*
X107908Y1298817D01*
X106397Y1300328D01*
X123931Y1329048D02*
X119396Y1327537D01*
X116373Y1323002D01*
X114861Y1315444D01*
Y1310909D01*
X116373Y1303351D01*
X119396Y1298817D01*
X123931Y1297305D01*
X126954D01*
X131489Y1298817D01*
X134512Y1303351D01*
X136024Y1310909D01*
Y1315444D01*
X134512Y1323002D01*
X131489Y1327537D01*
X126954Y1329048D01*
X123931D01*
X386984Y1324514D02*
Y1297305D01*
X373380Y1310909D02*
X400588D01*
X412983Y1329048D02*
X429611D01*
X420541Y1316956D01*
X425076D01*
X428099Y1315444D01*
X429611Y1313932D01*
X431122Y1309398D01*
Y1306375D01*
X429611Y1301840D01*
X426588Y1298817D01*
X422053Y1297305D01*
X417518D01*
X412983Y1298817D01*
X411472Y1300328D01*
X409960Y1303351D01*
X439738Y1300328D02*
X438227Y1298817D01*
X439738Y1297305D01*
X441250Y1298817D01*
X439738Y1300328D01*
X457273Y1329048D02*
X452738Y1327537D01*
X449715Y1323002D01*
X448203Y1315444D01*
Y1310909D01*
X449715Y1303351D01*
X452738Y1298817D01*
X457273Y1297305D01*
X460296D01*
X464831Y1298817D01*
X467854Y1303351D01*
X469365Y1310909D01*
Y1315444D01*
X467854Y1323002D01*
X464831Y1327537D01*
X460296Y1329048D01*
X457273D01*
X476470Y1292770D02*
X497632Y1329048D01*
X499748Y1310909D02*
X526957D01*
X539352Y1329048D02*
X555979D01*
X546909Y1316956D01*
X551444D01*
X554467Y1315444D01*
X555979Y1313932D01*
X557491Y1309398D01*
Y1306375D01*
X555979Y1301840D01*
X552956Y1298817D01*
X548421Y1297305D01*
X543886D01*
X539352Y1298817D01*
X537840Y1300328D01*
X536328Y1303351D01*
X566107Y1300328D02*
X564595Y1298817D01*
X566107Y1297305D01*
X567618Y1298817D01*
X566107Y1300328D01*
X583641Y1329048D02*
X579106Y1327537D01*
X576083Y1323002D01*
X574571Y1315444D01*
Y1310909D01*
X576083Y1303351D01*
X579106Y1298817D01*
X583641Y1297305D01*
X586664D01*
X591199Y1298817D01*
X594222Y1303351D01*
X595734Y1310909D01*
Y1315444D01*
X594222Y1323002D01*
X591199Y1327537D01*
X586664Y1329048D01*
X583641D01*
X731520Y1312421D02*
X745124D01*
X749659Y1313932D01*
X751171Y1315444D01*
X752682Y1318467D01*
Y1323002D01*
X751171Y1326025D01*
X749659Y1327537D01*
X745124Y1329048D01*
X731520D01*
Y1297305D01*
X759787Y1329048D02*
Y1297305D01*
X777925D01*
X805587D02*
X793495Y1329048D01*
X781402Y1297305D01*
X785937Y1307886D02*
X801053D01*
X823575Y1329048D02*
Y1297305D01*
X812994Y1329048D02*
X834156D01*
X857586D02*
X837935D01*
Y1297305D01*
X857586D01*
X837935Y1313932D02*
X850028D01*
X862876Y1329048D02*
Y1297305D01*
Y1329048D02*
X873457D01*
X877992Y1327537D01*
X881015Y1324514D01*
X882527Y1321490D01*
X884038Y1316956D01*
Y1309398D01*
X882527Y1304863D01*
X881015Y1301840D01*
X877992Y1298817D01*
X873457Y1297305D01*
X862876D01*
X991083Y1329048D02*
X1007711D01*
X998641Y1316956D01*
X1003176D01*
X1006199Y1315444D01*
X1007711Y1313932D01*
X1009222Y1309398D01*
Y1306375D01*
X1007711Y1301840D01*
X1004687Y1298817D01*
X1000153Y1297305D01*
X995618D01*
X991083Y1298817D01*
X989572Y1300328D01*
X988060Y1303351D01*
X1025396Y1329048D02*
X1020861Y1327537D01*
X1017838Y1323002D01*
X1016327Y1315444D01*
Y1310909D01*
X1017838Y1303351D01*
X1020861Y1298817D01*
X1025396Y1297305D01*
X1028419D01*
X1032954Y1298817D01*
X1035977Y1303351D01*
X1037489Y1310909D01*
Y1315444D01*
X1035977Y1323002D01*
X1032954Y1327537D01*
X1028419Y1329048D01*
X1025396D01*
X56363Y1275708D02*
X72991D01*
X63921Y1263616D01*
X68456D01*
X71479Y1262104D01*
X72991Y1260592D01*
X74502Y1256058D01*
Y1253035D01*
X72991Y1248500D01*
X69967Y1245477D01*
X65433Y1243965D01*
X60898D01*
X56363Y1245477D01*
X54852Y1246988D01*
X53340Y1250011D01*
X90676Y1275708D02*
X86141Y1274197D01*
X83118Y1269662D01*
X81607Y1262104D01*
Y1257569D01*
X83118Y1250011D01*
X86141Y1245477D01*
X90676Y1243965D01*
X93699D01*
X98234Y1245477D01*
X101257Y1250011D01*
X102769Y1257569D01*
Y1262104D01*
X101257Y1269662D01*
X98234Y1274197D01*
X93699Y1275708D01*
X90676D01*
X111385Y1246988D02*
X109873Y1245477D01*
X111385Y1243965D01*
X112896Y1245477D01*
X111385Y1246988D01*
X128919Y1275708D02*
X124384Y1274197D01*
X121361Y1269662D01*
X119850Y1262104D01*
Y1257569D01*
X121361Y1250011D01*
X124384Y1245477D01*
X128919Y1243965D01*
X131942D01*
X136477Y1245477D01*
X139500Y1250011D01*
X141012Y1257569D01*
Y1262104D01*
X139500Y1269662D01*
X136477Y1274197D01*
X131942Y1275708D01*
X128919D01*
X386984Y1271173D02*
Y1243965D01*
X373380Y1257569D02*
X400588D01*
X412983Y1275708D02*
X429611D01*
X420541Y1263616D01*
X425076D01*
X428099Y1262104D01*
X429611Y1260592D01*
X431122Y1256058D01*
Y1253035D01*
X429611Y1248500D01*
X426588Y1245477D01*
X422053Y1243965D01*
X417518D01*
X412983Y1245477D01*
X411472Y1246988D01*
X409960Y1250011D01*
X439738Y1246988D02*
X438227Y1245477D01*
X439738Y1243965D01*
X441250Y1245477D01*
X439738Y1246988D01*
X457273Y1275708D02*
X452738Y1274197D01*
X449715Y1269662D01*
X448203Y1262104D01*
Y1257569D01*
X449715Y1250011D01*
X452738Y1245477D01*
X457273Y1243965D01*
X460296D01*
X464831Y1245477D01*
X467854Y1250011D01*
X469365Y1257569D01*
Y1262104D01*
X467854Y1269662D01*
X464831Y1274197D01*
X460296Y1275708D01*
X457273D01*
X476470Y1239430D02*
X497632Y1275708D01*
X499748Y1257569D02*
X526957D01*
X539352Y1275708D02*
X555979D01*
X546909Y1263616D01*
X551444D01*
X554467Y1262104D01*
X555979Y1260592D01*
X557491Y1256058D01*
Y1253035D01*
X555979Y1248500D01*
X552956Y1245477D01*
X548421Y1243965D01*
X543886D01*
X539352Y1245477D01*
X537840Y1246988D01*
X536328Y1250011D01*
X566107Y1246988D02*
X564595Y1245477D01*
X566107Y1243965D01*
X567618Y1245477D01*
X566107Y1246988D01*
X583641Y1275708D02*
X579106Y1274197D01*
X576083Y1269662D01*
X574571Y1262104D01*
Y1257569D01*
X576083Y1250011D01*
X579106Y1245477D01*
X583641Y1243965D01*
X586664D01*
X591199Y1245477D01*
X594222Y1250011D01*
X595734Y1257569D01*
Y1262104D01*
X594222Y1269662D01*
X591199Y1274197D01*
X586664Y1275708D01*
X583641D01*
X731520Y1259081D02*
X745124D01*
X749659Y1260592D01*
X751171Y1262104D01*
X752682Y1265127D01*
Y1269662D01*
X751171Y1272685D01*
X749659Y1274197D01*
X745124Y1275708D01*
X731520D01*
Y1243965D01*
X759787Y1275708D02*
Y1243965D01*
X777925D01*
X805587D02*
X793495Y1275708D01*
X781402Y1243965D01*
X785937Y1254546D02*
X801053D01*
X823575Y1275708D02*
Y1243965D01*
X812994Y1275708D02*
X834156D01*
X857586D02*
X837935D01*
Y1243965D01*
X857586D01*
X837935Y1260592D02*
X850028D01*
X862876Y1275708D02*
Y1243965D01*
Y1275708D02*
X873457D01*
X877992Y1274197D01*
X881015Y1271173D01*
X882527Y1268150D01*
X884038Y1263616D01*
Y1256058D01*
X882527Y1251523D01*
X881015Y1248500D01*
X877992Y1245477D01*
X873457Y1243965D01*
X862876D01*
X1007711Y1265127D02*
X1006199Y1260592D01*
X1003176Y1257569D01*
X998641Y1256058D01*
X997130D01*
X992595Y1257569D01*
X989572Y1260592D01*
X988060Y1265127D01*
Y1266639D01*
X989572Y1271173D01*
X992595Y1274197D01*
X997130Y1275708D01*
X998641D01*
X1003176Y1274197D01*
X1006199Y1271173D01*
X1007711Y1265127D01*
Y1257569D01*
X1006199Y1250011D01*
X1003176Y1245477D01*
X998641Y1243965D01*
X995618D01*
X991083Y1245477D01*
X989572Y1248500D01*
X1034465Y1271173D02*
X1032954Y1274197D01*
X1028419Y1275708D01*
X1025396D01*
X1020861Y1274197D01*
X1017838Y1269662D01*
X1016327Y1262104D01*
Y1254546D01*
X1017838Y1248500D01*
X1020861Y1245477D01*
X1025396Y1243965D01*
X1026908D01*
X1031442Y1245477D01*
X1034465Y1248500D01*
X1035977Y1253035D01*
Y1254546D01*
X1034465Y1259081D01*
X1031442Y1262104D01*
X1026908Y1263616D01*
X1025396D01*
X1020861Y1262104D01*
X1017838Y1259081D01*
X1016327Y1254546D01*
X68456Y1222368D02*
X53340Y1201206D01*
X76014D01*
X68456Y1222368D02*
Y1190625D01*
X90676Y1222368D02*
X86141Y1220857D01*
X83118Y1216322D01*
X81607Y1208764D01*
Y1204229D01*
X83118Y1196671D01*
X86141Y1192137D01*
X90676Y1190625D01*
X93699D01*
X98234Y1192137D01*
X101257Y1196671D01*
X102769Y1204229D01*
Y1208764D01*
X101257Y1216322D01*
X98234Y1220857D01*
X93699Y1222368D01*
X90676D01*
X111385Y1193648D02*
X109873Y1192137D01*
X111385Y1190625D01*
X112896Y1192137D01*
X111385Y1193648D01*
X128919Y1222368D02*
X124384Y1220857D01*
X121361Y1216322D01*
X119850Y1208764D01*
Y1204229D01*
X121361Y1196671D01*
X124384Y1192137D01*
X128919Y1190625D01*
X131942D01*
X136477Y1192137D01*
X139500Y1196671D01*
X141012Y1204229D01*
Y1208764D01*
X139500Y1216322D01*
X136477Y1220857D01*
X131942Y1222368D01*
X128919D01*
X386984Y1217833D02*
Y1190625D01*
X373380Y1204229D02*
X400588D01*
X412983Y1222368D02*
X429611D01*
X420541Y1210276D01*
X425076D01*
X428099Y1208764D01*
X429611Y1207252D01*
X431122Y1202718D01*
Y1199695D01*
X429611Y1195160D01*
X426588Y1192137D01*
X422053Y1190625D01*
X417518D01*
X412983Y1192137D01*
X411472Y1193648D01*
X409960Y1196671D01*
X439738Y1193648D02*
X438227Y1192137D01*
X439738Y1190625D01*
X441250Y1192137D01*
X439738Y1193648D01*
X457273Y1222368D02*
X452738Y1220857D01*
X449715Y1216322D01*
X448203Y1208764D01*
Y1204229D01*
X449715Y1196671D01*
X452738Y1192137D01*
X457273Y1190625D01*
X460296D01*
X464831Y1192137D01*
X467854Y1196671D01*
X469365Y1204229D01*
Y1208764D01*
X467854Y1216322D01*
X464831Y1220857D01*
X460296Y1222368D01*
X457273D01*
X476470Y1186090D02*
X497632Y1222368D01*
X499748Y1204229D02*
X526957D01*
X539352Y1222368D02*
X555979D01*
X546909Y1210276D01*
X551444D01*
X554467Y1208764D01*
X555979Y1207252D01*
X557491Y1202718D01*
Y1199695D01*
X555979Y1195160D01*
X552956Y1192137D01*
X548421Y1190625D01*
X543886D01*
X539352Y1192137D01*
X537840Y1193648D01*
X536328Y1196671D01*
X566107Y1193648D02*
X564595Y1192137D01*
X566107Y1190625D01*
X567618Y1192137D01*
X566107Y1193648D01*
X583641Y1222368D02*
X579106Y1220857D01*
X576083Y1216322D01*
X574571Y1208764D01*
Y1204229D01*
X576083Y1196671D01*
X579106Y1192137D01*
X583641Y1190625D01*
X586664D01*
X591199Y1192137D01*
X594222Y1196671D01*
X595734Y1204229D01*
Y1208764D01*
X594222Y1216322D01*
X591199Y1220857D01*
X586664Y1222368D01*
X583641D01*
X731520Y1205741D02*
X745124D01*
X749659Y1207252D01*
X751171Y1208764D01*
X752682Y1211787D01*
Y1216322D01*
X751171Y1219345D01*
X749659Y1220857D01*
X745124Y1222368D01*
X731520D01*
Y1190625D01*
X759787Y1222368D02*
Y1190625D01*
X777925D01*
X805587D02*
X793495Y1222368D01*
X781402Y1190625D01*
X785937Y1201206D02*
X801053D01*
X823575Y1222368D02*
Y1190625D01*
X812994Y1222368D02*
X834156D01*
X857586D02*
X837935D01*
Y1190625D01*
X857586D01*
X837935Y1207252D02*
X850028D01*
X862876Y1222368D02*
Y1190625D01*
Y1222368D02*
X873457D01*
X877992Y1220857D01*
X881015Y1217833D01*
X882527Y1214810D01*
X884038Y1210276D01*
Y1202718D01*
X882527Y1198183D01*
X881015Y1195160D01*
X877992Y1192137D01*
X873457Y1190625D01*
X862876D01*
X989572Y1214810D02*
Y1216322D01*
X991083Y1219345D01*
X992595Y1220857D01*
X995618Y1222368D01*
X1001664D01*
X1004687Y1220857D01*
X1006199Y1219345D01*
X1007711Y1216322D01*
Y1213299D01*
X1006199Y1210276D01*
X1003176Y1205741D01*
X988060Y1190625D01*
X1009222D01*
X1034465Y1217833D02*
X1032954Y1220857D01*
X1028419Y1222368D01*
X1025396D01*
X1020861Y1220857D01*
X1017838Y1216322D01*
X1016327Y1208764D01*
Y1201206D01*
X1017838Y1195160D01*
X1020861Y1192137D01*
X1025396Y1190625D01*
X1026908D01*
X1031442Y1192137D01*
X1034465Y1195160D01*
X1035977Y1199695D01*
Y1201206D01*
X1034465Y1205741D01*
X1031442Y1208764D01*
X1026908Y1210276D01*
X1025396D01*
X1020861Y1208764D01*
X1017838Y1205741D01*
X1016327Y1201206D01*
X71479Y1164493D02*
X69967Y1167517D01*
X65433Y1169028D01*
X62410D01*
X57875Y1167517D01*
X54852Y1162982D01*
X53340Y1155424D01*
Y1147866D01*
X54852Y1141820D01*
X57875Y1138797D01*
X62410Y1137285D01*
X63921D01*
X68456Y1138797D01*
X71479Y1141820D01*
X72991Y1146355D01*
Y1147866D01*
X71479Y1152401D01*
X68456Y1155424D01*
X63921Y1156936D01*
X62410D01*
X57875Y1155424D01*
X54852Y1152401D01*
X53340Y1147866D01*
X82967Y1169028D02*
X99594D01*
X90525Y1156936D01*
X95060D01*
X98083Y1155424D01*
X99594Y1153912D01*
X101106Y1149378D01*
Y1146355D01*
X99594Y1141820D01*
X96571Y1138797D01*
X92037Y1137285D01*
X87502D01*
X82967Y1138797D01*
X81455Y1140308D01*
X79944Y1143331D01*
X109722Y1140308D02*
X108210Y1138797D01*
X109722Y1137285D01*
X111234Y1138797D01*
X109722Y1140308D01*
X127256Y1169028D02*
X122722Y1167517D01*
X119698Y1162982D01*
X118187Y1155424D01*
Y1150889D01*
X119698Y1143331D01*
X122722Y1138797D01*
X127256Y1137285D01*
X130280D01*
X134814Y1138797D01*
X137837Y1143331D01*
X139349Y1150889D01*
Y1155424D01*
X137837Y1162982D01*
X134814Y1167517D01*
X130280Y1169028D01*
X127256D01*
X386984Y1164493D02*
Y1137285D01*
X373380Y1150889D02*
X400588D01*
X412983Y1169028D02*
X429611D01*
X420541Y1156936D01*
X425076D01*
X428099Y1155424D01*
X429611Y1153912D01*
X431122Y1149378D01*
Y1146355D01*
X429611Y1141820D01*
X426588Y1138797D01*
X422053Y1137285D01*
X417518D01*
X412983Y1138797D01*
X411472Y1140308D01*
X409960Y1143331D01*
X439738Y1140308D02*
X438227Y1138797D01*
X439738Y1137285D01*
X441250Y1138797D01*
X439738Y1140308D01*
X457273Y1169028D02*
X452738Y1167517D01*
X449715Y1162982D01*
X448203Y1155424D01*
Y1150889D01*
X449715Y1143331D01*
X452738Y1138797D01*
X457273Y1137285D01*
X460296D01*
X464831Y1138797D01*
X467854Y1143331D01*
X469365Y1150889D01*
Y1155424D01*
X467854Y1162982D01*
X464831Y1167517D01*
X460296Y1169028D01*
X457273D01*
X476470Y1132750D02*
X497632Y1169028D01*
X499748Y1150889D02*
X526957D01*
X539352Y1169028D02*
X555979D01*
X546909Y1156936D01*
X551444D01*
X554467Y1155424D01*
X555979Y1153912D01*
X557491Y1149378D01*
Y1146355D01*
X555979Y1141820D01*
X552956Y1138797D01*
X548421Y1137285D01*
X543886D01*
X539352Y1138797D01*
X537840Y1140308D01*
X536328Y1143331D01*
X566107Y1140308D02*
X564595Y1138797D01*
X566107Y1137285D01*
X567618Y1138797D01*
X566107Y1140308D01*
X583641Y1169028D02*
X579106Y1167517D01*
X576083Y1162982D01*
X574571Y1155424D01*
Y1150889D01*
X576083Y1143331D01*
X579106Y1138797D01*
X583641Y1137285D01*
X586664D01*
X591199Y1138797D01*
X594222Y1143331D01*
X595734Y1150889D01*
Y1155424D01*
X594222Y1162982D01*
X591199Y1167517D01*
X586664Y1169028D01*
X583641D01*
X731520Y1152401D02*
X745124D01*
X749659Y1153912D01*
X751171Y1155424D01*
X752682Y1158447D01*
Y1162982D01*
X751171Y1166005D01*
X749659Y1167517D01*
X745124Y1169028D01*
X731520D01*
Y1137285D01*
X759787Y1169028D02*
Y1137285D01*
X777925D01*
X805587D02*
X793495Y1169028D01*
X781402Y1137285D01*
X785937Y1147866D02*
X801053D01*
X823575Y1169028D02*
Y1137285D01*
X812994Y1169028D02*
X834156D01*
X857586D02*
X837935D01*
Y1137285D01*
X857586D01*
X837935Y1153912D02*
X850028D01*
X862876Y1169028D02*
Y1137285D01*
Y1169028D02*
X873457D01*
X877992Y1167517D01*
X881015Y1164493D01*
X882527Y1161470D01*
X884038Y1156936D01*
Y1149378D01*
X882527Y1144843D01*
X881015Y1141820D01*
X877992Y1138797D01*
X873457Y1137285D01*
X862876D01*
X1002272Y1161470D02*
Y1162982D01*
X1003783Y1166005D01*
X1005295Y1167517D01*
X1008318Y1169028D01*
X1014364D01*
X1017387Y1167517D01*
X1018899Y1166005D01*
X1020411Y1162982D01*
Y1159959D01*
X1018899Y1156936D01*
X1015876Y1152401D01*
X1000760Y1137285D01*
X1021922D01*
X40640Y1109642D02*
X43663Y1111153D01*
X48198Y1115688D01*
Y1083945D01*
X65430Y1108130D02*
Y1109642D01*
X66941Y1112665D01*
X68453Y1114177D01*
X71476Y1115688D01*
X77523D01*
X80546Y1114177D01*
X82057Y1112665D01*
X83569Y1109642D01*
Y1106619D01*
X82057Y1103596D01*
X79034Y1099061D01*
X63918Y1083945D01*
X85080D01*
X110324Y1115688D02*
X95208D01*
X93696Y1102084D01*
X95208Y1103596D01*
X99743Y1105107D01*
X104277D01*
X108812Y1103596D01*
X111835Y1100572D01*
X113347Y1096038D01*
Y1093015D01*
X111835Y1088480D01*
X108812Y1085457D01*
X104277Y1083945D01*
X99743D01*
X95208Y1085457D01*
X93696Y1086968D01*
X92185Y1089991D01*
X121963Y1086968D02*
X120451Y1085457D01*
X121963Y1083945D01*
X123475Y1085457D01*
X121963Y1086968D01*
X139497Y1115688D02*
X134963Y1114177D01*
X131939Y1109642D01*
X130428Y1102084D01*
Y1097549D01*
X131939Y1089991D01*
X134963Y1085457D01*
X139497Y1083945D01*
X142521D01*
X147055Y1085457D01*
X150078Y1089991D01*
X151590Y1097549D01*
Y1102084D01*
X150078Y1109642D01*
X147055Y1114177D01*
X142521Y1115688D01*
X139497D01*
X386984Y1111153D02*
Y1083945D01*
X373380Y1097549D02*
X400588D01*
X412983Y1115688D02*
X429611D01*
X420541Y1103596D01*
X425076D01*
X428099Y1102084D01*
X429611Y1100572D01*
X431122Y1096038D01*
Y1093015D01*
X429611Y1088480D01*
X426588Y1085457D01*
X422053Y1083945D01*
X417518D01*
X412983Y1085457D01*
X411472Y1086968D01*
X409960Y1089991D01*
X439738Y1086968D02*
X438227Y1085457D01*
X439738Y1083945D01*
X441250Y1085457D01*
X439738Y1086968D01*
X457273Y1115688D02*
X452738Y1114177D01*
X449715Y1109642D01*
X448203Y1102084D01*
Y1097549D01*
X449715Y1089991D01*
X452738Y1085457D01*
X457273Y1083945D01*
X460296D01*
X464831Y1085457D01*
X467854Y1089991D01*
X469365Y1097549D01*
Y1102084D01*
X467854Y1109642D01*
X464831Y1114177D01*
X460296Y1115688D01*
X457273D01*
X476470Y1079410D02*
X497632Y1115688D01*
X499748Y1097549D02*
X526957D01*
X539352Y1115688D02*
X555979D01*
X546909Y1103596D01*
X551444D01*
X554467Y1102084D01*
X555979Y1100572D01*
X557491Y1096038D01*
Y1093015D01*
X555979Y1088480D01*
X552956Y1085457D01*
X548421Y1083945D01*
X543886D01*
X539352Y1085457D01*
X537840Y1086968D01*
X536328Y1089991D01*
X566107Y1086968D02*
X564595Y1085457D01*
X566107Y1083945D01*
X567618Y1085457D01*
X566107Y1086968D01*
X583641Y1115688D02*
X579106Y1114177D01*
X576083Y1109642D01*
X574571Y1102084D01*
Y1097549D01*
X576083Y1089991D01*
X579106Y1085457D01*
X583641Y1083945D01*
X586664D01*
X591199Y1085457D01*
X594222Y1089991D01*
X595734Y1097549D01*
Y1102084D01*
X594222Y1109642D01*
X591199Y1114177D01*
X586664Y1115688D01*
X583641D01*
X731520Y1099061D02*
X745124D01*
X749659Y1100572D01*
X751171Y1102084D01*
X752682Y1105107D01*
Y1109642D01*
X751171Y1112665D01*
X749659Y1114177D01*
X745124Y1115688D01*
X731520D01*
Y1083945D01*
X759787Y1115688D02*
Y1083945D01*
X777925D01*
X805587D02*
X793495Y1115688D01*
X781402Y1083945D01*
X785937Y1094526D02*
X801053D01*
X823575Y1115688D02*
Y1083945D01*
X812994Y1115688D02*
X834156D01*
X857586D02*
X837935D01*
Y1083945D01*
X857586D01*
X837935Y1100572D02*
X850028D01*
X862876Y1115688D02*
Y1083945D01*
Y1115688D02*
X873457D01*
X877992Y1114177D01*
X881015Y1111153D01*
X882527Y1108130D01*
X884038Y1103596D01*
Y1096038D01*
X882527Y1091503D01*
X881015Y1088480D01*
X877992Y1085457D01*
X873457Y1083945D01*
X862876D01*
X1015876Y1115688D02*
X1000760Y1094526D01*
X1023434D01*
X1015876Y1115688D02*
Y1083945D01*
X40640Y1056302D02*
X43663Y1057813D01*
X48198Y1062348D01*
Y1030605D01*
X65430Y1054790D02*
Y1056302D01*
X66941Y1059325D01*
X68453Y1060837D01*
X71476Y1062348D01*
X77523D01*
X80546Y1060837D01*
X82057Y1059325D01*
X83569Y1056302D01*
Y1053279D01*
X82057Y1050256D01*
X79034Y1045721D01*
X63918Y1030605D01*
X85080D01*
X99743Y1062348D02*
X95208Y1060837D01*
X93696Y1057813D01*
Y1054790D01*
X95208Y1051767D01*
X98231Y1050256D01*
X104277Y1048744D01*
X108812Y1047232D01*
X111835Y1044209D01*
X113347Y1041186D01*
Y1036651D01*
X111835Y1033628D01*
X110324Y1032117D01*
X105789Y1030605D01*
X99743D01*
X95208Y1032117D01*
X93696Y1033628D01*
X92185Y1036651D01*
Y1041186D01*
X93696Y1044209D01*
X96720Y1047232D01*
X101254Y1048744D01*
X107301Y1050256D01*
X110324Y1051767D01*
X111835Y1054790D01*
Y1057813D01*
X110324Y1060837D01*
X105789Y1062348D01*
X99743D01*
X121963Y1033628D02*
X120451Y1032117D01*
X121963Y1030605D01*
X123475Y1032117D01*
X121963Y1033628D01*
X139497Y1062348D02*
X134963Y1060837D01*
X131939Y1056302D01*
X130428Y1048744D01*
Y1044209D01*
X131939Y1036651D01*
X134963Y1032117D01*
X139497Y1030605D01*
X142521D01*
X147055Y1032117D01*
X150078Y1036651D01*
X151590Y1044209D01*
Y1048744D01*
X150078Y1056302D01*
X147055Y1060837D01*
X142521Y1062348D01*
X139497D01*
X386984Y1057813D02*
Y1030605D01*
X373380Y1044209D02*
X400588D01*
X428099Y1062348D02*
X412983D01*
X411472Y1048744D01*
X412983Y1050256D01*
X417518Y1051767D01*
X422053D01*
X426588Y1050256D01*
X429611Y1047232D01*
X431122Y1042698D01*
Y1039675D01*
X429611Y1035140D01*
X426588Y1032117D01*
X422053Y1030605D01*
X417518D01*
X412983Y1032117D01*
X411472Y1033628D01*
X409960Y1036651D01*
X439738Y1033628D02*
X438227Y1032117D01*
X439738Y1030605D01*
X441250Y1032117D01*
X439738Y1033628D01*
X457273Y1062348D02*
X452738Y1060837D01*
X449715Y1056302D01*
X448203Y1048744D01*
Y1044209D01*
X449715Y1036651D01*
X452738Y1032117D01*
X457273Y1030605D01*
X460296D01*
X464831Y1032117D01*
X467854Y1036651D01*
X469365Y1044209D01*
Y1048744D01*
X467854Y1056302D01*
X464831Y1060837D01*
X460296Y1062348D01*
X457273D01*
X476470Y1026070D02*
X497632Y1062348D01*
X499748Y1044209D02*
X526957D01*
X554467Y1062348D02*
X539352D01*
X537840Y1048744D01*
X539352Y1050256D01*
X543886Y1051767D01*
X548421D01*
X552956Y1050256D01*
X555979Y1047232D01*
X557491Y1042698D01*
Y1039675D01*
X555979Y1035140D01*
X552956Y1032117D01*
X548421Y1030605D01*
X543886D01*
X539352Y1032117D01*
X537840Y1033628D01*
X536328Y1036651D01*
X566107Y1033628D02*
X564595Y1032117D01*
X566107Y1030605D01*
X567618Y1032117D01*
X566107Y1033628D01*
X583641Y1062348D02*
X579106Y1060837D01*
X576083Y1056302D01*
X574571Y1048744D01*
Y1044209D01*
X576083Y1036651D01*
X579106Y1032117D01*
X583641Y1030605D01*
X586664D01*
X591199Y1032117D01*
X594222Y1036651D01*
X595734Y1044209D01*
Y1048744D01*
X594222Y1056302D01*
X591199Y1060837D01*
X586664Y1062348D01*
X583641D01*
X680720D02*
Y1030605D01*
Y1062348D02*
X701882Y1030605D01*
Y1062348D02*
Y1030605D01*
X719719Y1062348D02*
X716696Y1060837D01*
X713672Y1057813D01*
X712161Y1054790D01*
X710649Y1050256D01*
Y1042698D01*
X712161Y1038163D01*
X713672Y1035140D01*
X716696Y1032117D01*
X719719Y1030605D01*
X725765D01*
X728788Y1032117D01*
X731811Y1035140D01*
X733323Y1038163D01*
X734835Y1042698D01*
Y1050256D01*
X733323Y1054790D01*
X731811Y1057813D01*
X728788Y1060837D01*
X725765Y1062348D01*
X719719D01*
X742241D02*
Y1030605D01*
Y1062348D02*
X763403Y1030605D01*
Y1062348D02*
Y1030605D01*
X772171Y1044209D02*
X799379D01*
X808751Y1045721D02*
X822355D01*
X826890Y1047232D01*
X828401Y1048744D01*
X829913Y1051767D01*
Y1056302D01*
X828401Y1059325D01*
X826890Y1060837D01*
X822355Y1062348D01*
X808751D01*
Y1030605D01*
X837018Y1062348D02*
Y1030605D01*
X855156D01*
X882818D02*
X870726Y1062348D01*
X858633Y1030605D01*
X863168Y1041186D02*
X878284D01*
X900806Y1062348D02*
Y1030605D01*
X890225Y1062348D02*
X911387D01*
X934817D02*
X915166D01*
Y1030605D01*
X934817D01*
X915166Y1047232D02*
X927259D01*
X940107Y1062348D02*
Y1030605D01*
Y1062348D02*
X950688D01*
X955223Y1060837D01*
X958246Y1057813D01*
X959758Y1054790D01*
X961269Y1050256D01*
Y1042698D01*
X959758Y1038163D01*
X958246Y1035140D01*
X955223Y1032117D01*
X950688Y1030605D01*
X940107D01*
X1002272Y1054790D02*
Y1056302D01*
X1003783Y1059325D01*
X1005295Y1060837D01*
X1008318Y1062348D01*
X1014364D01*
X1017387Y1060837D01*
X1018899Y1059325D01*
X1020411Y1056302D01*
Y1053279D01*
X1018899Y1050256D01*
X1015876Y1045721D01*
X1000760Y1030605D01*
X1021922D01*
X7979Y1009008D02*
X-7137D01*
X-8648Y995404D01*
X-7137Y996916D01*
X-2602Y998427D01*
X1933D01*
X6467Y996916D01*
X9491Y993892D01*
X11002Y989358D01*
Y986335D01*
X9491Y981800D01*
X6467Y978777D01*
X1933Y977265D01*
X-2602D01*
X-7137Y978777D01*
X-8648Y980288D01*
X-10160Y983311D01*
X27176Y1009008D02*
X22641Y1007497D01*
X19618Y1002962D01*
X18107Y995404D01*
Y990869D01*
X19618Y983311D01*
X22641Y978777D01*
X27176Y977265D01*
X30199D01*
X34734Y978777D01*
X37757Y983311D01*
X39269Y990869D01*
Y995404D01*
X37757Y1002962D01*
X34734Y1007497D01*
X30199Y1009008D01*
X27176D01*
X47885Y980288D02*
X46373Y978777D01*
X47885Y977265D01*
X49396Y978777D01*
X47885Y980288D01*
X65419Y1009008D02*
X60884Y1007497D01*
X57861Y1002962D01*
X56350Y995404D01*
Y990869D01*
X57861Y983311D01*
X60884Y978777D01*
X65419Y977265D01*
X68442D01*
X72977Y978777D01*
X76000Y983311D01*
X77512Y990869D01*
Y995404D01*
X76000Y1002962D01*
X72977Y1007497D01*
X68442Y1009008D01*
X65419D01*
X84616Y998427D02*
X101243Y977265D01*
Y998427D02*
X84616Y977265D01*
X107894Y1002962D02*
X110918Y1004473D01*
X115452Y1009008D01*
Y977265D01*
X149312Y1009008D02*
X134196D01*
X132684Y995404D01*
X134196Y996916D01*
X138731Y998427D01*
X143265D01*
X147800Y996916D01*
X150823Y993892D01*
X152335Y989358D01*
Y986335D01*
X150823Y981800D01*
X147800Y978777D01*
X143265Y977265D01*
X138731D01*
X134196Y978777D01*
X132684Y980288D01*
X131173Y983311D01*
X160951Y980288D02*
X159439Y978777D01*
X160951Y977265D01*
X162463Y978777D01*
X160951Y980288D01*
X178485Y1009008D02*
X173951Y1007497D01*
X170927Y1002962D01*
X169416Y995404D01*
Y990869D01*
X170927Y983311D01*
X173951Y978777D01*
X178485Y977265D01*
X181509D01*
X186043Y978777D01*
X189066Y983311D01*
X190578Y990869D01*
Y995404D01*
X189066Y1002962D01*
X186043Y1007497D01*
X181509Y1009008D01*
X178485D01*
X386984Y1004473D02*
Y977265D01*
X373380Y990869D02*
X400588D01*
X412983Y1009008D02*
X429611D01*
X420541Y996916D01*
X425076D01*
X428099Y995404D01*
X429611Y993892D01*
X431122Y989358D01*
Y986335D01*
X429611Y981800D01*
X426588Y978777D01*
X422053Y977265D01*
X417518D01*
X412983Y978777D01*
X411472Y980288D01*
X409960Y983311D01*
X439738Y980288D02*
X438227Y978777D01*
X439738Y977265D01*
X441250Y978777D01*
X439738Y980288D01*
X457273Y1009008D02*
X452738Y1007497D01*
X449715Y1002962D01*
X448203Y995404D01*
Y990869D01*
X449715Y983311D01*
X452738Y978777D01*
X457273Y977265D01*
X460296D01*
X464831Y978777D01*
X467854Y983311D01*
X469365Y990869D01*
Y995404D01*
X467854Y1002962D01*
X464831Y1007497D01*
X460296Y1009008D01*
X457273D01*
X476470Y972730D02*
X497632Y1009008D01*
X499748Y990869D02*
X526957D01*
X539352Y1009008D02*
X555979D01*
X546909Y996916D01*
X551444D01*
X554467Y995404D01*
X555979Y993892D01*
X557491Y989358D01*
Y986335D01*
X555979Y981800D01*
X552956Y978777D01*
X548421Y977265D01*
X543886D01*
X539352Y978777D01*
X537840Y980288D01*
X536328Y983311D01*
X566107Y980288D02*
X564595Y978777D01*
X566107Y977265D01*
X567618Y978777D01*
X566107Y980288D01*
X583641Y1009008D02*
X579106Y1007497D01*
X576083Y1002962D01*
X574571Y995404D01*
Y990869D01*
X576083Y983311D01*
X579106Y978777D01*
X583641Y977265D01*
X586664D01*
X591199Y978777D01*
X594222Y983311D01*
X595734Y990869D01*
Y995404D01*
X594222Y1002962D01*
X591199Y1007497D01*
X586664Y1009008D01*
X583641D01*
X731520Y992381D02*
X745124D01*
X749659Y993892D01*
X751171Y995404D01*
X752682Y998427D01*
Y1002962D01*
X751171Y1005985D01*
X749659Y1007497D01*
X745124Y1009008D01*
X731520D01*
Y977265D01*
X759787Y1009008D02*
Y977265D01*
X777925D01*
X805587D02*
X793495Y1009008D01*
X781402Y977265D01*
X785937Y987846D02*
X801053D01*
X823575Y1009008D02*
Y977265D01*
X812994Y1009008D02*
X834156D01*
X857586D02*
X837935D01*
Y977265D01*
X857586D01*
X837935Y993892D02*
X850028D01*
X862876Y1009008D02*
Y977265D01*
Y1009008D02*
X873457D01*
X877992Y1007497D01*
X881015Y1004473D01*
X882527Y1001450D01*
X884038Y996916D01*
Y989358D01*
X882527Y984823D01*
X881015Y981800D01*
X877992Y978777D01*
X873457Y977265D01*
X862876D01*
X1002272Y1001450D02*
Y1002962D01*
X1003783Y1005985D01*
X1005295Y1007497D01*
X1008318Y1009008D01*
X1014364D01*
X1017387Y1007497D01*
X1018899Y1005985D01*
X1020411Y1002962D01*
Y999939D01*
X1018899Y996916D01*
X1015876Y992381D01*
X1000760Y977265D01*
X1021922D01*
X9491Y945087D02*
X7979Y940552D01*
X4956Y937529D01*
X421Y936018D01*
X-1090D01*
X-5625Y937529D01*
X-8648Y940552D01*
X-10160Y945087D01*
Y946599D01*
X-8648Y951133D01*
X-5625Y954157D01*
X-1090Y955668D01*
X421D01*
X4956Y954157D01*
X7979Y951133D01*
X9491Y945087D01*
Y937529D01*
X7979Y929971D01*
X4956Y925437D01*
X421Y923925D01*
X-2602D01*
X-7137Y925437D01*
X-8648Y928460D01*
X36246Y955668D02*
X21130D01*
X19618Y942064D01*
X21130Y943576D01*
X25665Y945087D01*
X30199D01*
X34734Y943576D01*
X37757Y940552D01*
X39269Y936018D01*
Y932995D01*
X37757Y928460D01*
X34734Y925437D01*
X30199Y923925D01*
X25665D01*
X21130Y925437D01*
X19618Y926948D01*
X18107Y929971D01*
X47885Y926948D02*
X46373Y925437D01*
X47885Y923925D01*
X49396Y925437D01*
X47885Y926948D01*
X65419Y955668D02*
X60884Y954157D01*
X57861Y949622D01*
X56350Y942064D01*
Y937529D01*
X57861Y929971D01*
X60884Y925437D01*
X65419Y923925D01*
X68442D01*
X72977Y925437D01*
X76000Y929971D01*
X77512Y937529D01*
Y942064D01*
X76000Y949622D01*
X72977Y954157D01*
X68442Y955668D01*
X65419D01*
X84616Y945087D02*
X101243Y923925D01*
Y945087D02*
X84616Y923925D01*
X123010Y955668D02*
X107894Y934506D01*
X130568D01*
X123010Y955668D02*
Y923925D01*
X145231Y955668D02*
X140696Y954157D01*
X137673Y949622D01*
X136161Y942064D01*
Y937529D01*
X137673Y929971D01*
X140696Y925437D01*
X145231Y923925D01*
X148254D01*
X152788Y925437D01*
X155812Y929971D01*
X157323Y937529D01*
Y942064D01*
X155812Y949622D01*
X152788Y954157D01*
X148254Y955668D01*
X145231D01*
X165939Y926948D02*
X164428Y925437D01*
X165939Y923925D01*
X167451Y925437D01*
X165939Y926948D01*
X183473Y955668D02*
X178939Y954157D01*
X175916Y949622D01*
X174404Y942064D01*
Y937529D01*
X175916Y929971D01*
X178939Y925437D01*
X183473Y923925D01*
X186497D01*
X191031Y925437D01*
X194055Y929971D01*
X195566Y937529D01*
Y942064D01*
X194055Y949622D01*
X191031Y954157D01*
X186497Y955668D01*
X183473D01*
X386984Y951133D02*
Y923925D01*
X373380Y937529D02*
X400588D01*
X412983Y955668D02*
X429611D01*
X420541Y943576D01*
X425076D01*
X428099Y942064D01*
X429611Y940552D01*
X431122Y936018D01*
Y932995D01*
X429611Y928460D01*
X426588Y925437D01*
X422053Y923925D01*
X417518D01*
X412983Y925437D01*
X411472Y926948D01*
X409960Y929971D01*
X439738Y926948D02*
X438227Y925437D01*
X439738Y923925D01*
X441250Y925437D01*
X439738Y926948D01*
X457273Y955668D02*
X452738Y954157D01*
X449715Y949622D01*
X448203Y942064D01*
Y937529D01*
X449715Y929971D01*
X452738Y925437D01*
X457273Y923925D01*
X460296D01*
X464831Y925437D01*
X467854Y929971D01*
X469365Y937529D01*
Y942064D01*
X467854Y949622D01*
X464831Y954157D01*
X460296Y955668D01*
X457273D01*
X476470Y919390D02*
X497632Y955668D01*
X499748Y937529D02*
X526957D01*
X539352Y955668D02*
X555979D01*
X546909Y943576D01*
X551444D01*
X554467Y942064D01*
X555979Y940552D01*
X557491Y936018D01*
Y932995D01*
X555979Y928460D01*
X552956Y925437D01*
X548421Y923925D01*
X543886D01*
X539352Y925437D01*
X537840Y926948D01*
X536328Y929971D01*
X566107Y926948D02*
X564595Y925437D01*
X566107Y923925D01*
X567618Y925437D01*
X566107Y926948D01*
X583641Y955668D02*
X579106Y954157D01*
X576083Y949622D01*
X574571Y942064D01*
Y937529D01*
X576083Y929971D01*
X579106Y925437D01*
X583641Y923925D01*
X586664D01*
X591199Y925437D01*
X594222Y929971D01*
X595734Y937529D01*
Y942064D01*
X594222Y949622D01*
X591199Y954157D01*
X586664Y955668D01*
X583641D01*
X731520Y939041D02*
X745124D01*
X749659Y940552D01*
X751171Y942064D01*
X752682Y945087D01*
Y949622D01*
X751171Y952645D01*
X749659Y954157D01*
X745124Y955668D01*
X731520D01*
Y923925D01*
X759787Y955668D02*
Y923925D01*
X777925D01*
X805587D02*
X793495Y955668D01*
X781402Y923925D01*
X785937Y934506D02*
X801053D01*
X823575Y955668D02*
Y923925D01*
X812994Y955668D02*
X834156D01*
X857586D02*
X837935D01*
Y923925D01*
X857586D01*
X837935Y940552D02*
X850028D01*
X862876Y955668D02*
Y923925D01*
Y955668D02*
X873457D01*
X877992Y954157D01*
X881015Y951133D01*
X882527Y948110D01*
X884038Y943576D01*
Y936018D01*
X882527Y931483D01*
X881015Y928460D01*
X877992Y925437D01*
X873457Y923925D01*
X862876D01*
X1002272Y948110D02*
Y949622D01*
X1003783Y952645D01*
X1005295Y954157D01*
X1008318Y955668D01*
X1014364D01*
X1017387Y954157D01*
X1018899Y952645D01*
X1020411Y949622D01*
Y946599D01*
X1018899Y943576D01*
X1015876Y939041D01*
X1000760Y923925D01*
X1021922D01*
X-22860Y896282D02*
X-19837Y897794D01*
X-15302Y902328D01*
Y870585D01*
X1930Y894770D02*
Y896282D01*
X3442Y899305D01*
X4953Y900817D01*
X7976Y902328D01*
X14023D01*
X17046Y900817D01*
X18557Y899305D01*
X20069Y896282D01*
Y893259D01*
X18557Y890236D01*
X15534Y885701D01*
X418Y870585D01*
X21581D01*
X37754Y902328D02*
X33220Y900817D01*
X30196Y896282D01*
X28685Y888724D01*
Y884189D01*
X30196Y876631D01*
X33220Y872097D01*
X37754Y870585D01*
X40778D01*
X45312Y872097D01*
X48335Y876631D01*
X49847Y884189D01*
Y888724D01*
X48335Y896282D01*
X45312Y900817D01*
X40778Y902328D01*
X37754D01*
X58463Y873608D02*
X56951Y872097D01*
X58463Y870585D01*
X59975Y872097D01*
X58463Y873608D01*
X75997Y902328D02*
X71463Y900817D01*
X68439Y896282D01*
X66928Y888724D01*
Y884189D01*
X68439Y876631D01*
X71463Y872097D01*
X75997Y870585D01*
X79021D01*
X83555Y872097D01*
X86579Y876631D01*
X88090Y884189D01*
Y888724D01*
X86579Y896282D01*
X83555Y900817D01*
X79021Y902328D01*
X75997D01*
X95195Y891747D02*
X111822Y870585D01*
Y891747D02*
X95195Y870585D01*
X133589Y902328D02*
X118473Y881166D01*
X141146D01*
X133589Y902328D02*
Y870585D01*
X155809Y902328D02*
X151274Y900817D01*
X148251Y896282D01*
X146739Y888724D01*
Y884189D01*
X148251Y876631D01*
X151274Y872097D01*
X155809Y870585D01*
X158832D01*
X163367Y872097D01*
X166390Y876631D01*
X167901Y884189D01*
Y888724D01*
X166390Y896282D01*
X163367Y900817D01*
X158832Y902328D01*
X155809D01*
X176518Y873608D02*
X175006Y872097D01*
X176518Y870585D01*
X178029Y872097D01*
X176518Y873608D01*
X194052Y902328D02*
X189517Y900817D01*
X186494Y896282D01*
X184982Y888724D01*
Y884189D01*
X186494Y876631D01*
X189517Y872097D01*
X194052Y870585D01*
X197075D01*
X201610Y872097D01*
X204633Y876631D01*
X206145Y884189D01*
Y888724D01*
X204633Y896282D01*
X201610Y900817D01*
X197075Y902328D01*
X194052D01*
X386984Y897794D02*
Y870585D01*
X373380Y884189D02*
X400588D01*
X412983Y902328D02*
X429611D01*
X420541Y890236D01*
X425076D01*
X428099Y888724D01*
X429611Y887212D01*
X431122Y882678D01*
Y879654D01*
X429611Y875120D01*
X426588Y872097D01*
X422053Y870585D01*
X417518D01*
X412983Y872097D01*
X411472Y873608D01*
X409960Y876631D01*
X439738Y873608D02*
X438227Y872097D01*
X439738Y870585D01*
X441250Y872097D01*
X439738Y873608D01*
X457273Y902328D02*
X452738Y900817D01*
X449715Y896282D01*
X448203Y888724D01*
Y884189D01*
X449715Y876631D01*
X452738Y872097D01*
X457273Y870585D01*
X460296D01*
X464831Y872097D01*
X467854Y876631D01*
X469365Y884189D01*
Y888724D01*
X467854Y896282D01*
X464831Y900817D01*
X460296Y902328D01*
X457273D01*
X476470Y866050D02*
X497632Y902328D01*
X499748Y884189D02*
X526957D01*
X539352Y902328D02*
X555979D01*
X546909Y890236D01*
X551444D01*
X554467Y888724D01*
X555979Y887212D01*
X557491Y882678D01*
Y879654D01*
X555979Y875120D01*
X552956Y872097D01*
X548421Y870585D01*
X543886D01*
X539352Y872097D01*
X537840Y873608D01*
X536328Y876631D01*
X566107Y873608D02*
X564595Y872097D01*
X566107Y870585D01*
X567618Y872097D01*
X566107Y873608D01*
X583641Y902328D02*
X579106Y900817D01*
X576083Y896282D01*
X574571Y888724D01*
Y884189D01*
X576083Y876631D01*
X579106Y872097D01*
X583641Y870585D01*
X586664D01*
X591199Y872097D01*
X594222Y876631D01*
X595734Y884189D01*
Y888724D01*
X594222Y896282D01*
X591199Y900817D01*
X586664Y902328D01*
X583641D01*
X731520Y885701D02*
X745124D01*
X749659Y887212D01*
X751171Y888724D01*
X752682Y891747D01*
Y896282D01*
X751171Y899305D01*
X749659Y900817D01*
X745124Y902328D01*
X731520D01*
Y870585D01*
X759787Y902328D02*
Y870585D01*
X777925D01*
X805587D02*
X793495Y902328D01*
X781402Y870585D01*
X785937Y881166D02*
X801053D01*
X823575Y902328D02*
Y870585D01*
X812994Y902328D02*
X834156D01*
X857586D02*
X837935D01*
Y870585D01*
X857586D01*
X837935Y887212D02*
X850028D01*
X862876Y902328D02*
Y870585D01*
Y902328D02*
X873457D01*
X877992Y900817D01*
X881015Y897794D01*
X882527Y894770D01*
X884038Y890236D01*
Y882678D01*
X882527Y878143D01*
X881015Y875120D01*
X877992Y872097D01*
X873457Y870585D01*
X862876D01*
X1000760Y896282D02*
X1003783Y897794D01*
X1008318Y902328D01*
Y870585D01*
X-22860Y842942D02*
X-19837Y844454D01*
X-15302Y848988D01*
Y817245D01*
X1930Y841430D02*
Y842942D01*
X3442Y845965D01*
X4953Y847477D01*
X7976Y848988D01*
X14023D01*
X17046Y847477D01*
X18557Y845965D01*
X20069Y842942D01*
Y839919D01*
X18557Y836896D01*
X15534Y832361D01*
X418Y817245D01*
X21581D01*
X37754Y848988D02*
X33220Y847477D01*
X30196Y842942D01*
X28685Y835384D01*
Y830849D01*
X30196Y823291D01*
X33220Y818757D01*
X37754Y817245D01*
X40778D01*
X45312Y818757D01*
X48335Y823291D01*
X49847Y830849D01*
Y835384D01*
X48335Y842942D01*
X45312Y847477D01*
X40778Y848988D01*
X37754D01*
X58463Y820268D02*
X56951Y818757D01*
X58463Y817245D01*
X59975Y818757D01*
X58463Y820268D01*
X75997Y848988D02*
X71463Y847477D01*
X68439Y842942D01*
X66928Y835384D01*
Y830849D01*
X68439Y823291D01*
X71463Y818757D01*
X75997Y817245D01*
X79021D01*
X83555Y818757D01*
X86579Y823291D01*
X88090Y830849D01*
Y835384D01*
X86579Y842942D01*
X83555Y847477D01*
X79021Y848988D01*
X75997D01*
X95195Y838407D02*
X111822Y817245D01*
Y838407D02*
X95195Y817245D01*
X133589Y848988D02*
X118473Y827826D01*
X141146D01*
X133589Y848988D02*
Y817245D01*
X155809Y848988D02*
X151274Y847477D01*
X148251Y842942D01*
X146739Y835384D01*
Y830849D01*
X148251Y823291D01*
X151274Y818757D01*
X155809Y817245D01*
X158832D01*
X163367Y818757D01*
X166390Y823291D01*
X167901Y830849D01*
Y835384D01*
X166390Y842942D01*
X163367Y847477D01*
X158832Y848988D01*
X155809D01*
X176518Y820268D02*
X175006Y818757D01*
X176518Y817245D01*
X178029Y818757D01*
X176518Y820268D01*
X194052Y848988D02*
X189517Y847477D01*
X186494Y842942D01*
X184982Y835384D01*
Y830849D01*
X186494Y823291D01*
X189517Y818757D01*
X194052Y817245D01*
X197075D01*
X201610Y818757D01*
X204633Y823291D01*
X206145Y830849D01*
Y835384D01*
X204633Y842942D01*
X201610Y847477D01*
X197075Y848988D01*
X194052D01*
X386984Y844454D02*
Y817245D01*
X373380Y830849D02*
X400588D01*
X412983Y848988D02*
X429611D01*
X420541Y836896D01*
X425076D01*
X428099Y835384D01*
X429611Y833872D01*
X431122Y829338D01*
Y826314D01*
X429611Y821780D01*
X426588Y818757D01*
X422053Y817245D01*
X417518D01*
X412983Y818757D01*
X411472Y820268D01*
X409960Y823291D01*
X439738Y820268D02*
X438227Y818757D01*
X439738Y817245D01*
X441250Y818757D01*
X439738Y820268D01*
X457273Y848988D02*
X452738Y847477D01*
X449715Y842942D01*
X448203Y835384D01*
Y830849D01*
X449715Y823291D01*
X452738Y818757D01*
X457273Y817245D01*
X460296D01*
X464831Y818757D01*
X467854Y823291D01*
X469365Y830849D01*
Y835384D01*
X467854Y842942D01*
X464831Y847477D01*
X460296Y848988D01*
X457273D01*
X476470Y812710D02*
X497632Y848988D01*
X499748Y830849D02*
X526957D01*
X539352Y848988D02*
X555979D01*
X546909Y836896D01*
X551444D01*
X554467Y835384D01*
X555979Y833872D01*
X557491Y829338D01*
Y826314D01*
X555979Y821780D01*
X552956Y818757D01*
X548421Y817245D01*
X543886D01*
X539352Y818757D01*
X537840Y820268D01*
X536328Y823291D01*
X566107Y820268D02*
X564595Y818757D01*
X566107Y817245D01*
X567618Y818757D01*
X566107Y820268D01*
X583641Y848988D02*
X579106Y847477D01*
X576083Y842942D01*
X574571Y835384D01*
Y830849D01*
X576083Y823291D01*
X579106Y818757D01*
X583641Y817245D01*
X586664D01*
X591199Y818757D01*
X594222Y823291D01*
X595734Y830849D01*
Y835384D01*
X594222Y842942D01*
X591199Y847477D01*
X586664Y848988D01*
X583641D01*
X731520Y832361D02*
X745124D01*
X749659Y833872D01*
X751171Y835384D01*
X752682Y838407D01*
Y842942D01*
X751171Y845965D01*
X749659Y847477D01*
X745124Y848988D01*
X731520D01*
Y817245D01*
X759787Y848988D02*
Y817245D01*
X777925D01*
X805587D02*
X793495Y848988D01*
X781402Y817245D01*
X785937Y827826D02*
X801053D01*
X823575Y848988D02*
Y817245D01*
X812994Y848988D02*
X834156D01*
X857586D02*
X837935D01*
Y817245D01*
X857586D01*
X837935Y833872D02*
X850028D01*
X862876Y848988D02*
Y817245D01*
Y848988D02*
X873457D01*
X877992Y847477D01*
X881015Y844454D01*
X882527Y841430D01*
X884038Y836896D01*
Y829338D01*
X882527Y824803D01*
X881015Y821780D01*
X877992Y818757D01*
X873457Y817245D01*
X862876D01*
X1000760Y842942D02*
X1003783Y844454D01*
X1008318Y848988D01*
Y817245D01*
X-22860Y789602D02*
X-19837Y791114D01*
X-15302Y795648D01*
Y763905D01*
X15534Y795648D02*
X418Y774486D01*
X23092D01*
X15534Y795648D02*
Y763905D01*
X37754Y795648D02*
X33220Y794137D01*
X30196Y789602D01*
X28685Y782044D01*
Y777509D01*
X30196Y769951D01*
X33220Y765417D01*
X37754Y763905D01*
X40778D01*
X45312Y765417D01*
X48335Y769951D01*
X49847Y777509D01*
Y782044D01*
X48335Y789602D01*
X45312Y794137D01*
X40778Y795648D01*
X37754D01*
X58463Y766928D02*
X56951Y765417D01*
X58463Y763905D01*
X59975Y765417D01*
X58463Y766928D01*
X75997Y795648D02*
X71463Y794137D01*
X68439Y789602D01*
X66928Y782044D01*
Y777509D01*
X68439Y769951D01*
X71463Y765417D01*
X75997Y763905D01*
X79021D01*
X83555Y765417D01*
X86579Y769951D01*
X88090Y777509D01*
Y782044D01*
X86579Y789602D01*
X83555Y794137D01*
X79021Y795648D01*
X75997D01*
X95195Y785067D02*
X111822Y763905D01*
Y785067D02*
X95195Y763905D01*
X133589Y795648D02*
X118473Y774486D01*
X141146D01*
X133589Y795648D02*
Y763905D01*
X155809Y795648D02*
X151274Y794137D01*
X148251Y789602D01*
X146739Y782044D01*
Y777509D01*
X148251Y769951D01*
X151274Y765417D01*
X155809Y763905D01*
X158832D01*
X163367Y765417D01*
X166390Y769951D01*
X167901Y777509D01*
Y782044D01*
X166390Y789602D01*
X163367Y794137D01*
X158832Y795648D01*
X155809D01*
X176518Y766928D02*
X175006Y765417D01*
X176518Y763905D01*
X178029Y765417D01*
X176518Y766928D01*
X194052Y795648D02*
X189517Y794137D01*
X186494Y789602D01*
X184982Y782044D01*
Y777509D01*
X186494Y769951D01*
X189517Y765417D01*
X194052Y763905D01*
X197075D01*
X201610Y765417D01*
X204633Y769951D01*
X206145Y777509D01*
Y782044D01*
X204633Y789602D01*
X201610Y794137D01*
X197075Y795648D01*
X194052D01*
X386984Y791114D02*
Y763905D01*
X373380Y777509D02*
X400588D01*
X412983Y795648D02*
X429611D01*
X420541Y783556D01*
X425076D01*
X428099Y782044D01*
X429611Y780532D01*
X431122Y775998D01*
Y772974D01*
X429611Y768440D01*
X426588Y765417D01*
X422053Y763905D01*
X417518D01*
X412983Y765417D01*
X411472Y766928D01*
X409960Y769951D01*
X439738Y766928D02*
X438227Y765417D01*
X439738Y763905D01*
X441250Y765417D01*
X439738Y766928D01*
X457273Y795648D02*
X452738Y794137D01*
X449715Y789602D01*
X448203Y782044D01*
Y777509D01*
X449715Y769951D01*
X452738Y765417D01*
X457273Y763905D01*
X460296D01*
X464831Y765417D01*
X467854Y769951D01*
X469365Y777509D01*
Y782044D01*
X467854Y789602D01*
X464831Y794137D01*
X460296Y795648D01*
X457273D01*
X476470Y759370D02*
X497632Y795648D01*
X499748Y777509D02*
X526957D01*
X539352Y795648D02*
X555979D01*
X546909Y783556D01*
X551444D01*
X554467Y782044D01*
X555979Y780532D01*
X557491Y775998D01*
Y772974D01*
X555979Y768440D01*
X552956Y765417D01*
X548421Y763905D01*
X543886D01*
X539352Y765417D01*
X537840Y766928D01*
X536328Y769951D01*
X566107Y766928D02*
X564595Y765417D01*
X566107Y763905D01*
X567618Y765417D01*
X566107Y766928D01*
X583641Y795648D02*
X579106Y794137D01*
X576083Y789602D01*
X574571Y782044D01*
Y777509D01*
X576083Y769951D01*
X579106Y765417D01*
X583641Y763905D01*
X586664D01*
X591199Y765417D01*
X594222Y769951D01*
X595734Y777509D01*
Y782044D01*
X594222Y789602D01*
X591199Y794137D01*
X586664Y795648D01*
X583641D01*
X731520Y779021D02*
X745124D01*
X749659Y780532D01*
X751171Y782044D01*
X752682Y785067D01*
Y789602D01*
X751171Y792625D01*
X749659Y794137D01*
X745124Y795648D01*
X731520D01*
Y763905D01*
X759787Y795648D02*
Y763905D01*
X777925D01*
X805587D02*
X793495Y795648D01*
X781402Y763905D01*
X785937Y774486D02*
X801053D01*
X823575Y795648D02*
Y763905D01*
X812994Y795648D02*
X834156D01*
X857586D02*
X837935D01*
Y763905D01*
X857586D01*
X837935Y780532D02*
X850028D01*
X862876Y795648D02*
Y763905D01*
Y795648D02*
X873457D01*
X877992Y794137D01*
X881015Y791114D01*
X882527Y788090D01*
X884038Y783556D01*
Y775998D01*
X882527Y771463D01*
X881015Y768440D01*
X877992Y765417D01*
X873457Y763905D01*
X862876D01*
X1000760Y789602D02*
X1003783Y791114D01*
X1008318Y795648D01*
Y763905D01*
M02*
