G04 Layer_Color=32768*
%FSLAX44Y44*%
%MOMM*%
G71*
G01*
G75*
%ADD52C,0.1397*%
%ADD54C,0.0254*%
D52*
X3199976Y-1601473D02*
Y-1615440D01*
X3195320Y-1601473D02*
X3204631D01*
X3206294D02*
Y-1615440D01*
Y-1608789D02*
X3208289Y-1606794D01*
X3209619Y-1606129D01*
X3211615D01*
X3212945Y-1606794D01*
X3213610Y-1608789D01*
Y-1615440D01*
X3218598Y-1601473D02*
X3219263Y-1602138D01*
X3219929Y-1601473D01*
X3219263Y-1600808D01*
X3218598Y-1601473D01*
X3219263Y-1606129D02*
Y-1615440D01*
X3229706Y-1608124D02*
X3229040Y-1606794D01*
X3227045Y-1606129D01*
X3225050D01*
X3223055Y-1606794D01*
X3222390Y-1608124D01*
X3223055Y-1609454D01*
X3224385Y-1610119D01*
X3227710Y-1610784D01*
X3229040Y-1611449D01*
X3229706Y-1612780D01*
Y-1613445D01*
X3229040Y-1614775D01*
X3227045Y-1615440D01*
X3225050D01*
X3223055Y-1614775D01*
X3222390Y-1613445D01*
X3243606Y-1606129D02*
X3246266Y-1615440D01*
X3248927Y-1606129D02*
X3246266Y-1615440D01*
X3248927Y-1606129D02*
X3251587Y-1615440D01*
X3254247Y-1606129D02*
X3251587Y-1615440D01*
X3260832Y-1606129D02*
X3259502Y-1606794D01*
X3258171Y-1608124D01*
X3257506Y-1610119D01*
Y-1611449D01*
X3258171Y-1613445D01*
X3259502Y-1614775D01*
X3260832Y-1615440D01*
X3262827D01*
X3264157Y-1614775D01*
X3265488Y-1613445D01*
X3266153Y-1611449D01*
Y-1610119D01*
X3265488Y-1608124D01*
X3264157Y-1606794D01*
X3262827Y-1606129D01*
X3260832D01*
X3269212D02*
Y-1615440D01*
Y-1610119D02*
X3269877Y-1608124D01*
X3271207Y-1606794D01*
X3272538Y-1606129D01*
X3274533D01*
X3275797Y-1601473D02*
Y-1615440D01*
X3282448Y-1606129D02*
X3275797Y-1612780D01*
X3278457Y-1610119D02*
X3283112Y-1615440D01*
X3297612Y-1601473D02*
X3298277Y-1602138D01*
X3298942Y-1601473D01*
X3298277Y-1600808D01*
X3297612Y-1601473D01*
X3298277Y-1606129D02*
Y-1615440D01*
X3308719Y-1608124D02*
X3308054Y-1606794D01*
X3306058Y-1606129D01*
X3304063D01*
X3302068Y-1606794D01*
X3301403Y-1608124D01*
X3302068Y-1609454D01*
X3303398Y-1610119D01*
X3306724Y-1610784D01*
X3308054Y-1611449D01*
X3308719Y-1612780D01*
Y-1613445D01*
X3308054Y-1614775D01*
X3306058Y-1615440D01*
X3304063D01*
X3302068Y-1614775D01*
X3301403Y-1613445D01*
X3322619Y-1601473D02*
Y-1615440D01*
X3326876Y-1601473D02*
X3327541Y-1602138D01*
X3328206Y-1601473D01*
X3327541Y-1600808D01*
X3326876Y-1601473D01*
X3327541Y-1606129D02*
Y-1615440D01*
X3338648Y-1608124D02*
X3337318Y-1606794D01*
X3335988Y-1606129D01*
X3333992D01*
X3332662Y-1606794D01*
X3331332Y-1608124D01*
X3330667Y-1610119D01*
Y-1611449D01*
X3331332Y-1613445D01*
X3332662Y-1614775D01*
X3333992Y-1615440D01*
X3335988D01*
X3337318Y-1614775D01*
X3338648Y-1613445D01*
X3341641Y-1610119D02*
X3349622D01*
Y-1608789D01*
X3348957Y-1607459D01*
X3348292Y-1606794D01*
X3346962Y-1606129D01*
X3344966D01*
X3343636Y-1606794D01*
X3342306Y-1608124D01*
X3341641Y-1610119D01*
Y-1611449D01*
X3342306Y-1613445D01*
X3343636Y-1614775D01*
X3344966Y-1615440D01*
X3346962D01*
X3348292Y-1614775D01*
X3349622Y-1613445D01*
X3352615Y-1606129D02*
Y-1615440D01*
Y-1608789D02*
X3354610Y-1606794D01*
X3355941Y-1606129D01*
X3357936D01*
X3359266Y-1606794D01*
X3359931Y-1608789D01*
Y-1615440D01*
X3370905Y-1608124D02*
X3370240Y-1606794D01*
X3368245Y-1606129D01*
X3366249D01*
X3364254Y-1606794D01*
X3363589Y-1608124D01*
X3364254Y-1609454D01*
X3365584Y-1610119D01*
X3368910Y-1610784D01*
X3370240Y-1611449D01*
X3370905Y-1612780D01*
Y-1613445D01*
X3370240Y-1614775D01*
X3368245Y-1615440D01*
X3366249D01*
X3364254Y-1614775D01*
X3363589Y-1613445D01*
X3373831Y-1610119D02*
X3381813D01*
Y-1608789D01*
X3381147Y-1607459D01*
X3380482Y-1606794D01*
X3379152Y-1606129D01*
X3377157D01*
X3375827Y-1606794D01*
X3374497Y-1608124D01*
X3373831Y-1610119D01*
Y-1611449D01*
X3374497Y-1613445D01*
X3375827Y-1614775D01*
X3377157Y-1615440D01*
X3379152D01*
X3380482Y-1614775D01*
X3381813Y-1613445D01*
X3392787Y-1601473D02*
Y-1615440D01*
Y-1608124D02*
X3391457Y-1606794D01*
X3390126Y-1606129D01*
X3388131D01*
X3386801Y-1606794D01*
X3385471Y-1608124D01*
X3384806Y-1610119D01*
Y-1611449D01*
X3385471Y-1613445D01*
X3386801Y-1614775D01*
X3388131Y-1615440D01*
X3390126D01*
X3391457Y-1614775D01*
X3392787Y-1613445D01*
X3407485Y-1606129D02*
Y-1612780D01*
X3408151Y-1614775D01*
X3409481Y-1615440D01*
X3411476D01*
X3412806Y-1614775D01*
X3414802Y-1612780D01*
Y-1606129D02*
Y-1615440D01*
X3418459Y-1606129D02*
Y-1615440D01*
Y-1608789D02*
X3420455Y-1606794D01*
X3421785Y-1606129D01*
X3423780D01*
X3425110Y-1606794D01*
X3425775Y-1608789D01*
Y-1615440D01*
X3437415Y-1601473D02*
Y-1615440D01*
Y-1608124D02*
X3436085Y-1606794D01*
X3434754Y-1606129D01*
X3432759D01*
X3431429Y-1606794D01*
X3430099Y-1608124D01*
X3429434Y-1610119D01*
Y-1611449D01*
X3430099Y-1613445D01*
X3431429Y-1614775D01*
X3432759Y-1615440D01*
X3434754D01*
X3436085Y-1614775D01*
X3437415Y-1613445D01*
X3441139Y-1610119D02*
X3449120D01*
Y-1608789D01*
X3448455Y-1607459D01*
X3447790Y-1606794D01*
X3446460Y-1606129D01*
X3444465D01*
X3443134Y-1606794D01*
X3441804Y-1608124D01*
X3441139Y-1610119D01*
Y-1611449D01*
X3441804Y-1613445D01*
X3443134Y-1614775D01*
X3444465Y-1615440D01*
X3446460D01*
X3447790Y-1614775D01*
X3449120Y-1613445D01*
X3452113Y-1606129D02*
Y-1615440D01*
Y-1610119D02*
X3452778Y-1608124D01*
X3454109Y-1606794D01*
X3455439Y-1606129D01*
X3457434D01*
X3471667Y-1601473D02*
Y-1612780D01*
X3472332Y-1614775D01*
X3473662Y-1615440D01*
X3474993D01*
X3469672Y-1606129D02*
X3474327D01*
X3476988Y-1601473D02*
Y-1615440D01*
Y-1608789D02*
X3478983Y-1606794D01*
X3480313Y-1606129D01*
X3482309D01*
X3483639Y-1606794D01*
X3484304Y-1608789D01*
Y-1615440D01*
X3487962Y-1610119D02*
X3495943D01*
Y-1608789D01*
X3495278Y-1607459D01*
X3494613Y-1606794D01*
X3493283Y-1606129D01*
X3491288D01*
X3489957Y-1606794D01*
X3488627Y-1608124D01*
X3487962Y-1610119D01*
Y-1611449D01*
X3488627Y-1613445D01*
X3489957Y-1614775D01*
X3491288Y-1615440D01*
X3493283D01*
X3494613Y-1614775D01*
X3495943Y-1613445D01*
X3519886Y-1604798D02*
X3519221Y-1603468D01*
X3517891Y-1602138D01*
X3516561Y-1601473D01*
X3513901D01*
X3512570Y-1602138D01*
X3511240Y-1603468D01*
X3510575Y-1604798D01*
X3509910Y-1606794D01*
Y-1610119D01*
X3510575Y-1612115D01*
X3511240Y-1613445D01*
X3512570Y-1614775D01*
X3513901Y-1615440D01*
X3516561D01*
X3517891Y-1614775D01*
X3519221Y-1613445D01*
X3519886Y-1612115D01*
X3523811Y-1606129D02*
Y-1615440D01*
Y-1610119D02*
X3524476Y-1608124D01*
X3525806Y-1606794D01*
X3527136Y-1606129D01*
X3529131D01*
X3530395Y-1610119D02*
X3538376D01*
Y-1608789D01*
X3537711Y-1607459D01*
X3537046Y-1606794D01*
X3535716Y-1606129D01*
X3533720D01*
X3532390Y-1606794D01*
X3531060Y-1608124D01*
X3530395Y-1610119D01*
Y-1611449D01*
X3531060Y-1613445D01*
X3532390Y-1614775D01*
X3533720Y-1615440D01*
X3535716D01*
X3537046Y-1614775D01*
X3538376Y-1613445D01*
X3549350Y-1606129D02*
Y-1615440D01*
Y-1608124D02*
X3548020Y-1606794D01*
X3546690Y-1606129D01*
X3544695D01*
X3543364Y-1606794D01*
X3542034Y-1608124D01*
X3541369Y-1610119D01*
Y-1611449D01*
X3542034Y-1613445D01*
X3543364Y-1614775D01*
X3544695Y-1615440D01*
X3546690D01*
X3548020Y-1614775D01*
X3549350Y-1613445D01*
X3555070Y-1601473D02*
Y-1612780D01*
X3555735Y-1614775D01*
X3557065Y-1615440D01*
X3558396D01*
X3553075Y-1606129D02*
X3557730D01*
X3561721Y-1601473D02*
X3562386Y-1602138D01*
X3563051Y-1601473D01*
X3562386Y-1600808D01*
X3561721Y-1601473D01*
X3562386Y-1606129D02*
Y-1615440D01*
X3565512Y-1606129D02*
X3569503Y-1615440D01*
X3573493Y-1606129D02*
X3569503Y-1615440D01*
X3575755Y-1610119D02*
X3583736D01*
Y-1608789D01*
X3583071Y-1607459D01*
X3582405Y-1606794D01*
X3581075Y-1606129D01*
X3579080D01*
X3577750Y-1606794D01*
X3576420Y-1608124D01*
X3575755Y-1610119D01*
Y-1611449D01*
X3576420Y-1613445D01*
X3577750Y-1614775D01*
X3579080Y-1615440D01*
X3581075D01*
X3582405Y-1614775D01*
X3583736Y-1613445D01*
X3607679Y-1604798D02*
X3607014Y-1603468D01*
X3605684Y-1602138D01*
X3604354Y-1601473D01*
X3601693D01*
X3600363Y-1602138D01*
X3599033Y-1603468D01*
X3598368Y-1604798D01*
X3597703Y-1606794D01*
Y-1610119D01*
X3598368Y-1612115D01*
X3599033Y-1613445D01*
X3600363Y-1614775D01*
X3601693Y-1615440D01*
X3604354D01*
X3605684Y-1614775D01*
X3607014Y-1613445D01*
X3607679Y-1612115D01*
X3614929Y-1606129D02*
X3613599Y-1606794D01*
X3612268Y-1608124D01*
X3611603Y-1610119D01*
Y-1611449D01*
X3612268Y-1613445D01*
X3613599Y-1614775D01*
X3614929Y-1615440D01*
X3616924D01*
X3618254Y-1614775D01*
X3619584Y-1613445D01*
X3620250Y-1611449D01*
Y-1610119D01*
X3619584Y-1608124D01*
X3618254Y-1606794D01*
X3616924Y-1606129D01*
X3614929D01*
X3623309D02*
Y-1615440D01*
Y-1608789D02*
X3625304Y-1606794D01*
X3626635Y-1606129D01*
X3628630D01*
X3629960Y-1606794D01*
X3630625Y-1608789D01*
Y-1615440D01*
Y-1608789D02*
X3632620Y-1606794D01*
X3633951Y-1606129D01*
X3635946D01*
X3637276Y-1606794D01*
X3637941Y-1608789D01*
Y-1615440D01*
X3642331Y-1606129D02*
Y-1615440D01*
Y-1608789D02*
X3644326Y-1606794D01*
X3645656Y-1606129D01*
X3647651D01*
X3648982Y-1606794D01*
X3649647Y-1608789D01*
Y-1615440D01*
Y-1608789D02*
X3651642Y-1606794D01*
X3652972Y-1606129D01*
X3654967D01*
X3656298Y-1606794D01*
X3656963Y-1608789D01*
Y-1615440D01*
X3664678Y-1606129D02*
X3663348Y-1606794D01*
X3662018Y-1608124D01*
X3661353Y-1610119D01*
Y-1611449D01*
X3662018Y-1613445D01*
X3663348Y-1614775D01*
X3664678Y-1615440D01*
X3666673D01*
X3668003Y-1614775D01*
X3669333Y-1613445D01*
X3669998Y-1611449D01*
Y-1610119D01*
X3669333Y-1608124D01*
X3668003Y-1606794D01*
X3666673Y-1606129D01*
X3664678D01*
X3673058D02*
Y-1615440D01*
Y-1608789D02*
X3675053Y-1606794D01*
X3676383Y-1606129D01*
X3678379D01*
X3679709Y-1606794D01*
X3680374Y-1608789D01*
Y-1615440D01*
X3691348Y-1608124D02*
X3690683Y-1606794D01*
X3688688Y-1606129D01*
X3686693D01*
X3684697Y-1606794D01*
X3684032Y-1608124D01*
X3684697Y-1609454D01*
X3686028Y-1610119D01*
X3689353Y-1610784D01*
X3690683Y-1611449D01*
X3691348Y-1612780D01*
Y-1613445D01*
X3690683Y-1614775D01*
X3688688Y-1615440D01*
X3686693D01*
X3684697Y-1614775D01*
X3684032Y-1613445D01*
X3715890Y-1615440D02*
X3710569Y-1601473D01*
X3705249Y-1615440D01*
X3707244Y-1610784D02*
X3713895D01*
X3721144Y-1601473D02*
Y-1612780D01*
X3721809Y-1614775D01*
X3723140Y-1615440D01*
X3724470D01*
X3719149Y-1606129D02*
X3723805D01*
X3728460Y-1601473D02*
Y-1612780D01*
X3729126Y-1614775D01*
X3730456Y-1615440D01*
X3731786D01*
X3726465Y-1606129D02*
X3731121D01*
X3733781D02*
Y-1615440D01*
Y-1610119D02*
X3734446Y-1608124D01*
X3735777Y-1606794D01*
X3737107Y-1606129D01*
X3739102D01*
X3741696Y-1601473D02*
X3742361Y-1602138D01*
X3743026Y-1601473D01*
X3742361Y-1600808D01*
X3741696Y-1601473D01*
X3742361Y-1606129D02*
Y-1615440D01*
X3745487Y-1601473D02*
Y-1615440D01*
Y-1608124D02*
X3746817Y-1606794D01*
X3748147Y-1606129D01*
X3750143D01*
X3751473Y-1606794D01*
X3752803Y-1608124D01*
X3753468Y-1610119D01*
Y-1611449D01*
X3752803Y-1613445D01*
X3751473Y-1614775D01*
X3750143Y-1615440D01*
X3748147D01*
X3746817Y-1614775D01*
X3745487Y-1613445D01*
X3756461Y-1606129D02*
Y-1612780D01*
X3757126Y-1614775D01*
X3758456Y-1615440D01*
X3760452D01*
X3761782Y-1614775D01*
X3763777Y-1612780D01*
Y-1606129D02*
Y-1615440D01*
X3769431Y-1601473D02*
Y-1612780D01*
X3770096Y-1614775D01*
X3771426Y-1615440D01*
X3772756D01*
X3767435Y-1606129D02*
X3772091D01*
X3776082Y-1601473D02*
X3776747Y-1602138D01*
X3777411Y-1601473D01*
X3776747Y-1600808D01*
X3776082Y-1601473D01*
X3776747Y-1606129D02*
Y-1615440D01*
X3783198Y-1606129D02*
X3781868Y-1606794D01*
X3780537Y-1608124D01*
X3779872Y-1610119D01*
Y-1611449D01*
X3780537Y-1613445D01*
X3781868Y-1614775D01*
X3783198Y-1615440D01*
X3785193D01*
X3786523Y-1614775D01*
X3787853Y-1613445D01*
X3788519Y-1611449D01*
Y-1610119D01*
X3787853Y-1608124D01*
X3786523Y-1606794D01*
X3785193Y-1606129D01*
X3783198D01*
X3791578D02*
Y-1615440D01*
Y-1608789D02*
X3793573Y-1606794D01*
X3794904Y-1606129D01*
X3796899D01*
X3798229Y-1606794D01*
X3798894Y-1608789D01*
Y-1615440D01*
X3802552Y-1609454D02*
X3814524D01*
X3827959Y-1603468D02*
X3826629Y-1602138D01*
X3824633Y-1601473D01*
X3821973D01*
X3819978Y-1602138D01*
X3818647Y-1603468D01*
Y-1604798D01*
X3819313Y-1606129D01*
X3819978Y-1606794D01*
X3821308Y-1607459D01*
X3825298Y-1608789D01*
X3826629Y-1609454D01*
X3827294Y-1610119D01*
X3827959Y-1611449D01*
Y-1613445D01*
X3826629Y-1614775D01*
X3824633Y-1615440D01*
X3821973D01*
X3819978Y-1614775D01*
X3818647Y-1613445D01*
X3831085Y-1601473D02*
Y-1615440D01*
Y-1608789D02*
X3833080Y-1606794D01*
X3834410Y-1606129D01*
X3836406D01*
X3837736Y-1606794D01*
X3838401Y-1608789D01*
Y-1615440D01*
X3850040Y-1606129D02*
Y-1615440D01*
Y-1608124D02*
X3848710Y-1606794D01*
X3847379Y-1606129D01*
X3845384D01*
X3844054Y-1606794D01*
X3842724Y-1608124D01*
X3842059Y-1610119D01*
Y-1611449D01*
X3842724Y-1613445D01*
X3844054Y-1614775D01*
X3845384Y-1615440D01*
X3847379D01*
X3848710Y-1614775D01*
X3850040Y-1613445D01*
X3853765Y-1606129D02*
Y-1615440D01*
Y-1610119D02*
X3854430Y-1608124D01*
X3855760Y-1606794D01*
X3857090Y-1606129D01*
X3859085D01*
X3860349Y-1610119D02*
X3868330D01*
Y-1608789D01*
X3867665Y-1607459D01*
X3867000Y-1606794D01*
X3865670Y-1606129D01*
X3863674D01*
X3862344Y-1606794D01*
X3861014Y-1608124D01*
X3860349Y-1610119D01*
Y-1611449D01*
X3861014Y-1613445D01*
X3862344Y-1614775D01*
X3863674Y-1615440D01*
X3865670D01*
X3867000Y-1614775D01*
X3868330Y-1613445D01*
X3892939Y-1615440D02*
X3887618Y-1601473D01*
X3882297Y-1615440D01*
X3884292Y-1610784D02*
X3890943D01*
X3896198Y-1601473D02*
Y-1615440D01*
X3900454Y-1601473D02*
X3901119Y-1602138D01*
X3901784Y-1601473D01*
X3901119Y-1600808D01*
X3900454Y-1601473D01*
X3901119Y-1606129D02*
Y-1615440D01*
X3904245Y-1601473D02*
Y-1615440D01*
X3910896Y-1606129D02*
X3904245Y-1612780D01*
X3906906Y-1610119D02*
X3911561Y-1615440D01*
X3913756Y-1610119D02*
X3921737D01*
Y-1608789D01*
X3921072Y-1607459D01*
X3920407Y-1606794D01*
X3919077Y-1606129D01*
X3917082D01*
X3915751Y-1606794D01*
X3914421Y-1608124D01*
X3913756Y-1610119D01*
Y-1611449D01*
X3914421Y-1613445D01*
X3915751Y-1614775D01*
X3917082Y-1615440D01*
X3919077D01*
X3920407Y-1614775D01*
X3921737Y-1613445D01*
X3937035Y-1601473D02*
X3944351D01*
X3940360Y-1606794D01*
X3942355D01*
X3943685Y-1607459D01*
X3944351Y-1608124D01*
X3945016Y-1610119D01*
Y-1611449D01*
X3944351Y-1613445D01*
X3943020Y-1614775D01*
X3941025Y-1615440D01*
X3939030D01*
X3937035Y-1614775D01*
X3936369Y-1614110D01*
X3935704Y-1612780D01*
X3948807Y-1614110D02*
X3948141Y-1614775D01*
X3948807Y-1615440D01*
X3949472Y-1614775D01*
X3948807Y-1614110D01*
X3956522Y-1601473D02*
X3954526Y-1602138D01*
X3953196Y-1604133D01*
X3952531Y-1607459D01*
Y-1609454D01*
X3953196Y-1612780D01*
X3954526Y-1614775D01*
X3956522Y-1615440D01*
X3957852D01*
X3959847Y-1614775D01*
X3961177Y-1612780D01*
X3961843Y-1609454D01*
Y-1607459D01*
X3961177Y-1604133D01*
X3959847Y-1602138D01*
X3957852Y-1601473D01*
X3956522D01*
X3975942D02*
Y-1611449D01*
X3976608Y-1613445D01*
X3977938Y-1614775D01*
X3979933Y-1615440D01*
X3981263D01*
X3983259Y-1614775D01*
X3984589Y-1613445D01*
X3985254Y-1611449D01*
Y-1601473D01*
X3989111Y-1606129D02*
Y-1615440D01*
Y-1608789D02*
X3991107Y-1606794D01*
X3992437Y-1606129D01*
X3994432D01*
X3995762Y-1606794D01*
X3996428Y-1608789D01*
Y-1615440D01*
X4000085Y-1606129D02*
Y-1620096D01*
Y-1608124D02*
X4001416Y-1606794D01*
X4002746Y-1606129D01*
X4004741D01*
X4006071Y-1606794D01*
X4007402Y-1608124D01*
X4008067Y-1610119D01*
Y-1611449D01*
X4007402Y-1613445D01*
X4006071Y-1614775D01*
X4004741Y-1615440D01*
X4002746D01*
X4001416Y-1614775D01*
X4000085Y-1613445D01*
X4014385Y-1606129D02*
X4013055Y-1606794D01*
X4011725Y-1608124D01*
X4011060Y-1610119D01*
Y-1611449D01*
X4011725Y-1613445D01*
X4013055Y-1614775D01*
X4014385Y-1615440D01*
X4016380D01*
X4017711Y-1614775D01*
X4019041Y-1613445D01*
X4019706Y-1611449D01*
Y-1610119D01*
X4019041Y-1608124D01*
X4017711Y-1606794D01*
X4016380Y-1606129D01*
X4014385D01*
X4022765D02*
Y-1615440D01*
Y-1610119D02*
X4023430Y-1608124D01*
X4024761Y-1606794D01*
X4026091Y-1606129D01*
X4028086D01*
X4031345Y-1601473D02*
Y-1612780D01*
X4032010Y-1614775D01*
X4033340Y-1615440D01*
X4034670D01*
X4029350Y-1606129D02*
X4034005D01*
X4036666Y-1610119D02*
X4044647D01*
Y-1608789D01*
X4043982Y-1607459D01*
X4043317Y-1606794D01*
X4041986Y-1606129D01*
X4039991D01*
X4038661Y-1606794D01*
X4037331Y-1608124D01*
X4036666Y-1610119D01*
Y-1611449D01*
X4037331Y-1613445D01*
X4038661Y-1614775D01*
X4039991Y-1615440D01*
X4041986D01*
X4043317Y-1614775D01*
X4044647Y-1613445D01*
X4055621Y-1601473D02*
Y-1615440D01*
Y-1608124D02*
X4054291Y-1606794D01*
X4052961Y-1606129D01*
X4050965D01*
X4049635Y-1606794D01*
X4048305Y-1608124D01*
X4047640Y-1610119D01*
Y-1611449D01*
X4048305Y-1613445D01*
X4049635Y-1614775D01*
X4050965Y-1615440D01*
X4052961D01*
X4054291Y-1614775D01*
X4055621Y-1613445D01*
X4070320Y-1601473D02*
Y-1615440D01*
X4078301D01*
X4081161Y-1601473D02*
X4081826Y-1602138D01*
X4082491Y-1601473D01*
X4081826Y-1600808D01*
X4081161Y-1601473D01*
X4081826Y-1606129D02*
Y-1615440D01*
X4092933Y-1608124D02*
X4091603Y-1606794D01*
X4090273Y-1606129D01*
X4088277D01*
X4086947Y-1606794D01*
X4085617Y-1608124D01*
X4084952Y-1610119D01*
Y-1611449D01*
X4085617Y-1613445D01*
X4086947Y-1614775D01*
X4088277Y-1615440D01*
X4090273D01*
X4091603Y-1614775D01*
X4092933Y-1613445D01*
X4095926Y-1610119D02*
X4103907D01*
Y-1608789D01*
X4103242Y-1607459D01*
X4102577Y-1606794D01*
X4101247Y-1606129D01*
X4099251D01*
X4097921Y-1606794D01*
X4096591Y-1608124D01*
X4095926Y-1610119D01*
Y-1611449D01*
X4096591Y-1613445D01*
X4097921Y-1614775D01*
X4099251Y-1615440D01*
X4101247D01*
X4102577Y-1614775D01*
X4103907Y-1613445D01*
X4106900Y-1606129D02*
Y-1615440D01*
Y-1608789D02*
X4108895Y-1606794D01*
X4110225Y-1606129D01*
X4112220D01*
X4113551Y-1606794D01*
X4114216Y-1608789D01*
Y-1615440D01*
X4125190Y-1608124D02*
X4124525Y-1606794D01*
X4122530Y-1606129D01*
X4120534D01*
X4118539Y-1606794D01*
X4117874Y-1608124D01*
X4118539Y-1609454D01*
X4119869Y-1610119D01*
X4123195Y-1610784D01*
X4124525Y-1611449D01*
X4125190Y-1612780D01*
Y-1613445D01*
X4124525Y-1614775D01*
X4122530Y-1615440D01*
X4120534D01*
X4118539Y-1614775D01*
X4117874Y-1613445D01*
X4128116Y-1610119D02*
X4136097D01*
Y-1608789D01*
X4135432Y-1607459D01*
X4134767Y-1606794D01*
X4133437Y-1606129D01*
X4131442D01*
X4130112Y-1606794D01*
X4128781Y-1608124D01*
X4128116Y-1610119D01*
Y-1611449D01*
X4128781Y-1613445D01*
X4130112Y-1614775D01*
X4131442Y-1615440D01*
X4133437D01*
X4134767Y-1614775D01*
X4136097Y-1613445D01*
X4139756Y-1614110D02*
X4139091Y-1614775D01*
X4139756Y-1615440D01*
X4140421Y-1614775D01*
X4139756Y-1614110D01*
X3199976Y-1633223D02*
Y-1647190D01*
X3195320Y-1633223D02*
X3204631D01*
X3209619Y-1637879D02*
X3208289Y-1638544D01*
X3206959Y-1639874D01*
X3206294Y-1641869D01*
Y-1643199D01*
X3206959Y-1645195D01*
X3208289Y-1646525D01*
X3209619Y-1647190D01*
X3211615D01*
X3212945Y-1646525D01*
X3214275Y-1645195D01*
X3214940Y-1643199D01*
Y-1641869D01*
X3214275Y-1639874D01*
X3212945Y-1638544D01*
X3211615Y-1637879D01*
X3209619D01*
X3228974D02*
X3232964Y-1647190D01*
X3236955Y-1637879D02*
X3232964Y-1647190D01*
X3240547Y-1633223D02*
X3241212Y-1633888D01*
X3241877Y-1633223D01*
X3241212Y-1632558D01*
X3240547Y-1633223D01*
X3241212Y-1637879D02*
Y-1647190D01*
X3244337Y-1641869D02*
X3252319D01*
Y-1640539D01*
X3251654Y-1639209D01*
X3250988Y-1638544D01*
X3249658Y-1637879D01*
X3247663D01*
X3246333Y-1638544D01*
X3245003Y-1639874D01*
X3244337Y-1641869D01*
Y-1643199D01*
X3245003Y-1645195D01*
X3246333Y-1646525D01*
X3247663Y-1647190D01*
X3249658D01*
X3250988Y-1646525D01*
X3252319Y-1645195D01*
X3255312Y-1637879D02*
X3257972Y-1647190D01*
X3260632Y-1637879D02*
X3257972Y-1647190D01*
X3260632Y-1637879D02*
X3263293Y-1647190D01*
X3265953Y-1637879D02*
X3263293Y-1647190D01*
X3288167Y-1637879D02*
Y-1647190D01*
Y-1639874D02*
X3286837Y-1638544D01*
X3285507Y-1637879D01*
X3283512D01*
X3282181Y-1638544D01*
X3280851Y-1639874D01*
X3280186Y-1641869D01*
Y-1643199D01*
X3280851Y-1645195D01*
X3282181Y-1646525D01*
X3283512Y-1647190D01*
X3285507D01*
X3286837Y-1646525D01*
X3288167Y-1645195D01*
X3310847Y-1639874D02*
X3309517Y-1638544D01*
X3308187Y-1637879D01*
X3306191D01*
X3304861Y-1638544D01*
X3303531Y-1639874D01*
X3302866Y-1641869D01*
Y-1643199D01*
X3303531Y-1645195D01*
X3304861Y-1646525D01*
X3306191Y-1647190D01*
X3308187D01*
X3309517Y-1646525D01*
X3310847Y-1645195D01*
X3317166Y-1637879D02*
X3315835Y-1638544D01*
X3314505Y-1639874D01*
X3313840Y-1641869D01*
Y-1643199D01*
X3314505Y-1645195D01*
X3315835Y-1646525D01*
X3317166Y-1647190D01*
X3319161D01*
X3320491Y-1646525D01*
X3321821Y-1645195D01*
X3322486Y-1643199D01*
Y-1641869D01*
X3321821Y-1639874D01*
X3320491Y-1638544D01*
X3319161Y-1637879D01*
X3317166D01*
X3325546D02*
Y-1651846D01*
Y-1639874D02*
X3326876Y-1638544D01*
X3328206Y-1637879D01*
X3330201D01*
X3331532Y-1638544D01*
X3332862Y-1639874D01*
X3333527Y-1641869D01*
Y-1643199D01*
X3332862Y-1645195D01*
X3331532Y-1646525D01*
X3330201Y-1647190D01*
X3328206D01*
X3326876Y-1646525D01*
X3325546Y-1645195D01*
X3337185Y-1637879D02*
X3341176Y-1647190D01*
X3345166Y-1637879D02*
X3341176Y-1647190D01*
X3339845Y-1649850D01*
X3338515Y-1651181D01*
X3337185Y-1651846D01*
X3336520D01*
X3361794Y-1637879D02*
X3360463Y-1638544D01*
X3359133Y-1639874D01*
X3358468Y-1641869D01*
Y-1643199D01*
X3359133Y-1645195D01*
X3360463Y-1646525D01*
X3361794Y-1647190D01*
X3363789D01*
X3365119Y-1646525D01*
X3366449Y-1645195D01*
X3367114Y-1643199D01*
Y-1641869D01*
X3366449Y-1639874D01*
X3365119Y-1638544D01*
X3363789Y-1637879D01*
X3361794D01*
X3375494Y-1633223D02*
X3374164D01*
X3372834Y-1633888D01*
X3372169Y-1635883D01*
Y-1647190D01*
X3370174Y-1637879D02*
X3374829D01*
X3390459Y-1633223D02*
Y-1644530D01*
X3391124Y-1646525D01*
X3392454Y-1647190D01*
X3393784D01*
X3388464Y-1637879D02*
X3393120D01*
X3395780Y-1633223D02*
Y-1647190D01*
Y-1640539D02*
X3397775Y-1638544D01*
X3399105Y-1637879D01*
X3401100D01*
X3402431Y-1638544D01*
X3403096Y-1640539D01*
Y-1647190D01*
X3408084Y-1633223D02*
X3408749Y-1633888D01*
X3409414Y-1633223D01*
X3408749Y-1632558D01*
X3408084Y-1633223D01*
X3408749Y-1637879D02*
Y-1647190D01*
X3419191Y-1639874D02*
X3418526Y-1638544D01*
X3416531Y-1637879D01*
X3414536D01*
X3412540Y-1638544D01*
X3411875Y-1639874D01*
X3412540Y-1641204D01*
X3413871Y-1641869D01*
X3417196Y-1642534D01*
X3418526Y-1643199D01*
X3419191Y-1644530D01*
Y-1645195D01*
X3418526Y-1646525D01*
X3416531Y-1647190D01*
X3414536D01*
X3412540Y-1646525D01*
X3411875Y-1645195D01*
X3433092Y-1633223D02*
Y-1647190D01*
X3437348Y-1633223D02*
X3438013Y-1633888D01*
X3438678Y-1633223D01*
X3438013Y-1632558D01*
X3437348Y-1633223D01*
X3438013Y-1637879D02*
Y-1647190D01*
X3449120Y-1639874D02*
X3447790Y-1638544D01*
X3446460Y-1637879D01*
X3444465D01*
X3443134Y-1638544D01*
X3441805Y-1639874D01*
X3441139Y-1641869D01*
Y-1643199D01*
X3441805Y-1645195D01*
X3443134Y-1646525D01*
X3444465Y-1647190D01*
X3446460D01*
X3447790Y-1646525D01*
X3449120Y-1645195D01*
X3452113Y-1641869D02*
X3460095D01*
Y-1640539D01*
X3459429Y-1639209D01*
X3458764Y-1638544D01*
X3457434Y-1637879D01*
X3455439D01*
X3454109Y-1638544D01*
X3452778Y-1639874D01*
X3452113Y-1641869D01*
Y-1643199D01*
X3452778Y-1645195D01*
X3454109Y-1646525D01*
X3455439Y-1647190D01*
X3457434D01*
X3458764Y-1646525D01*
X3460095Y-1645195D01*
X3463087Y-1637879D02*
Y-1647190D01*
Y-1640539D02*
X3465083Y-1638544D01*
X3466413Y-1637879D01*
X3468408D01*
X3469738Y-1638544D01*
X3470403Y-1640539D01*
Y-1647190D01*
X3481378Y-1639874D02*
X3480712Y-1638544D01*
X3478717Y-1637879D01*
X3476722D01*
X3474727Y-1638544D01*
X3474062Y-1639874D01*
X3474727Y-1641204D01*
X3476057Y-1641869D01*
X3479382Y-1642534D01*
X3480712Y-1643199D01*
X3481378Y-1644530D01*
Y-1645195D01*
X3480712Y-1646525D01*
X3478717Y-1647190D01*
X3476722D01*
X3474727Y-1646525D01*
X3474062Y-1645195D01*
X3484304Y-1641869D02*
X3492285D01*
Y-1640539D01*
X3491620Y-1639209D01*
X3490955Y-1638544D01*
X3489625Y-1637879D01*
X3487629D01*
X3486299Y-1638544D01*
X3484969Y-1639874D01*
X3484304Y-1641869D01*
Y-1643199D01*
X3484969Y-1645195D01*
X3486299Y-1646525D01*
X3487629Y-1647190D01*
X3489625D01*
X3490955Y-1646525D01*
X3492285Y-1645195D01*
X3496608Y-1646525D02*
X3495943Y-1647190D01*
X3495278Y-1646525D01*
X3495943Y-1645860D01*
X3496608Y-1646525D01*
Y-1647855D01*
X3495943Y-1649185D01*
X3495278Y-1649850D01*
X3510642Y-1637879D02*
X3514632Y-1647190D01*
X3518623Y-1637879D02*
X3514632Y-1647190D01*
X3522214Y-1633223D02*
X3522880Y-1633888D01*
X3523545Y-1633223D01*
X3522880Y-1632558D01*
X3522214Y-1633223D01*
X3522880Y-1637879D02*
Y-1647190D01*
X3533322Y-1639874D02*
X3532656Y-1638544D01*
X3530661Y-1637879D01*
X3528666D01*
X3526671Y-1638544D01*
X3526005Y-1639874D01*
X3526671Y-1641204D01*
X3528001Y-1641869D01*
X3531326Y-1642534D01*
X3532656Y-1643199D01*
X3533322Y-1644530D01*
Y-1645195D01*
X3532656Y-1646525D01*
X3530661Y-1647190D01*
X3528666D01*
X3526671Y-1646525D01*
X3526005Y-1645195D01*
X3537578Y-1633223D02*
X3538243Y-1633888D01*
X3538908Y-1633223D01*
X3538243Y-1632558D01*
X3537578Y-1633223D01*
X3538243Y-1637879D02*
Y-1647190D01*
X3543364Y-1633223D02*
Y-1644530D01*
X3544030Y-1646525D01*
X3545360Y-1647190D01*
X3546690D01*
X3541369Y-1637879D02*
X3546025D01*
X3559659Y-1633223D02*
Y-1647190D01*
Y-1640539D02*
X3561654Y-1638544D01*
X3562985Y-1637879D01*
X3564980D01*
X3566310Y-1638544D01*
X3566975Y-1640539D01*
Y-1647190D01*
X3572628Y-1633223D02*
Y-1644530D01*
X3573294Y-1646525D01*
X3574624Y-1647190D01*
X3575954D01*
X3570633Y-1637879D02*
X3575289D01*
X3579945Y-1633223D02*
Y-1644530D01*
X3580610Y-1646525D01*
X3581940Y-1647190D01*
X3583270D01*
X3577950Y-1637879D02*
X3582605D01*
X3585266D02*
Y-1651846D01*
Y-1639874D02*
X3586595Y-1638544D01*
X3587926Y-1637879D01*
X3589921D01*
X3591251Y-1638544D01*
X3592581Y-1639874D01*
X3593246Y-1641869D01*
Y-1643199D01*
X3592581Y-1645195D01*
X3591251Y-1646525D01*
X3589921Y-1647190D01*
X3587926D01*
X3586595Y-1646525D01*
X3585266Y-1645195D01*
X3596905Y-1637879D02*
X3596240Y-1638544D01*
X3596905Y-1639209D01*
X3597570Y-1638544D01*
X3596905Y-1637879D01*
Y-1645860D02*
X3596240Y-1646525D01*
X3596905Y-1647190D01*
X3597570Y-1646525D01*
X3596905Y-1645860D01*
X3600629Y-1649185D02*
X3609940Y-1633223D01*
X3610872Y-1649185D02*
X3620183Y-1633223D01*
X3629095Y-1639874D02*
X3627765Y-1638544D01*
X3626435Y-1637879D01*
X3624440D01*
X3623109Y-1638544D01*
X3621779Y-1639874D01*
X3621114Y-1641869D01*
Y-1643199D01*
X3621779Y-1645195D01*
X3623109Y-1646525D01*
X3624440Y-1647190D01*
X3626435D01*
X3627765Y-1646525D01*
X3629095Y-1645195D01*
X3632088Y-1637879D02*
Y-1647190D01*
Y-1641869D02*
X3632753Y-1639874D01*
X3634084Y-1638544D01*
X3635414Y-1637879D01*
X3637409D01*
X3638672Y-1641869D02*
X3646654D01*
Y-1640539D01*
X3645989Y-1639209D01*
X3645323Y-1638544D01*
X3643994Y-1637879D01*
X3641998D01*
X3640668Y-1638544D01*
X3639338Y-1639874D01*
X3638672Y-1641869D01*
Y-1643199D01*
X3639338Y-1645195D01*
X3640668Y-1646525D01*
X3641998Y-1647190D01*
X3643994D01*
X3645323Y-1646525D01*
X3646654Y-1645195D01*
X3657628Y-1637879D02*
Y-1647190D01*
Y-1639874D02*
X3656298Y-1638544D01*
X3654967Y-1637879D01*
X3652972D01*
X3651642Y-1638544D01*
X3650312Y-1639874D01*
X3649647Y-1641869D01*
Y-1643199D01*
X3650312Y-1645195D01*
X3651642Y-1646525D01*
X3652972Y-1647190D01*
X3654967D01*
X3656298Y-1646525D01*
X3657628Y-1645195D01*
X3663348Y-1633223D02*
Y-1644530D01*
X3664013Y-1646525D01*
X3665343Y-1647190D01*
X3666673D01*
X3661353Y-1637879D02*
X3666008D01*
X3669998Y-1633223D02*
X3670664Y-1633888D01*
X3671329Y-1633223D01*
X3670664Y-1632558D01*
X3669998Y-1633223D01*
X3670664Y-1637879D02*
Y-1647190D01*
X3673790Y-1637879D02*
X3677780Y-1647190D01*
X3681771Y-1637879D02*
X3677780Y-1647190D01*
X3684032Y-1641869D02*
X3692013D01*
Y-1640539D01*
X3691348Y-1639209D01*
X3690683Y-1638544D01*
X3689353Y-1637879D01*
X3687357D01*
X3686028Y-1638544D01*
X3684697Y-1639874D01*
X3684032Y-1641869D01*
Y-1643199D01*
X3684697Y-1645195D01*
X3686028Y-1646525D01*
X3687357Y-1647190D01*
X3689353D01*
X3690683Y-1646525D01*
X3692013Y-1645195D01*
X3702987Y-1639874D02*
X3701657Y-1638544D01*
X3700327Y-1637879D01*
X3698332D01*
X3697002Y-1638544D01*
X3695671Y-1639874D01*
X3695006Y-1641869D01*
Y-1643199D01*
X3695671Y-1645195D01*
X3697002Y-1646525D01*
X3698332Y-1647190D01*
X3700327D01*
X3701657Y-1646525D01*
X3702987Y-1645195D01*
X3709306Y-1637879D02*
X3707975Y-1638544D01*
X3706646Y-1639874D01*
X3705980Y-1641869D01*
Y-1643199D01*
X3706646Y-1645195D01*
X3707975Y-1646525D01*
X3709306Y-1647190D01*
X3711301D01*
X3712631Y-1646525D01*
X3713961Y-1645195D01*
X3714626Y-1643199D01*
Y-1641869D01*
X3713961Y-1639874D01*
X3712631Y-1638544D01*
X3711301Y-1637879D01*
X3709306D01*
X3717686D02*
Y-1647190D01*
Y-1640539D02*
X3719681Y-1638544D01*
X3721011Y-1637879D01*
X3723007D01*
X3724337Y-1638544D01*
X3725002Y-1640539D01*
Y-1647190D01*
Y-1640539D02*
X3726997Y-1638544D01*
X3728328Y-1637879D01*
X3730323D01*
X3731653Y-1638544D01*
X3732318Y-1640539D01*
Y-1647190D01*
X3736708Y-1637879D02*
Y-1647190D01*
Y-1640539D02*
X3738703Y-1638544D01*
X3740033Y-1637879D01*
X3742029D01*
X3743359Y-1638544D01*
X3744024Y-1640539D01*
Y-1647190D01*
Y-1640539D02*
X3746019Y-1638544D01*
X3747349Y-1637879D01*
X3749344D01*
X3750675Y-1638544D01*
X3751340Y-1640539D01*
Y-1647190D01*
X3759055Y-1637879D02*
X3757725Y-1638544D01*
X3756394Y-1639874D01*
X3755729Y-1641869D01*
Y-1643199D01*
X3756394Y-1645195D01*
X3757725Y-1646525D01*
X3759055Y-1647190D01*
X3761050D01*
X3762380Y-1646525D01*
X3763711Y-1645195D01*
X3764376Y-1643199D01*
Y-1641869D01*
X3763711Y-1639874D01*
X3762380Y-1638544D01*
X3761050Y-1637879D01*
X3759055D01*
X3767435D02*
Y-1647190D01*
Y-1640539D02*
X3769431Y-1638544D01*
X3770760Y-1637879D01*
X3772756D01*
X3774086Y-1638544D01*
X3774751Y-1640539D01*
Y-1647190D01*
X3785725Y-1639874D02*
X3785060Y-1638544D01*
X3783065Y-1637879D01*
X3781070D01*
X3779074Y-1638544D01*
X3778409Y-1639874D01*
X3779074Y-1641204D01*
X3780404Y-1641869D01*
X3783730Y-1642534D01*
X3785060Y-1643199D01*
X3785725Y-1644530D01*
Y-1645195D01*
X3785060Y-1646525D01*
X3783065Y-1647190D01*
X3781070D01*
X3779074Y-1646525D01*
X3778409Y-1645195D01*
X3789317Y-1645860D02*
X3788652Y-1646525D01*
X3789317Y-1647190D01*
X3789982Y-1646525D01*
X3789317Y-1645860D01*
X3796367Y-1637879D02*
X3795037Y-1638544D01*
X3793706Y-1639874D01*
X3793041Y-1641869D01*
Y-1643199D01*
X3793706Y-1645195D01*
X3795037Y-1646525D01*
X3796367Y-1647190D01*
X3798362D01*
X3799692Y-1646525D01*
X3801022Y-1645195D01*
X3801688Y-1643199D01*
Y-1641869D01*
X3801022Y-1639874D01*
X3799692Y-1638544D01*
X3798362Y-1637879D01*
X3796367D01*
X3804747D02*
Y-1647190D01*
Y-1641869D02*
X3805412Y-1639874D01*
X3806742Y-1638544D01*
X3808073Y-1637879D01*
X3810068D01*
X3819313D02*
Y-1648520D01*
X3818647Y-1650515D01*
X3817982Y-1651181D01*
X3816652Y-1651846D01*
X3814657D01*
X3813327Y-1651181D01*
X3819313Y-1639874D02*
X3817982Y-1638544D01*
X3816652Y-1637879D01*
X3814657D01*
X3813327Y-1638544D01*
X3811996Y-1639874D01*
X3811331Y-1641869D01*
Y-1643199D01*
X3811996Y-1645195D01*
X3813327Y-1646525D01*
X3814657Y-1647190D01*
X3816652D01*
X3817982Y-1646525D01*
X3819313Y-1645195D01*
X3823037Y-1649185D02*
X3832348Y-1633223D01*
X3833280D02*
Y-1647190D01*
X3837536Y-1633223D02*
X3838201Y-1633888D01*
X3838866Y-1633223D01*
X3838201Y-1632558D01*
X3837536Y-1633223D01*
X3838201Y-1637879D02*
Y-1647190D01*
X3849308Y-1639874D02*
X3847978Y-1638544D01*
X3846648Y-1637879D01*
X3844653D01*
X3843322Y-1638544D01*
X3841992Y-1639874D01*
X3841327Y-1641869D01*
Y-1643199D01*
X3841992Y-1645195D01*
X3843322Y-1646525D01*
X3844653Y-1647190D01*
X3846648D01*
X3847978Y-1646525D01*
X3849308Y-1645195D01*
X3852301Y-1641869D02*
X3860282D01*
Y-1640539D01*
X3859617Y-1639209D01*
X3858952Y-1638544D01*
X3857622Y-1637879D01*
X3855627D01*
X3854297Y-1638544D01*
X3852966Y-1639874D01*
X3852301Y-1641869D01*
Y-1643199D01*
X3852966Y-1645195D01*
X3854297Y-1646525D01*
X3855627Y-1647190D01*
X3857622D01*
X3858952Y-1646525D01*
X3860282Y-1645195D01*
X3863275Y-1637879D02*
Y-1647190D01*
Y-1640539D02*
X3865271Y-1638544D01*
X3866601Y-1637879D01*
X3868596D01*
X3869926Y-1638544D01*
X3870591Y-1640539D01*
Y-1647190D01*
X3881566Y-1639874D02*
X3880900Y-1638544D01*
X3878905Y-1637879D01*
X3876910D01*
X3874915Y-1638544D01*
X3874249Y-1639874D01*
X3874915Y-1641204D01*
X3876245Y-1641869D01*
X3879570Y-1642534D01*
X3880900Y-1643199D01*
X3881566Y-1644530D01*
Y-1645195D01*
X3880900Y-1646525D01*
X3878905Y-1647190D01*
X3876910D01*
X3874915Y-1646525D01*
X3874249Y-1645195D01*
X3884492Y-1641869D02*
X3892473D01*
Y-1640539D01*
X3891808Y-1639209D01*
X3891143Y-1638544D01*
X3889813Y-1637879D01*
X3887817D01*
X3886487Y-1638544D01*
X3885157Y-1639874D01*
X3884492Y-1641869D01*
Y-1643199D01*
X3885157Y-1645195D01*
X3886487Y-1646525D01*
X3887817Y-1647190D01*
X3889813D01*
X3891143Y-1646525D01*
X3892473Y-1645195D01*
X3902782Y-1639874D02*
X3902117Y-1638544D01*
X3900121Y-1637879D01*
X3898126D01*
X3896131Y-1638544D01*
X3895466Y-1639874D01*
X3896131Y-1641204D01*
X3897461Y-1641869D01*
X3900787Y-1642534D01*
X3902117Y-1643199D01*
X3902782Y-1644530D01*
Y-1645195D01*
X3902117Y-1646525D01*
X3900121Y-1647190D01*
X3898126D01*
X3896131Y-1646525D01*
X3895466Y-1645195D01*
X3905708Y-1649185D02*
X3915020Y-1633223D01*
X3915951D02*
Y-1647190D01*
Y-1639874D02*
X3917281Y-1638544D01*
X3918611Y-1637879D01*
X3920607D01*
X3921937Y-1638544D01*
X3923267Y-1639874D01*
X3923932Y-1641869D01*
Y-1643199D01*
X3923267Y-1645195D01*
X3921937Y-1646525D01*
X3920607Y-1647190D01*
X3918611D01*
X3917281Y-1646525D01*
X3915951Y-1645195D01*
X3927590Y-1637879D02*
X3931581Y-1647190D01*
X3935571Y-1637879D02*
X3931581Y-1647190D01*
X3930251Y-1649850D01*
X3928920Y-1651181D01*
X3927590Y-1651846D01*
X3926925D01*
X3937899Y-1641204D02*
X3949871D01*
X3961310Y-1639874D02*
X3960645Y-1638544D01*
X3958650Y-1637879D01*
X3956655D01*
X3954659Y-1638544D01*
X3953994Y-1639874D01*
X3954659Y-1641204D01*
X3955990Y-1641869D01*
X3959315Y-1642534D01*
X3960645Y-1643199D01*
X3961310Y-1644530D01*
Y-1645195D01*
X3960645Y-1646525D01*
X3958650Y-1647190D01*
X3956655D01*
X3954659Y-1646525D01*
X3953994Y-1645195D01*
X3972218Y-1637879D02*
Y-1647190D01*
Y-1639874D02*
X3970888Y-1638544D01*
X3969557Y-1637879D01*
X3967562D01*
X3966232Y-1638544D01*
X3964902Y-1639874D01*
X3964237Y-1641869D01*
Y-1643199D01*
X3964902Y-1645195D01*
X3966232Y-1646525D01*
X3967562Y-1647190D01*
X3969557D01*
X3970888Y-1646525D01*
X3972218Y-1645195D01*
X3975942Y-1649185D02*
X3985254Y-1633223D01*
X3987515D02*
X3994831D01*
X3990841Y-1638544D01*
X3992836D01*
X3994166Y-1639209D01*
X3994831Y-1639874D01*
X3995497Y-1641869D01*
Y-1643199D01*
X3994831Y-1645195D01*
X3993501Y-1646525D01*
X3991506Y-1647190D01*
X3989510D01*
X3987515Y-1646525D01*
X3986850Y-1645860D01*
X3986185Y-1644530D01*
X3999287Y-1645860D02*
X3998622Y-1646525D01*
X3999287Y-1647190D01*
X3999952Y-1646525D01*
X3999287Y-1645860D01*
X4007003Y-1633223D02*
X4005007Y-1633888D01*
X4003677Y-1635883D01*
X4003012Y-1639209D01*
Y-1641204D01*
X4003677Y-1644530D01*
X4005007Y-1646525D01*
X4007003Y-1647190D01*
X4008333D01*
X4010328Y-1646525D01*
X4011658Y-1644530D01*
X4012323Y-1641204D01*
Y-1639209D01*
X4011658Y-1635883D01*
X4010328Y-1633888D01*
X4008333Y-1633223D01*
X4007003D01*
X4015449Y-1649185D02*
X4024761Y-1633223D01*
X4039991Y-1637879D02*
X4038661Y-1638544D01*
X4037331Y-1639874D01*
X4036666Y-1641869D01*
Y-1643199D01*
X4037331Y-1645195D01*
X4038661Y-1646525D01*
X4039991Y-1647190D01*
X4041986D01*
X4043317Y-1646525D01*
X4044647Y-1645195D01*
X4045312Y-1643199D01*
Y-1641869D01*
X4044647Y-1639874D01*
X4043317Y-1638544D01*
X4041986Y-1637879D01*
X4039991D01*
X4048372D02*
Y-1647190D01*
Y-1641869D02*
X4049037Y-1639874D01*
X4050367Y-1638544D01*
X4051697Y-1637879D01*
X4053692D01*
X4073246Y-1639874D02*
X4072581Y-1638544D01*
X4070586Y-1637879D01*
X4068590D01*
X4066595Y-1638544D01*
X4065930Y-1639874D01*
X4066595Y-1641204D01*
X4067925Y-1641869D01*
X4071251Y-1642534D01*
X4072581Y-1643199D01*
X4073246Y-1644530D01*
Y-1645195D01*
X4072581Y-1646525D01*
X4070586Y-1647190D01*
X4068590D01*
X4066595Y-1646525D01*
X4065930Y-1645195D01*
X4076172Y-1641869D02*
X4084154D01*
Y-1640539D01*
X4083488Y-1639209D01*
X4082823Y-1638544D01*
X4081493Y-1637879D01*
X4079498D01*
X4078168Y-1638544D01*
X4076837Y-1639874D01*
X4076172Y-1641869D01*
Y-1643199D01*
X4076837Y-1645195D01*
X4078168Y-1646525D01*
X4079498Y-1647190D01*
X4081493D01*
X4082823Y-1646525D01*
X4084154Y-1645195D01*
X4087147Y-1637879D02*
Y-1647190D01*
Y-1640539D02*
X4089142Y-1638544D01*
X4090472Y-1637879D01*
X4092467D01*
X4093798Y-1638544D01*
X4094463Y-1640539D01*
Y-1647190D01*
X4106102Y-1633223D02*
Y-1647190D01*
Y-1639874D02*
X4104771Y-1638544D01*
X4103441Y-1637879D01*
X4101446D01*
X4100116Y-1638544D01*
X4098786Y-1639874D01*
X4098121Y-1641869D01*
Y-1643199D01*
X4098786Y-1645195D01*
X4100116Y-1646525D01*
X4101446Y-1647190D01*
X4103441D01*
X4104771Y-1646525D01*
X4106102Y-1645195D01*
X3203301Y-1669629D02*
Y-1678940D01*
Y-1671624D02*
X3201971Y-1670294D01*
X3200641Y-1669629D01*
X3198646D01*
X3197315Y-1670294D01*
X3195985Y-1671624D01*
X3195320Y-1673619D01*
Y-1674949D01*
X3195985Y-1676945D01*
X3197315Y-1678275D01*
X3198646Y-1678940D01*
X3200641D01*
X3201971Y-1678275D01*
X3203301Y-1676945D01*
X3218000Y-1664973D02*
Y-1678940D01*
X3220926Y-1673619D02*
X3228907D01*
Y-1672289D01*
X3228242Y-1670959D01*
X3227577Y-1670294D01*
X3226247Y-1669629D01*
X3224252D01*
X3222921Y-1670294D01*
X3221591Y-1671624D01*
X3220926Y-1673619D01*
Y-1674949D01*
X3221591Y-1676945D01*
X3222921Y-1678275D01*
X3224252Y-1678940D01*
X3226247D01*
X3227577Y-1678275D01*
X3228907Y-1676945D01*
X3233896Y-1664973D02*
Y-1676280D01*
X3234561Y-1678275D01*
X3235891Y-1678940D01*
X3237221D01*
X3231900Y-1669629D02*
X3236556D01*
X3241212Y-1664973D02*
Y-1676280D01*
X3241877Y-1678275D01*
X3243207Y-1678940D01*
X3244537D01*
X3239216Y-1669629D02*
X3243872D01*
X3246532Y-1673619D02*
X3254514D01*
Y-1672289D01*
X3253848Y-1670959D01*
X3253183Y-1670294D01*
X3251853Y-1669629D01*
X3249858D01*
X3248528Y-1670294D01*
X3247198Y-1671624D01*
X3246532Y-1673619D01*
Y-1674949D01*
X3247198Y-1676945D01*
X3248528Y-1678275D01*
X3249858Y-1678940D01*
X3251853D01*
X3253183Y-1678275D01*
X3254514Y-1676945D01*
X3257506Y-1669629D02*
Y-1678940D01*
Y-1673619D02*
X3258171Y-1671624D01*
X3259502Y-1670294D01*
X3260832Y-1669629D01*
X3262827D01*
X3277060Y-1664973D02*
Y-1676280D01*
X3277725Y-1678275D01*
X3279055Y-1678940D01*
X3280386D01*
X3275065Y-1669629D02*
X3279720D01*
X3285706D02*
X3284376Y-1670294D01*
X3283046Y-1671624D01*
X3282381Y-1673619D01*
Y-1674949D01*
X3283046Y-1676945D01*
X3284376Y-1678275D01*
X3285706Y-1678940D01*
X3287702D01*
X3289032Y-1678275D01*
X3290362Y-1676945D01*
X3291027Y-1674949D01*
Y-1673619D01*
X3290362Y-1671624D01*
X3289032Y-1670294D01*
X3287702Y-1669629D01*
X3285706D01*
X3315037Y-1668298D02*
X3314372Y-1666968D01*
X3313042Y-1665638D01*
X3311712Y-1664973D01*
X3309051D01*
X3307721Y-1665638D01*
X3306391Y-1666968D01*
X3305726Y-1668298D01*
X3305061Y-1670294D01*
Y-1673619D01*
X3305726Y-1675614D01*
X3306391Y-1676945D01*
X3307721Y-1678275D01*
X3309051Y-1678940D01*
X3311712D01*
X3313042Y-1678275D01*
X3314372Y-1676945D01*
X3315037Y-1675614D01*
X3318961Y-1669629D02*
Y-1678940D01*
Y-1673619D02*
X3319626Y-1671624D01*
X3320957Y-1670294D01*
X3322287Y-1669629D01*
X3324282D01*
X3325546Y-1673619D02*
X3333527D01*
Y-1672289D01*
X3332862Y-1670959D01*
X3332197Y-1670294D01*
X3330866Y-1669629D01*
X3328871D01*
X3327541Y-1670294D01*
X3326211Y-1671624D01*
X3325546Y-1673619D01*
Y-1674949D01*
X3326211Y-1676945D01*
X3327541Y-1678275D01*
X3328871Y-1678940D01*
X3330866D01*
X3332197Y-1678275D01*
X3333527Y-1676945D01*
X3344501Y-1669629D02*
Y-1678940D01*
Y-1671624D02*
X3343171Y-1670294D01*
X3341841Y-1669629D01*
X3339845D01*
X3338515Y-1670294D01*
X3337185Y-1671624D01*
X3336520Y-1673619D01*
Y-1674949D01*
X3337185Y-1676945D01*
X3338515Y-1678275D01*
X3339845Y-1678940D01*
X3341841D01*
X3343171Y-1678275D01*
X3344501Y-1676945D01*
X3350221Y-1664973D02*
Y-1676280D01*
X3350886Y-1678275D01*
X3352216Y-1678940D01*
X3353546D01*
X3348225Y-1669629D02*
X3352881D01*
X3356872Y-1664973D02*
X3357537Y-1665638D01*
X3358202Y-1664973D01*
X3357537Y-1664308D01*
X3356872Y-1664973D01*
X3357537Y-1669629D02*
Y-1678940D01*
X3360663Y-1669629D02*
X3364653Y-1678940D01*
X3368644Y-1669629D02*
X3364653Y-1678940D01*
X3370905Y-1673619D02*
X3378886D01*
Y-1672289D01*
X3378221Y-1670959D01*
X3377556Y-1670294D01*
X3376226Y-1669629D01*
X3374231D01*
X3372900Y-1670294D01*
X3371570Y-1671624D01*
X3370905Y-1673619D01*
Y-1674949D01*
X3371570Y-1676945D01*
X3372900Y-1678275D01*
X3374231Y-1678940D01*
X3376226D01*
X3377556Y-1678275D01*
X3378886Y-1676945D01*
X3402830Y-1668298D02*
X3402165Y-1666968D01*
X3400834Y-1665638D01*
X3399504Y-1664973D01*
X3396844D01*
X3395514Y-1665638D01*
X3394184Y-1666968D01*
X3393518Y-1668298D01*
X3392853Y-1670294D01*
Y-1673619D01*
X3393518Y-1675614D01*
X3394184Y-1676945D01*
X3395514Y-1678275D01*
X3396844Y-1678940D01*
X3399504D01*
X3400834Y-1678275D01*
X3402165Y-1676945D01*
X3402830Y-1675614D01*
X3410079Y-1669629D02*
X3408749Y-1670294D01*
X3407419Y-1671624D01*
X3406754Y-1673619D01*
Y-1674949D01*
X3407419Y-1676945D01*
X3408749Y-1678275D01*
X3410079Y-1678940D01*
X3412075D01*
X3413405Y-1678275D01*
X3414735Y-1676945D01*
X3415400Y-1674949D01*
Y-1673619D01*
X3414735Y-1671624D01*
X3413405Y-1670294D01*
X3412075Y-1669629D01*
X3410079D01*
X3418459D02*
Y-1678940D01*
Y-1672289D02*
X3420455Y-1670294D01*
X3421785Y-1669629D01*
X3423781D01*
X3425110Y-1670294D01*
X3425775Y-1672289D01*
Y-1678940D01*
Y-1672289D02*
X3427771Y-1670294D01*
X3429101Y-1669629D01*
X3431096D01*
X3432426Y-1670294D01*
X3433092Y-1672289D01*
Y-1678940D01*
X3437481Y-1669629D02*
Y-1678940D01*
Y-1672289D02*
X3439477Y-1670294D01*
X3440807Y-1669629D01*
X3442802D01*
X3444132Y-1670294D01*
X3444797Y-1672289D01*
Y-1678940D01*
Y-1672289D02*
X3446793Y-1670294D01*
X3448123Y-1669629D01*
X3450118D01*
X3451448Y-1670294D01*
X3452113Y-1672289D01*
Y-1678940D01*
X3459828Y-1669629D02*
X3458498Y-1670294D01*
X3457168Y-1671624D01*
X3456503Y-1673619D01*
Y-1674949D01*
X3457168Y-1676945D01*
X3458498Y-1678275D01*
X3459828Y-1678940D01*
X3461824D01*
X3463154Y-1678275D01*
X3464484Y-1676945D01*
X3465149Y-1674949D01*
Y-1673619D01*
X3464484Y-1671624D01*
X3463154Y-1670294D01*
X3461824Y-1669629D01*
X3459828D01*
X3468209D02*
Y-1678940D01*
Y-1672289D02*
X3470204Y-1670294D01*
X3471534Y-1669629D01*
X3473529D01*
X3474860Y-1670294D01*
X3475525Y-1672289D01*
Y-1678940D01*
X3486499Y-1671624D02*
X3485834Y-1670294D01*
X3483839Y-1669629D01*
X3481843D01*
X3479848Y-1670294D01*
X3479183Y-1671624D01*
X3479848Y-1672954D01*
X3481178Y-1673619D01*
X3484503Y-1674284D01*
X3485834Y-1674949D01*
X3486499Y-1676280D01*
Y-1676945D01*
X3485834Y-1678275D01*
X3483839Y-1678940D01*
X3481843D01*
X3479848Y-1678275D01*
X3479183Y-1676945D01*
X3490756Y-1678275D02*
X3490090Y-1678940D01*
X3489425Y-1678275D01*
X3490090Y-1677610D01*
X3490756Y-1678275D01*
Y-1679605D01*
X3490090Y-1680935D01*
X3489425Y-1681600D01*
X3504789Y-1667633D02*
X3506119Y-1666968D01*
X3508114Y-1664973D01*
Y-1678940D01*
X3524343Y-1664973D02*
X3517692Y-1678940D01*
X3515031Y-1664973D02*
X3524343D01*
X3527469Y-1667633D02*
X3528799Y-1666968D01*
X3530794Y-1664973D01*
Y-1678940D01*
X3557997Y-1666968D02*
X3556666Y-1665638D01*
X3554671Y-1664973D01*
X3552011D01*
X3550016Y-1665638D01*
X3548685Y-1666968D01*
Y-1668298D01*
X3549350Y-1669629D01*
X3550016Y-1670294D01*
X3551346Y-1670959D01*
X3555336Y-1672289D01*
X3556666Y-1672954D01*
X3557332Y-1673619D01*
X3557997Y-1674949D01*
Y-1676945D01*
X3556666Y-1678275D01*
X3554671Y-1678940D01*
X3552011D01*
X3550016Y-1678275D01*
X3548685Y-1676945D01*
X3561123Y-1673619D02*
X3569104D01*
Y-1672289D01*
X3568439Y-1670959D01*
X3567773Y-1670294D01*
X3566443Y-1669629D01*
X3564448D01*
X3563118Y-1670294D01*
X3561788Y-1671624D01*
X3561123Y-1673619D01*
Y-1674949D01*
X3561788Y-1676945D01*
X3563118Y-1678275D01*
X3564448Y-1678940D01*
X3566443D01*
X3567773Y-1678275D01*
X3569104Y-1676945D01*
X3580078Y-1671624D02*
X3578748Y-1670294D01*
X3577417Y-1669629D01*
X3575422D01*
X3574092Y-1670294D01*
X3572762Y-1671624D01*
X3572097Y-1673619D01*
Y-1674949D01*
X3572762Y-1676945D01*
X3574092Y-1678275D01*
X3575422Y-1678940D01*
X3577417D01*
X3578748Y-1678275D01*
X3580078Y-1676945D01*
X3586396Y-1669629D02*
X3585066Y-1670294D01*
X3583736Y-1671624D01*
X3583071Y-1673619D01*
Y-1674949D01*
X3583736Y-1676945D01*
X3585066Y-1678275D01*
X3586396Y-1678940D01*
X3588391D01*
X3589722Y-1678275D01*
X3591052Y-1676945D01*
X3591717Y-1674949D01*
Y-1673619D01*
X3591052Y-1671624D01*
X3589722Y-1670294D01*
X3588391Y-1669629D01*
X3586396D01*
X3594776D02*
Y-1678940D01*
Y-1672289D02*
X3596772Y-1670294D01*
X3598102Y-1669629D01*
X3600097D01*
X3601427Y-1670294D01*
X3602093Y-1672289D01*
Y-1678940D01*
X3613732Y-1664973D02*
Y-1678940D01*
Y-1671624D02*
X3612401Y-1670294D01*
X3611071Y-1669629D01*
X3609076D01*
X3607746Y-1670294D01*
X3606416Y-1671624D01*
X3605750Y-1673619D01*
Y-1674949D01*
X3606416Y-1676945D01*
X3607746Y-1678275D01*
X3609076Y-1678940D01*
X3611071D01*
X3612401Y-1678275D01*
X3613732Y-1676945D01*
X3637742Y-1666968D02*
X3636411Y-1665638D01*
X3634416Y-1664973D01*
X3631756D01*
X3629760Y-1665638D01*
X3628430Y-1666968D01*
Y-1668298D01*
X3629095Y-1669629D01*
X3629760Y-1670294D01*
X3631091Y-1670959D01*
X3635081Y-1672289D01*
X3636411Y-1672954D01*
X3637076Y-1673619D01*
X3637742Y-1674949D01*
Y-1676945D01*
X3636411Y-1678275D01*
X3634416Y-1678940D01*
X3631756D01*
X3629760Y-1678275D01*
X3628430Y-1676945D01*
X3642863Y-1664973D02*
Y-1676280D01*
X3643528Y-1678275D01*
X3644858Y-1678940D01*
X3646188D01*
X3640868Y-1669629D02*
X3645523D01*
X3648184D02*
Y-1678940D01*
Y-1673619D02*
X3648849Y-1671624D01*
X3650179Y-1670294D01*
X3651509Y-1669629D01*
X3653504D01*
X3654768Y-1673619D02*
X3662749D01*
Y-1672289D01*
X3662084Y-1670959D01*
X3661419Y-1670294D01*
X3660089Y-1669629D01*
X3658094D01*
X3656763Y-1670294D01*
X3655433Y-1671624D01*
X3654768Y-1673619D01*
Y-1674949D01*
X3655433Y-1676945D01*
X3656763Y-1678275D01*
X3658094Y-1678940D01*
X3660089D01*
X3661419Y-1678275D01*
X3662749Y-1676945D01*
X3665742Y-1673619D02*
X3673723D01*
Y-1672289D01*
X3673058Y-1670959D01*
X3672393Y-1670294D01*
X3671063Y-1669629D01*
X3669068D01*
X3667737Y-1670294D01*
X3666407Y-1671624D01*
X3665742Y-1673619D01*
Y-1674949D01*
X3666407Y-1676945D01*
X3667737Y-1678275D01*
X3669068Y-1678940D01*
X3671063D01*
X3672393Y-1678275D01*
X3673723Y-1676945D01*
X3678712Y-1664973D02*
Y-1676280D01*
X3679377Y-1678275D01*
X3680707Y-1678940D01*
X3682037D01*
X3676716Y-1669629D02*
X3681372D01*
X3685363Y-1678275D02*
X3684697Y-1678940D01*
X3684032Y-1678275D01*
X3684697Y-1677610D01*
X3685363Y-1678275D01*
Y-1679605D01*
X3684697Y-1680935D01*
X3684032Y-1681600D01*
X3708707Y-1666968D02*
X3707377Y-1665638D01*
X3705382Y-1664973D01*
X3702721D01*
X3700726Y-1665638D01*
X3699396Y-1666968D01*
Y-1668298D01*
X3700061Y-1669629D01*
X3700726Y-1670294D01*
X3702056Y-1670959D01*
X3706047Y-1672289D01*
X3707377Y-1672954D01*
X3708042Y-1673619D01*
X3708707Y-1674949D01*
Y-1676945D01*
X3707377Y-1678275D01*
X3705382Y-1678940D01*
X3702721D01*
X3700726Y-1678275D01*
X3699396Y-1676945D01*
X3711833Y-1669629D02*
Y-1676280D01*
X3712498Y-1678275D01*
X3713828Y-1678940D01*
X3715824D01*
X3717154Y-1678275D01*
X3719149Y-1676280D01*
Y-1669629D02*
Y-1678940D01*
X3724138Y-1664973D02*
X3724803Y-1665638D01*
X3725468Y-1664973D01*
X3724803Y-1664308D01*
X3724138Y-1664973D01*
X3724803Y-1669629D02*
Y-1678940D01*
X3729924Y-1664973D02*
Y-1676280D01*
X3730589Y-1678275D01*
X3731919Y-1678940D01*
X3733249D01*
X3727928Y-1669629D02*
X3732584D01*
X3735245Y-1673619D02*
X3743226D01*
Y-1672289D01*
X3742561Y-1670959D01*
X3741895Y-1670294D01*
X3740565Y-1669629D01*
X3738570D01*
X3737240Y-1670294D01*
X3735910Y-1671624D01*
X3735245Y-1673619D01*
Y-1674949D01*
X3735910Y-1676945D01*
X3737240Y-1678275D01*
X3738570Y-1678940D01*
X3740565D01*
X3741895Y-1678275D01*
X3743226Y-1676945D01*
X3758523Y-1664973D02*
X3765839D01*
X3761848Y-1670294D01*
X3763844D01*
X3765174Y-1670959D01*
X3765839Y-1671624D01*
X3766504Y-1673619D01*
Y-1674949D01*
X3765839Y-1676945D01*
X3764509Y-1678275D01*
X3762513Y-1678940D01*
X3760518D01*
X3758523Y-1678275D01*
X3757858Y-1677610D01*
X3757193Y-1676280D01*
X3773621Y-1664973D02*
X3771625Y-1665638D01*
X3770295Y-1667633D01*
X3769630Y-1670959D01*
Y-1672954D01*
X3770295Y-1676280D01*
X3771625Y-1678275D01*
X3773621Y-1678940D01*
X3774951D01*
X3776946Y-1678275D01*
X3778276Y-1676280D01*
X3778941Y-1672954D01*
Y-1670959D01*
X3778276Y-1667633D01*
X3776946Y-1665638D01*
X3774951Y-1664973D01*
X3773621D01*
X3786058D02*
X3784062Y-1665638D01*
X3782733Y-1667633D01*
X3782067Y-1670959D01*
Y-1672954D01*
X3782733Y-1676280D01*
X3784062Y-1678275D01*
X3786058Y-1678940D01*
X3787388D01*
X3789384Y-1678275D01*
X3790714Y-1676280D01*
X3791378Y-1672954D01*
Y-1670959D01*
X3790714Y-1667633D01*
X3789384Y-1665638D01*
X3787388Y-1664973D01*
X3786058D01*
X3795835Y-1678275D02*
X3795170Y-1678940D01*
X3794505Y-1678275D01*
X3795170Y-1677610D01*
X3795835Y-1678275D01*
Y-1679605D01*
X3795170Y-1680935D01*
X3794505Y-1681600D01*
X3819180Y-1666968D02*
X3817849Y-1665638D01*
X3815854Y-1664973D01*
X3813194D01*
X3811198Y-1665638D01*
X3809868Y-1666968D01*
Y-1668298D01*
X3810533Y-1669629D01*
X3811198Y-1670294D01*
X3812529Y-1670959D01*
X3816519Y-1672289D01*
X3817849Y-1672954D01*
X3818514Y-1673619D01*
X3819180Y-1674949D01*
Y-1676945D01*
X3817849Y-1678275D01*
X3815854Y-1678940D01*
X3813194D01*
X3811198Y-1678275D01*
X3809868Y-1676945D01*
X3830287Y-1669629D02*
Y-1678940D01*
Y-1671624D02*
X3828957Y-1670294D01*
X3827626Y-1669629D01*
X3825631D01*
X3824301Y-1670294D01*
X3822971Y-1671624D01*
X3822306Y-1673619D01*
Y-1674949D01*
X3822971Y-1676945D01*
X3824301Y-1678275D01*
X3825631Y-1678940D01*
X3827626D01*
X3828957Y-1678275D01*
X3830287Y-1676945D01*
X3834011Y-1669629D02*
Y-1678940D01*
Y-1672289D02*
X3836006Y-1670294D01*
X3837337Y-1669629D01*
X3839332D01*
X3840662Y-1670294D01*
X3841327Y-1672289D01*
Y-1678940D01*
X3855959Y-1664973D02*
Y-1678940D01*
Y-1664973D02*
X3864606D01*
X3855959Y-1671624D02*
X3861280D01*
X3866202Y-1669629D02*
Y-1678940D01*
Y-1673619D02*
X3866867Y-1671624D01*
X3868197Y-1670294D01*
X3869527Y-1669629D01*
X3871523D01*
X3880768D02*
Y-1678940D01*
Y-1671624D02*
X3879437Y-1670294D01*
X3878107Y-1669629D01*
X3876112D01*
X3874781Y-1670294D01*
X3873452Y-1671624D01*
X3872786Y-1673619D01*
Y-1674949D01*
X3873452Y-1676945D01*
X3874781Y-1678275D01*
X3876112Y-1678940D01*
X3878107D01*
X3879437Y-1678275D01*
X3880768Y-1676945D01*
X3884492Y-1669629D02*
Y-1678940D01*
Y-1672289D02*
X3886487Y-1670294D01*
X3887817Y-1669629D01*
X3889813D01*
X3891143Y-1670294D01*
X3891808Y-1672289D01*
Y-1678940D01*
X3903447Y-1671624D02*
X3902117Y-1670294D01*
X3900787Y-1669629D01*
X3898792D01*
X3897462Y-1670294D01*
X3896131Y-1671624D01*
X3895466Y-1673619D01*
Y-1674949D01*
X3896131Y-1676945D01*
X3897462Y-1678275D01*
X3898792Y-1678940D01*
X3900787D01*
X3902117Y-1678275D01*
X3903447Y-1676945D01*
X3907770Y-1664973D02*
X3908435Y-1665638D01*
X3909101Y-1664973D01*
X3908435Y-1664308D01*
X3907770Y-1664973D01*
X3908435Y-1669629D02*
Y-1678940D01*
X3918877Y-1671624D02*
X3918212Y-1670294D01*
X3916217Y-1669629D01*
X3914222D01*
X3912227Y-1670294D01*
X3911561Y-1671624D01*
X3912227Y-1672954D01*
X3913557Y-1673619D01*
X3916882Y-1674284D01*
X3918212Y-1674949D01*
X3918877Y-1676280D01*
Y-1676945D01*
X3918212Y-1678275D01*
X3916217Y-1678940D01*
X3914222D01*
X3912227Y-1678275D01*
X3911561Y-1676945D01*
X3929785Y-1671624D02*
X3928455Y-1670294D01*
X3927125Y-1669629D01*
X3925129D01*
X3923799Y-1670294D01*
X3922469Y-1671624D01*
X3921804Y-1673619D01*
Y-1674949D01*
X3922469Y-1676945D01*
X3923799Y-1678275D01*
X3925129Y-1678940D01*
X3927125D01*
X3928455Y-1678275D01*
X3929785Y-1676945D01*
X3936104Y-1669629D02*
X3934773Y-1670294D01*
X3933443Y-1671624D01*
X3932778Y-1673619D01*
Y-1674949D01*
X3933443Y-1676945D01*
X3934773Y-1678275D01*
X3936104Y-1678940D01*
X3938099D01*
X3939429Y-1678275D01*
X3940759Y-1676945D01*
X3941424Y-1674949D01*
Y-1673619D01*
X3940759Y-1671624D01*
X3939429Y-1670294D01*
X3938099Y-1669629D01*
X3936104D01*
X3945814Y-1678275D02*
X3945149Y-1678940D01*
X3944484Y-1678275D01*
X3945149Y-1677610D01*
X3945814Y-1678275D01*
Y-1679605D01*
X3945149Y-1680935D01*
X3944484Y-1681600D01*
X3969824Y-1668298D02*
X3969159Y-1666968D01*
X3967828Y-1665638D01*
X3966498Y-1664973D01*
X3963838D01*
X3962508Y-1665638D01*
X3961177Y-1666968D01*
X3960512Y-1668298D01*
X3959847Y-1670294D01*
Y-1673619D01*
X3960512Y-1675614D01*
X3961177Y-1676945D01*
X3962508Y-1678275D01*
X3963838Y-1678940D01*
X3966498D01*
X3967828Y-1678275D01*
X3969159Y-1676945D01*
X3969824Y-1675614D01*
X3981729Y-1669629D02*
Y-1678940D01*
Y-1671624D02*
X3980399Y-1670294D01*
X3979069Y-1669629D01*
X3977073D01*
X3975743Y-1670294D01*
X3974413Y-1671624D01*
X3973748Y-1673619D01*
Y-1674949D01*
X3974413Y-1676945D01*
X3975743Y-1678275D01*
X3977073Y-1678940D01*
X3979069D01*
X3980399Y-1678275D01*
X3981729Y-1676945D01*
X3985453Y-1664973D02*
Y-1678940D01*
X3989710Y-1664973D02*
X3990375Y-1665638D01*
X3991040Y-1664973D01*
X3990375Y-1664308D01*
X3989710Y-1664973D01*
X3990375Y-1669629D02*
Y-1678940D01*
X3998822Y-1664973D02*
X3997492D01*
X3996161Y-1665638D01*
X3995497Y-1667633D01*
Y-1678940D01*
X3993501Y-1669629D02*
X3998157D01*
X4004143D02*
X4002812Y-1670294D01*
X4001482Y-1671624D01*
X4000817Y-1673619D01*
Y-1674949D01*
X4001482Y-1676945D01*
X4002812Y-1678275D01*
X4004143Y-1678940D01*
X4006138D01*
X4007468Y-1678275D01*
X4008798Y-1676945D01*
X4009464Y-1674949D01*
Y-1673619D01*
X4008798Y-1671624D01*
X4007468Y-1670294D01*
X4006138Y-1669629D01*
X4004143D01*
X4012523D02*
Y-1678940D01*
Y-1673619D02*
X4013188Y-1671624D01*
X4014518Y-1670294D01*
X4015848Y-1669629D01*
X4017844D01*
X4019107D02*
Y-1678940D01*
Y-1672289D02*
X4021103Y-1670294D01*
X4022433Y-1669629D01*
X4024428D01*
X4025758Y-1670294D01*
X4026423Y-1672289D01*
Y-1678940D01*
X4031412Y-1664973D02*
X4032077Y-1665638D01*
X4032742Y-1664973D01*
X4032077Y-1664308D01*
X4031412Y-1664973D01*
X4032077Y-1669629D02*
Y-1678940D01*
X4043184Y-1669629D02*
Y-1678940D01*
Y-1671624D02*
X4041854Y-1670294D01*
X4040523Y-1669629D01*
X4038528D01*
X4037198Y-1670294D01*
X4035868Y-1671624D01*
X4035203Y-1673619D01*
Y-1674949D01*
X4035868Y-1676945D01*
X4037198Y-1678275D01*
X4038528Y-1678940D01*
X4040523D01*
X4041854Y-1678275D01*
X4043184Y-1676945D01*
X4048239Y-1678275D02*
X4047574Y-1678940D01*
X4046908Y-1678275D01*
X4047574Y-1677610D01*
X4048239Y-1678275D01*
Y-1679605D01*
X4047574Y-1680935D01*
X4046908Y-1681600D01*
X4070918Y-1669629D02*
X4070253Y-1671624D01*
X4068923Y-1672954D01*
X4066928Y-1673619D01*
X4066263D01*
X4064267Y-1672954D01*
X4062937Y-1671624D01*
X4062272Y-1669629D01*
Y-1668964D01*
X4062937Y-1666968D01*
X4064267Y-1665638D01*
X4066263Y-1664973D01*
X4066928D01*
X4068923Y-1665638D01*
X4070253Y-1666968D01*
X4070918Y-1669629D01*
Y-1672954D01*
X4070253Y-1676280D01*
X4068923Y-1678275D01*
X4066928Y-1678940D01*
X4065598D01*
X4063602Y-1678275D01*
X4062937Y-1676945D01*
X4081360Y-1664973D02*
X4074709Y-1674284D01*
X4084686D01*
X4081360Y-1664973D02*
Y-1678940D01*
X4087147Y-1667633D02*
X4088477Y-1666968D01*
X4090472Y-1664973D01*
Y-1678940D01*
X4101380Y-1664973D02*
X4099384Y-1665638D01*
X4098054Y-1667633D01*
X4097389Y-1670959D01*
Y-1672954D01*
X4098054Y-1676280D01*
X4099384Y-1678275D01*
X4101380Y-1678940D01*
X4102710D01*
X4104705Y-1678275D01*
X4106035Y-1676280D01*
X4106700Y-1672954D01*
Y-1670959D01*
X4106035Y-1667633D01*
X4104705Y-1665638D01*
X4102710Y-1664973D01*
X4101380D01*
X4117808D02*
X4111157D01*
X4110491Y-1670959D01*
X4111157Y-1670294D01*
X4113152Y-1669629D01*
X4115147D01*
X4117142Y-1670294D01*
X4118473Y-1671624D01*
X4119138Y-1673619D01*
Y-1674949D01*
X4118473Y-1676945D01*
X4117142Y-1678275D01*
X4115147Y-1678940D01*
X4113152D01*
X4111157Y-1678275D01*
X4110491Y-1677610D01*
X4109826Y-1676280D01*
X4123594Y-1678275D02*
X4122929Y-1678940D01*
X4122263Y-1678275D01*
X4122929Y-1677610D01*
X4123594Y-1678275D01*
Y-1679605D01*
X4122929Y-1680935D01*
X4122263Y-1681600D01*
X4137627Y-1664973D02*
Y-1674949D01*
X4138293Y-1676945D01*
X4139622Y-1678275D01*
X4141618Y-1678940D01*
X4142948D01*
X4144944Y-1678275D01*
X4146273Y-1676945D01*
X4146939Y-1674949D01*
Y-1664973D01*
X4160108Y-1666968D02*
X4158777Y-1665638D01*
X4156782Y-1664973D01*
X4154122D01*
X4152126Y-1665638D01*
X4150796Y-1666968D01*
Y-1668298D01*
X4151461Y-1669629D01*
X4152126Y-1670294D01*
X4153457Y-1670959D01*
X4157447Y-1672289D01*
X4158777Y-1672954D01*
X4159442Y-1673619D01*
X4160108Y-1674949D01*
Y-1676945D01*
X4158777Y-1678275D01*
X4156782Y-1678940D01*
X4154122D01*
X4152126Y-1678275D01*
X4150796Y-1676945D01*
X4173875Y-1678940D02*
X4168554Y-1664973D01*
X4163234Y-1678940D01*
X4165229Y-1674284D02*
X4171880D01*
X4177799Y-1677610D02*
X4177134Y-1678275D01*
X4177799Y-1678940D01*
X4178464Y-1678275D01*
X4177799Y-1677610D01*
X3205962Y-1710690D02*
X3200641Y-1696723D01*
X3195320Y-1710690D01*
X3197315Y-1706034D02*
X3203966D01*
X3209221Y-1696723D02*
Y-1710690D01*
X3212147Y-1696723D02*
Y-1710690D01*
X3234029Y-1696723D02*
Y-1710690D01*
Y-1703374D02*
X3232698Y-1702044D01*
X3231368Y-1701379D01*
X3229373D01*
X3228043Y-1702044D01*
X3226713Y-1703374D01*
X3226047Y-1705369D01*
Y-1706699D01*
X3226713Y-1708695D01*
X3228043Y-1710025D01*
X3229373Y-1710690D01*
X3231368D01*
X3232698Y-1710025D01*
X3234029Y-1708695D01*
X3237753Y-1705369D02*
X3245734D01*
Y-1704039D01*
X3245069Y-1702709D01*
X3244404Y-1702044D01*
X3243074Y-1701379D01*
X3241078D01*
X3239749Y-1702044D01*
X3238418Y-1703374D01*
X3237753Y-1705369D01*
Y-1706699D01*
X3238418Y-1708695D01*
X3239749Y-1710025D01*
X3241078Y-1710690D01*
X3243074D01*
X3244404Y-1710025D01*
X3245734Y-1708695D01*
X3248727Y-1701379D02*
Y-1710690D01*
Y-1705369D02*
X3249392Y-1703374D01*
X3250722Y-1702044D01*
X3252053Y-1701379D01*
X3254048D01*
X3256642Y-1696723D02*
X3257307Y-1697388D01*
X3257972Y-1696723D01*
X3257307Y-1696058D01*
X3256642Y-1696723D01*
X3257307Y-1701379D02*
Y-1710690D01*
X3260433Y-1701379D02*
X3264424Y-1710690D01*
X3268414Y-1701379D02*
X3264424Y-1710690D01*
X3278656Y-1701379D02*
Y-1710690D01*
Y-1703374D02*
X3277326Y-1702044D01*
X3275996Y-1701379D01*
X3274001D01*
X3272671Y-1702044D01*
X3271340Y-1703374D01*
X3270675Y-1705369D01*
Y-1706699D01*
X3271340Y-1708695D01*
X3272671Y-1710025D01*
X3274001Y-1710690D01*
X3275996D01*
X3277326Y-1710025D01*
X3278656Y-1708695D01*
X3284376Y-1696723D02*
Y-1708030D01*
X3285042Y-1710025D01*
X3286371Y-1710690D01*
X3287702D01*
X3282381Y-1701379D02*
X3287037D01*
X3291027Y-1696723D02*
X3291692Y-1697388D01*
X3292357Y-1696723D01*
X3291692Y-1696058D01*
X3291027Y-1696723D01*
X3291692Y-1701379D02*
Y-1710690D01*
X3294818Y-1701379D02*
X3298809Y-1710690D01*
X3302799Y-1701379D02*
X3298809Y-1710690D01*
X3305061Y-1705369D02*
X3313042D01*
Y-1704039D01*
X3312377Y-1702709D01*
X3311712Y-1702044D01*
X3310381Y-1701379D01*
X3308386D01*
X3307056Y-1702044D01*
X3305726Y-1703374D01*
X3305061Y-1705369D01*
Y-1706699D01*
X3305726Y-1708695D01*
X3307056Y-1710025D01*
X3308386Y-1710690D01*
X3310381D01*
X3311712Y-1710025D01*
X3313042Y-1708695D01*
X3327009Y-1701379D02*
X3329669Y-1710690D01*
X3332330Y-1701379D02*
X3329669Y-1710690D01*
X3332330Y-1701379D02*
X3334990Y-1710690D01*
X3337650Y-1701379D02*
X3334990Y-1710690D01*
X3344235Y-1701379D02*
X3342905Y-1702044D01*
X3341574Y-1703374D01*
X3340909Y-1705369D01*
Y-1706699D01*
X3341574Y-1708695D01*
X3342905Y-1710025D01*
X3344235Y-1710690D01*
X3346230D01*
X3347560Y-1710025D01*
X3348890Y-1708695D01*
X3349556Y-1706699D01*
Y-1705369D01*
X3348890Y-1703374D01*
X3347560Y-1702044D01*
X3346230Y-1701379D01*
X3344235D01*
X3352615D02*
Y-1710690D01*
Y-1705369D02*
X3353280Y-1703374D01*
X3354610Y-1702044D01*
X3355941Y-1701379D01*
X3357936D01*
X3359200Y-1696723D02*
Y-1710690D01*
X3365851Y-1701379D02*
X3359200Y-1708030D01*
X3361860Y-1705369D02*
X3366516Y-1710690D01*
X3376027Y-1703374D02*
X3375361Y-1702044D01*
X3373366Y-1701379D01*
X3371371D01*
X3369376Y-1702044D01*
X3368710Y-1703374D01*
X3369376Y-1704704D01*
X3370706Y-1705369D01*
X3374031Y-1706034D01*
X3375361Y-1706699D01*
X3376027Y-1708030D01*
Y-1708695D01*
X3375361Y-1710025D01*
X3373366Y-1710690D01*
X3371371D01*
X3369376Y-1710025D01*
X3368710Y-1708695D01*
X3397908Y-1701379D02*
Y-1710690D01*
Y-1703374D02*
X3396578Y-1702044D01*
X3395248Y-1701379D01*
X3393252D01*
X3391922Y-1702044D01*
X3390592Y-1703374D01*
X3389927Y-1705369D01*
Y-1706699D01*
X3390592Y-1708695D01*
X3391922Y-1710025D01*
X3393252Y-1710690D01*
X3395248D01*
X3396578Y-1710025D01*
X3397908Y-1708695D01*
X3401633Y-1701379D02*
Y-1710690D01*
Y-1705369D02*
X3402298Y-1703374D01*
X3403628Y-1702044D01*
X3404958Y-1701379D01*
X3406953D01*
X3408217Y-1705369D02*
X3416198D01*
Y-1704039D01*
X3415533Y-1702709D01*
X3414868Y-1702044D01*
X3413538Y-1701379D01*
X3411543D01*
X3410212Y-1702044D01*
X3408882Y-1703374D01*
X3408217Y-1705369D01*
Y-1706699D01*
X3408882Y-1708695D01*
X3410212Y-1710025D01*
X3411543Y-1710690D01*
X3413538D01*
X3414868Y-1710025D01*
X3416198Y-1708695D01*
X3432161Y-1696723D02*
Y-1708030D01*
X3432826Y-1710025D01*
X3434156Y-1710690D01*
X3435486D01*
X3430165Y-1701379D02*
X3434821D01*
X3440807D02*
X3439477Y-1702044D01*
X3438146Y-1703374D01*
X3437481Y-1705369D01*
Y-1706699D01*
X3438146Y-1708695D01*
X3439477Y-1710025D01*
X3440807Y-1710690D01*
X3442802D01*
X3444132Y-1710025D01*
X3445462Y-1708695D01*
X3446128Y-1706699D01*
Y-1705369D01*
X3445462Y-1703374D01*
X3444132Y-1702044D01*
X3442802Y-1701379D01*
X3440807D01*
X3460161Y-1696723D02*
Y-1710690D01*
Y-1703374D02*
X3461491Y-1702044D01*
X3462821Y-1701379D01*
X3464817D01*
X3466147Y-1702044D01*
X3467477Y-1703374D01*
X3468142Y-1705369D01*
Y-1706699D01*
X3467477Y-1708695D01*
X3466147Y-1710025D01*
X3464817Y-1710690D01*
X3462821D01*
X3461491Y-1710025D01*
X3460161Y-1708695D01*
X3471135Y-1705369D02*
X3479116D01*
Y-1704039D01*
X3478451Y-1702709D01*
X3477786Y-1702044D01*
X3476456Y-1701379D01*
X3474460D01*
X3473130Y-1702044D01*
X3471800Y-1703374D01*
X3471135Y-1705369D01*
Y-1706699D01*
X3471800Y-1708695D01*
X3473130Y-1710025D01*
X3474460Y-1710690D01*
X3476456D01*
X3477786Y-1710025D01*
X3479116Y-1708695D01*
X3501064Y-1701379D02*
Y-1710690D01*
Y-1703374D02*
X3499734Y-1702044D01*
X3498404Y-1701379D01*
X3496409D01*
X3495079Y-1702044D01*
X3493748Y-1703374D01*
X3493083Y-1705369D01*
Y-1706699D01*
X3493748Y-1708695D01*
X3495079Y-1710025D01*
X3496409Y-1710690D01*
X3498404D01*
X3499734Y-1710025D01*
X3501064Y-1708695D01*
X3506784Y-1696723D02*
Y-1708030D01*
X3507449Y-1710025D01*
X3508780Y-1710690D01*
X3510110D01*
X3504789Y-1701379D02*
X3509445D01*
X3514100Y-1696723D02*
Y-1708030D01*
X3514765Y-1710025D01*
X3516096Y-1710690D01*
X3517426D01*
X3512105Y-1701379D02*
X3516761D01*
X3519421D02*
Y-1710690D01*
Y-1705369D02*
X3520086Y-1703374D01*
X3521416Y-1702044D01*
X3522747Y-1701379D01*
X3524742D01*
X3527336Y-1696723D02*
X3528001Y-1697388D01*
X3528666Y-1696723D01*
X3528001Y-1696058D01*
X3527336Y-1696723D01*
X3528001Y-1701379D02*
Y-1710690D01*
X3531127Y-1696723D02*
Y-1710690D01*
Y-1703374D02*
X3532457Y-1702044D01*
X3533787Y-1701379D01*
X3535782D01*
X3537113Y-1702044D01*
X3538443Y-1703374D01*
X3539108Y-1705369D01*
Y-1706699D01*
X3538443Y-1708695D01*
X3537113Y-1710025D01*
X3535782Y-1710690D01*
X3533787D01*
X3532457Y-1710025D01*
X3531127Y-1708695D01*
X3542101Y-1701379D02*
Y-1708030D01*
X3542766Y-1710025D01*
X3544096Y-1710690D01*
X3546091D01*
X3547422Y-1710025D01*
X3549417Y-1708030D01*
Y-1701379D02*
Y-1710690D01*
X3555070Y-1696723D02*
Y-1708030D01*
X3555735Y-1710025D01*
X3557065Y-1710690D01*
X3558396D01*
X3553075Y-1701379D02*
X3557731D01*
X3560391Y-1705369D02*
X3568372D01*
Y-1704039D01*
X3567707Y-1702709D01*
X3567042Y-1702044D01*
X3565712Y-1701379D01*
X3563716D01*
X3562386Y-1702044D01*
X3561056Y-1703374D01*
X3560391Y-1705369D01*
Y-1706699D01*
X3561056Y-1708695D01*
X3562386Y-1710025D01*
X3563716Y-1710690D01*
X3565712D01*
X3567042Y-1710025D01*
X3568372Y-1708695D01*
X3579346Y-1696723D02*
Y-1710690D01*
Y-1703374D02*
X3578016Y-1702044D01*
X3576686Y-1701379D01*
X3574691D01*
X3573360Y-1702044D01*
X3572030Y-1703374D01*
X3571365Y-1705369D01*
Y-1706699D01*
X3572030Y-1708695D01*
X3573360Y-1710025D01*
X3574691Y-1710690D01*
X3576686D01*
X3578016Y-1710025D01*
X3579346Y-1708695D01*
X3596040Y-1696723D02*
Y-1708030D01*
X3596705Y-1710025D01*
X3598035Y-1710690D01*
X3599366D01*
X3594045Y-1701379D02*
X3598700D01*
X3604686D02*
X3603356Y-1702044D01*
X3602026Y-1703374D01*
X3601361Y-1705369D01*
Y-1706699D01*
X3602026Y-1708695D01*
X3603356Y-1710025D01*
X3604686Y-1710690D01*
X3606682D01*
X3608012Y-1710025D01*
X3609342Y-1708695D01*
X3610007Y-1706699D01*
Y-1705369D01*
X3609342Y-1703374D01*
X3608012Y-1702044D01*
X3606682Y-1701379D01*
X3604686D01*
X3634017Y-1700049D02*
X3633352Y-1698718D01*
X3632022Y-1697388D01*
X3630692Y-1696723D01*
X3628031D01*
X3626701Y-1697388D01*
X3625371Y-1698718D01*
X3624706Y-1700049D01*
X3624041Y-1702044D01*
Y-1705369D01*
X3624706Y-1707365D01*
X3625371Y-1708695D01*
X3626701Y-1710025D01*
X3628031Y-1710690D01*
X3630692D01*
X3632022Y-1710025D01*
X3633352Y-1708695D01*
X3634017Y-1707365D01*
X3639271Y-1696723D02*
X3639937Y-1697388D01*
X3640602Y-1696723D01*
X3639937Y-1696058D01*
X3639271Y-1696723D01*
X3639937Y-1701379D02*
Y-1710690D01*
X3643062Y-1701379D02*
Y-1710690D01*
Y-1705369D02*
X3643727Y-1703374D01*
X3645058Y-1702044D01*
X3646388Y-1701379D01*
X3648383D01*
X3657628Y-1703374D02*
X3656298Y-1702044D01*
X3654968Y-1701379D01*
X3652972D01*
X3651642Y-1702044D01*
X3650312Y-1703374D01*
X3649647Y-1705369D01*
Y-1706699D01*
X3650312Y-1708695D01*
X3651642Y-1710025D01*
X3652972Y-1710690D01*
X3654968D01*
X3656298Y-1710025D01*
X3657628Y-1708695D01*
X3660621Y-1701379D02*
Y-1708030D01*
X3661286Y-1710025D01*
X3662616Y-1710690D01*
X3664612D01*
X3665941Y-1710025D01*
X3667937Y-1708030D01*
Y-1701379D02*
Y-1710690D01*
X3672925Y-1696723D02*
X3673590Y-1697388D01*
X3674255Y-1696723D01*
X3673590Y-1696058D01*
X3672925Y-1696723D01*
X3673590Y-1701379D02*
Y-1710690D01*
X3678712Y-1696723D02*
Y-1708030D01*
X3679377Y-1710025D01*
X3680707Y-1710690D01*
X3682037D01*
X3676716Y-1701379D02*
X3681372D01*
X3694008Y-1700049D02*
X3693344Y-1698718D01*
X3692013Y-1697388D01*
X3690683Y-1696723D01*
X3688023D01*
X3686693Y-1697388D01*
X3685363Y-1698718D01*
X3684697Y-1700049D01*
X3684032Y-1702044D01*
Y-1705369D01*
X3684697Y-1707365D01*
X3685363Y-1708695D01*
X3686693Y-1710025D01*
X3688023Y-1710690D01*
X3690683D01*
X3692013Y-1710025D01*
X3693344Y-1708695D01*
X3694008Y-1707365D01*
X3701258Y-1701379D02*
X3699928Y-1702044D01*
X3698598Y-1703374D01*
X3697933Y-1705369D01*
Y-1706699D01*
X3698598Y-1708695D01*
X3699928Y-1710025D01*
X3701258Y-1710690D01*
X3703253D01*
X3704584Y-1710025D01*
X3705914Y-1708695D01*
X3706579Y-1706699D01*
Y-1705369D01*
X3705914Y-1703374D01*
X3704584Y-1702044D01*
X3703253Y-1701379D01*
X3701258D01*
X3720612Y-1696723D02*
Y-1710690D01*
X3728594D01*
X3730123Y-1696723D02*
Y-1710690D01*
X3738105D01*
X3749611Y-1700049D02*
X3748946Y-1698718D01*
X3747615Y-1697388D01*
X3746285Y-1696723D01*
X3743625D01*
X3742295Y-1697388D01*
X3740964Y-1698718D01*
X3740299Y-1700049D01*
X3739634Y-1702044D01*
Y-1705369D01*
X3740299Y-1707365D01*
X3740964Y-1708695D01*
X3742295Y-1710025D01*
X3743625Y-1710690D01*
X3746285D01*
X3747615Y-1710025D01*
X3748946Y-1708695D01*
X3749611Y-1707365D01*
X3754200Y-1709360D02*
X3753535Y-1710025D01*
X3754200Y-1710690D01*
X3754865Y-1710025D01*
X3754200Y-1709360D01*
X3195320Y-1728473D02*
Y-1742440D01*
Y-1728473D02*
X3203966D01*
X3195320Y-1735124D02*
X3200641D01*
X3208888Y-1733129D02*
X3207558Y-1733794D01*
X3206228Y-1735124D01*
X3205562Y-1737119D01*
Y-1738449D01*
X3206228Y-1740445D01*
X3207558Y-1741775D01*
X3208888Y-1742440D01*
X3210883D01*
X3212213Y-1741775D01*
X3213544Y-1740445D01*
X3214209Y-1738449D01*
Y-1737119D01*
X3213544Y-1735124D01*
X3212213Y-1733794D01*
X3210883Y-1733129D01*
X3208888D01*
X3217268D02*
Y-1742440D01*
Y-1737119D02*
X3217933Y-1735124D01*
X3219264Y-1733794D01*
X3220594Y-1733129D01*
X3222589D01*
X3234827D02*
Y-1742440D01*
Y-1735789D02*
X3236822Y-1733794D01*
X3238152Y-1733129D01*
X3240147D01*
X3241478Y-1733794D01*
X3242143Y-1735789D01*
Y-1742440D01*
Y-1735789D02*
X3244138Y-1733794D01*
X3245468Y-1733129D01*
X3247463D01*
X3248794Y-1733794D01*
X3249459Y-1735789D01*
Y-1742440D01*
X3257174Y-1733129D02*
X3255844Y-1733794D01*
X3254514Y-1735124D01*
X3253848Y-1737119D01*
Y-1738449D01*
X3254514Y-1740445D01*
X3255844Y-1741775D01*
X3257174Y-1742440D01*
X3259169D01*
X3260499Y-1741775D01*
X3261830Y-1740445D01*
X3262495Y-1738449D01*
Y-1737119D01*
X3261830Y-1735124D01*
X3260499Y-1733794D01*
X3259169Y-1733129D01*
X3257174D01*
X3265554D02*
Y-1742440D01*
Y-1737119D02*
X3266219Y-1735124D01*
X3267549Y-1733794D01*
X3268880Y-1733129D01*
X3270875D01*
X3272138Y-1737119D02*
X3280120D01*
Y-1735789D01*
X3279455Y-1734459D01*
X3278789Y-1733794D01*
X3277459Y-1733129D01*
X3275464D01*
X3274134Y-1733794D01*
X3272804Y-1735124D01*
X3272138Y-1737119D01*
Y-1738449D01*
X3272804Y-1740445D01*
X3274134Y-1741775D01*
X3275464Y-1742440D01*
X3277459D01*
X3278789Y-1741775D01*
X3280120Y-1740445D01*
X3295417Y-1728473D02*
X3296082Y-1729138D01*
X3296747Y-1728473D01*
X3296082Y-1727808D01*
X3295417Y-1728473D01*
X3296082Y-1733129D02*
Y-1742440D01*
X3299208Y-1733129D02*
Y-1742440D01*
Y-1735789D02*
X3301203Y-1733794D01*
X3302533Y-1733129D01*
X3304529D01*
X3305859Y-1733794D01*
X3306524Y-1735789D01*
Y-1742440D01*
X3315503Y-1728473D02*
X3314172D01*
X3312842Y-1729138D01*
X3312177Y-1731133D01*
Y-1742440D01*
X3310182Y-1733129D02*
X3314838D01*
X3320823D02*
X3319493Y-1733794D01*
X3318163Y-1735124D01*
X3317498Y-1737119D01*
Y-1738449D01*
X3318163Y-1740445D01*
X3319493Y-1741775D01*
X3320823Y-1742440D01*
X3322819D01*
X3324149Y-1741775D01*
X3325479Y-1740445D01*
X3326144Y-1738449D01*
Y-1737119D01*
X3325479Y-1735124D01*
X3324149Y-1733794D01*
X3322819Y-1733129D01*
X3320823D01*
X3329204D02*
Y-1742440D01*
Y-1737119D02*
X3329869Y-1735124D01*
X3331199Y-1733794D01*
X3332529Y-1733129D01*
X3334525D01*
X3335788D02*
Y-1742440D01*
Y-1735789D02*
X3337784Y-1733794D01*
X3339113Y-1733129D01*
X3341109D01*
X3342439Y-1733794D01*
X3343104Y-1735789D01*
Y-1742440D01*
Y-1735789D02*
X3345099Y-1733794D01*
X3346430Y-1733129D01*
X3348425D01*
X3349755Y-1733794D01*
X3350420Y-1735789D01*
Y-1742440D01*
X3362791Y-1733129D02*
Y-1742440D01*
Y-1735124D02*
X3361461Y-1733794D01*
X3360131Y-1733129D01*
X3358135D01*
X3356805Y-1733794D01*
X3355475Y-1735124D01*
X3354810Y-1737119D01*
Y-1738449D01*
X3355475Y-1740445D01*
X3356805Y-1741775D01*
X3358135Y-1742440D01*
X3360131D01*
X3361461Y-1741775D01*
X3362791Y-1740445D01*
X3368511Y-1728473D02*
Y-1739780D01*
X3369176Y-1741775D01*
X3370506Y-1742440D01*
X3371837D01*
X3366516Y-1733129D02*
X3371171D01*
X3375162Y-1728473D02*
X3375827Y-1729138D01*
X3376492Y-1728473D01*
X3375827Y-1727808D01*
X3375162Y-1728473D01*
X3375827Y-1733129D02*
Y-1742440D01*
X3382278Y-1733129D02*
X3380948Y-1733794D01*
X3379618Y-1735124D01*
X3378953Y-1737119D01*
Y-1738449D01*
X3379618Y-1740445D01*
X3380948Y-1741775D01*
X3382278Y-1742440D01*
X3384274D01*
X3385604Y-1741775D01*
X3386934Y-1740445D01*
X3387599Y-1738449D01*
Y-1737119D01*
X3386934Y-1735124D01*
X3385604Y-1733794D01*
X3384274Y-1733129D01*
X3382278D01*
X3390659D02*
Y-1742440D01*
Y-1735789D02*
X3392654Y-1733794D01*
X3393984Y-1733129D01*
X3395979D01*
X3397310Y-1733794D01*
X3397975Y-1735789D01*
Y-1742440D01*
X3402963Y-1741775D02*
X3402298Y-1742440D01*
X3401633Y-1741775D01*
X3402298Y-1741110D01*
X3402963Y-1741775D01*
Y-1743105D01*
X3402298Y-1744435D01*
X3401633Y-1745100D01*
X3424312Y-1735124D02*
X3423647Y-1733794D01*
X3421652Y-1733129D01*
X3419657D01*
X3417661Y-1733794D01*
X3416996Y-1735124D01*
X3417661Y-1736454D01*
X3418992Y-1737119D01*
X3422317Y-1737784D01*
X3423647Y-1738449D01*
X3424312Y-1739780D01*
Y-1740445D01*
X3423647Y-1741775D01*
X3421652Y-1742440D01*
X3419657D01*
X3417661Y-1741775D01*
X3416996Y-1740445D01*
X3427239Y-1737119D02*
X3435220D01*
Y-1735789D01*
X3434555Y-1734459D01*
X3433890Y-1733794D01*
X3432560Y-1733129D01*
X3430564D01*
X3429234Y-1733794D01*
X3427904Y-1735124D01*
X3427239Y-1737119D01*
Y-1738449D01*
X3427904Y-1740445D01*
X3429234Y-1741775D01*
X3430564Y-1742440D01*
X3432560D01*
X3433890Y-1741775D01*
X3435220Y-1740445D01*
X3438213Y-1737119D02*
X3446194D01*
Y-1735789D01*
X3445529Y-1734459D01*
X3444864Y-1733794D01*
X3443534Y-1733129D01*
X3441538D01*
X3440208Y-1733794D01*
X3438878Y-1735124D01*
X3438213Y-1737119D01*
Y-1738449D01*
X3438878Y-1740445D01*
X3440208Y-1741775D01*
X3441538Y-1742440D01*
X3443534D01*
X3444864Y-1741775D01*
X3446194Y-1740445D01*
X3460161Y-1728473D02*
Y-1742440D01*
Y-1735789D02*
X3462156Y-1733794D01*
X3463487Y-1733129D01*
X3465482D01*
X3466812Y-1733794D01*
X3467477Y-1735789D01*
Y-1742440D01*
X3473130Y-1728473D02*
Y-1739780D01*
X3473795Y-1741775D01*
X3475126Y-1742440D01*
X3476456D01*
X3471135Y-1733129D02*
X3475791D01*
X3480446Y-1728473D02*
Y-1739780D01*
X3481111Y-1741775D01*
X3482442Y-1742440D01*
X3483772D01*
X3478451Y-1733129D02*
X3483107D01*
X3485767D02*
Y-1747096D01*
Y-1735124D02*
X3487097Y-1733794D01*
X3488428Y-1733129D01*
X3490423D01*
X3491753Y-1733794D01*
X3493083Y-1735124D01*
X3493748Y-1737119D01*
Y-1738449D01*
X3493083Y-1740445D01*
X3491753Y-1741775D01*
X3490423Y-1742440D01*
X3488428D01*
X3487097Y-1741775D01*
X3485767Y-1740445D01*
X3497406Y-1733129D02*
X3496741Y-1733794D01*
X3497406Y-1734459D01*
X3498072Y-1733794D01*
X3497406Y-1733129D01*
Y-1741110D02*
X3496741Y-1741775D01*
X3497406Y-1742440D01*
X3498072Y-1741775D01*
X3497406Y-1741110D01*
X3501131Y-1744435D02*
X3510442Y-1728473D01*
X3511373Y-1744435D02*
X3520685Y-1728473D01*
X3529597Y-1735124D02*
X3528267Y-1733794D01*
X3526937Y-1733129D01*
X3524941D01*
X3523611Y-1733794D01*
X3522281Y-1735124D01*
X3521616Y-1737119D01*
Y-1738449D01*
X3522281Y-1740445D01*
X3523611Y-1741775D01*
X3524941Y-1742440D01*
X3526937D01*
X3528267Y-1741775D01*
X3529597Y-1740445D01*
X3532590Y-1733129D02*
Y-1742440D01*
Y-1737119D02*
X3533255Y-1735124D01*
X3534585Y-1733794D01*
X3535916Y-1733129D01*
X3537911D01*
X3539174Y-1737119D02*
X3547155D01*
Y-1735789D01*
X3546490Y-1734459D01*
X3545825Y-1733794D01*
X3544495Y-1733129D01*
X3542500D01*
X3541170Y-1733794D01*
X3539839Y-1735124D01*
X3539174Y-1737119D01*
Y-1738449D01*
X3539839Y-1740445D01*
X3541170Y-1741775D01*
X3542500Y-1742440D01*
X3544495D01*
X3545825Y-1741775D01*
X3547155Y-1740445D01*
X3558130Y-1733129D02*
Y-1742440D01*
Y-1735124D02*
X3556799Y-1733794D01*
X3555469Y-1733129D01*
X3553474D01*
X3552144Y-1733794D01*
X3550814Y-1735124D01*
X3550148Y-1737119D01*
Y-1738449D01*
X3550814Y-1740445D01*
X3552144Y-1741775D01*
X3553474Y-1742440D01*
X3555469D01*
X3556799Y-1741775D01*
X3558130Y-1740445D01*
X3563849Y-1728473D02*
Y-1739780D01*
X3564514Y-1741775D01*
X3565845Y-1742440D01*
X3567175D01*
X3561854Y-1733129D02*
X3566510D01*
X3570500Y-1728473D02*
X3571165Y-1729138D01*
X3571831Y-1728473D01*
X3571165Y-1727808D01*
X3570500Y-1728473D01*
X3571165Y-1733129D02*
Y-1742440D01*
X3574291Y-1733129D02*
X3578282Y-1742440D01*
X3582273Y-1733129D02*
X3578282Y-1742440D01*
X3584534Y-1737119D02*
X3592515D01*
Y-1735789D01*
X3591850Y-1734459D01*
X3591185Y-1733794D01*
X3589855Y-1733129D01*
X3587859D01*
X3586529Y-1733794D01*
X3585199Y-1735124D01*
X3584534Y-1737119D01*
Y-1738449D01*
X3585199Y-1740445D01*
X3586529Y-1741775D01*
X3587859Y-1742440D01*
X3589855D01*
X3591185Y-1741775D01*
X3592515Y-1740445D01*
X3603489Y-1735124D02*
X3602159Y-1733794D01*
X3600829Y-1733129D01*
X3598833D01*
X3597503Y-1733794D01*
X3596173Y-1735124D01*
X3595508Y-1737119D01*
Y-1738449D01*
X3596173Y-1740445D01*
X3597503Y-1741775D01*
X3598833Y-1742440D01*
X3600829D01*
X3602159Y-1741775D01*
X3603489Y-1740445D01*
X3609807Y-1733129D02*
X3608477Y-1733794D01*
X3607147Y-1735124D01*
X3606482Y-1737119D01*
Y-1738449D01*
X3607147Y-1740445D01*
X3608477Y-1741775D01*
X3609807Y-1742440D01*
X3611803D01*
X3613133Y-1741775D01*
X3614463Y-1740445D01*
X3615128Y-1738449D01*
Y-1737119D01*
X3614463Y-1735124D01*
X3613133Y-1733794D01*
X3611803Y-1733129D01*
X3609807D01*
X3618188D02*
Y-1742440D01*
Y-1735789D02*
X3620183Y-1733794D01*
X3621513Y-1733129D01*
X3623509D01*
X3624839Y-1733794D01*
X3625504Y-1735789D01*
Y-1742440D01*
Y-1735789D02*
X3627499Y-1733794D01*
X3628829Y-1733129D01*
X3630825D01*
X3632155Y-1733794D01*
X3632820Y-1735789D01*
Y-1742440D01*
X3637209Y-1733129D02*
Y-1742440D01*
Y-1735789D02*
X3639205Y-1733794D01*
X3640535Y-1733129D01*
X3642530D01*
X3643860Y-1733794D01*
X3644525Y-1735789D01*
Y-1742440D01*
Y-1735789D02*
X3646521Y-1733794D01*
X3647851Y-1733129D01*
X3649846D01*
X3651176Y-1733794D01*
X3651842Y-1735789D01*
Y-1742440D01*
X3659557Y-1733129D02*
X3658227Y-1733794D01*
X3656896Y-1735124D01*
X3656231Y-1737119D01*
Y-1738449D01*
X3656896Y-1740445D01*
X3658227Y-1741775D01*
X3659557Y-1742440D01*
X3661552D01*
X3662882Y-1741775D01*
X3664212Y-1740445D01*
X3664877Y-1738449D01*
Y-1737119D01*
X3664212Y-1735124D01*
X3662882Y-1733794D01*
X3661552Y-1733129D01*
X3659557D01*
X3667937D02*
Y-1742440D01*
Y-1735789D02*
X3669932Y-1733794D01*
X3671263Y-1733129D01*
X3673258D01*
X3674588Y-1733794D01*
X3675253Y-1735789D01*
Y-1742440D01*
X3686227Y-1735124D02*
X3685562Y-1733794D01*
X3683567Y-1733129D01*
X3681571D01*
X3679576Y-1733794D01*
X3678911Y-1735124D01*
X3679576Y-1736454D01*
X3680906Y-1737119D01*
X3684232Y-1737784D01*
X3685562Y-1738449D01*
X3686227Y-1739780D01*
Y-1740445D01*
X3685562Y-1741775D01*
X3683567Y-1742440D01*
X3681571D01*
X3679576Y-1741775D01*
X3678911Y-1740445D01*
X3689818Y-1741110D02*
X3689153Y-1741775D01*
X3689818Y-1742440D01*
X3690484Y-1741775D01*
X3689818Y-1741110D01*
X3696869Y-1733129D02*
X3695538Y-1733794D01*
X3694208Y-1735124D01*
X3693543Y-1737119D01*
Y-1738449D01*
X3694208Y-1740445D01*
X3695538Y-1741775D01*
X3696869Y-1742440D01*
X3698864D01*
X3700194Y-1741775D01*
X3701524Y-1740445D01*
X3702189Y-1738449D01*
Y-1737119D01*
X3701524Y-1735124D01*
X3700194Y-1733794D01*
X3698864Y-1733129D01*
X3696869D01*
X3705249D02*
Y-1742440D01*
Y-1737119D02*
X3705914Y-1735124D01*
X3707244Y-1733794D01*
X3708574Y-1733129D01*
X3710569D01*
X3719814D02*
Y-1743770D01*
X3719149Y-1745766D01*
X3718484Y-1746431D01*
X3717154Y-1747096D01*
X3715159D01*
X3713828Y-1746431D01*
X3719814Y-1735124D02*
X3718484Y-1733794D01*
X3717154Y-1733129D01*
X3715159D01*
X3713828Y-1733794D01*
X3712498Y-1735124D01*
X3711833Y-1737119D01*
Y-1738449D01*
X3712498Y-1740445D01*
X3713828Y-1741775D01*
X3715159Y-1742440D01*
X3717154D01*
X3718484Y-1741775D01*
X3719814Y-1740445D01*
X3723539Y-1744435D02*
X3732850Y-1728473D01*
X3733781D02*
Y-1742440D01*
X3738038Y-1728473D02*
X3738703Y-1729138D01*
X3739368Y-1728473D01*
X3738703Y-1727808D01*
X3738038Y-1728473D01*
X3738703Y-1733129D02*
Y-1742440D01*
X3749810Y-1735124D02*
X3748480Y-1733794D01*
X3747150Y-1733129D01*
X3745154D01*
X3743824Y-1733794D01*
X3742494Y-1735124D01*
X3741829Y-1737119D01*
Y-1738449D01*
X3742494Y-1740445D01*
X3743824Y-1741775D01*
X3745154Y-1742440D01*
X3747150D01*
X3748480Y-1741775D01*
X3749810Y-1740445D01*
X3752803Y-1737119D02*
X3760784D01*
Y-1735789D01*
X3760119Y-1734459D01*
X3759454Y-1733794D01*
X3758124Y-1733129D01*
X3756129D01*
X3754798Y-1733794D01*
X3753468Y-1735124D01*
X3752803Y-1737119D01*
Y-1738449D01*
X3753468Y-1740445D01*
X3754798Y-1741775D01*
X3756129Y-1742440D01*
X3758124D01*
X3759454Y-1741775D01*
X3760784Y-1740445D01*
X3763777Y-1733129D02*
Y-1742440D01*
Y-1735789D02*
X3765772Y-1733794D01*
X3767103Y-1733129D01*
X3769098D01*
X3770428Y-1733794D01*
X3771093Y-1735789D01*
Y-1742440D01*
X3782067Y-1735124D02*
X3781402Y-1733794D01*
X3779407Y-1733129D01*
X3777411D01*
X3775416Y-1733794D01*
X3774751Y-1735124D01*
X3775416Y-1736454D01*
X3776747Y-1737119D01*
X3780072Y-1737784D01*
X3781402Y-1738449D01*
X3782067Y-1739780D01*
Y-1740445D01*
X3781402Y-1741775D01*
X3779407Y-1742440D01*
X3777411D01*
X3775416Y-1741775D01*
X3774751Y-1740445D01*
X3784994Y-1737119D02*
X3792975D01*
Y-1735789D01*
X3792310Y-1734459D01*
X3791645Y-1733794D01*
X3790314Y-1733129D01*
X3788319D01*
X3786989Y-1733794D01*
X3785659Y-1735124D01*
X3784994Y-1737119D01*
Y-1738449D01*
X3785659Y-1740445D01*
X3786989Y-1741775D01*
X3788319Y-1742440D01*
X3790314D01*
X3791645Y-1741775D01*
X3792975Y-1740445D01*
X3795968Y-1744435D02*
X3805279Y-1728473D01*
X3806210Y-1733129D02*
Y-1742440D01*
Y-1737119D02*
X3806875Y-1735124D01*
X3808206Y-1733794D01*
X3809536Y-1733129D01*
X3811531D01*
X3812795Y-1737119D02*
X3820776D01*
Y-1735789D01*
X3820111Y-1734459D01*
X3819445Y-1733794D01*
X3818116Y-1733129D01*
X3816120D01*
X3814790Y-1733794D01*
X3813460Y-1735124D01*
X3812795Y-1737119D01*
Y-1738449D01*
X3813460Y-1740445D01*
X3814790Y-1741775D01*
X3816120Y-1742440D01*
X3818116D01*
X3819445Y-1741775D01*
X3820776Y-1740445D01*
X3831085Y-1735124D02*
X3830420Y-1733794D01*
X3828424Y-1733129D01*
X3826429D01*
X3824434Y-1733794D01*
X3823769Y-1735124D01*
X3824434Y-1736454D01*
X3825764Y-1737119D01*
X3829089Y-1737784D01*
X3830420Y-1738449D01*
X3831085Y-1739780D01*
Y-1740445D01*
X3830420Y-1741775D01*
X3828424Y-1742440D01*
X3826429D01*
X3824434Y-1741775D01*
X3823769Y-1740445D01*
X3834011Y-1733129D02*
Y-1739780D01*
X3834676Y-1741775D01*
X3836006Y-1742440D01*
X3838002D01*
X3839332Y-1741775D01*
X3841327Y-1739780D01*
Y-1733129D02*
Y-1742440D01*
X3844985Y-1728473D02*
Y-1742440D01*
X3849907Y-1728473D02*
Y-1739780D01*
X3850572Y-1741775D01*
X3851902Y-1742440D01*
X3853232D01*
X3847912Y-1733129D02*
X3852567D01*
X3862544Y-1735124D02*
X3861879Y-1733794D01*
X3859883Y-1733129D01*
X3857888D01*
X3855893Y-1733794D01*
X3855228Y-1735124D01*
X3855893Y-1736454D01*
X3857223Y-1737119D01*
X3860548Y-1737784D01*
X3861879Y-1738449D01*
X3862544Y-1739780D01*
Y-1740445D01*
X3861879Y-1741775D01*
X3859883Y-1742440D01*
X3857888D01*
X3855893Y-1741775D01*
X3855228Y-1740445D01*
X3865470Y-1736454D02*
X3877442D01*
X3884891Y-1733129D02*
X3883561Y-1733794D01*
X3882231Y-1735124D01*
X3881566Y-1737119D01*
Y-1738449D01*
X3882231Y-1740445D01*
X3883561Y-1741775D01*
X3884891Y-1742440D01*
X3886886D01*
X3888217Y-1741775D01*
X3889547Y-1740445D01*
X3890212Y-1738449D01*
Y-1737119D01*
X3889547Y-1735124D01*
X3888217Y-1733794D01*
X3886886Y-1733129D01*
X3884891D01*
X3893271D02*
Y-1742440D01*
Y-1735789D02*
X3895266Y-1733794D01*
X3896597Y-1733129D01*
X3898592D01*
X3899922Y-1733794D01*
X3900587Y-1735789D01*
Y-1742440D01*
X3904245Y-1737119D02*
X3912226D01*
Y-1735789D01*
X3911561Y-1734459D01*
X3910896Y-1733794D01*
X3909566Y-1733129D01*
X3907571D01*
X3906241Y-1733794D01*
X3904910Y-1735124D01*
X3904245Y-1737119D01*
Y-1738449D01*
X3904910Y-1740445D01*
X3906241Y-1741775D01*
X3907571Y-1742440D01*
X3909566D01*
X3910896Y-1741775D01*
X3912226Y-1740445D01*
X3915219Y-1731799D02*
Y-1731133D01*
X3915884Y-1729803D01*
X3916550Y-1729138D01*
X3917880Y-1728473D01*
X3920540D01*
X3921870Y-1729138D01*
X3922535Y-1729803D01*
X3923200Y-1731133D01*
Y-1732464D01*
X3922535Y-1733794D01*
X3921870Y-1734459D01*
X3919210Y-1735789D01*
Y-1737784D01*
Y-1741110D02*
X3918545Y-1741775D01*
X3919210Y-1742440D01*
X3919875Y-1741775D01*
X3919210Y-1741110D01*
X3926194Y-1728473D02*
Y-1742440D01*
X3930450Y-1728473D02*
X3931115Y-1729138D01*
X3931780Y-1728473D01*
X3931115Y-1727808D01*
X3930450Y-1728473D01*
X3931115Y-1733129D02*
Y-1742440D01*
X3942222Y-1735124D02*
X3940892Y-1733794D01*
X3939562Y-1733129D01*
X3937567D01*
X3936236Y-1733794D01*
X3934906Y-1735124D01*
X3934241Y-1737119D01*
Y-1738449D01*
X3934906Y-1740445D01*
X3936236Y-1741775D01*
X3937567Y-1742440D01*
X3939562D01*
X3940892Y-1741775D01*
X3942222Y-1740445D01*
X3945215Y-1737119D02*
X3953196D01*
Y-1735789D01*
X3952531Y-1734459D01*
X3951866Y-1733794D01*
X3950536Y-1733129D01*
X3948541D01*
X3947210Y-1733794D01*
X3945880Y-1735124D01*
X3945215Y-1737119D01*
Y-1738449D01*
X3945880Y-1740445D01*
X3947210Y-1741775D01*
X3948541Y-1742440D01*
X3950536D01*
X3951866Y-1741775D01*
X3953196Y-1740445D01*
X3956189Y-1733129D02*
Y-1742440D01*
Y-1735789D02*
X3958185Y-1733794D01*
X3959515Y-1733129D01*
X3961510D01*
X3962840Y-1733794D01*
X3963505Y-1735789D01*
Y-1742440D01*
X3974479Y-1735124D02*
X3973814Y-1733794D01*
X3971819Y-1733129D01*
X3969824D01*
X3967828Y-1733794D01*
X3967163Y-1735124D01*
X3967828Y-1736454D01*
X3969159Y-1737119D01*
X3972484Y-1737784D01*
X3973814Y-1738449D01*
X3974479Y-1739780D01*
Y-1740445D01*
X3973814Y-1741775D01*
X3971819Y-1742440D01*
X3969824D01*
X3967828Y-1741775D01*
X3967163Y-1740445D01*
X3977406Y-1737119D02*
X3985387D01*
Y-1735789D01*
X3984722Y-1734459D01*
X3984057Y-1733794D01*
X3982726Y-1733129D01*
X3980731D01*
X3979401Y-1733794D01*
X3978071Y-1735124D01*
X3977406Y-1737119D01*
Y-1738449D01*
X3978071Y-1740445D01*
X3979401Y-1741775D01*
X3980731Y-1742440D01*
X3982726D01*
X3984057Y-1741775D01*
X3985387Y-1740445D01*
X3988380Y-1747096D02*
X3999021D01*
X4008798Y-1735124D02*
X4007468Y-1733794D01*
X4006138Y-1733129D01*
X4004142D01*
X4002812Y-1733794D01*
X4001482Y-1735124D01*
X4000817Y-1737119D01*
Y-1738449D01*
X4001482Y-1740445D01*
X4002812Y-1741775D01*
X4004142Y-1742440D01*
X4006138D01*
X4007468Y-1741775D01*
X4008798Y-1740445D01*
X4015117Y-1733129D02*
X4013787Y-1733794D01*
X4012456Y-1735124D01*
X4011791Y-1737119D01*
Y-1738449D01*
X4012456Y-1740445D01*
X4013787Y-1741775D01*
X4015117Y-1742440D01*
X4017112D01*
X4018442Y-1741775D01*
X4019772Y-1740445D01*
X4020437Y-1738449D01*
Y-1737119D01*
X4019772Y-1735124D01*
X4018442Y-1733794D01*
X4017112Y-1733129D01*
X4015117D01*
X4031478Y-1728473D02*
Y-1742440D01*
Y-1735124D02*
X4030148Y-1733794D01*
X4028818Y-1733129D01*
X4026823D01*
X4025492Y-1733794D01*
X4024162Y-1735124D01*
X4023497Y-1737119D01*
Y-1738449D01*
X4024162Y-1740445D01*
X4025492Y-1741775D01*
X4026823Y-1742440D01*
X4028818D01*
X4030148Y-1741775D01*
X4031478Y-1740445D01*
X4035203Y-1737119D02*
X4043184D01*
Y-1735789D01*
X4042519Y-1734459D01*
X4041854Y-1733794D01*
X4040523Y-1733129D01*
X4038528D01*
X4037198Y-1733794D01*
X4035868Y-1735124D01*
X4035203Y-1737119D01*
Y-1738449D01*
X4035868Y-1740445D01*
X4037198Y-1741775D01*
X4038528Y-1742440D01*
X4040523D01*
X4041854Y-1741775D01*
X4043184Y-1740445D01*
X4046176Y-1734459D02*
X4058148D01*
X4046176Y-1738449D02*
X4058148D01*
X4062272Y-1728473D02*
Y-1742440D01*
Y-1735124D02*
X4063602Y-1733794D01*
X4064932Y-1733129D01*
X4066927D01*
X4068258Y-1733794D01*
X4069588Y-1735124D01*
X4070253Y-1737119D01*
Y-1738449D01*
X4069588Y-1740445D01*
X4068258Y-1741775D01*
X4066927Y-1742440D01*
X4064932D01*
X4063602Y-1741775D01*
X4062272Y-1740445D01*
X4073911Y-1733129D02*
X4077902Y-1742440D01*
X4081892Y-1733129D02*
X4077902Y-1742440D01*
X4076571Y-1745100D01*
X4075241Y-1746431D01*
X4073911Y-1747096D01*
X4073246D01*
X4084220Y-1736454D02*
X4096192D01*
X4107632Y-1735124D02*
X4106966Y-1733794D01*
X4104971Y-1733129D01*
X4102976D01*
X4100981Y-1733794D01*
X4100316Y-1735124D01*
X4100981Y-1736454D01*
X4102311Y-1737119D01*
X4105636Y-1737784D01*
X4106966Y-1738449D01*
X4107632Y-1739780D01*
Y-1740445D01*
X4106966Y-1741775D01*
X4104971Y-1742440D01*
X4102976D01*
X4100981Y-1741775D01*
X4100316Y-1740445D01*
X4118539Y-1733129D02*
Y-1742440D01*
Y-1735124D02*
X4117209Y-1733794D01*
X4115879Y-1733129D01*
X4113883D01*
X4112553Y-1733794D01*
X4111223Y-1735124D01*
X4110558Y-1737119D01*
Y-1738449D01*
X4111223Y-1740445D01*
X4112553Y-1741775D01*
X4113883Y-1742440D01*
X4115879D01*
X4117209Y-1741775D01*
X4118539Y-1740445D01*
X3199976Y-1601473D02*
Y-1615440D01*
X3195320Y-1601473D02*
X3204631D01*
X3206294D02*
Y-1615440D01*
Y-1608789D02*
X3208289Y-1606794D01*
X3209619Y-1606129D01*
X3211615D01*
X3212945Y-1606794D01*
X3213610Y-1608789D01*
Y-1615440D01*
X3218598Y-1601473D02*
X3219263Y-1602138D01*
X3219929Y-1601473D01*
X3219263Y-1600808D01*
X3218598Y-1601473D01*
X3219263Y-1606129D02*
Y-1615440D01*
X3229706Y-1608124D02*
X3229040Y-1606794D01*
X3227045Y-1606129D01*
X3225050D01*
X3223055Y-1606794D01*
X3222390Y-1608124D01*
X3223055Y-1609454D01*
X3224385Y-1610119D01*
X3227710Y-1610784D01*
X3229040Y-1611449D01*
X3229706Y-1612780D01*
Y-1613445D01*
X3229040Y-1614775D01*
X3227045Y-1615440D01*
X3225050D01*
X3223055Y-1614775D01*
X3222390Y-1613445D01*
X3243606Y-1606129D02*
X3246266Y-1615440D01*
X3248927Y-1606129D02*
X3246266Y-1615440D01*
X3248927Y-1606129D02*
X3251587Y-1615440D01*
X3254247Y-1606129D02*
X3251587Y-1615440D01*
X3260832Y-1606129D02*
X3259502Y-1606794D01*
X3258171Y-1608124D01*
X3257506Y-1610119D01*
Y-1611449D01*
X3258171Y-1613445D01*
X3259502Y-1614775D01*
X3260832Y-1615440D01*
X3262827D01*
X3264157Y-1614775D01*
X3265488Y-1613445D01*
X3266153Y-1611449D01*
Y-1610119D01*
X3265488Y-1608124D01*
X3264157Y-1606794D01*
X3262827Y-1606129D01*
X3260832D01*
X3269212D02*
Y-1615440D01*
Y-1610119D02*
X3269877Y-1608124D01*
X3271207Y-1606794D01*
X3272538Y-1606129D01*
X3274533D01*
X3275797Y-1601473D02*
Y-1615440D01*
X3282448Y-1606129D02*
X3275797Y-1612780D01*
X3278457Y-1610119D02*
X3283112Y-1615440D01*
X3297612Y-1601473D02*
X3298277Y-1602138D01*
X3298942Y-1601473D01*
X3298277Y-1600808D01*
X3297612Y-1601473D01*
X3298277Y-1606129D02*
Y-1615440D01*
X3308719Y-1608124D02*
X3308054Y-1606794D01*
X3306058Y-1606129D01*
X3304063D01*
X3302068Y-1606794D01*
X3301403Y-1608124D01*
X3302068Y-1609454D01*
X3303398Y-1610119D01*
X3306724Y-1610784D01*
X3308054Y-1611449D01*
X3308719Y-1612780D01*
Y-1613445D01*
X3308054Y-1614775D01*
X3306058Y-1615440D01*
X3304063D01*
X3302068Y-1614775D01*
X3301403Y-1613445D01*
X3322619Y-1601473D02*
Y-1615440D01*
X3326876Y-1601473D02*
X3327541Y-1602138D01*
X3328206Y-1601473D01*
X3327541Y-1600808D01*
X3326876Y-1601473D01*
X3327541Y-1606129D02*
Y-1615440D01*
X3338648Y-1608124D02*
X3337318Y-1606794D01*
X3335988Y-1606129D01*
X3333992D01*
X3332662Y-1606794D01*
X3331332Y-1608124D01*
X3330667Y-1610119D01*
Y-1611449D01*
X3331332Y-1613445D01*
X3332662Y-1614775D01*
X3333992Y-1615440D01*
X3335988D01*
X3337318Y-1614775D01*
X3338648Y-1613445D01*
X3341641Y-1610119D02*
X3349622D01*
Y-1608789D01*
X3348957Y-1607459D01*
X3348292Y-1606794D01*
X3346962Y-1606129D01*
X3344966D01*
X3343636Y-1606794D01*
X3342306Y-1608124D01*
X3341641Y-1610119D01*
Y-1611449D01*
X3342306Y-1613445D01*
X3343636Y-1614775D01*
X3344966Y-1615440D01*
X3346962D01*
X3348292Y-1614775D01*
X3349622Y-1613445D01*
X3352615Y-1606129D02*
Y-1615440D01*
Y-1608789D02*
X3354610Y-1606794D01*
X3355941Y-1606129D01*
X3357936D01*
X3359266Y-1606794D01*
X3359931Y-1608789D01*
Y-1615440D01*
X3370905Y-1608124D02*
X3370240Y-1606794D01*
X3368245Y-1606129D01*
X3366249D01*
X3364254Y-1606794D01*
X3363589Y-1608124D01*
X3364254Y-1609454D01*
X3365584Y-1610119D01*
X3368910Y-1610784D01*
X3370240Y-1611449D01*
X3370905Y-1612780D01*
Y-1613445D01*
X3370240Y-1614775D01*
X3368245Y-1615440D01*
X3366249D01*
X3364254Y-1614775D01*
X3363589Y-1613445D01*
X3373831Y-1610119D02*
X3381813D01*
Y-1608789D01*
X3381147Y-1607459D01*
X3380482Y-1606794D01*
X3379152Y-1606129D01*
X3377157D01*
X3375827Y-1606794D01*
X3374497Y-1608124D01*
X3373831Y-1610119D01*
Y-1611449D01*
X3374497Y-1613445D01*
X3375827Y-1614775D01*
X3377157Y-1615440D01*
X3379152D01*
X3380482Y-1614775D01*
X3381813Y-1613445D01*
X3392787Y-1601473D02*
Y-1615440D01*
Y-1608124D02*
X3391457Y-1606794D01*
X3390126Y-1606129D01*
X3388131D01*
X3386801Y-1606794D01*
X3385471Y-1608124D01*
X3384806Y-1610119D01*
Y-1611449D01*
X3385471Y-1613445D01*
X3386801Y-1614775D01*
X3388131Y-1615440D01*
X3390126D01*
X3391457Y-1614775D01*
X3392787Y-1613445D01*
X3407485Y-1606129D02*
Y-1612780D01*
X3408151Y-1614775D01*
X3409481Y-1615440D01*
X3411476D01*
X3412806Y-1614775D01*
X3414802Y-1612780D01*
Y-1606129D02*
Y-1615440D01*
X3418459Y-1606129D02*
Y-1615440D01*
Y-1608789D02*
X3420455Y-1606794D01*
X3421785Y-1606129D01*
X3423780D01*
X3425110Y-1606794D01*
X3425775Y-1608789D01*
Y-1615440D01*
X3437415Y-1601473D02*
Y-1615440D01*
Y-1608124D02*
X3436085Y-1606794D01*
X3434754Y-1606129D01*
X3432759D01*
X3431429Y-1606794D01*
X3430099Y-1608124D01*
X3429434Y-1610119D01*
Y-1611449D01*
X3430099Y-1613445D01*
X3431429Y-1614775D01*
X3432759Y-1615440D01*
X3434754D01*
X3436085Y-1614775D01*
X3437415Y-1613445D01*
X3441139Y-1610119D02*
X3449120D01*
Y-1608789D01*
X3448455Y-1607459D01*
X3447790Y-1606794D01*
X3446460Y-1606129D01*
X3444465D01*
X3443134Y-1606794D01*
X3441804Y-1608124D01*
X3441139Y-1610119D01*
Y-1611449D01*
X3441804Y-1613445D01*
X3443134Y-1614775D01*
X3444465Y-1615440D01*
X3446460D01*
X3447790Y-1614775D01*
X3449120Y-1613445D01*
X3452113Y-1606129D02*
Y-1615440D01*
Y-1610119D02*
X3452778Y-1608124D01*
X3454109Y-1606794D01*
X3455439Y-1606129D01*
X3457434D01*
X3471667Y-1601473D02*
Y-1612780D01*
X3472332Y-1614775D01*
X3473662Y-1615440D01*
X3474993D01*
X3469672Y-1606129D02*
X3474327D01*
X3476988Y-1601473D02*
Y-1615440D01*
Y-1608789D02*
X3478983Y-1606794D01*
X3480313Y-1606129D01*
X3482309D01*
X3483639Y-1606794D01*
X3484304Y-1608789D01*
Y-1615440D01*
X3487962Y-1610119D02*
X3495943D01*
Y-1608789D01*
X3495278Y-1607459D01*
X3494613Y-1606794D01*
X3493283Y-1606129D01*
X3491288D01*
X3489957Y-1606794D01*
X3488627Y-1608124D01*
X3487962Y-1610119D01*
Y-1611449D01*
X3488627Y-1613445D01*
X3489957Y-1614775D01*
X3491288Y-1615440D01*
X3493283D01*
X3494613Y-1614775D01*
X3495943Y-1613445D01*
X3519886Y-1604798D02*
X3519221Y-1603468D01*
X3517891Y-1602138D01*
X3516561Y-1601473D01*
X3513901D01*
X3512570Y-1602138D01*
X3511240Y-1603468D01*
X3510575Y-1604798D01*
X3509910Y-1606794D01*
Y-1610119D01*
X3510575Y-1612115D01*
X3511240Y-1613445D01*
X3512570Y-1614775D01*
X3513901Y-1615440D01*
X3516561D01*
X3517891Y-1614775D01*
X3519221Y-1613445D01*
X3519886Y-1612115D01*
X3523811Y-1606129D02*
Y-1615440D01*
Y-1610119D02*
X3524476Y-1608124D01*
X3525806Y-1606794D01*
X3527136Y-1606129D01*
X3529131D01*
X3530395Y-1610119D02*
X3538376D01*
Y-1608789D01*
X3537711Y-1607459D01*
X3537046Y-1606794D01*
X3535716Y-1606129D01*
X3533720D01*
X3532390Y-1606794D01*
X3531060Y-1608124D01*
X3530395Y-1610119D01*
Y-1611449D01*
X3531060Y-1613445D01*
X3532390Y-1614775D01*
X3533720Y-1615440D01*
X3535716D01*
X3537046Y-1614775D01*
X3538376Y-1613445D01*
X3549350Y-1606129D02*
Y-1615440D01*
Y-1608124D02*
X3548020Y-1606794D01*
X3546690Y-1606129D01*
X3544695D01*
X3543364Y-1606794D01*
X3542034Y-1608124D01*
X3541369Y-1610119D01*
Y-1611449D01*
X3542034Y-1613445D01*
X3543364Y-1614775D01*
X3544695Y-1615440D01*
X3546690D01*
X3548020Y-1614775D01*
X3549350Y-1613445D01*
X3555070Y-1601473D02*
Y-1612780D01*
X3555735Y-1614775D01*
X3557065Y-1615440D01*
X3558396D01*
X3553075Y-1606129D02*
X3557730D01*
X3561721Y-1601473D02*
X3562386Y-1602138D01*
X3563051Y-1601473D01*
X3562386Y-1600808D01*
X3561721Y-1601473D01*
X3562386Y-1606129D02*
Y-1615440D01*
X3565512Y-1606129D02*
X3569503Y-1615440D01*
X3573493Y-1606129D02*
X3569503Y-1615440D01*
X3575755Y-1610119D02*
X3583736D01*
Y-1608789D01*
X3583071Y-1607459D01*
X3582405Y-1606794D01*
X3581075Y-1606129D01*
X3579080D01*
X3577750Y-1606794D01*
X3576420Y-1608124D01*
X3575755Y-1610119D01*
Y-1611449D01*
X3576420Y-1613445D01*
X3577750Y-1614775D01*
X3579080Y-1615440D01*
X3581075D01*
X3582405Y-1614775D01*
X3583736Y-1613445D01*
X3607679Y-1604798D02*
X3607014Y-1603468D01*
X3605684Y-1602138D01*
X3604354Y-1601473D01*
X3601693D01*
X3600363Y-1602138D01*
X3599033Y-1603468D01*
X3598368Y-1604798D01*
X3597703Y-1606794D01*
Y-1610119D01*
X3598368Y-1612115D01*
X3599033Y-1613445D01*
X3600363Y-1614775D01*
X3601693Y-1615440D01*
X3604354D01*
X3605684Y-1614775D01*
X3607014Y-1613445D01*
X3607679Y-1612115D01*
X3614929Y-1606129D02*
X3613599Y-1606794D01*
X3612268Y-1608124D01*
X3611603Y-1610119D01*
Y-1611449D01*
X3612268Y-1613445D01*
X3613599Y-1614775D01*
X3614929Y-1615440D01*
X3616924D01*
X3618254Y-1614775D01*
X3619584Y-1613445D01*
X3620250Y-1611449D01*
Y-1610119D01*
X3619584Y-1608124D01*
X3618254Y-1606794D01*
X3616924Y-1606129D01*
X3614929D01*
X3623309D02*
Y-1615440D01*
Y-1608789D02*
X3625304Y-1606794D01*
X3626635Y-1606129D01*
X3628630D01*
X3629960Y-1606794D01*
X3630625Y-1608789D01*
Y-1615440D01*
Y-1608789D02*
X3632620Y-1606794D01*
X3633951Y-1606129D01*
X3635946D01*
X3637276Y-1606794D01*
X3637941Y-1608789D01*
Y-1615440D01*
X3642331Y-1606129D02*
Y-1615440D01*
Y-1608789D02*
X3644326Y-1606794D01*
X3645656Y-1606129D01*
X3647651D01*
X3648982Y-1606794D01*
X3649647Y-1608789D01*
Y-1615440D01*
Y-1608789D02*
X3651642Y-1606794D01*
X3652972Y-1606129D01*
X3654967D01*
X3656298Y-1606794D01*
X3656963Y-1608789D01*
Y-1615440D01*
X3664678Y-1606129D02*
X3663348Y-1606794D01*
X3662018Y-1608124D01*
X3661353Y-1610119D01*
Y-1611449D01*
X3662018Y-1613445D01*
X3663348Y-1614775D01*
X3664678Y-1615440D01*
X3666673D01*
X3668003Y-1614775D01*
X3669333Y-1613445D01*
X3669998Y-1611449D01*
Y-1610119D01*
X3669333Y-1608124D01*
X3668003Y-1606794D01*
X3666673Y-1606129D01*
X3664678D01*
X3673058D02*
Y-1615440D01*
Y-1608789D02*
X3675053Y-1606794D01*
X3676383Y-1606129D01*
X3678379D01*
X3679709Y-1606794D01*
X3680374Y-1608789D01*
Y-1615440D01*
X3691348Y-1608124D02*
X3690683Y-1606794D01*
X3688688Y-1606129D01*
X3686693D01*
X3684697Y-1606794D01*
X3684032Y-1608124D01*
X3684697Y-1609454D01*
X3686028Y-1610119D01*
X3689353Y-1610784D01*
X3690683Y-1611449D01*
X3691348Y-1612780D01*
Y-1613445D01*
X3690683Y-1614775D01*
X3688688Y-1615440D01*
X3686693D01*
X3684697Y-1614775D01*
X3684032Y-1613445D01*
X3715890Y-1615440D02*
X3710569Y-1601473D01*
X3705249Y-1615440D01*
X3707244Y-1610784D02*
X3713895D01*
X3721144Y-1601473D02*
Y-1612780D01*
X3721809Y-1614775D01*
X3723140Y-1615440D01*
X3724470D01*
X3719149Y-1606129D02*
X3723805D01*
X3728460Y-1601473D02*
Y-1612780D01*
X3729126Y-1614775D01*
X3730456Y-1615440D01*
X3731786D01*
X3726465Y-1606129D02*
X3731121D01*
X3733781D02*
Y-1615440D01*
Y-1610119D02*
X3734446Y-1608124D01*
X3735777Y-1606794D01*
X3737107Y-1606129D01*
X3739102D01*
X3741696Y-1601473D02*
X3742361Y-1602138D01*
X3743026Y-1601473D01*
X3742361Y-1600808D01*
X3741696Y-1601473D01*
X3742361Y-1606129D02*
Y-1615440D01*
X3745487Y-1601473D02*
Y-1615440D01*
Y-1608124D02*
X3746817Y-1606794D01*
X3748147Y-1606129D01*
X3750143D01*
X3751473Y-1606794D01*
X3752803Y-1608124D01*
X3753468Y-1610119D01*
Y-1611449D01*
X3752803Y-1613445D01*
X3751473Y-1614775D01*
X3750143Y-1615440D01*
X3748147D01*
X3746817Y-1614775D01*
X3745487Y-1613445D01*
X3756461Y-1606129D02*
Y-1612780D01*
X3757126Y-1614775D01*
X3758456Y-1615440D01*
X3760452D01*
X3761782Y-1614775D01*
X3763777Y-1612780D01*
Y-1606129D02*
Y-1615440D01*
X3769431Y-1601473D02*
Y-1612780D01*
X3770096Y-1614775D01*
X3771426Y-1615440D01*
X3772756D01*
X3767435Y-1606129D02*
X3772091D01*
X3776082Y-1601473D02*
X3776747Y-1602138D01*
X3777411Y-1601473D01*
X3776747Y-1600808D01*
X3776082Y-1601473D01*
X3776747Y-1606129D02*
Y-1615440D01*
X3783198Y-1606129D02*
X3781868Y-1606794D01*
X3780537Y-1608124D01*
X3779872Y-1610119D01*
Y-1611449D01*
X3780537Y-1613445D01*
X3781868Y-1614775D01*
X3783198Y-1615440D01*
X3785193D01*
X3786523Y-1614775D01*
X3787853Y-1613445D01*
X3788519Y-1611449D01*
Y-1610119D01*
X3787853Y-1608124D01*
X3786523Y-1606794D01*
X3785193Y-1606129D01*
X3783198D01*
X3791578D02*
Y-1615440D01*
Y-1608789D02*
X3793573Y-1606794D01*
X3794904Y-1606129D01*
X3796899D01*
X3798229Y-1606794D01*
X3798894Y-1608789D01*
Y-1615440D01*
X3802552Y-1609454D02*
X3814524D01*
X3827959Y-1603468D02*
X3826629Y-1602138D01*
X3824633Y-1601473D01*
X3821973D01*
X3819978Y-1602138D01*
X3818647Y-1603468D01*
Y-1604798D01*
X3819313Y-1606129D01*
X3819978Y-1606794D01*
X3821308Y-1607459D01*
X3825298Y-1608789D01*
X3826629Y-1609454D01*
X3827294Y-1610119D01*
X3827959Y-1611449D01*
Y-1613445D01*
X3826629Y-1614775D01*
X3824633Y-1615440D01*
X3821973D01*
X3819978Y-1614775D01*
X3818647Y-1613445D01*
X3831085Y-1601473D02*
Y-1615440D01*
Y-1608789D02*
X3833080Y-1606794D01*
X3834410Y-1606129D01*
X3836406D01*
X3837736Y-1606794D01*
X3838401Y-1608789D01*
Y-1615440D01*
X3850040Y-1606129D02*
Y-1615440D01*
Y-1608124D02*
X3848710Y-1606794D01*
X3847379Y-1606129D01*
X3845384D01*
X3844054Y-1606794D01*
X3842724Y-1608124D01*
X3842059Y-1610119D01*
Y-1611449D01*
X3842724Y-1613445D01*
X3844054Y-1614775D01*
X3845384Y-1615440D01*
X3847379D01*
X3848710Y-1614775D01*
X3850040Y-1613445D01*
X3853765Y-1606129D02*
Y-1615440D01*
Y-1610119D02*
X3854430Y-1608124D01*
X3855760Y-1606794D01*
X3857090Y-1606129D01*
X3859085D01*
X3860349Y-1610119D02*
X3868330D01*
Y-1608789D01*
X3867665Y-1607459D01*
X3867000Y-1606794D01*
X3865670Y-1606129D01*
X3863674D01*
X3862344Y-1606794D01*
X3861014Y-1608124D01*
X3860349Y-1610119D01*
Y-1611449D01*
X3861014Y-1613445D01*
X3862344Y-1614775D01*
X3863674Y-1615440D01*
X3865670D01*
X3867000Y-1614775D01*
X3868330Y-1613445D01*
X3892939Y-1615440D02*
X3887618Y-1601473D01*
X3882297Y-1615440D01*
X3884292Y-1610784D02*
X3890943D01*
X3896198Y-1601473D02*
Y-1615440D01*
X3900454Y-1601473D02*
X3901119Y-1602138D01*
X3901784Y-1601473D01*
X3901119Y-1600808D01*
X3900454Y-1601473D01*
X3901119Y-1606129D02*
Y-1615440D01*
X3904245Y-1601473D02*
Y-1615440D01*
X3910896Y-1606129D02*
X3904245Y-1612780D01*
X3906906Y-1610119D02*
X3911561Y-1615440D01*
X3913756Y-1610119D02*
X3921737D01*
Y-1608789D01*
X3921072Y-1607459D01*
X3920407Y-1606794D01*
X3919077Y-1606129D01*
X3917082D01*
X3915751Y-1606794D01*
X3914421Y-1608124D01*
X3913756Y-1610119D01*
Y-1611449D01*
X3914421Y-1613445D01*
X3915751Y-1614775D01*
X3917082Y-1615440D01*
X3919077D01*
X3920407Y-1614775D01*
X3921737Y-1613445D01*
X3937035Y-1601473D02*
X3944351D01*
X3940360Y-1606794D01*
X3942355D01*
X3943685Y-1607459D01*
X3944351Y-1608124D01*
X3945016Y-1610119D01*
Y-1611449D01*
X3944351Y-1613445D01*
X3943020Y-1614775D01*
X3941025Y-1615440D01*
X3939030D01*
X3937035Y-1614775D01*
X3936369Y-1614110D01*
X3935704Y-1612780D01*
X3948807Y-1614110D02*
X3948141Y-1614775D01*
X3948807Y-1615440D01*
X3949472Y-1614775D01*
X3948807Y-1614110D01*
X3956522Y-1601473D02*
X3954526Y-1602138D01*
X3953196Y-1604133D01*
X3952531Y-1607459D01*
Y-1609454D01*
X3953196Y-1612780D01*
X3954526Y-1614775D01*
X3956522Y-1615440D01*
X3957852D01*
X3959847Y-1614775D01*
X3961177Y-1612780D01*
X3961843Y-1609454D01*
Y-1607459D01*
X3961177Y-1604133D01*
X3959847Y-1602138D01*
X3957852Y-1601473D01*
X3956522D01*
X3975942D02*
Y-1611449D01*
X3976608Y-1613445D01*
X3977938Y-1614775D01*
X3979933Y-1615440D01*
X3981263D01*
X3983259Y-1614775D01*
X3984589Y-1613445D01*
X3985254Y-1611449D01*
Y-1601473D01*
X3989111Y-1606129D02*
Y-1615440D01*
Y-1608789D02*
X3991107Y-1606794D01*
X3992437Y-1606129D01*
X3994432D01*
X3995762Y-1606794D01*
X3996428Y-1608789D01*
Y-1615440D01*
X4000085Y-1606129D02*
Y-1620096D01*
Y-1608124D02*
X4001416Y-1606794D01*
X4002746Y-1606129D01*
X4004741D01*
X4006071Y-1606794D01*
X4007402Y-1608124D01*
X4008067Y-1610119D01*
Y-1611449D01*
X4007402Y-1613445D01*
X4006071Y-1614775D01*
X4004741Y-1615440D01*
X4002746D01*
X4001416Y-1614775D01*
X4000085Y-1613445D01*
X4014385Y-1606129D02*
X4013055Y-1606794D01*
X4011725Y-1608124D01*
X4011060Y-1610119D01*
Y-1611449D01*
X4011725Y-1613445D01*
X4013055Y-1614775D01*
X4014385Y-1615440D01*
X4016380D01*
X4017711Y-1614775D01*
X4019041Y-1613445D01*
X4019706Y-1611449D01*
Y-1610119D01*
X4019041Y-1608124D01*
X4017711Y-1606794D01*
X4016380Y-1606129D01*
X4014385D01*
X4022765D02*
Y-1615440D01*
Y-1610119D02*
X4023430Y-1608124D01*
X4024761Y-1606794D01*
X4026091Y-1606129D01*
X4028086D01*
X4031345Y-1601473D02*
Y-1612780D01*
X4032010Y-1614775D01*
X4033340Y-1615440D01*
X4034670D01*
X4029350Y-1606129D02*
X4034005D01*
X4036666Y-1610119D02*
X4044647D01*
Y-1608789D01*
X4043982Y-1607459D01*
X4043317Y-1606794D01*
X4041986Y-1606129D01*
X4039991D01*
X4038661Y-1606794D01*
X4037331Y-1608124D01*
X4036666Y-1610119D01*
Y-1611449D01*
X4037331Y-1613445D01*
X4038661Y-1614775D01*
X4039991Y-1615440D01*
X4041986D01*
X4043317Y-1614775D01*
X4044647Y-1613445D01*
X4055621Y-1601473D02*
Y-1615440D01*
Y-1608124D02*
X4054291Y-1606794D01*
X4052961Y-1606129D01*
X4050965D01*
X4049635Y-1606794D01*
X4048305Y-1608124D01*
X4047640Y-1610119D01*
Y-1611449D01*
X4048305Y-1613445D01*
X4049635Y-1614775D01*
X4050965Y-1615440D01*
X4052961D01*
X4054291Y-1614775D01*
X4055621Y-1613445D01*
X4070320Y-1601473D02*
Y-1615440D01*
X4078301D01*
X4081161Y-1601473D02*
X4081826Y-1602138D01*
X4082491Y-1601473D01*
X4081826Y-1600808D01*
X4081161Y-1601473D01*
X4081826Y-1606129D02*
Y-1615440D01*
X4092933Y-1608124D02*
X4091603Y-1606794D01*
X4090273Y-1606129D01*
X4088277D01*
X4086947Y-1606794D01*
X4085617Y-1608124D01*
X4084952Y-1610119D01*
Y-1611449D01*
X4085617Y-1613445D01*
X4086947Y-1614775D01*
X4088277Y-1615440D01*
X4090273D01*
X4091603Y-1614775D01*
X4092933Y-1613445D01*
X4095926Y-1610119D02*
X4103907D01*
Y-1608789D01*
X4103242Y-1607459D01*
X4102577Y-1606794D01*
X4101247Y-1606129D01*
X4099251D01*
X4097921Y-1606794D01*
X4096591Y-1608124D01*
X4095926Y-1610119D01*
Y-1611449D01*
X4096591Y-1613445D01*
X4097921Y-1614775D01*
X4099251Y-1615440D01*
X4101247D01*
X4102577Y-1614775D01*
X4103907Y-1613445D01*
X4106900Y-1606129D02*
Y-1615440D01*
Y-1608789D02*
X4108895Y-1606794D01*
X4110225Y-1606129D01*
X4112220D01*
X4113551Y-1606794D01*
X4114216Y-1608789D01*
Y-1615440D01*
X4125190Y-1608124D02*
X4124525Y-1606794D01*
X4122530Y-1606129D01*
X4120534D01*
X4118539Y-1606794D01*
X4117874Y-1608124D01*
X4118539Y-1609454D01*
X4119869Y-1610119D01*
X4123195Y-1610784D01*
X4124525Y-1611449D01*
X4125190Y-1612780D01*
Y-1613445D01*
X4124525Y-1614775D01*
X4122530Y-1615440D01*
X4120534D01*
X4118539Y-1614775D01*
X4117874Y-1613445D01*
X4128116Y-1610119D02*
X4136097D01*
Y-1608789D01*
X4135432Y-1607459D01*
X4134767Y-1606794D01*
X4133437Y-1606129D01*
X4131442D01*
X4130112Y-1606794D01*
X4128781Y-1608124D01*
X4128116Y-1610119D01*
Y-1611449D01*
X4128781Y-1613445D01*
X4130112Y-1614775D01*
X4131442Y-1615440D01*
X4133437D01*
X4134767Y-1614775D01*
X4136097Y-1613445D01*
X4139756Y-1614110D02*
X4139091Y-1614775D01*
X4139756Y-1615440D01*
X4140421Y-1614775D01*
X4139756Y-1614110D01*
X3199976Y-1633223D02*
Y-1647190D01*
X3195320Y-1633223D02*
X3204631D01*
X3209619Y-1637879D02*
X3208289Y-1638544D01*
X3206959Y-1639874D01*
X3206294Y-1641869D01*
Y-1643199D01*
X3206959Y-1645195D01*
X3208289Y-1646525D01*
X3209619Y-1647190D01*
X3211615D01*
X3212945Y-1646525D01*
X3214275Y-1645195D01*
X3214940Y-1643199D01*
Y-1641869D01*
X3214275Y-1639874D01*
X3212945Y-1638544D01*
X3211615Y-1637879D01*
X3209619D01*
X3228974D02*
X3232964Y-1647190D01*
X3236955Y-1637879D02*
X3232964Y-1647190D01*
X3240547Y-1633223D02*
X3241212Y-1633888D01*
X3241877Y-1633223D01*
X3241212Y-1632558D01*
X3240547Y-1633223D01*
X3241212Y-1637879D02*
Y-1647190D01*
X3244337Y-1641869D02*
X3252319D01*
Y-1640539D01*
X3251654Y-1639209D01*
X3250988Y-1638544D01*
X3249658Y-1637879D01*
X3247663D01*
X3246333Y-1638544D01*
X3245003Y-1639874D01*
X3244337Y-1641869D01*
Y-1643199D01*
X3245003Y-1645195D01*
X3246333Y-1646525D01*
X3247663Y-1647190D01*
X3249658D01*
X3250988Y-1646525D01*
X3252319Y-1645195D01*
X3255312Y-1637879D02*
X3257972Y-1647190D01*
X3260632Y-1637879D02*
X3257972Y-1647190D01*
X3260632Y-1637879D02*
X3263293Y-1647190D01*
X3265953Y-1637879D02*
X3263293Y-1647190D01*
X3288167Y-1637879D02*
Y-1647190D01*
Y-1639874D02*
X3286837Y-1638544D01*
X3285507Y-1637879D01*
X3283512D01*
X3282181Y-1638544D01*
X3280851Y-1639874D01*
X3280186Y-1641869D01*
Y-1643199D01*
X3280851Y-1645195D01*
X3282181Y-1646525D01*
X3283512Y-1647190D01*
X3285507D01*
X3286837Y-1646525D01*
X3288167Y-1645195D01*
X3310847Y-1639874D02*
X3309517Y-1638544D01*
X3308187Y-1637879D01*
X3306191D01*
X3304861Y-1638544D01*
X3303531Y-1639874D01*
X3302866Y-1641869D01*
Y-1643199D01*
X3303531Y-1645195D01*
X3304861Y-1646525D01*
X3306191Y-1647190D01*
X3308187D01*
X3309517Y-1646525D01*
X3310847Y-1645195D01*
X3317166Y-1637879D02*
X3315835Y-1638544D01*
X3314505Y-1639874D01*
X3313840Y-1641869D01*
Y-1643199D01*
X3314505Y-1645195D01*
X3315835Y-1646525D01*
X3317166Y-1647190D01*
X3319161D01*
X3320491Y-1646525D01*
X3321821Y-1645195D01*
X3322486Y-1643199D01*
Y-1641869D01*
X3321821Y-1639874D01*
X3320491Y-1638544D01*
X3319161Y-1637879D01*
X3317166D01*
X3325546D02*
Y-1651846D01*
Y-1639874D02*
X3326876Y-1638544D01*
X3328206Y-1637879D01*
X3330201D01*
X3331532Y-1638544D01*
X3332862Y-1639874D01*
X3333527Y-1641869D01*
Y-1643199D01*
X3332862Y-1645195D01*
X3331532Y-1646525D01*
X3330201Y-1647190D01*
X3328206D01*
X3326876Y-1646525D01*
X3325546Y-1645195D01*
X3337185Y-1637879D02*
X3341176Y-1647190D01*
X3345166Y-1637879D02*
X3341176Y-1647190D01*
X3339845Y-1649850D01*
X3338515Y-1651181D01*
X3337185Y-1651846D01*
X3336520D01*
X3361794Y-1637879D02*
X3360463Y-1638544D01*
X3359133Y-1639874D01*
X3358468Y-1641869D01*
Y-1643199D01*
X3359133Y-1645195D01*
X3360463Y-1646525D01*
X3361794Y-1647190D01*
X3363789D01*
X3365119Y-1646525D01*
X3366449Y-1645195D01*
X3367114Y-1643199D01*
Y-1641869D01*
X3366449Y-1639874D01*
X3365119Y-1638544D01*
X3363789Y-1637879D01*
X3361794D01*
X3375494Y-1633223D02*
X3374164D01*
X3372834Y-1633888D01*
X3372169Y-1635883D01*
Y-1647190D01*
X3370174Y-1637879D02*
X3374829D01*
X3390459Y-1633223D02*
Y-1644530D01*
X3391124Y-1646525D01*
X3392454Y-1647190D01*
X3393784D01*
X3388464Y-1637879D02*
X3393120D01*
X3395780Y-1633223D02*
Y-1647190D01*
Y-1640539D02*
X3397775Y-1638544D01*
X3399105Y-1637879D01*
X3401100D01*
X3402431Y-1638544D01*
X3403096Y-1640539D01*
Y-1647190D01*
X3408084Y-1633223D02*
X3408749Y-1633888D01*
X3409414Y-1633223D01*
X3408749Y-1632558D01*
X3408084Y-1633223D01*
X3408749Y-1637879D02*
Y-1647190D01*
X3419191Y-1639874D02*
X3418526Y-1638544D01*
X3416531Y-1637879D01*
X3414536D01*
X3412540Y-1638544D01*
X3411875Y-1639874D01*
X3412540Y-1641204D01*
X3413871Y-1641869D01*
X3417196Y-1642534D01*
X3418526Y-1643199D01*
X3419191Y-1644530D01*
Y-1645195D01*
X3418526Y-1646525D01*
X3416531Y-1647190D01*
X3414536D01*
X3412540Y-1646525D01*
X3411875Y-1645195D01*
X3433092Y-1633223D02*
Y-1647190D01*
X3437348Y-1633223D02*
X3438013Y-1633888D01*
X3438678Y-1633223D01*
X3438013Y-1632558D01*
X3437348Y-1633223D01*
X3438013Y-1637879D02*
Y-1647190D01*
X3449120Y-1639874D02*
X3447790Y-1638544D01*
X3446460Y-1637879D01*
X3444465D01*
X3443134Y-1638544D01*
X3441805Y-1639874D01*
X3441139Y-1641869D01*
Y-1643199D01*
X3441805Y-1645195D01*
X3443134Y-1646525D01*
X3444465Y-1647190D01*
X3446460D01*
X3447790Y-1646525D01*
X3449120Y-1645195D01*
X3452113Y-1641869D02*
X3460095D01*
Y-1640539D01*
X3459429Y-1639209D01*
X3458764Y-1638544D01*
X3457434Y-1637879D01*
X3455439D01*
X3454109Y-1638544D01*
X3452778Y-1639874D01*
X3452113Y-1641869D01*
Y-1643199D01*
X3452778Y-1645195D01*
X3454109Y-1646525D01*
X3455439Y-1647190D01*
X3457434D01*
X3458764Y-1646525D01*
X3460095Y-1645195D01*
X3463087Y-1637879D02*
Y-1647190D01*
Y-1640539D02*
X3465083Y-1638544D01*
X3466413Y-1637879D01*
X3468408D01*
X3469738Y-1638544D01*
X3470403Y-1640539D01*
Y-1647190D01*
X3481378Y-1639874D02*
X3480712Y-1638544D01*
X3478717Y-1637879D01*
X3476722D01*
X3474727Y-1638544D01*
X3474062Y-1639874D01*
X3474727Y-1641204D01*
X3476057Y-1641869D01*
X3479382Y-1642534D01*
X3480712Y-1643199D01*
X3481378Y-1644530D01*
Y-1645195D01*
X3480712Y-1646525D01*
X3478717Y-1647190D01*
X3476722D01*
X3474727Y-1646525D01*
X3474062Y-1645195D01*
X3484304Y-1641869D02*
X3492285D01*
Y-1640539D01*
X3491620Y-1639209D01*
X3490955Y-1638544D01*
X3489625Y-1637879D01*
X3487629D01*
X3486299Y-1638544D01*
X3484969Y-1639874D01*
X3484304Y-1641869D01*
Y-1643199D01*
X3484969Y-1645195D01*
X3486299Y-1646525D01*
X3487629Y-1647190D01*
X3489625D01*
X3490955Y-1646525D01*
X3492285Y-1645195D01*
X3496608Y-1646525D02*
X3495943Y-1647190D01*
X3495278Y-1646525D01*
X3495943Y-1645860D01*
X3496608Y-1646525D01*
Y-1647855D01*
X3495943Y-1649185D01*
X3495278Y-1649850D01*
X3510642Y-1637879D02*
X3514632Y-1647190D01*
X3518623Y-1637879D02*
X3514632Y-1647190D01*
X3522214Y-1633223D02*
X3522880Y-1633888D01*
X3523545Y-1633223D01*
X3522880Y-1632558D01*
X3522214Y-1633223D01*
X3522880Y-1637879D02*
Y-1647190D01*
X3533322Y-1639874D02*
X3532656Y-1638544D01*
X3530661Y-1637879D01*
X3528666D01*
X3526671Y-1638544D01*
X3526005Y-1639874D01*
X3526671Y-1641204D01*
X3528001Y-1641869D01*
X3531326Y-1642534D01*
X3532656Y-1643199D01*
X3533322Y-1644530D01*
Y-1645195D01*
X3532656Y-1646525D01*
X3530661Y-1647190D01*
X3528666D01*
X3526671Y-1646525D01*
X3526005Y-1645195D01*
X3537578Y-1633223D02*
X3538243Y-1633888D01*
X3538908Y-1633223D01*
X3538243Y-1632558D01*
X3537578Y-1633223D01*
X3538243Y-1637879D02*
Y-1647190D01*
X3543364Y-1633223D02*
Y-1644530D01*
X3544030Y-1646525D01*
X3545360Y-1647190D01*
X3546690D01*
X3541369Y-1637879D02*
X3546025D01*
X3559659Y-1633223D02*
Y-1647190D01*
Y-1640539D02*
X3561654Y-1638544D01*
X3562985Y-1637879D01*
X3564980D01*
X3566310Y-1638544D01*
X3566975Y-1640539D01*
Y-1647190D01*
X3572628Y-1633223D02*
Y-1644530D01*
X3573294Y-1646525D01*
X3574624Y-1647190D01*
X3575954D01*
X3570633Y-1637879D02*
X3575289D01*
X3579945Y-1633223D02*
Y-1644530D01*
X3580610Y-1646525D01*
X3581940Y-1647190D01*
X3583270D01*
X3577950Y-1637879D02*
X3582605D01*
X3585266D02*
Y-1651846D01*
Y-1639874D02*
X3586595Y-1638544D01*
X3587926Y-1637879D01*
X3589921D01*
X3591251Y-1638544D01*
X3592581Y-1639874D01*
X3593246Y-1641869D01*
Y-1643199D01*
X3592581Y-1645195D01*
X3591251Y-1646525D01*
X3589921Y-1647190D01*
X3587926D01*
X3586595Y-1646525D01*
X3585266Y-1645195D01*
X3596905Y-1637879D02*
X3596240Y-1638544D01*
X3596905Y-1639209D01*
X3597570Y-1638544D01*
X3596905Y-1637879D01*
Y-1645860D02*
X3596240Y-1646525D01*
X3596905Y-1647190D01*
X3597570Y-1646525D01*
X3596905Y-1645860D01*
X3600629Y-1649185D02*
X3609940Y-1633223D01*
X3610872Y-1649185D02*
X3620183Y-1633223D01*
X3629095Y-1639874D02*
X3627765Y-1638544D01*
X3626435Y-1637879D01*
X3624440D01*
X3623109Y-1638544D01*
X3621779Y-1639874D01*
X3621114Y-1641869D01*
Y-1643199D01*
X3621779Y-1645195D01*
X3623109Y-1646525D01*
X3624440Y-1647190D01*
X3626435D01*
X3627765Y-1646525D01*
X3629095Y-1645195D01*
X3632088Y-1637879D02*
Y-1647190D01*
Y-1641869D02*
X3632753Y-1639874D01*
X3634084Y-1638544D01*
X3635414Y-1637879D01*
X3637409D01*
X3638672Y-1641869D02*
X3646654D01*
Y-1640539D01*
X3645989Y-1639209D01*
X3645323Y-1638544D01*
X3643994Y-1637879D01*
X3641998D01*
X3640668Y-1638544D01*
X3639338Y-1639874D01*
X3638672Y-1641869D01*
Y-1643199D01*
X3639338Y-1645195D01*
X3640668Y-1646525D01*
X3641998Y-1647190D01*
X3643994D01*
X3645323Y-1646525D01*
X3646654Y-1645195D01*
X3657628Y-1637879D02*
Y-1647190D01*
Y-1639874D02*
X3656298Y-1638544D01*
X3654967Y-1637879D01*
X3652972D01*
X3651642Y-1638544D01*
X3650312Y-1639874D01*
X3649647Y-1641869D01*
Y-1643199D01*
X3650312Y-1645195D01*
X3651642Y-1646525D01*
X3652972Y-1647190D01*
X3654967D01*
X3656298Y-1646525D01*
X3657628Y-1645195D01*
X3663348Y-1633223D02*
Y-1644530D01*
X3664013Y-1646525D01*
X3665343Y-1647190D01*
X3666673D01*
X3661353Y-1637879D02*
X3666008D01*
X3669998Y-1633223D02*
X3670664Y-1633888D01*
X3671329Y-1633223D01*
X3670664Y-1632558D01*
X3669998Y-1633223D01*
X3670664Y-1637879D02*
Y-1647190D01*
X3673790Y-1637879D02*
X3677780Y-1647190D01*
X3681771Y-1637879D02*
X3677780Y-1647190D01*
X3684032Y-1641869D02*
X3692013D01*
Y-1640539D01*
X3691348Y-1639209D01*
X3690683Y-1638544D01*
X3689353Y-1637879D01*
X3687357D01*
X3686028Y-1638544D01*
X3684697Y-1639874D01*
X3684032Y-1641869D01*
Y-1643199D01*
X3684697Y-1645195D01*
X3686028Y-1646525D01*
X3687357Y-1647190D01*
X3689353D01*
X3690683Y-1646525D01*
X3692013Y-1645195D01*
X3702987Y-1639874D02*
X3701657Y-1638544D01*
X3700327Y-1637879D01*
X3698332D01*
X3697002Y-1638544D01*
X3695671Y-1639874D01*
X3695006Y-1641869D01*
Y-1643199D01*
X3695671Y-1645195D01*
X3697002Y-1646525D01*
X3698332Y-1647190D01*
X3700327D01*
X3701657Y-1646525D01*
X3702987Y-1645195D01*
X3709306Y-1637879D02*
X3707975Y-1638544D01*
X3706646Y-1639874D01*
X3705980Y-1641869D01*
Y-1643199D01*
X3706646Y-1645195D01*
X3707975Y-1646525D01*
X3709306Y-1647190D01*
X3711301D01*
X3712631Y-1646525D01*
X3713961Y-1645195D01*
X3714626Y-1643199D01*
Y-1641869D01*
X3713961Y-1639874D01*
X3712631Y-1638544D01*
X3711301Y-1637879D01*
X3709306D01*
X3717686D02*
Y-1647190D01*
Y-1640539D02*
X3719681Y-1638544D01*
X3721011Y-1637879D01*
X3723007D01*
X3724337Y-1638544D01*
X3725002Y-1640539D01*
Y-1647190D01*
Y-1640539D02*
X3726997Y-1638544D01*
X3728328Y-1637879D01*
X3730323D01*
X3731653Y-1638544D01*
X3732318Y-1640539D01*
Y-1647190D01*
X3736708Y-1637879D02*
Y-1647190D01*
Y-1640539D02*
X3738703Y-1638544D01*
X3740033Y-1637879D01*
X3742029D01*
X3743359Y-1638544D01*
X3744024Y-1640539D01*
Y-1647190D01*
Y-1640539D02*
X3746019Y-1638544D01*
X3747349Y-1637879D01*
X3749344D01*
X3750675Y-1638544D01*
X3751340Y-1640539D01*
Y-1647190D01*
X3759055Y-1637879D02*
X3757725Y-1638544D01*
X3756394Y-1639874D01*
X3755729Y-1641869D01*
Y-1643199D01*
X3756394Y-1645195D01*
X3757725Y-1646525D01*
X3759055Y-1647190D01*
X3761050D01*
X3762380Y-1646525D01*
X3763711Y-1645195D01*
X3764376Y-1643199D01*
Y-1641869D01*
X3763711Y-1639874D01*
X3762380Y-1638544D01*
X3761050Y-1637879D01*
X3759055D01*
X3767435D02*
Y-1647190D01*
Y-1640539D02*
X3769431Y-1638544D01*
X3770760Y-1637879D01*
X3772756D01*
X3774086Y-1638544D01*
X3774751Y-1640539D01*
Y-1647190D01*
X3785725Y-1639874D02*
X3785060Y-1638544D01*
X3783065Y-1637879D01*
X3781070D01*
X3779074Y-1638544D01*
X3778409Y-1639874D01*
X3779074Y-1641204D01*
X3780404Y-1641869D01*
X3783730Y-1642534D01*
X3785060Y-1643199D01*
X3785725Y-1644530D01*
Y-1645195D01*
X3785060Y-1646525D01*
X3783065Y-1647190D01*
X3781070D01*
X3779074Y-1646525D01*
X3778409Y-1645195D01*
X3789317Y-1645860D02*
X3788652Y-1646525D01*
X3789317Y-1647190D01*
X3789982Y-1646525D01*
X3789317Y-1645860D01*
X3796367Y-1637879D02*
X3795037Y-1638544D01*
X3793706Y-1639874D01*
X3793041Y-1641869D01*
Y-1643199D01*
X3793706Y-1645195D01*
X3795037Y-1646525D01*
X3796367Y-1647190D01*
X3798362D01*
X3799692Y-1646525D01*
X3801022Y-1645195D01*
X3801688Y-1643199D01*
Y-1641869D01*
X3801022Y-1639874D01*
X3799692Y-1638544D01*
X3798362Y-1637879D01*
X3796367D01*
X3804747D02*
Y-1647190D01*
Y-1641869D02*
X3805412Y-1639874D01*
X3806742Y-1638544D01*
X3808073Y-1637879D01*
X3810068D01*
X3819313D02*
Y-1648520D01*
X3818647Y-1650515D01*
X3817982Y-1651181D01*
X3816652Y-1651846D01*
X3814657D01*
X3813327Y-1651181D01*
X3819313Y-1639874D02*
X3817982Y-1638544D01*
X3816652Y-1637879D01*
X3814657D01*
X3813327Y-1638544D01*
X3811996Y-1639874D01*
X3811331Y-1641869D01*
Y-1643199D01*
X3811996Y-1645195D01*
X3813327Y-1646525D01*
X3814657Y-1647190D01*
X3816652D01*
X3817982Y-1646525D01*
X3819313Y-1645195D01*
X3823037Y-1649185D02*
X3832348Y-1633223D01*
X3833280D02*
Y-1647190D01*
X3837536Y-1633223D02*
X3838201Y-1633888D01*
X3838866Y-1633223D01*
X3838201Y-1632558D01*
X3837536Y-1633223D01*
X3838201Y-1637879D02*
Y-1647190D01*
X3849308Y-1639874D02*
X3847978Y-1638544D01*
X3846648Y-1637879D01*
X3844653D01*
X3843322Y-1638544D01*
X3841992Y-1639874D01*
X3841327Y-1641869D01*
Y-1643199D01*
X3841992Y-1645195D01*
X3843322Y-1646525D01*
X3844653Y-1647190D01*
X3846648D01*
X3847978Y-1646525D01*
X3849308Y-1645195D01*
X3852301Y-1641869D02*
X3860282D01*
Y-1640539D01*
X3859617Y-1639209D01*
X3858952Y-1638544D01*
X3857622Y-1637879D01*
X3855627D01*
X3854297Y-1638544D01*
X3852966Y-1639874D01*
X3852301Y-1641869D01*
Y-1643199D01*
X3852966Y-1645195D01*
X3854297Y-1646525D01*
X3855627Y-1647190D01*
X3857622D01*
X3858952Y-1646525D01*
X3860282Y-1645195D01*
X3863275Y-1637879D02*
Y-1647190D01*
Y-1640539D02*
X3865271Y-1638544D01*
X3866601Y-1637879D01*
X3868596D01*
X3869926Y-1638544D01*
X3870591Y-1640539D01*
Y-1647190D01*
X3881566Y-1639874D02*
X3880900Y-1638544D01*
X3878905Y-1637879D01*
X3876910D01*
X3874915Y-1638544D01*
X3874249Y-1639874D01*
X3874915Y-1641204D01*
X3876245Y-1641869D01*
X3879570Y-1642534D01*
X3880900Y-1643199D01*
X3881566Y-1644530D01*
Y-1645195D01*
X3880900Y-1646525D01*
X3878905Y-1647190D01*
X3876910D01*
X3874915Y-1646525D01*
X3874249Y-1645195D01*
X3884492Y-1641869D02*
X3892473D01*
Y-1640539D01*
X3891808Y-1639209D01*
X3891143Y-1638544D01*
X3889813Y-1637879D01*
X3887817D01*
X3886487Y-1638544D01*
X3885157Y-1639874D01*
X3884492Y-1641869D01*
Y-1643199D01*
X3885157Y-1645195D01*
X3886487Y-1646525D01*
X3887817Y-1647190D01*
X3889813D01*
X3891143Y-1646525D01*
X3892473Y-1645195D01*
X3902782Y-1639874D02*
X3902117Y-1638544D01*
X3900121Y-1637879D01*
X3898126D01*
X3896131Y-1638544D01*
X3895466Y-1639874D01*
X3896131Y-1641204D01*
X3897461Y-1641869D01*
X3900787Y-1642534D01*
X3902117Y-1643199D01*
X3902782Y-1644530D01*
Y-1645195D01*
X3902117Y-1646525D01*
X3900121Y-1647190D01*
X3898126D01*
X3896131Y-1646525D01*
X3895466Y-1645195D01*
X3905708Y-1649185D02*
X3915020Y-1633223D01*
X3915951D02*
Y-1647190D01*
Y-1639874D02*
X3917281Y-1638544D01*
X3918611Y-1637879D01*
X3920607D01*
X3921937Y-1638544D01*
X3923267Y-1639874D01*
X3923932Y-1641869D01*
Y-1643199D01*
X3923267Y-1645195D01*
X3921937Y-1646525D01*
X3920607Y-1647190D01*
X3918611D01*
X3917281Y-1646525D01*
X3915951Y-1645195D01*
X3927590Y-1637879D02*
X3931581Y-1647190D01*
X3935571Y-1637879D02*
X3931581Y-1647190D01*
X3930251Y-1649850D01*
X3928920Y-1651181D01*
X3927590Y-1651846D01*
X3926925D01*
X3937899Y-1641204D02*
X3949871D01*
X3961310Y-1639874D02*
X3960645Y-1638544D01*
X3958650Y-1637879D01*
X3956655D01*
X3954659Y-1638544D01*
X3953994Y-1639874D01*
X3954659Y-1641204D01*
X3955990Y-1641869D01*
X3959315Y-1642534D01*
X3960645Y-1643199D01*
X3961310Y-1644530D01*
Y-1645195D01*
X3960645Y-1646525D01*
X3958650Y-1647190D01*
X3956655D01*
X3954659Y-1646525D01*
X3953994Y-1645195D01*
X3972218Y-1637879D02*
Y-1647190D01*
Y-1639874D02*
X3970888Y-1638544D01*
X3969557Y-1637879D01*
X3967562D01*
X3966232Y-1638544D01*
X3964902Y-1639874D01*
X3964237Y-1641869D01*
Y-1643199D01*
X3964902Y-1645195D01*
X3966232Y-1646525D01*
X3967562Y-1647190D01*
X3969557D01*
X3970888Y-1646525D01*
X3972218Y-1645195D01*
X3975942Y-1649185D02*
X3985254Y-1633223D01*
X3987515D02*
X3994831D01*
X3990841Y-1638544D01*
X3992836D01*
X3994166Y-1639209D01*
X3994831Y-1639874D01*
X3995497Y-1641869D01*
Y-1643199D01*
X3994831Y-1645195D01*
X3993501Y-1646525D01*
X3991506Y-1647190D01*
X3989510D01*
X3987515Y-1646525D01*
X3986850Y-1645860D01*
X3986185Y-1644530D01*
X3999287Y-1645860D02*
X3998622Y-1646525D01*
X3999287Y-1647190D01*
X3999952Y-1646525D01*
X3999287Y-1645860D01*
X4007003Y-1633223D02*
X4005007Y-1633888D01*
X4003677Y-1635883D01*
X4003012Y-1639209D01*
Y-1641204D01*
X4003677Y-1644530D01*
X4005007Y-1646525D01*
X4007003Y-1647190D01*
X4008333D01*
X4010328Y-1646525D01*
X4011658Y-1644530D01*
X4012323Y-1641204D01*
Y-1639209D01*
X4011658Y-1635883D01*
X4010328Y-1633888D01*
X4008333Y-1633223D01*
X4007003D01*
X4015449Y-1649185D02*
X4024761Y-1633223D01*
X4039991Y-1637879D02*
X4038661Y-1638544D01*
X4037331Y-1639874D01*
X4036666Y-1641869D01*
Y-1643199D01*
X4037331Y-1645195D01*
X4038661Y-1646525D01*
X4039991Y-1647190D01*
X4041986D01*
X4043317Y-1646525D01*
X4044647Y-1645195D01*
X4045312Y-1643199D01*
Y-1641869D01*
X4044647Y-1639874D01*
X4043317Y-1638544D01*
X4041986Y-1637879D01*
X4039991D01*
X4048372D02*
Y-1647190D01*
Y-1641869D02*
X4049037Y-1639874D01*
X4050367Y-1638544D01*
X4051697Y-1637879D01*
X4053692D01*
X4073246Y-1639874D02*
X4072581Y-1638544D01*
X4070586Y-1637879D01*
X4068590D01*
X4066595Y-1638544D01*
X4065930Y-1639874D01*
X4066595Y-1641204D01*
X4067925Y-1641869D01*
X4071251Y-1642534D01*
X4072581Y-1643199D01*
X4073246Y-1644530D01*
Y-1645195D01*
X4072581Y-1646525D01*
X4070586Y-1647190D01*
X4068590D01*
X4066595Y-1646525D01*
X4065930Y-1645195D01*
X4076172Y-1641869D02*
X4084154D01*
Y-1640539D01*
X4083488Y-1639209D01*
X4082823Y-1638544D01*
X4081493Y-1637879D01*
X4079498D01*
X4078168Y-1638544D01*
X4076837Y-1639874D01*
X4076172Y-1641869D01*
Y-1643199D01*
X4076837Y-1645195D01*
X4078168Y-1646525D01*
X4079498Y-1647190D01*
X4081493D01*
X4082823Y-1646525D01*
X4084154Y-1645195D01*
X4087147Y-1637879D02*
Y-1647190D01*
Y-1640539D02*
X4089142Y-1638544D01*
X4090472Y-1637879D01*
X4092467D01*
X4093798Y-1638544D01*
X4094463Y-1640539D01*
Y-1647190D01*
X4106102Y-1633223D02*
Y-1647190D01*
Y-1639874D02*
X4104771Y-1638544D01*
X4103441Y-1637879D01*
X4101446D01*
X4100116Y-1638544D01*
X4098786Y-1639874D01*
X4098121Y-1641869D01*
Y-1643199D01*
X4098786Y-1645195D01*
X4100116Y-1646525D01*
X4101446Y-1647190D01*
X4103441D01*
X4104771Y-1646525D01*
X4106102Y-1645195D01*
X3203301Y-1669629D02*
Y-1678940D01*
Y-1671624D02*
X3201971Y-1670294D01*
X3200641Y-1669629D01*
X3198646D01*
X3197315Y-1670294D01*
X3195985Y-1671624D01*
X3195320Y-1673619D01*
Y-1674949D01*
X3195985Y-1676945D01*
X3197315Y-1678275D01*
X3198646Y-1678940D01*
X3200641D01*
X3201971Y-1678275D01*
X3203301Y-1676945D01*
X3218000Y-1664973D02*
Y-1678940D01*
X3220926Y-1673619D02*
X3228907D01*
Y-1672289D01*
X3228242Y-1670959D01*
X3227577Y-1670294D01*
X3226247Y-1669629D01*
X3224252D01*
X3222921Y-1670294D01*
X3221591Y-1671624D01*
X3220926Y-1673619D01*
Y-1674949D01*
X3221591Y-1676945D01*
X3222921Y-1678275D01*
X3224252Y-1678940D01*
X3226247D01*
X3227577Y-1678275D01*
X3228907Y-1676945D01*
X3233896Y-1664973D02*
Y-1676280D01*
X3234561Y-1678275D01*
X3235891Y-1678940D01*
X3237221D01*
X3231900Y-1669629D02*
X3236556D01*
X3241212Y-1664973D02*
Y-1676280D01*
X3241877Y-1678275D01*
X3243207Y-1678940D01*
X3244537D01*
X3239216Y-1669629D02*
X3243872D01*
X3246532Y-1673619D02*
X3254514D01*
Y-1672289D01*
X3253848Y-1670959D01*
X3253183Y-1670294D01*
X3251853Y-1669629D01*
X3249858D01*
X3248528Y-1670294D01*
X3247198Y-1671624D01*
X3246532Y-1673619D01*
Y-1674949D01*
X3247198Y-1676945D01*
X3248528Y-1678275D01*
X3249858Y-1678940D01*
X3251853D01*
X3253183Y-1678275D01*
X3254514Y-1676945D01*
X3257506Y-1669629D02*
Y-1678940D01*
Y-1673619D02*
X3258171Y-1671624D01*
X3259502Y-1670294D01*
X3260832Y-1669629D01*
X3262827D01*
X3277060Y-1664973D02*
Y-1676280D01*
X3277725Y-1678275D01*
X3279055Y-1678940D01*
X3280386D01*
X3275065Y-1669629D02*
X3279720D01*
X3285706D02*
X3284376Y-1670294D01*
X3283046Y-1671624D01*
X3282381Y-1673619D01*
Y-1674949D01*
X3283046Y-1676945D01*
X3284376Y-1678275D01*
X3285706Y-1678940D01*
X3287702D01*
X3289032Y-1678275D01*
X3290362Y-1676945D01*
X3291027Y-1674949D01*
Y-1673619D01*
X3290362Y-1671624D01*
X3289032Y-1670294D01*
X3287702Y-1669629D01*
X3285706D01*
X3315037Y-1668298D02*
X3314372Y-1666968D01*
X3313042Y-1665638D01*
X3311712Y-1664973D01*
X3309051D01*
X3307721Y-1665638D01*
X3306391Y-1666968D01*
X3305726Y-1668298D01*
X3305061Y-1670294D01*
Y-1673619D01*
X3305726Y-1675614D01*
X3306391Y-1676945D01*
X3307721Y-1678275D01*
X3309051Y-1678940D01*
X3311712D01*
X3313042Y-1678275D01*
X3314372Y-1676945D01*
X3315037Y-1675614D01*
X3318961Y-1669629D02*
Y-1678940D01*
Y-1673619D02*
X3319626Y-1671624D01*
X3320957Y-1670294D01*
X3322287Y-1669629D01*
X3324282D01*
X3325546Y-1673619D02*
X3333527D01*
Y-1672289D01*
X3332862Y-1670959D01*
X3332197Y-1670294D01*
X3330866Y-1669629D01*
X3328871D01*
X3327541Y-1670294D01*
X3326211Y-1671624D01*
X3325546Y-1673619D01*
Y-1674949D01*
X3326211Y-1676945D01*
X3327541Y-1678275D01*
X3328871Y-1678940D01*
X3330866D01*
X3332197Y-1678275D01*
X3333527Y-1676945D01*
X3344501Y-1669629D02*
Y-1678940D01*
Y-1671624D02*
X3343171Y-1670294D01*
X3341841Y-1669629D01*
X3339845D01*
X3338515Y-1670294D01*
X3337185Y-1671624D01*
X3336520Y-1673619D01*
Y-1674949D01*
X3337185Y-1676945D01*
X3338515Y-1678275D01*
X3339845Y-1678940D01*
X3341841D01*
X3343171Y-1678275D01*
X3344501Y-1676945D01*
X3350221Y-1664973D02*
Y-1676280D01*
X3350886Y-1678275D01*
X3352216Y-1678940D01*
X3353546D01*
X3348225Y-1669629D02*
X3352881D01*
X3356872Y-1664973D02*
X3357537Y-1665638D01*
X3358202Y-1664973D01*
X3357537Y-1664308D01*
X3356872Y-1664973D01*
X3357537Y-1669629D02*
Y-1678940D01*
X3360663Y-1669629D02*
X3364653Y-1678940D01*
X3368644Y-1669629D02*
X3364653Y-1678940D01*
X3370905Y-1673619D02*
X3378886D01*
Y-1672289D01*
X3378221Y-1670959D01*
X3377556Y-1670294D01*
X3376226Y-1669629D01*
X3374231D01*
X3372900Y-1670294D01*
X3371570Y-1671624D01*
X3370905Y-1673619D01*
Y-1674949D01*
X3371570Y-1676945D01*
X3372900Y-1678275D01*
X3374231Y-1678940D01*
X3376226D01*
X3377556Y-1678275D01*
X3378886Y-1676945D01*
X3402830Y-1668298D02*
X3402165Y-1666968D01*
X3400834Y-1665638D01*
X3399504Y-1664973D01*
X3396844D01*
X3395514Y-1665638D01*
X3394184Y-1666968D01*
X3393518Y-1668298D01*
X3392853Y-1670294D01*
Y-1673619D01*
X3393518Y-1675614D01*
X3394184Y-1676945D01*
X3395514Y-1678275D01*
X3396844Y-1678940D01*
X3399504D01*
X3400834Y-1678275D01*
X3402165Y-1676945D01*
X3402830Y-1675614D01*
X3410079Y-1669629D02*
X3408749Y-1670294D01*
X3407419Y-1671624D01*
X3406754Y-1673619D01*
Y-1674949D01*
X3407419Y-1676945D01*
X3408749Y-1678275D01*
X3410079Y-1678940D01*
X3412075D01*
X3413405Y-1678275D01*
X3414735Y-1676945D01*
X3415400Y-1674949D01*
Y-1673619D01*
X3414735Y-1671624D01*
X3413405Y-1670294D01*
X3412075Y-1669629D01*
X3410079D01*
X3418459D02*
Y-1678940D01*
Y-1672289D02*
X3420455Y-1670294D01*
X3421785Y-1669629D01*
X3423781D01*
X3425110Y-1670294D01*
X3425775Y-1672289D01*
Y-1678940D01*
Y-1672289D02*
X3427771Y-1670294D01*
X3429101Y-1669629D01*
X3431096D01*
X3432426Y-1670294D01*
X3433092Y-1672289D01*
Y-1678940D01*
X3437481Y-1669629D02*
Y-1678940D01*
Y-1672289D02*
X3439477Y-1670294D01*
X3440807Y-1669629D01*
X3442802D01*
X3444132Y-1670294D01*
X3444797Y-1672289D01*
Y-1678940D01*
Y-1672289D02*
X3446793Y-1670294D01*
X3448123Y-1669629D01*
X3450118D01*
X3451448Y-1670294D01*
X3452113Y-1672289D01*
Y-1678940D01*
X3459828Y-1669629D02*
X3458498Y-1670294D01*
X3457168Y-1671624D01*
X3456503Y-1673619D01*
Y-1674949D01*
X3457168Y-1676945D01*
X3458498Y-1678275D01*
X3459828Y-1678940D01*
X3461824D01*
X3463154Y-1678275D01*
X3464484Y-1676945D01*
X3465149Y-1674949D01*
Y-1673619D01*
X3464484Y-1671624D01*
X3463154Y-1670294D01*
X3461824Y-1669629D01*
X3459828D01*
X3468209D02*
Y-1678940D01*
Y-1672289D02*
X3470204Y-1670294D01*
X3471534Y-1669629D01*
X3473529D01*
X3474860Y-1670294D01*
X3475525Y-1672289D01*
Y-1678940D01*
X3486499Y-1671624D02*
X3485834Y-1670294D01*
X3483839Y-1669629D01*
X3481843D01*
X3479848Y-1670294D01*
X3479183Y-1671624D01*
X3479848Y-1672954D01*
X3481178Y-1673619D01*
X3484503Y-1674284D01*
X3485834Y-1674949D01*
X3486499Y-1676280D01*
Y-1676945D01*
X3485834Y-1678275D01*
X3483839Y-1678940D01*
X3481843D01*
X3479848Y-1678275D01*
X3479183Y-1676945D01*
X3490756Y-1678275D02*
X3490090Y-1678940D01*
X3489425Y-1678275D01*
X3490090Y-1677610D01*
X3490756Y-1678275D01*
Y-1679605D01*
X3490090Y-1680935D01*
X3489425Y-1681600D01*
X3504789Y-1667633D02*
X3506119Y-1666968D01*
X3508114Y-1664973D01*
Y-1678940D01*
X3524343Y-1664973D02*
X3517692Y-1678940D01*
X3515031Y-1664973D02*
X3524343D01*
X3527469Y-1667633D02*
X3528799Y-1666968D01*
X3530794Y-1664973D01*
Y-1678940D01*
X3557997Y-1666968D02*
X3556666Y-1665638D01*
X3554671Y-1664973D01*
X3552011D01*
X3550016Y-1665638D01*
X3548685Y-1666968D01*
Y-1668298D01*
X3549350Y-1669629D01*
X3550016Y-1670294D01*
X3551346Y-1670959D01*
X3555336Y-1672289D01*
X3556666Y-1672954D01*
X3557332Y-1673619D01*
X3557997Y-1674949D01*
Y-1676945D01*
X3556666Y-1678275D01*
X3554671Y-1678940D01*
X3552011D01*
X3550016Y-1678275D01*
X3548685Y-1676945D01*
X3561123Y-1673619D02*
X3569104D01*
Y-1672289D01*
X3568439Y-1670959D01*
X3567773Y-1670294D01*
X3566443Y-1669629D01*
X3564448D01*
X3563118Y-1670294D01*
X3561788Y-1671624D01*
X3561123Y-1673619D01*
Y-1674949D01*
X3561788Y-1676945D01*
X3563118Y-1678275D01*
X3564448Y-1678940D01*
X3566443D01*
X3567773Y-1678275D01*
X3569104Y-1676945D01*
X3580078Y-1671624D02*
X3578748Y-1670294D01*
X3577417Y-1669629D01*
X3575422D01*
X3574092Y-1670294D01*
X3572762Y-1671624D01*
X3572097Y-1673619D01*
Y-1674949D01*
X3572762Y-1676945D01*
X3574092Y-1678275D01*
X3575422Y-1678940D01*
X3577417D01*
X3578748Y-1678275D01*
X3580078Y-1676945D01*
X3586396Y-1669629D02*
X3585066Y-1670294D01*
X3583736Y-1671624D01*
X3583071Y-1673619D01*
Y-1674949D01*
X3583736Y-1676945D01*
X3585066Y-1678275D01*
X3586396Y-1678940D01*
X3588391D01*
X3589722Y-1678275D01*
X3591052Y-1676945D01*
X3591717Y-1674949D01*
Y-1673619D01*
X3591052Y-1671624D01*
X3589722Y-1670294D01*
X3588391Y-1669629D01*
X3586396D01*
X3594776D02*
Y-1678940D01*
Y-1672289D02*
X3596772Y-1670294D01*
X3598102Y-1669629D01*
X3600097D01*
X3601427Y-1670294D01*
X3602093Y-1672289D01*
Y-1678940D01*
X3613732Y-1664973D02*
Y-1678940D01*
Y-1671624D02*
X3612401Y-1670294D01*
X3611071Y-1669629D01*
X3609076D01*
X3607746Y-1670294D01*
X3606416Y-1671624D01*
X3605750Y-1673619D01*
Y-1674949D01*
X3606416Y-1676945D01*
X3607746Y-1678275D01*
X3609076Y-1678940D01*
X3611071D01*
X3612401Y-1678275D01*
X3613732Y-1676945D01*
X3637742Y-1666968D02*
X3636411Y-1665638D01*
X3634416Y-1664973D01*
X3631756D01*
X3629760Y-1665638D01*
X3628430Y-1666968D01*
Y-1668298D01*
X3629095Y-1669629D01*
X3629760Y-1670294D01*
X3631091Y-1670959D01*
X3635081Y-1672289D01*
X3636411Y-1672954D01*
X3637076Y-1673619D01*
X3637742Y-1674949D01*
Y-1676945D01*
X3636411Y-1678275D01*
X3634416Y-1678940D01*
X3631756D01*
X3629760Y-1678275D01*
X3628430Y-1676945D01*
X3642863Y-1664973D02*
Y-1676280D01*
X3643528Y-1678275D01*
X3644858Y-1678940D01*
X3646188D01*
X3640868Y-1669629D02*
X3645523D01*
X3648184D02*
Y-1678940D01*
Y-1673619D02*
X3648849Y-1671624D01*
X3650179Y-1670294D01*
X3651509Y-1669629D01*
X3653504D01*
X3654768Y-1673619D02*
X3662749D01*
Y-1672289D01*
X3662084Y-1670959D01*
X3661419Y-1670294D01*
X3660089Y-1669629D01*
X3658094D01*
X3656763Y-1670294D01*
X3655433Y-1671624D01*
X3654768Y-1673619D01*
Y-1674949D01*
X3655433Y-1676945D01*
X3656763Y-1678275D01*
X3658094Y-1678940D01*
X3660089D01*
X3661419Y-1678275D01*
X3662749Y-1676945D01*
X3665742Y-1673619D02*
X3673723D01*
Y-1672289D01*
X3673058Y-1670959D01*
X3672393Y-1670294D01*
X3671063Y-1669629D01*
X3669068D01*
X3667737Y-1670294D01*
X3666407Y-1671624D01*
X3665742Y-1673619D01*
Y-1674949D01*
X3666407Y-1676945D01*
X3667737Y-1678275D01*
X3669068Y-1678940D01*
X3671063D01*
X3672393Y-1678275D01*
X3673723Y-1676945D01*
X3678712Y-1664973D02*
Y-1676280D01*
X3679377Y-1678275D01*
X3680707Y-1678940D01*
X3682037D01*
X3676716Y-1669629D02*
X3681372D01*
X3685363Y-1678275D02*
X3684697Y-1678940D01*
X3684032Y-1678275D01*
X3684697Y-1677610D01*
X3685363Y-1678275D01*
Y-1679605D01*
X3684697Y-1680935D01*
X3684032Y-1681600D01*
X3708707Y-1666968D02*
X3707377Y-1665638D01*
X3705382Y-1664973D01*
X3702721D01*
X3700726Y-1665638D01*
X3699396Y-1666968D01*
Y-1668298D01*
X3700061Y-1669629D01*
X3700726Y-1670294D01*
X3702056Y-1670959D01*
X3706047Y-1672289D01*
X3707377Y-1672954D01*
X3708042Y-1673619D01*
X3708707Y-1674949D01*
Y-1676945D01*
X3707377Y-1678275D01*
X3705382Y-1678940D01*
X3702721D01*
X3700726Y-1678275D01*
X3699396Y-1676945D01*
X3711833Y-1669629D02*
Y-1676280D01*
X3712498Y-1678275D01*
X3713828Y-1678940D01*
X3715824D01*
X3717154Y-1678275D01*
X3719149Y-1676280D01*
Y-1669629D02*
Y-1678940D01*
X3724138Y-1664973D02*
X3724803Y-1665638D01*
X3725468Y-1664973D01*
X3724803Y-1664308D01*
X3724138Y-1664973D01*
X3724803Y-1669629D02*
Y-1678940D01*
X3729924Y-1664973D02*
Y-1676280D01*
X3730589Y-1678275D01*
X3731919Y-1678940D01*
X3733249D01*
X3727928Y-1669629D02*
X3732584D01*
X3735245Y-1673619D02*
X3743226D01*
Y-1672289D01*
X3742561Y-1670959D01*
X3741895Y-1670294D01*
X3740565Y-1669629D01*
X3738570D01*
X3737240Y-1670294D01*
X3735910Y-1671624D01*
X3735245Y-1673619D01*
Y-1674949D01*
X3735910Y-1676945D01*
X3737240Y-1678275D01*
X3738570Y-1678940D01*
X3740565D01*
X3741895Y-1678275D01*
X3743226Y-1676945D01*
X3758523Y-1664973D02*
X3765839D01*
X3761848Y-1670294D01*
X3763844D01*
X3765174Y-1670959D01*
X3765839Y-1671624D01*
X3766504Y-1673619D01*
Y-1674949D01*
X3765839Y-1676945D01*
X3764509Y-1678275D01*
X3762513Y-1678940D01*
X3760518D01*
X3758523Y-1678275D01*
X3757858Y-1677610D01*
X3757193Y-1676280D01*
X3773621Y-1664973D02*
X3771625Y-1665638D01*
X3770295Y-1667633D01*
X3769630Y-1670959D01*
Y-1672954D01*
X3770295Y-1676280D01*
X3771625Y-1678275D01*
X3773621Y-1678940D01*
X3774951D01*
X3776946Y-1678275D01*
X3778276Y-1676280D01*
X3778941Y-1672954D01*
Y-1670959D01*
X3778276Y-1667633D01*
X3776946Y-1665638D01*
X3774951Y-1664973D01*
X3773621D01*
X3786058D02*
X3784062Y-1665638D01*
X3782733Y-1667633D01*
X3782067Y-1670959D01*
Y-1672954D01*
X3782733Y-1676280D01*
X3784062Y-1678275D01*
X3786058Y-1678940D01*
X3787388D01*
X3789384Y-1678275D01*
X3790714Y-1676280D01*
X3791378Y-1672954D01*
Y-1670959D01*
X3790714Y-1667633D01*
X3789384Y-1665638D01*
X3787388Y-1664973D01*
X3786058D01*
X3795835Y-1678275D02*
X3795170Y-1678940D01*
X3794505Y-1678275D01*
X3795170Y-1677610D01*
X3795835Y-1678275D01*
Y-1679605D01*
X3795170Y-1680935D01*
X3794505Y-1681600D01*
X3819180Y-1666968D02*
X3817849Y-1665638D01*
X3815854Y-1664973D01*
X3813194D01*
X3811198Y-1665638D01*
X3809868Y-1666968D01*
Y-1668298D01*
X3810533Y-1669629D01*
X3811198Y-1670294D01*
X3812529Y-1670959D01*
X3816519Y-1672289D01*
X3817849Y-1672954D01*
X3818514Y-1673619D01*
X3819180Y-1674949D01*
Y-1676945D01*
X3817849Y-1678275D01*
X3815854Y-1678940D01*
X3813194D01*
X3811198Y-1678275D01*
X3809868Y-1676945D01*
X3830287Y-1669629D02*
Y-1678940D01*
Y-1671624D02*
X3828957Y-1670294D01*
X3827626Y-1669629D01*
X3825631D01*
X3824301Y-1670294D01*
X3822971Y-1671624D01*
X3822306Y-1673619D01*
Y-1674949D01*
X3822971Y-1676945D01*
X3824301Y-1678275D01*
X3825631Y-1678940D01*
X3827626D01*
X3828957Y-1678275D01*
X3830287Y-1676945D01*
X3834011Y-1669629D02*
Y-1678940D01*
Y-1672289D02*
X3836006Y-1670294D01*
X3837337Y-1669629D01*
X3839332D01*
X3840662Y-1670294D01*
X3841327Y-1672289D01*
Y-1678940D01*
X3855959Y-1664973D02*
Y-1678940D01*
Y-1664973D02*
X3864606D01*
X3855959Y-1671624D02*
X3861280D01*
X3866202Y-1669629D02*
Y-1678940D01*
Y-1673619D02*
X3866867Y-1671624D01*
X3868197Y-1670294D01*
X3869527Y-1669629D01*
X3871523D01*
X3880768D02*
Y-1678940D01*
Y-1671624D02*
X3879437Y-1670294D01*
X3878107Y-1669629D01*
X3876112D01*
X3874781Y-1670294D01*
X3873452Y-1671624D01*
X3872786Y-1673619D01*
Y-1674949D01*
X3873452Y-1676945D01*
X3874781Y-1678275D01*
X3876112Y-1678940D01*
X3878107D01*
X3879437Y-1678275D01*
X3880768Y-1676945D01*
X3884492Y-1669629D02*
Y-1678940D01*
Y-1672289D02*
X3886487Y-1670294D01*
X3887817Y-1669629D01*
X3889813D01*
X3891143Y-1670294D01*
X3891808Y-1672289D01*
Y-1678940D01*
X3903447Y-1671624D02*
X3902117Y-1670294D01*
X3900787Y-1669629D01*
X3898792D01*
X3897462Y-1670294D01*
X3896131Y-1671624D01*
X3895466Y-1673619D01*
Y-1674949D01*
X3896131Y-1676945D01*
X3897462Y-1678275D01*
X3898792Y-1678940D01*
X3900787D01*
X3902117Y-1678275D01*
X3903447Y-1676945D01*
X3907770Y-1664973D02*
X3908435Y-1665638D01*
X3909101Y-1664973D01*
X3908435Y-1664308D01*
X3907770Y-1664973D01*
X3908435Y-1669629D02*
Y-1678940D01*
X3918877Y-1671624D02*
X3918212Y-1670294D01*
X3916217Y-1669629D01*
X3914222D01*
X3912227Y-1670294D01*
X3911561Y-1671624D01*
X3912227Y-1672954D01*
X3913557Y-1673619D01*
X3916882Y-1674284D01*
X3918212Y-1674949D01*
X3918877Y-1676280D01*
Y-1676945D01*
X3918212Y-1678275D01*
X3916217Y-1678940D01*
X3914222D01*
X3912227Y-1678275D01*
X3911561Y-1676945D01*
X3929785Y-1671624D02*
X3928455Y-1670294D01*
X3927125Y-1669629D01*
X3925129D01*
X3923799Y-1670294D01*
X3922469Y-1671624D01*
X3921804Y-1673619D01*
Y-1674949D01*
X3922469Y-1676945D01*
X3923799Y-1678275D01*
X3925129Y-1678940D01*
X3927125D01*
X3928455Y-1678275D01*
X3929785Y-1676945D01*
X3936104Y-1669629D02*
X3934773Y-1670294D01*
X3933443Y-1671624D01*
X3932778Y-1673619D01*
Y-1674949D01*
X3933443Y-1676945D01*
X3934773Y-1678275D01*
X3936104Y-1678940D01*
X3938099D01*
X3939429Y-1678275D01*
X3940759Y-1676945D01*
X3941424Y-1674949D01*
Y-1673619D01*
X3940759Y-1671624D01*
X3939429Y-1670294D01*
X3938099Y-1669629D01*
X3936104D01*
X3945814Y-1678275D02*
X3945149Y-1678940D01*
X3944484Y-1678275D01*
X3945149Y-1677610D01*
X3945814Y-1678275D01*
Y-1679605D01*
X3945149Y-1680935D01*
X3944484Y-1681600D01*
X3969824Y-1668298D02*
X3969159Y-1666968D01*
X3967828Y-1665638D01*
X3966498Y-1664973D01*
X3963838D01*
X3962508Y-1665638D01*
X3961177Y-1666968D01*
X3960512Y-1668298D01*
X3959847Y-1670294D01*
Y-1673619D01*
X3960512Y-1675614D01*
X3961177Y-1676945D01*
X3962508Y-1678275D01*
X3963838Y-1678940D01*
X3966498D01*
X3967828Y-1678275D01*
X3969159Y-1676945D01*
X3969824Y-1675614D01*
X3981729Y-1669629D02*
Y-1678940D01*
Y-1671624D02*
X3980399Y-1670294D01*
X3979069Y-1669629D01*
X3977073D01*
X3975743Y-1670294D01*
X3974413Y-1671624D01*
X3973748Y-1673619D01*
Y-1674949D01*
X3974413Y-1676945D01*
X3975743Y-1678275D01*
X3977073Y-1678940D01*
X3979069D01*
X3980399Y-1678275D01*
X3981729Y-1676945D01*
X3985453Y-1664973D02*
Y-1678940D01*
X3989710Y-1664973D02*
X3990375Y-1665638D01*
X3991040Y-1664973D01*
X3990375Y-1664308D01*
X3989710Y-1664973D01*
X3990375Y-1669629D02*
Y-1678940D01*
X3998822Y-1664973D02*
X3997492D01*
X3996161Y-1665638D01*
X3995497Y-1667633D01*
Y-1678940D01*
X3993501Y-1669629D02*
X3998157D01*
X4004143D02*
X4002812Y-1670294D01*
X4001482Y-1671624D01*
X4000817Y-1673619D01*
Y-1674949D01*
X4001482Y-1676945D01*
X4002812Y-1678275D01*
X4004143Y-1678940D01*
X4006138D01*
X4007468Y-1678275D01*
X4008798Y-1676945D01*
X4009464Y-1674949D01*
Y-1673619D01*
X4008798Y-1671624D01*
X4007468Y-1670294D01*
X4006138Y-1669629D01*
X4004143D01*
X4012523D02*
Y-1678940D01*
Y-1673619D02*
X4013188Y-1671624D01*
X4014518Y-1670294D01*
X4015848Y-1669629D01*
X4017844D01*
X4019107D02*
Y-1678940D01*
Y-1672289D02*
X4021103Y-1670294D01*
X4022433Y-1669629D01*
X4024428D01*
X4025758Y-1670294D01*
X4026423Y-1672289D01*
Y-1678940D01*
X4031412Y-1664973D02*
X4032077Y-1665638D01*
X4032742Y-1664973D01*
X4032077Y-1664308D01*
X4031412Y-1664973D01*
X4032077Y-1669629D02*
Y-1678940D01*
X4043184Y-1669629D02*
Y-1678940D01*
Y-1671624D02*
X4041854Y-1670294D01*
X4040523Y-1669629D01*
X4038528D01*
X4037198Y-1670294D01*
X4035868Y-1671624D01*
X4035203Y-1673619D01*
Y-1674949D01*
X4035868Y-1676945D01*
X4037198Y-1678275D01*
X4038528Y-1678940D01*
X4040523D01*
X4041854Y-1678275D01*
X4043184Y-1676945D01*
X4048239Y-1678275D02*
X4047574Y-1678940D01*
X4046908Y-1678275D01*
X4047574Y-1677610D01*
X4048239Y-1678275D01*
Y-1679605D01*
X4047574Y-1680935D01*
X4046908Y-1681600D01*
X4070918Y-1669629D02*
X4070253Y-1671624D01*
X4068923Y-1672954D01*
X4066928Y-1673619D01*
X4066263D01*
X4064267Y-1672954D01*
X4062937Y-1671624D01*
X4062272Y-1669629D01*
Y-1668964D01*
X4062937Y-1666968D01*
X4064267Y-1665638D01*
X4066263Y-1664973D01*
X4066928D01*
X4068923Y-1665638D01*
X4070253Y-1666968D01*
X4070918Y-1669629D01*
Y-1672954D01*
X4070253Y-1676280D01*
X4068923Y-1678275D01*
X4066928Y-1678940D01*
X4065598D01*
X4063602Y-1678275D01*
X4062937Y-1676945D01*
X4081360Y-1664973D02*
X4074709Y-1674284D01*
X4084686D01*
X4081360Y-1664973D02*
Y-1678940D01*
X4087147Y-1667633D02*
X4088477Y-1666968D01*
X4090472Y-1664973D01*
Y-1678940D01*
X4101380Y-1664973D02*
X4099384Y-1665638D01*
X4098054Y-1667633D01*
X4097389Y-1670959D01*
Y-1672954D01*
X4098054Y-1676280D01*
X4099384Y-1678275D01*
X4101380Y-1678940D01*
X4102710D01*
X4104705Y-1678275D01*
X4106035Y-1676280D01*
X4106700Y-1672954D01*
Y-1670959D01*
X4106035Y-1667633D01*
X4104705Y-1665638D01*
X4102710Y-1664973D01*
X4101380D01*
X4117808D02*
X4111157D01*
X4110491Y-1670959D01*
X4111157Y-1670294D01*
X4113152Y-1669629D01*
X4115147D01*
X4117142Y-1670294D01*
X4118473Y-1671624D01*
X4119138Y-1673619D01*
Y-1674949D01*
X4118473Y-1676945D01*
X4117142Y-1678275D01*
X4115147Y-1678940D01*
X4113152D01*
X4111157Y-1678275D01*
X4110491Y-1677610D01*
X4109826Y-1676280D01*
X4123594Y-1678275D02*
X4122929Y-1678940D01*
X4122263Y-1678275D01*
X4122929Y-1677610D01*
X4123594Y-1678275D01*
Y-1679605D01*
X4122929Y-1680935D01*
X4122263Y-1681600D01*
X4137627Y-1664973D02*
Y-1674949D01*
X4138293Y-1676945D01*
X4139622Y-1678275D01*
X4141618Y-1678940D01*
X4142948D01*
X4144944Y-1678275D01*
X4146273Y-1676945D01*
X4146939Y-1674949D01*
Y-1664973D01*
X4160108Y-1666968D02*
X4158777Y-1665638D01*
X4156782Y-1664973D01*
X4154122D01*
X4152126Y-1665638D01*
X4150796Y-1666968D01*
Y-1668298D01*
X4151461Y-1669629D01*
X4152126Y-1670294D01*
X4153457Y-1670959D01*
X4157447Y-1672289D01*
X4158777Y-1672954D01*
X4159442Y-1673619D01*
X4160108Y-1674949D01*
Y-1676945D01*
X4158777Y-1678275D01*
X4156782Y-1678940D01*
X4154122D01*
X4152126Y-1678275D01*
X4150796Y-1676945D01*
X4173875Y-1678940D02*
X4168554Y-1664973D01*
X4163234Y-1678940D01*
X4165229Y-1674284D02*
X4171880D01*
X4177799Y-1677610D02*
X4177134Y-1678275D01*
X4177799Y-1678940D01*
X4178464Y-1678275D01*
X4177799Y-1677610D01*
X3205962Y-1710690D02*
X3200641Y-1696723D01*
X3195320Y-1710690D01*
X3197315Y-1706034D02*
X3203966D01*
X3209221Y-1696723D02*
Y-1710690D01*
X3212147Y-1696723D02*
Y-1710690D01*
X3234029Y-1696723D02*
Y-1710690D01*
Y-1703374D02*
X3232698Y-1702044D01*
X3231368Y-1701379D01*
X3229373D01*
X3228043Y-1702044D01*
X3226713Y-1703374D01*
X3226047Y-1705369D01*
Y-1706699D01*
X3226713Y-1708695D01*
X3228043Y-1710025D01*
X3229373Y-1710690D01*
X3231368D01*
X3232698Y-1710025D01*
X3234029Y-1708695D01*
X3237753Y-1705369D02*
X3245734D01*
Y-1704039D01*
X3245069Y-1702709D01*
X3244404Y-1702044D01*
X3243074Y-1701379D01*
X3241078D01*
X3239749Y-1702044D01*
X3238418Y-1703374D01*
X3237753Y-1705369D01*
Y-1706699D01*
X3238418Y-1708695D01*
X3239749Y-1710025D01*
X3241078Y-1710690D01*
X3243074D01*
X3244404Y-1710025D01*
X3245734Y-1708695D01*
X3248727Y-1701379D02*
Y-1710690D01*
Y-1705369D02*
X3249392Y-1703374D01*
X3250722Y-1702044D01*
X3252053Y-1701379D01*
X3254048D01*
X3256642Y-1696723D02*
X3257307Y-1697388D01*
X3257972Y-1696723D01*
X3257307Y-1696058D01*
X3256642Y-1696723D01*
X3257307Y-1701379D02*
Y-1710690D01*
X3260433Y-1701379D02*
X3264424Y-1710690D01*
X3268414Y-1701379D02*
X3264424Y-1710690D01*
X3278656Y-1701379D02*
Y-1710690D01*
Y-1703374D02*
X3277326Y-1702044D01*
X3275996Y-1701379D01*
X3274001D01*
X3272671Y-1702044D01*
X3271340Y-1703374D01*
X3270675Y-1705369D01*
Y-1706699D01*
X3271340Y-1708695D01*
X3272671Y-1710025D01*
X3274001Y-1710690D01*
X3275996D01*
X3277326Y-1710025D01*
X3278656Y-1708695D01*
X3284376Y-1696723D02*
Y-1708030D01*
X3285042Y-1710025D01*
X3286371Y-1710690D01*
X3287702D01*
X3282381Y-1701379D02*
X3287037D01*
X3291027Y-1696723D02*
X3291692Y-1697388D01*
X3292357Y-1696723D01*
X3291692Y-1696058D01*
X3291027Y-1696723D01*
X3291692Y-1701379D02*
Y-1710690D01*
X3294818Y-1701379D02*
X3298809Y-1710690D01*
X3302799Y-1701379D02*
X3298809Y-1710690D01*
X3305061Y-1705369D02*
X3313042D01*
Y-1704039D01*
X3312377Y-1702709D01*
X3311712Y-1702044D01*
X3310381Y-1701379D01*
X3308386D01*
X3307056Y-1702044D01*
X3305726Y-1703374D01*
X3305061Y-1705369D01*
Y-1706699D01*
X3305726Y-1708695D01*
X3307056Y-1710025D01*
X3308386Y-1710690D01*
X3310381D01*
X3311712Y-1710025D01*
X3313042Y-1708695D01*
X3327009Y-1701379D02*
X3329669Y-1710690D01*
X3332330Y-1701379D02*
X3329669Y-1710690D01*
X3332330Y-1701379D02*
X3334990Y-1710690D01*
X3337650Y-1701379D02*
X3334990Y-1710690D01*
X3344235Y-1701379D02*
X3342905Y-1702044D01*
X3341574Y-1703374D01*
X3340909Y-1705369D01*
Y-1706699D01*
X3341574Y-1708695D01*
X3342905Y-1710025D01*
X3344235Y-1710690D01*
X3346230D01*
X3347560Y-1710025D01*
X3348890Y-1708695D01*
X3349556Y-1706699D01*
Y-1705369D01*
X3348890Y-1703374D01*
X3347560Y-1702044D01*
X3346230Y-1701379D01*
X3344235D01*
X3352615D02*
Y-1710690D01*
Y-1705369D02*
X3353280Y-1703374D01*
X3354610Y-1702044D01*
X3355941Y-1701379D01*
X3357936D01*
X3359200Y-1696723D02*
Y-1710690D01*
X3365851Y-1701379D02*
X3359200Y-1708030D01*
X3361860Y-1705369D02*
X3366516Y-1710690D01*
X3376027Y-1703374D02*
X3375361Y-1702044D01*
X3373366Y-1701379D01*
X3371371D01*
X3369376Y-1702044D01*
X3368710Y-1703374D01*
X3369376Y-1704704D01*
X3370706Y-1705369D01*
X3374031Y-1706034D01*
X3375361Y-1706699D01*
X3376027Y-1708030D01*
Y-1708695D01*
X3375361Y-1710025D01*
X3373366Y-1710690D01*
X3371371D01*
X3369376Y-1710025D01*
X3368710Y-1708695D01*
X3397908Y-1701379D02*
Y-1710690D01*
Y-1703374D02*
X3396578Y-1702044D01*
X3395248Y-1701379D01*
X3393252D01*
X3391922Y-1702044D01*
X3390592Y-1703374D01*
X3389927Y-1705369D01*
Y-1706699D01*
X3390592Y-1708695D01*
X3391922Y-1710025D01*
X3393252Y-1710690D01*
X3395248D01*
X3396578Y-1710025D01*
X3397908Y-1708695D01*
X3401633Y-1701379D02*
Y-1710690D01*
Y-1705369D02*
X3402298Y-1703374D01*
X3403628Y-1702044D01*
X3404958Y-1701379D01*
X3406953D01*
X3408217Y-1705369D02*
X3416198D01*
Y-1704039D01*
X3415533Y-1702709D01*
X3414868Y-1702044D01*
X3413538Y-1701379D01*
X3411543D01*
X3410212Y-1702044D01*
X3408882Y-1703374D01*
X3408217Y-1705369D01*
Y-1706699D01*
X3408882Y-1708695D01*
X3410212Y-1710025D01*
X3411543Y-1710690D01*
X3413538D01*
X3414868Y-1710025D01*
X3416198Y-1708695D01*
X3432161Y-1696723D02*
Y-1708030D01*
X3432826Y-1710025D01*
X3434156Y-1710690D01*
X3435486D01*
X3430165Y-1701379D02*
X3434821D01*
X3440807D02*
X3439477Y-1702044D01*
X3438146Y-1703374D01*
X3437481Y-1705369D01*
Y-1706699D01*
X3438146Y-1708695D01*
X3439477Y-1710025D01*
X3440807Y-1710690D01*
X3442802D01*
X3444132Y-1710025D01*
X3445462Y-1708695D01*
X3446128Y-1706699D01*
Y-1705369D01*
X3445462Y-1703374D01*
X3444132Y-1702044D01*
X3442802Y-1701379D01*
X3440807D01*
X3460161Y-1696723D02*
Y-1710690D01*
Y-1703374D02*
X3461491Y-1702044D01*
X3462821Y-1701379D01*
X3464817D01*
X3466147Y-1702044D01*
X3467477Y-1703374D01*
X3468142Y-1705369D01*
Y-1706699D01*
X3467477Y-1708695D01*
X3466147Y-1710025D01*
X3464817Y-1710690D01*
X3462821D01*
X3461491Y-1710025D01*
X3460161Y-1708695D01*
X3471135Y-1705369D02*
X3479116D01*
Y-1704039D01*
X3478451Y-1702709D01*
X3477786Y-1702044D01*
X3476456Y-1701379D01*
X3474460D01*
X3473130Y-1702044D01*
X3471800Y-1703374D01*
X3471135Y-1705369D01*
Y-1706699D01*
X3471800Y-1708695D01*
X3473130Y-1710025D01*
X3474460Y-1710690D01*
X3476456D01*
X3477786Y-1710025D01*
X3479116Y-1708695D01*
X3501064Y-1701379D02*
Y-1710690D01*
Y-1703374D02*
X3499734Y-1702044D01*
X3498404Y-1701379D01*
X3496409D01*
X3495079Y-1702044D01*
X3493748Y-1703374D01*
X3493083Y-1705369D01*
Y-1706699D01*
X3493748Y-1708695D01*
X3495079Y-1710025D01*
X3496409Y-1710690D01*
X3498404D01*
X3499734Y-1710025D01*
X3501064Y-1708695D01*
X3506784Y-1696723D02*
Y-1708030D01*
X3507449Y-1710025D01*
X3508780Y-1710690D01*
X3510110D01*
X3504789Y-1701379D02*
X3509445D01*
X3514100Y-1696723D02*
Y-1708030D01*
X3514765Y-1710025D01*
X3516096Y-1710690D01*
X3517426D01*
X3512105Y-1701379D02*
X3516761D01*
X3519421D02*
Y-1710690D01*
Y-1705369D02*
X3520086Y-1703374D01*
X3521416Y-1702044D01*
X3522747Y-1701379D01*
X3524742D01*
X3527336Y-1696723D02*
X3528001Y-1697388D01*
X3528666Y-1696723D01*
X3528001Y-1696058D01*
X3527336Y-1696723D01*
X3528001Y-1701379D02*
Y-1710690D01*
X3531127Y-1696723D02*
Y-1710690D01*
Y-1703374D02*
X3532457Y-1702044D01*
X3533787Y-1701379D01*
X3535782D01*
X3537113Y-1702044D01*
X3538443Y-1703374D01*
X3539108Y-1705369D01*
Y-1706699D01*
X3538443Y-1708695D01*
X3537113Y-1710025D01*
X3535782Y-1710690D01*
X3533787D01*
X3532457Y-1710025D01*
X3531127Y-1708695D01*
X3542101Y-1701379D02*
Y-1708030D01*
X3542766Y-1710025D01*
X3544096Y-1710690D01*
X3546091D01*
X3547422Y-1710025D01*
X3549417Y-1708030D01*
Y-1701379D02*
Y-1710690D01*
X3555070Y-1696723D02*
Y-1708030D01*
X3555735Y-1710025D01*
X3557065Y-1710690D01*
X3558396D01*
X3553075Y-1701379D02*
X3557731D01*
X3560391Y-1705369D02*
X3568372D01*
Y-1704039D01*
X3567707Y-1702709D01*
X3567042Y-1702044D01*
X3565712Y-1701379D01*
X3563716D01*
X3562386Y-1702044D01*
X3561056Y-1703374D01*
X3560391Y-1705369D01*
Y-1706699D01*
X3561056Y-1708695D01*
X3562386Y-1710025D01*
X3563716Y-1710690D01*
X3565712D01*
X3567042Y-1710025D01*
X3568372Y-1708695D01*
X3579346Y-1696723D02*
Y-1710690D01*
Y-1703374D02*
X3578016Y-1702044D01*
X3576686Y-1701379D01*
X3574691D01*
X3573360Y-1702044D01*
X3572030Y-1703374D01*
X3571365Y-1705369D01*
Y-1706699D01*
X3572030Y-1708695D01*
X3573360Y-1710025D01*
X3574691Y-1710690D01*
X3576686D01*
X3578016Y-1710025D01*
X3579346Y-1708695D01*
X3596040Y-1696723D02*
Y-1708030D01*
X3596705Y-1710025D01*
X3598035Y-1710690D01*
X3599366D01*
X3594045Y-1701379D02*
X3598700D01*
X3604686D02*
X3603356Y-1702044D01*
X3602026Y-1703374D01*
X3601361Y-1705369D01*
Y-1706699D01*
X3602026Y-1708695D01*
X3603356Y-1710025D01*
X3604686Y-1710690D01*
X3606682D01*
X3608012Y-1710025D01*
X3609342Y-1708695D01*
X3610007Y-1706699D01*
Y-1705369D01*
X3609342Y-1703374D01*
X3608012Y-1702044D01*
X3606682Y-1701379D01*
X3604686D01*
X3634017Y-1700049D02*
X3633352Y-1698718D01*
X3632022Y-1697388D01*
X3630692Y-1696723D01*
X3628031D01*
X3626701Y-1697388D01*
X3625371Y-1698718D01*
X3624706Y-1700049D01*
X3624041Y-1702044D01*
Y-1705369D01*
X3624706Y-1707365D01*
X3625371Y-1708695D01*
X3626701Y-1710025D01*
X3628031Y-1710690D01*
X3630692D01*
X3632022Y-1710025D01*
X3633352Y-1708695D01*
X3634017Y-1707365D01*
X3639271Y-1696723D02*
X3639937Y-1697388D01*
X3640602Y-1696723D01*
X3639937Y-1696058D01*
X3639271Y-1696723D01*
X3639937Y-1701379D02*
Y-1710690D01*
X3643062Y-1701379D02*
Y-1710690D01*
Y-1705369D02*
X3643727Y-1703374D01*
X3645058Y-1702044D01*
X3646388Y-1701379D01*
X3648383D01*
X3657628Y-1703374D02*
X3656298Y-1702044D01*
X3654968Y-1701379D01*
X3652972D01*
X3651642Y-1702044D01*
X3650312Y-1703374D01*
X3649647Y-1705369D01*
Y-1706699D01*
X3650312Y-1708695D01*
X3651642Y-1710025D01*
X3652972Y-1710690D01*
X3654968D01*
X3656298Y-1710025D01*
X3657628Y-1708695D01*
X3660621Y-1701379D02*
Y-1708030D01*
X3661286Y-1710025D01*
X3662616Y-1710690D01*
X3664612D01*
X3665941Y-1710025D01*
X3667937Y-1708030D01*
Y-1701379D02*
Y-1710690D01*
X3672925Y-1696723D02*
X3673590Y-1697388D01*
X3674255Y-1696723D01*
X3673590Y-1696058D01*
X3672925Y-1696723D01*
X3673590Y-1701379D02*
Y-1710690D01*
X3678712Y-1696723D02*
Y-1708030D01*
X3679377Y-1710025D01*
X3680707Y-1710690D01*
X3682037D01*
X3676716Y-1701379D02*
X3681372D01*
X3694008Y-1700049D02*
X3693344Y-1698718D01*
X3692013Y-1697388D01*
X3690683Y-1696723D01*
X3688023D01*
X3686693Y-1697388D01*
X3685363Y-1698718D01*
X3684697Y-1700049D01*
X3684032Y-1702044D01*
Y-1705369D01*
X3684697Y-1707365D01*
X3685363Y-1708695D01*
X3686693Y-1710025D01*
X3688023Y-1710690D01*
X3690683D01*
X3692013Y-1710025D01*
X3693344Y-1708695D01*
X3694008Y-1707365D01*
X3701258Y-1701379D02*
X3699928Y-1702044D01*
X3698598Y-1703374D01*
X3697933Y-1705369D01*
Y-1706699D01*
X3698598Y-1708695D01*
X3699928Y-1710025D01*
X3701258Y-1710690D01*
X3703253D01*
X3704584Y-1710025D01*
X3705914Y-1708695D01*
X3706579Y-1706699D01*
Y-1705369D01*
X3705914Y-1703374D01*
X3704584Y-1702044D01*
X3703253Y-1701379D01*
X3701258D01*
X3720612Y-1696723D02*
Y-1710690D01*
X3728594D01*
X3730123Y-1696723D02*
Y-1710690D01*
X3738105D01*
X3749611Y-1700049D02*
X3748946Y-1698718D01*
X3747615Y-1697388D01*
X3746285Y-1696723D01*
X3743625D01*
X3742295Y-1697388D01*
X3740964Y-1698718D01*
X3740299Y-1700049D01*
X3739634Y-1702044D01*
Y-1705369D01*
X3740299Y-1707365D01*
X3740964Y-1708695D01*
X3742295Y-1710025D01*
X3743625Y-1710690D01*
X3746285D01*
X3747615Y-1710025D01*
X3748946Y-1708695D01*
X3749611Y-1707365D01*
X3754200Y-1709360D02*
X3753535Y-1710025D01*
X3754200Y-1710690D01*
X3754865Y-1710025D01*
X3754200Y-1709360D01*
X3195320Y-1728473D02*
Y-1742440D01*
Y-1728473D02*
X3203966D01*
X3195320Y-1735124D02*
X3200641D01*
X3208888Y-1733129D02*
X3207558Y-1733794D01*
X3206228Y-1735124D01*
X3205562Y-1737119D01*
Y-1738449D01*
X3206228Y-1740445D01*
X3207558Y-1741775D01*
X3208888Y-1742440D01*
X3210883D01*
X3212213Y-1741775D01*
X3213544Y-1740445D01*
X3214209Y-1738449D01*
Y-1737119D01*
X3213544Y-1735124D01*
X3212213Y-1733794D01*
X3210883Y-1733129D01*
X3208888D01*
X3217268D02*
Y-1742440D01*
Y-1737119D02*
X3217933Y-1735124D01*
X3219264Y-1733794D01*
X3220594Y-1733129D01*
X3222589D01*
X3234827D02*
Y-1742440D01*
Y-1735789D02*
X3236822Y-1733794D01*
X3238152Y-1733129D01*
X3240147D01*
X3241478Y-1733794D01*
X3242143Y-1735789D01*
Y-1742440D01*
Y-1735789D02*
X3244138Y-1733794D01*
X3245468Y-1733129D01*
X3247463D01*
X3248794Y-1733794D01*
X3249459Y-1735789D01*
Y-1742440D01*
X3257174Y-1733129D02*
X3255844Y-1733794D01*
X3254514Y-1735124D01*
X3253848Y-1737119D01*
Y-1738449D01*
X3254514Y-1740445D01*
X3255844Y-1741775D01*
X3257174Y-1742440D01*
X3259169D01*
X3260499Y-1741775D01*
X3261830Y-1740445D01*
X3262495Y-1738449D01*
Y-1737119D01*
X3261830Y-1735124D01*
X3260499Y-1733794D01*
X3259169Y-1733129D01*
X3257174D01*
X3265554D02*
Y-1742440D01*
Y-1737119D02*
X3266219Y-1735124D01*
X3267549Y-1733794D01*
X3268880Y-1733129D01*
X3270875D01*
X3272138Y-1737119D02*
X3280120D01*
Y-1735789D01*
X3279455Y-1734459D01*
X3278789Y-1733794D01*
X3277459Y-1733129D01*
X3275464D01*
X3274134Y-1733794D01*
X3272804Y-1735124D01*
X3272138Y-1737119D01*
Y-1738449D01*
X3272804Y-1740445D01*
X3274134Y-1741775D01*
X3275464Y-1742440D01*
X3277459D01*
X3278789Y-1741775D01*
X3280120Y-1740445D01*
X3295417Y-1728473D02*
X3296082Y-1729138D01*
X3296747Y-1728473D01*
X3296082Y-1727808D01*
X3295417Y-1728473D01*
X3296082Y-1733129D02*
Y-1742440D01*
X3299208Y-1733129D02*
Y-1742440D01*
Y-1735789D02*
X3301203Y-1733794D01*
X3302533Y-1733129D01*
X3304529D01*
X3305859Y-1733794D01*
X3306524Y-1735789D01*
Y-1742440D01*
X3315503Y-1728473D02*
X3314172D01*
X3312842Y-1729138D01*
X3312177Y-1731133D01*
Y-1742440D01*
X3310182Y-1733129D02*
X3314838D01*
X3320823D02*
X3319493Y-1733794D01*
X3318163Y-1735124D01*
X3317498Y-1737119D01*
Y-1738449D01*
X3318163Y-1740445D01*
X3319493Y-1741775D01*
X3320823Y-1742440D01*
X3322819D01*
X3324149Y-1741775D01*
X3325479Y-1740445D01*
X3326144Y-1738449D01*
Y-1737119D01*
X3325479Y-1735124D01*
X3324149Y-1733794D01*
X3322819Y-1733129D01*
X3320823D01*
X3329204D02*
Y-1742440D01*
Y-1737119D02*
X3329869Y-1735124D01*
X3331199Y-1733794D01*
X3332529Y-1733129D01*
X3334525D01*
X3335788D02*
Y-1742440D01*
Y-1735789D02*
X3337784Y-1733794D01*
X3339113Y-1733129D01*
X3341109D01*
X3342439Y-1733794D01*
X3343104Y-1735789D01*
Y-1742440D01*
Y-1735789D02*
X3345099Y-1733794D01*
X3346430Y-1733129D01*
X3348425D01*
X3349755Y-1733794D01*
X3350420Y-1735789D01*
Y-1742440D01*
X3362791Y-1733129D02*
Y-1742440D01*
Y-1735124D02*
X3361461Y-1733794D01*
X3360131Y-1733129D01*
X3358135D01*
X3356805Y-1733794D01*
X3355475Y-1735124D01*
X3354810Y-1737119D01*
Y-1738449D01*
X3355475Y-1740445D01*
X3356805Y-1741775D01*
X3358135Y-1742440D01*
X3360131D01*
X3361461Y-1741775D01*
X3362791Y-1740445D01*
X3368511Y-1728473D02*
Y-1739780D01*
X3369176Y-1741775D01*
X3370506Y-1742440D01*
X3371837D01*
X3366516Y-1733129D02*
X3371171D01*
X3375162Y-1728473D02*
X3375827Y-1729138D01*
X3376492Y-1728473D01*
X3375827Y-1727808D01*
X3375162Y-1728473D01*
X3375827Y-1733129D02*
Y-1742440D01*
X3382278Y-1733129D02*
X3380948Y-1733794D01*
X3379618Y-1735124D01*
X3378953Y-1737119D01*
Y-1738449D01*
X3379618Y-1740445D01*
X3380948Y-1741775D01*
X3382278Y-1742440D01*
X3384274D01*
X3385604Y-1741775D01*
X3386934Y-1740445D01*
X3387599Y-1738449D01*
Y-1737119D01*
X3386934Y-1735124D01*
X3385604Y-1733794D01*
X3384274Y-1733129D01*
X3382278D01*
X3390659D02*
Y-1742440D01*
Y-1735789D02*
X3392654Y-1733794D01*
X3393984Y-1733129D01*
X3395979D01*
X3397310Y-1733794D01*
X3397975Y-1735789D01*
Y-1742440D01*
X3402963Y-1741775D02*
X3402298Y-1742440D01*
X3401633Y-1741775D01*
X3402298Y-1741110D01*
X3402963Y-1741775D01*
Y-1743105D01*
X3402298Y-1744435D01*
X3401633Y-1745100D01*
X3424312Y-1735124D02*
X3423647Y-1733794D01*
X3421652Y-1733129D01*
X3419657D01*
X3417661Y-1733794D01*
X3416996Y-1735124D01*
X3417661Y-1736454D01*
X3418992Y-1737119D01*
X3422317Y-1737784D01*
X3423647Y-1738449D01*
X3424312Y-1739780D01*
Y-1740445D01*
X3423647Y-1741775D01*
X3421652Y-1742440D01*
X3419657D01*
X3417661Y-1741775D01*
X3416996Y-1740445D01*
X3427239Y-1737119D02*
X3435220D01*
Y-1735789D01*
X3434555Y-1734459D01*
X3433890Y-1733794D01*
X3432560Y-1733129D01*
X3430564D01*
X3429234Y-1733794D01*
X3427904Y-1735124D01*
X3427239Y-1737119D01*
Y-1738449D01*
X3427904Y-1740445D01*
X3429234Y-1741775D01*
X3430564Y-1742440D01*
X3432560D01*
X3433890Y-1741775D01*
X3435220Y-1740445D01*
X3438213Y-1737119D02*
X3446194D01*
Y-1735789D01*
X3445529Y-1734459D01*
X3444864Y-1733794D01*
X3443534Y-1733129D01*
X3441538D01*
X3440208Y-1733794D01*
X3438878Y-1735124D01*
X3438213Y-1737119D01*
Y-1738449D01*
X3438878Y-1740445D01*
X3440208Y-1741775D01*
X3441538Y-1742440D01*
X3443534D01*
X3444864Y-1741775D01*
X3446194Y-1740445D01*
X3460161Y-1728473D02*
Y-1742440D01*
Y-1735789D02*
X3462156Y-1733794D01*
X3463487Y-1733129D01*
X3465482D01*
X3466812Y-1733794D01*
X3467477Y-1735789D01*
Y-1742440D01*
X3473130Y-1728473D02*
Y-1739780D01*
X3473795Y-1741775D01*
X3475126Y-1742440D01*
X3476456D01*
X3471135Y-1733129D02*
X3475791D01*
X3480446Y-1728473D02*
Y-1739780D01*
X3481111Y-1741775D01*
X3482442Y-1742440D01*
X3483772D01*
X3478451Y-1733129D02*
X3483107D01*
X3485767D02*
Y-1747096D01*
Y-1735124D02*
X3487097Y-1733794D01*
X3488428Y-1733129D01*
X3490423D01*
X3491753Y-1733794D01*
X3493083Y-1735124D01*
X3493748Y-1737119D01*
Y-1738449D01*
X3493083Y-1740445D01*
X3491753Y-1741775D01*
X3490423Y-1742440D01*
X3488428D01*
X3487097Y-1741775D01*
X3485767Y-1740445D01*
X3497406Y-1733129D02*
X3496741Y-1733794D01*
X3497406Y-1734459D01*
X3498072Y-1733794D01*
X3497406Y-1733129D01*
Y-1741110D02*
X3496741Y-1741775D01*
X3497406Y-1742440D01*
X3498072Y-1741775D01*
X3497406Y-1741110D01*
X3501131Y-1744435D02*
X3510442Y-1728473D01*
X3511373Y-1744435D02*
X3520685Y-1728473D01*
X3529597Y-1735124D02*
X3528267Y-1733794D01*
X3526937Y-1733129D01*
X3524941D01*
X3523611Y-1733794D01*
X3522281Y-1735124D01*
X3521616Y-1737119D01*
Y-1738449D01*
X3522281Y-1740445D01*
X3523611Y-1741775D01*
X3524941Y-1742440D01*
X3526937D01*
X3528267Y-1741775D01*
X3529597Y-1740445D01*
X3532590Y-1733129D02*
Y-1742440D01*
Y-1737119D02*
X3533255Y-1735124D01*
X3534585Y-1733794D01*
X3535916Y-1733129D01*
X3537911D01*
X3539174Y-1737119D02*
X3547155D01*
Y-1735789D01*
X3546490Y-1734459D01*
X3545825Y-1733794D01*
X3544495Y-1733129D01*
X3542500D01*
X3541170Y-1733794D01*
X3539839Y-1735124D01*
X3539174Y-1737119D01*
Y-1738449D01*
X3539839Y-1740445D01*
X3541170Y-1741775D01*
X3542500Y-1742440D01*
X3544495D01*
X3545825Y-1741775D01*
X3547155Y-1740445D01*
X3558130Y-1733129D02*
Y-1742440D01*
Y-1735124D02*
X3556799Y-1733794D01*
X3555469Y-1733129D01*
X3553474D01*
X3552144Y-1733794D01*
X3550814Y-1735124D01*
X3550148Y-1737119D01*
Y-1738449D01*
X3550814Y-1740445D01*
X3552144Y-1741775D01*
X3553474Y-1742440D01*
X3555469D01*
X3556799Y-1741775D01*
X3558130Y-1740445D01*
X3563849Y-1728473D02*
Y-1739780D01*
X3564514Y-1741775D01*
X3565845Y-1742440D01*
X3567175D01*
X3561854Y-1733129D02*
X3566510D01*
X3570500Y-1728473D02*
X3571165Y-1729138D01*
X3571831Y-1728473D01*
X3571165Y-1727808D01*
X3570500Y-1728473D01*
X3571165Y-1733129D02*
Y-1742440D01*
X3574291Y-1733129D02*
X3578282Y-1742440D01*
X3582273Y-1733129D02*
X3578282Y-1742440D01*
X3584534Y-1737119D02*
X3592515D01*
Y-1735789D01*
X3591850Y-1734459D01*
X3591185Y-1733794D01*
X3589855Y-1733129D01*
X3587859D01*
X3586529Y-1733794D01*
X3585199Y-1735124D01*
X3584534Y-1737119D01*
Y-1738449D01*
X3585199Y-1740445D01*
X3586529Y-1741775D01*
X3587859Y-1742440D01*
X3589855D01*
X3591185Y-1741775D01*
X3592515Y-1740445D01*
X3603489Y-1735124D02*
X3602159Y-1733794D01*
X3600829Y-1733129D01*
X3598833D01*
X3597503Y-1733794D01*
X3596173Y-1735124D01*
X3595508Y-1737119D01*
Y-1738449D01*
X3596173Y-1740445D01*
X3597503Y-1741775D01*
X3598833Y-1742440D01*
X3600829D01*
X3602159Y-1741775D01*
X3603489Y-1740445D01*
X3609807Y-1733129D02*
X3608477Y-1733794D01*
X3607147Y-1735124D01*
X3606482Y-1737119D01*
Y-1738449D01*
X3607147Y-1740445D01*
X3608477Y-1741775D01*
X3609807Y-1742440D01*
X3611803D01*
X3613133Y-1741775D01*
X3614463Y-1740445D01*
X3615128Y-1738449D01*
Y-1737119D01*
X3614463Y-1735124D01*
X3613133Y-1733794D01*
X3611803Y-1733129D01*
X3609807D01*
X3618188D02*
Y-1742440D01*
Y-1735789D02*
X3620183Y-1733794D01*
X3621513Y-1733129D01*
X3623509D01*
X3624839Y-1733794D01*
X3625504Y-1735789D01*
Y-1742440D01*
Y-1735789D02*
X3627499Y-1733794D01*
X3628829Y-1733129D01*
X3630825D01*
X3632155Y-1733794D01*
X3632820Y-1735789D01*
Y-1742440D01*
X3637209Y-1733129D02*
Y-1742440D01*
Y-1735789D02*
X3639205Y-1733794D01*
X3640535Y-1733129D01*
X3642530D01*
X3643860Y-1733794D01*
X3644525Y-1735789D01*
Y-1742440D01*
Y-1735789D02*
X3646521Y-1733794D01*
X3647851Y-1733129D01*
X3649846D01*
X3651176Y-1733794D01*
X3651842Y-1735789D01*
Y-1742440D01*
X3659557Y-1733129D02*
X3658227Y-1733794D01*
X3656896Y-1735124D01*
X3656231Y-1737119D01*
Y-1738449D01*
X3656896Y-1740445D01*
X3658227Y-1741775D01*
X3659557Y-1742440D01*
X3661552D01*
X3662882Y-1741775D01*
X3664212Y-1740445D01*
X3664877Y-1738449D01*
Y-1737119D01*
X3664212Y-1735124D01*
X3662882Y-1733794D01*
X3661552Y-1733129D01*
X3659557D01*
X3667937D02*
Y-1742440D01*
Y-1735789D02*
X3669932Y-1733794D01*
X3671263Y-1733129D01*
X3673258D01*
X3674588Y-1733794D01*
X3675253Y-1735789D01*
Y-1742440D01*
X3686227Y-1735124D02*
X3685562Y-1733794D01*
X3683567Y-1733129D01*
X3681571D01*
X3679576Y-1733794D01*
X3678911Y-1735124D01*
X3679576Y-1736454D01*
X3680906Y-1737119D01*
X3684232Y-1737784D01*
X3685562Y-1738449D01*
X3686227Y-1739780D01*
Y-1740445D01*
X3685562Y-1741775D01*
X3683567Y-1742440D01*
X3681571D01*
X3679576Y-1741775D01*
X3678911Y-1740445D01*
X3689818Y-1741110D02*
X3689153Y-1741775D01*
X3689818Y-1742440D01*
X3690484Y-1741775D01*
X3689818Y-1741110D01*
X3696869Y-1733129D02*
X3695538Y-1733794D01*
X3694208Y-1735124D01*
X3693543Y-1737119D01*
Y-1738449D01*
X3694208Y-1740445D01*
X3695538Y-1741775D01*
X3696869Y-1742440D01*
X3698864D01*
X3700194Y-1741775D01*
X3701524Y-1740445D01*
X3702189Y-1738449D01*
Y-1737119D01*
X3701524Y-1735124D01*
X3700194Y-1733794D01*
X3698864Y-1733129D01*
X3696869D01*
X3705249D02*
Y-1742440D01*
Y-1737119D02*
X3705914Y-1735124D01*
X3707244Y-1733794D01*
X3708574Y-1733129D01*
X3710569D01*
X3719814D02*
Y-1743770D01*
X3719149Y-1745766D01*
X3718484Y-1746431D01*
X3717154Y-1747096D01*
X3715159D01*
X3713828Y-1746431D01*
X3719814Y-1735124D02*
X3718484Y-1733794D01*
X3717154Y-1733129D01*
X3715159D01*
X3713828Y-1733794D01*
X3712498Y-1735124D01*
X3711833Y-1737119D01*
Y-1738449D01*
X3712498Y-1740445D01*
X3713828Y-1741775D01*
X3715159Y-1742440D01*
X3717154D01*
X3718484Y-1741775D01*
X3719814Y-1740445D01*
X3723539Y-1744435D02*
X3732850Y-1728473D01*
X3733781D02*
Y-1742440D01*
X3738038Y-1728473D02*
X3738703Y-1729138D01*
X3739368Y-1728473D01*
X3738703Y-1727808D01*
X3738038Y-1728473D01*
X3738703Y-1733129D02*
Y-1742440D01*
X3749810Y-1735124D02*
X3748480Y-1733794D01*
X3747150Y-1733129D01*
X3745154D01*
X3743824Y-1733794D01*
X3742494Y-1735124D01*
X3741829Y-1737119D01*
Y-1738449D01*
X3742494Y-1740445D01*
X3743824Y-1741775D01*
X3745154Y-1742440D01*
X3747150D01*
X3748480Y-1741775D01*
X3749810Y-1740445D01*
X3752803Y-1737119D02*
X3760784D01*
Y-1735789D01*
X3760119Y-1734459D01*
X3759454Y-1733794D01*
X3758124Y-1733129D01*
X3756129D01*
X3754798Y-1733794D01*
X3753468Y-1735124D01*
X3752803Y-1737119D01*
Y-1738449D01*
X3753468Y-1740445D01*
X3754798Y-1741775D01*
X3756129Y-1742440D01*
X3758124D01*
X3759454Y-1741775D01*
X3760784Y-1740445D01*
X3763777Y-1733129D02*
Y-1742440D01*
Y-1735789D02*
X3765772Y-1733794D01*
X3767103Y-1733129D01*
X3769098D01*
X3770428Y-1733794D01*
X3771093Y-1735789D01*
Y-1742440D01*
X3782067Y-1735124D02*
X3781402Y-1733794D01*
X3779407Y-1733129D01*
X3777411D01*
X3775416Y-1733794D01*
X3774751Y-1735124D01*
X3775416Y-1736454D01*
X3776747Y-1737119D01*
X3780072Y-1737784D01*
X3781402Y-1738449D01*
X3782067Y-1739780D01*
Y-1740445D01*
X3781402Y-1741775D01*
X3779407Y-1742440D01*
X3777411D01*
X3775416Y-1741775D01*
X3774751Y-1740445D01*
X3784994Y-1737119D02*
X3792975D01*
Y-1735789D01*
X3792310Y-1734459D01*
X3791645Y-1733794D01*
X3790314Y-1733129D01*
X3788319D01*
X3786989Y-1733794D01*
X3785659Y-1735124D01*
X3784994Y-1737119D01*
Y-1738449D01*
X3785659Y-1740445D01*
X3786989Y-1741775D01*
X3788319Y-1742440D01*
X3790314D01*
X3791645Y-1741775D01*
X3792975Y-1740445D01*
X3795968Y-1744435D02*
X3805279Y-1728473D01*
X3806210Y-1733129D02*
Y-1742440D01*
Y-1737119D02*
X3806875Y-1735124D01*
X3808206Y-1733794D01*
X3809536Y-1733129D01*
X3811531D01*
X3812795Y-1737119D02*
X3820776D01*
Y-1735789D01*
X3820111Y-1734459D01*
X3819445Y-1733794D01*
X3818116Y-1733129D01*
X3816120D01*
X3814790Y-1733794D01*
X3813460Y-1735124D01*
X3812795Y-1737119D01*
Y-1738449D01*
X3813460Y-1740445D01*
X3814790Y-1741775D01*
X3816120Y-1742440D01*
X3818116D01*
X3819445Y-1741775D01*
X3820776Y-1740445D01*
X3831085Y-1735124D02*
X3830420Y-1733794D01*
X3828424Y-1733129D01*
X3826429D01*
X3824434Y-1733794D01*
X3823769Y-1735124D01*
X3824434Y-1736454D01*
X3825764Y-1737119D01*
X3829089Y-1737784D01*
X3830420Y-1738449D01*
X3831085Y-1739780D01*
Y-1740445D01*
X3830420Y-1741775D01*
X3828424Y-1742440D01*
X3826429D01*
X3824434Y-1741775D01*
X3823769Y-1740445D01*
X3834011Y-1733129D02*
Y-1739780D01*
X3834676Y-1741775D01*
X3836006Y-1742440D01*
X3838002D01*
X3839332Y-1741775D01*
X3841327Y-1739780D01*
Y-1733129D02*
Y-1742440D01*
X3844985Y-1728473D02*
Y-1742440D01*
X3849907Y-1728473D02*
Y-1739780D01*
X3850572Y-1741775D01*
X3851902Y-1742440D01*
X3853232D01*
X3847912Y-1733129D02*
X3852567D01*
X3862544Y-1735124D02*
X3861879Y-1733794D01*
X3859883Y-1733129D01*
X3857888D01*
X3855893Y-1733794D01*
X3855228Y-1735124D01*
X3855893Y-1736454D01*
X3857223Y-1737119D01*
X3860548Y-1737784D01*
X3861879Y-1738449D01*
X3862544Y-1739780D01*
Y-1740445D01*
X3861879Y-1741775D01*
X3859883Y-1742440D01*
X3857888D01*
X3855893Y-1741775D01*
X3855228Y-1740445D01*
X3865470Y-1736454D02*
X3877442D01*
X3884891Y-1733129D02*
X3883561Y-1733794D01*
X3882231Y-1735124D01*
X3881566Y-1737119D01*
Y-1738449D01*
X3882231Y-1740445D01*
X3883561Y-1741775D01*
X3884891Y-1742440D01*
X3886886D01*
X3888217Y-1741775D01*
X3889547Y-1740445D01*
X3890212Y-1738449D01*
Y-1737119D01*
X3889547Y-1735124D01*
X3888217Y-1733794D01*
X3886886Y-1733129D01*
X3884891D01*
X3893271D02*
Y-1742440D01*
Y-1735789D02*
X3895266Y-1733794D01*
X3896597Y-1733129D01*
X3898592D01*
X3899922Y-1733794D01*
X3900587Y-1735789D01*
Y-1742440D01*
X3904245Y-1737119D02*
X3912226D01*
Y-1735789D01*
X3911561Y-1734459D01*
X3910896Y-1733794D01*
X3909566Y-1733129D01*
X3907571D01*
X3906241Y-1733794D01*
X3904910Y-1735124D01*
X3904245Y-1737119D01*
Y-1738449D01*
X3904910Y-1740445D01*
X3906241Y-1741775D01*
X3907571Y-1742440D01*
X3909566D01*
X3910896Y-1741775D01*
X3912226Y-1740445D01*
X3915219Y-1731799D02*
Y-1731133D01*
X3915884Y-1729803D01*
X3916550Y-1729138D01*
X3917880Y-1728473D01*
X3920540D01*
X3921870Y-1729138D01*
X3922535Y-1729803D01*
X3923200Y-1731133D01*
Y-1732464D01*
X3922535Y-1733794D01*
X3921870Y-1734459D01*
X3919210Y-1735789D01*
Y-1737784D01*
Y-1741110D02*
X3918545Y-1741775D01*
X3919210Y-1742440D01*
X3919875Y-1741775D01*
X3919210Y-1741110D01*
X3926194Y-1728473D02*
Y-1742440D01*
X3930450Y-1728473D02*
X3931115Y-1729138D01*
X3931780Y-1728473D01*
X3931115Y-1727808D01*
X3930450Y-1728473D01*
X3931115Y-1733129D02*
Y-1742440D01*
X3942222Y-1735124D02*
X3940892Y-1733794D01*
X3939562Y-1733129D01*
X3937567D01*
X3936236Y-1733794D01*
X3934906Y-1735124D01*
X3934241Y-1737119D01*
Y-1738449D01*
X3934906Y-1740445D01*
X3936236Y-1741775D01*
X3937567Y-1742440D01*
X3939562D01*
X3940892Y-1741775D01*
X3942222Y-1740445D01*
X3945215Y-1737119D02*
X3953196D01*
Y-1735789D01*
X3952531Y-1734459D01*
X3951866Y-1733794D01*
X3950536Y-1733129D01*
X3948541D01*
X3947210Y-1733794D01*
X3945880Y-1735124D01*
X3945215Y-1737119D01*
Y-1738449D01*
X3945880Y-1740445D01*
X3947210Y-1741775D01*
X3948541Y-1742440D01*
X3950536D01*
X3951866Y-1741775D01*
X3953196Y-1740445D01*
X3956189Y-1733129D02*
Y-1742440D01*
Y-1735789D02*
X3958185Y-1733794D01*
X3959515Y-1733129D01*
X3961510D01*
X3962840Y-1733794D01*
X3963505Y-1735789D01*
Y-1742440D01*
X3974479Y-1735124D02*
X3973814Y-1733794D01*
X3971819Y-1733129D01*
X3969824D01*
X3967828Y-1733794D01*
X3967163Y-1735124D01*
X3967828Y-1736454D01*
X3969159Y-1737119D01*
X3972484Y-1737784D01*
X3973814Y-1738449D01*
X3974479Y-1739780D01*
Y-1740445D01*
X3973814Y-1741775D01*
X3971819Y-1742440D01*
X3969824D01*
X3967828Y-1741775D01*
X3967163Y-1740445D01*
X3977406Y-1737119D02*
X3985387D01*
Y-1735789D01*
X3984722Y-1734459D01*
X3984057Y-1733794D01*
X3982726Y-1733129D01*
X3980731D01*
X3979401Y-1733794D01*
X3978071Y-1735124D01*
X3977406Y-1737119D01*
Y-1738449D01*
X3978071Y-1740445D01*
X3979401Y-1741775D01*
X3980731Y-1742440D01*
X3982726D01*
X3984057Y-1741775D01*
X3985387Y-1740445D01*
X3988380Y-1747096D02*
X3999021D01*
X4008798Y-1735124D02*
X4007468Y-1733794D01*
X4006138Y-1733129D01*
X4004142D01*
X4002812Y-1733794D01*
X4001482Y-1735124D01*
X4000817Y-1737119D01*
Y-1738449D01*
X4001482Y-1740445D01*
X4002812Y-1741775D01*
X4004142Y-1742440D01*
X4006138D01*
X4007468Y-1741775D01*
X4008798Y-1740445D01*
X4015117Y-1733129D02*
X4013787Y-1733794D01*
X4012456Y-1735124D01*
X4011791Y-1737119D01*
Y-1738449D01*
X4012456Y-1740445D01*
X4013787Y-1741775D01*
X4015117Y-1742440D01*
X4017112D01*
X4018442Y-1741775D01*
X4019772Y-1740445D01*
X4020437Y-1738449D01*
Y-1737119D01*
X4019772Y-1735124D01*
X4018442Y-1733794D01*
X4017112Y-1733129D01*
X4015117D01*
X4031478Y-1728473D02*
Y-1742440D01*
Y-1735124D02*
X4030148Y-1733794D01*
X4028818Y-1733129D01*
X4026823D01*
X4025492Y-1733794D01*
X4024162Y-1735124D01*
X4023497Y-1737119D01*
Y-1738449D01*
X4024162Y-1740445D01*
X4025492Y-1741775D01*
X4026823Y-1742440D01*
X4028818D01*
X4030148Y-1741775D01*
X4031478Y-1740445D01*
X4035203Y-1737119D02*
X4043184D01*
Y-1735789D01*
X4042519Y-1734459D01*
X4041854Y-1733794D01*
X4040523Y-1733129D01*
X4038528D01*
X4037198Y-1733794D01*
X4035868Y-1735124D01*
X4035203Y-1737119D01*
Y-1738449D01*
X4035868Y-1740445D01*
X4037198Y-1741775D01*
X4038528Y-1742440D01*
X4040523D01*
X4041854Y-1741775D01*
X4043184Y-1740445D01*
X4046176Y-1734459D02*
X4058148D01*
X4046176Y-1738449D02*
X4058148D01*
X4062272Y-1728473D02*
Y-1742440D01*
Y-1735124D02*
X4063602Y-1733794D01*
X4064932Y-1733129D01*
X4066927D01*
X4068258Y-1733794D01*
X4069588Y-1735124D01*
X4070253Y-1737119D01*
Y-1738449D01*
X4069588Y-1740445D01*
X4068258Y-1741775D01*
X4066927Y-1742440D01*
X4064932D01*
X4063602Y-1741775D01*
X4062272Y-1740445D01*
X4073911Y-1733129D02*
X4077902Y-1742440D01*
X4081892Y-1733129D02*
X4077902Y-1742440D01*
X4076571Y-1745100D01*
X4075241Y-1746431D01*
X4073911Y-1747096D01*
X4073246D01*
X4084220Y-1736454D02*
X4096192D01*
X4107632Y-1735124D02*
X4106966Y-1733794D01*
X4104971Y-1733129D01*
X4102976D01*
X4100981Y-1733794D01*
X4100316Y-1735124D01*
X4100981Y-1736454D01*
X4102311Y-1737119D01*
X4105636Y-1737784D01*
X4106966Y-1738449D01*
X4107632Y-1739780D01*
Y-1740445D01*
X4106966Y-1741775D01*
X4104971Y-1742440D01*
X4102976D01*
X4100981Y-1741775D01*
X4100316Y-1740445D01*
X4118539Y-1733129D02*
Y-1742440D01*
Y-1735124D02*
X4117209Y-1733794D01*
X4115879Y-1733129D01*
X4113883D01*
X4112553Y-1733794D01*
X4111223Y-1735124D01*
X4110558Y-1737119D01*
Y-1738449D01*
X4111223Y-1740445D01*
X4112553Y-1741775D01*
X4113883Y-1742440D01*
X4115879D01*
X4117209Y-1741775D01*
X4118539Y-1740445D01*
D54*
X0Y63500D02*
G03*
X63500Y0I63500J0D01*
G01*
Y546100D02*
G03*
X0Y482600I0J-63500D01*
G01*
X863600Y419100D02*
G03*
X736600Y546100I-127000J0D01*
G01*
Y0D02*
G03*
X863600Y127000I0J127000D01*
G01*
X0Y-6350D02*
Y6350D01*
X-6350Y0D02*
X6350D01*
X3611880Y-1750060D02*
X4646930D01*
X3803650Y-1653540D02*
X4533900D01*
X0Y63500D02*
Y482600D01*
X63500Y546100D02*
X736600D01*
X863600Y127000D02*
Y419100D01*
X63500Y0D02*
X736600D01*
X863600Y209461D02*
Y293459D01*
M02*
