G04 Layer_Color=16711935*
%FSLAX44Y44*%
%MOMM*%
G71*
G01*
G75*
%ADD101C,0.1651*%
%ADD106R,1.8796X2.2606*%
%ADD115R,0.6096X0.4064*%
%ADD126R,0.6096X0.7366*%
%ADD127R,0.7366X0.6096*%
%ADD129R,1.3716X1.2446*%
%ADD130R,1.2446X1.3716*%
%ADD131C,3.0480*%
%ADD132C,1.6256*%
%ADD133C,1.7526*%
%ADD134R,1.6256X1.6256*%
%ADD135C,4.5466*%
%ADD136C,2.3876*%
%ADD137C,1.1176*%
%ADD138O,3.9116X1.8796*%
%ADD139O,1.8796X4.6736*%
%ADD140O,1.8796X3.9116*%
%ADD141O,3.5306X2.1336*%
%ADD142O,2.6416X1.7526*%
%ADD143R,1.5017X0.6017*%
%ADD144R,0.9017X2.4516*%
%ADD145R,3.9116X2.6416*%
%ADD146R,0.5588X1.0160*%
%ADD147R,0.9906X0.6096*%
%ADD148R,1.6256X1.2192*%
%ADD149R,2.1082X0.9906*%
%ADD150R,1.1938X1.2954*%
%ADD151R,1.3716X0.3556*%
%ADD152R,1.1016X0.3317*%
%ADD153R,0.9515X0.3317*%
%ADD154R,1.4816X2.5017*%
%ADD155R,1.2446X2.0066*%
%ADD156R,2.0066X1.2446*%
%ADD157R,2.8956X0.8128*%
%ADD158R,1.1176X0.7366*%
%ADD159R,1.7018X0.4064*%
%ADD160O,2.0066X0.7366*%
%ADD161R,1.4986X1.6510*%
%ADD162R,1.6510X1.4986*%
%ADD163R,2.1336X2.1336*%
%ADD164O,1.6256X0.5080*%
D101*
X267544Y-173087D02*
X265609Y-171152D01*
X262707Y-170184D01*
X258837D01*
X255935Y-171152D01*
X254000Y-173087D01*
Y-175021D01*
X254967Y-176956D01*
X255935Y-177924D01*
X257870Y-178891D01*
X263674Y-180826D01*
X265609Y-181793D01*
X266576Y-182761D01*
X267544Y-184695D01*
Y-187598D01*
X265609Y-189533D01*
X262707Y-190500D01*
X258837D01*
X255935Y-189533D01*
X254000Y-187598D01*
X272091Y-170184D02*
Y-190500D01*
Y-170184D02*
X279830Y-190500D01*
X287569Y-170184D02*
X279830Y-190500D01*
X287569Y-170184D02*
Y-190500D01*
X306917Y-173087D02*
X304983Y-171152D01*
X302080Y-170184D01*
X298211D01*
X295308Y-171152D01*
X293374Y-173087D01*
Y-175021D01*
X294341Y-176956D01*
X295308Y-177924D01*
X297243Y-178891D01*
X303048Y-180826D01*
X304983Y-181793D01*
X305950Y-182761D01*
X306917Y-184695D01*
Y-187598D01*
X304983Y-189533D01*
X302080Y-190500D01*
X298211D01*
X295308Y-189533D01*
X293374Y-187598D01*
D106*
X471119Y414020D02*
D03*
X433121D02*
D03*
D115*
X789081Y189149D02*
D03*
Y179151D02*
D03*
Y184150D02*
D03*
X797860D02*
D03*
Y189149D02*
D03*
Y179151D02*
D03*
D126*
X552450Y398780D02*
D03*
Y408940D02*
D03*
X755650Y474980D02*
D03*
Y464820D02*
D03*
X539750Y398780D02*
D03*
Y408940D02*
D03*
X501650Y398780D02*
D03*
Y408940D02*
D03*
X527050Y398780D02*
D03*
Y408940D02*
D03*
X514350Y398780D02*
D03*
Y408940D02*
D03*
X553720Y119380D02*
D03*
Y109220D02*
D03*
X396875Y424180D02*
D03*
Y414020D02*
D03*
X492125Y156845D02*
D03*
Y167005D02*
D03*
X479425Y156845D02*
D03*
Y167005D02*
D03*
X304800Y474980D02*
D03*
Y464820D02*
D03*
X371475Y414020D02*
D03*
Y424180D02*
D03*
X384175Y414020D02*
D03*
Y424180D02*
D03*
X396875Y464820D02*
D03*
Y474980D02*
D03*
X250825Y213995D02*
D03*
Y224155D02*
D03*
X260350Y213995D02*
D03*
Y224155D02*
D03*
X666750Y443230D02*
D03*
Y433070D02*
D03*
X679450Y367030D02*
D03*
Y356870D02*
D03*
X666750Y367030D02*
D03*
Y356870D02*
D03*
X654050Y443230D02*
D03*
Y433070D02*
D03*
X641350Y443230D02*
D03*
Y433070D02*
D03*
X590550Y411480D02*
D03*
Y401320D02*
D03*
X679450Y401320D02*
D03*
Y411480D02*
D03*
Y433070D02*
D03*
Y443230D02*
D03*
X654050Y356870D02*
D03*
Y367030D02*
D03*
X590550Y367030D02*
D03*
Y356870D02*
D03*
X260350Y252095D02*
D03*
Y262255D02*
D03*
X250825Y262255D02*
D03*
Y252095D02*
D03*
X269875Y252095D02*
D03*
Y262255D02*
D03*
X231775Y252095D02*
D03*
Y262255D02*
D03*
X241300Y262255D02*
D03*
Y252095D02*
D03*
X292100Y474980D02*
D03*
Y464820D02*
D03*
X450850Y464820D02*
D03*
Y474980D02*
D03*
X425450Y464820D02*
D03*
Y474980D02*
D03*
X247650Y464820D02*
D03*
Y474980D02*
D03*
X234950Y464820D02*
D03*
Y474980D02*
D03*
X438150Y464820D02*
D03*
Y474980D02*
D03*
X476250Y464820D02*
D03*
Y474980D02*
D03*
X273050Y464820D02*
D03*
Y474980D02*
D03*
X260350Y464820D02*
D03*
Y474980D02*
D03*
X463550Y464820D02*
D03*
Y474980D02*
D03*
X488950Y464820D02*
D03*
Y474980D02*
D03*
X323850Y464820D02*
D03*
Y474980D02*
D03*
X342900Y424180D02*
D03*
Y414020D02*
D03*
X304800Y424180D02*
D03*
Y414020D02*
D03*
X292100Y414020D02*
D03*
Y424180D02*
D03*
X254000Y424180D02*
D03*
Y414020D02*
D03*
X717550Y464820D02*
D03*
Y474980D02*
D03*
X107950Y465455D02*
D03*
Y455295D02*
D03*
X95250Y455295D02*
D03*
Y465455D02*
D03*
X142875Y465455D02*
D03*
Y455295D02*
D03*
X130175Y455295D02*
D03*
Y465455D02*
D03*
X698500Y464820D02*
D03*
Y474980D02*
D03*
X688975Y464820D02*
D03*
Y474980D02*
D03*
X679450Y464820D02*
D03*
Y474980D02*
D03*
X669925Y464820D02*
D03*
Y474980D02*
D03*
X574675Y464820D02*
D03*
Y474980D02*
D03*
X708025Y464820D02*
D03*
Y474980D02*
D03*
X660400Y464820D02*
D03*
Y474980D02*
D03*
X650875Y464820D02*
D03*
Y474980D02*
D03*
X641350Y464820D02*
D03*
Y474980D02*
D03*
X631825Y464820D02*
D03*
Y474980D02*
D03*
X622300Y464820D02*
D03*
Y474980D02*
D03*
X593725Y464820D02*
D03*
Y474980D02*
D03*
X612775Y464820D02*
D03*
Y474980D02*
D03*
X603250Y464820D02*
D03*
Y474980D02*
D03*
X584200Y464820D02*
D03*
Y474980D02*
D03*
X511175Y191770D02*
D03*
Y201930D02*
D03*
X482600Y201930D02*
D03*
Y191770D02*
D03*
X454025Y201930D02*
D03*
Y191770D02*
D03*
X444500Y201930D02*
D03*
Y191770D02*
D03*
X463550Y201930D02*
D03*
Y191770D02*
D03*
X492125Y201930D02*
D03*
Y191770D02*
D03*
X441198Y325183D02*
D03*
Y315023D02*
D03*
X457200Y245173D02*
D03*
Y235014D02*
D03*
X473202Y363030D02*
D03*
Y373190D02*
D03*
X413200Y363030D02*
D03*
Y373190D02*
D03*
X727075Y474980D02*
D03*
Y464820D02*
D03*
X565150Y474980D02*
D03*
Y464820D02*
D03*
X505206Y373190D02*
D03*
Y363030D02*
D03*
X457200Y265171D02*
D03*
Y255011D02*
D03*
X489204Y373190D02*
D03*
Y363030D02*
D03*
X441198Y259016D02*
D03*
Y269177D02*
D03*
X434975Y201930D02*
D03*
Y191770D02*
D03*
X425196Y363030D02*
D03*
Y373190D02*
D03*
X457200Y349187D02*
D03*
Y339026D02*
D03*
X473202Y259016D02*
D03*
Y269177D02*
D03*
X457200Y275019D02*
D03*
Y285179D02*
D03*
Y309181D02*
D03*
Y299021D02*
D03*
X473202Y315023D02*
D03*
Y325183D02*
D03*
X457200Y329123D02*
D03*
Y318963D02*
D03*
X437200Y363030D02*
D03*
Y373190D02*
D03*
X546100Y156845D02*
D03*
Y167005D02*
D03*
X473075Y201930D02*
D03*
Y191770D02*
D03*
X533400Y156845D02*
D03*
Y167005D02*
D03*
X520700Y201930D02*
D03*
Y191770D02*
D03*
X501650Y191770D02*
D03*
Y201930D02*
D03*
X768071Y179070D02*
D03*
Y189230D02*
D03*
X831571Y189230D02*
D03*
Y179070D02*
D03*
X406400Y191770D02*
D03*
Y201930D02*
D03*
X130175Y424180D02*
D03*
Y414020D02*
D03*
X818871Y179070D02*
D03*
Y189230D02*
D03*
X415925Y201930D02*
D03*
Y191770D02*
D03*
X425450Y191770D02*
D03*
Y201930D02*
D03*
X517525Y156845D02*
D03*
Y167005D02*
D03*
X504825Y156845D02*
D03*
Y167005D02*
D03*
X187960Y91440D02*
D03*
Y81280D02*
D03*
X231775Y224155D02*
D03*
Y213995D02*
D03*
X419100Y109220D02*
D03*
Y119380D02*
D03*
X482600Y109220D02*
D03*
Y119380D02*
D03*
X409575Y414020D02*
D03*
Y424180D02*
D03*
D127*
X229870Y384175D02*
D03*
X240030D02*
D03*
X386080D02*
D03*
X375920D02*
D03*
X763270Y282575D02*
D03*
X773430D02*
D03*
X763270Y269875D02*
D03*
X773430D02*
D03*
X299720Y346075D02*
D03*
X309880D02*
D03*
X52070Y266700D02*
D03*
X62230D02*
D03*
X205105Y320675D02*
D03*
X194945D02*
D03*
X205105Y311150D02*
D03*
X194945D02*
D03*
X205105Y301625D02*
D03*
X194945D02*
D03*
X205105Y292100D02*
D03*
X194945D02*
D03*
X125730Y304800D02*
D03*
X115570D02*
D03*
X205105Y282575D02*
D03*
X194945D02*
D03*
X125730Y279400D02*
D03*
X115570D02*
D03*
X125730Y317500D02*
D03*
X115570D02*
D03*
X125730Y330200D02*
D03*
X115570D02*
D03*
X125730Y342900D02*
D03*
X115570D02*
D03*
X62230Y317500D02*
D03*
X52070D02*
D03*
X62230Y279400D02*
D03*
X52070D02*
D03*
X299720Y288925D02*
D03*
X309880D02*
D03*
X299720Y279400D02*
D03*
X309880D02*
D03*
X299720Y317500D02*
D03*
X309880D02*
D03*
X299720Y298450D02*
D03*
X309880D02*
D03*
X299720Y336550D02*
D03*
X309880D02*
D03*
X299720Y307975D02*
D03*
X309880D02*
D03*
Y260350D02*
D03*
X299720D02*
D03*
X309880Y327025D02*
D03*
X299720D02*
D03*
X309880Y355600D02*
D03*
X299720D02*
D03*
X194945Y336550D02*
D03*
X205105D02*
D03*
X309880Y269875D02*
D03*
X299720D02*
D03*
X125730Y292100D02*
D03*
X115570D02*
D03*
X271780Y285750D02*
D03*
X261620D02*
D03*
Y336550D02*
D03*
X271780D02*
D03*
X229870Y298450D02*
D03*
X240030D02*
D03*
X229870Y285750D02*
D03*
X240030D02*
D03*
X640080Y255651D02*
D03*
X629920D02*
D03*
X640080Y191643D02*
D03*
X629920D02*
D03*
X690880Y231648D02*
D03*
X680720D02*
D03*
X640080D02*
D03*
X629920D02*
D03*
Y243650D02*
D03*
X640080D02*
D03*
Y219646D02*
D03*
X629920D02*
D03*
X680720Y191643D02*
D03*
X690880D02*
D03*
X680720Y207645D02*
D03*
X690880D02*
D03*
X680720Y243650D02*
D03*
X690880D02*
D03*
X680720Y255651D02*
D03*
X690880D02*
D03*
X680720Y279654D02*
D03*
X690880D02*
D03*
X680720Y295656D02*
D03*
X690880D02*
D03*
X680720Y311658D02*
D03*
X690880D02*
D03*
X589280Y191643D02*
D03*
X579120D02*
D03*
X589280Y207645D02*
D03*
X579120D02*
D03*
X589280Y231648D02*
D03*
X579120D02*
D03*
X589280Y255651D02*
D03*
X579120D02*
D03*
X589280Y271653D02*
D03*
X579120D02*
D03*
X589280Y295656D02*
D03*
X579120D02*
D03*
X589280Y311658D02*
D03*
X579120D02*
D03*
X498284Y260096D02*
D03*
X488125D02*
D03*
X498284Y276098D02*
D03*
X488125D02*
D03*
X498277Y292100D02*
D03*
X488117D02*
D03*
X498284Y308102D02*
D03*
X488125D02*
D03*
X347980Y200025D02*
D03*
X337820D02*
D03*
X386270Y308102D02*
D03*
X376110D02*
D03*
X386270Y352425D02*
D03*
X376110D02*
D03*
X386270Y228600D02*
D03*
X376110D02*
D03*
X386270Y324104D02*
D03*
X376110D02*
D03*
X386270Y238095D02*
D03*
X376110D02*
D03*
X386270Y247650D02*
D03*
X376110D02*
D03*
X386270Y278099D02*
D03*
X376110D02*
D03*
X337820Y336550D02*
D03*
X347980D02*
D03*
X488125Y324104D02*
D03*
X498284D02*
D03*
X386080Y368300D02*
D03*
X375920D02*
D03*
X426275Y260096D02*
D03*
X416115D02*
D03*
X376110Y288099D02*
D03*
X386270D02*
D03*
X347980Y355600D02*
D03*
X337820D02*
D03*
X426275Y308102D02*
D03*
X416115D02*
D03*
X426275Y292100D02*
D03*
X416115D02*
D03*
X386270Y298102D02*
D03*
X376110D02*
D03*
X426275Y276098D02*
D03*
X416115D02*
D03*
X386270Y268097D02*
D03*
X376110D02*
D03*
X347980Y241300D02*
D03*
X337820D02*
D03*
X347980Y269875D02*
D03*
X337820D02*
D03*
X347980Y298450D02*
D03*
X337820D02*
D03*
X468122Y292100D02*
D03*
X478282D02*
D03*
X436296D02*
D03*
X446456D02*
D03*
X386270Y258097D02*
D03*
X376110D02*
D03*
X426275Y324104D02*
D03*
X416115D02*
D03*
X347980Y346075D02*
D03*
X337820D02*
D03*
X375920Y339725D02*
D03*
X386080D02*
D03*
X294005Y120650D02*
D03*
X283845D02*
D03*
X435610Y389890D02*
D03*
X425450D02*
D03*
X468630D02*
D03*
X478790D02*
D03*
X563880Y284099D02*
D03*
X553720D02*
D03*
X457190Y389890D02*
D03*
X447030D02*
D03*
X283845Y111125D02*
D03*
X294005D02*
D03*
X283845Y101600D02*
D03*
X294005D02*
D03*
X553720Y271653D02*
D03*
X563880D02*
D03*
X87630Y158750D02*
D03*
X77470D02*
D03*
X43180Y165100D02*
D03*
X33020D02*
D03*
X77470Y184150D02*
D03*
X87630D02*
D03*
Y171450D02*
D03*
X77470D02*
D03*
X261620Y298450D02*
D03*
X271780D02*
D03*
X680720Y219646D02*
D03*
X690880D02*
D03*
D129*
X234950Y410210D02*
D03*
Y427990D02*
D03*
X539750Y181610D02*
D03*
Y199390D02*
D03*
X257175Y142240D02*
D03*
Y124460D02*
D03*
X200025Y162560D02*
D03*
Y180340D02*
D03*
X257175Y162560D02*
D03*
Y180340D02*
D03*
X219075Y162560D02*
D03*
Y180340D02*
D03*
X200025Y124460D02*
D03*
Y142240D02*
D03*
X238125D02*
D03*
Y124460D02*
D03*
Y162560D02*
D03*
Y180340D02*
D03*
D130*
X50165Y298450D02*
D03*
X32385D02*
D03*
X243840Y333375D02*
D03*
X226060D02*
D03*
X688340Y168275D02*
D03*
X670560D02*
D03*
X688340Y327025D02*
D03*
X670560D02*
D03*
X351790Y371475D02*
D03*
X334010D02*
D03*
Y215900D02*
D03*
X351790D02*
D03*
X334010Y284480D02*
D03*
X351790D02*
D03*
X334010Y255270D02*
D03*
X351790D02*
D03*
X73660Y124460D02*
D03*
X91440D02*
D03*
D131*
X50800Y28575D02*
D03*
X730250Y76200D02*
D03*
X171450Y473075D02*
D03*
D132*
X172720Y81280D02*
D03*
Y106680D02*
D03*
X147320Y81280D02*
D03*
Y106680D02*
D03*
X501650Y76200D02*
D03*
X527050D02*
D03*
X450850D02*
D03*
X552450D02*
D03*
X476250D02*
D03*
X222250Y527050D02*
D03*
Y501650D02*
D03*
X450850Y527050D02*
D03*
X476250Y501650D02*
D03*
X450850D02*
D03*
X730250D02*
D03*
X755650Y527050D02*
D03*
X654050Y501650D02*
D03*
X476250Y527050D02*
D03*
X501650Y501650D02*
D03*
X425450Y527050D02*
D03*
X247650D02*
D03*
Y501650D02*
D03*
X577850Y527050D02*
D03*
Y501650D02*
D03*
X603250D02*
D03*
X628650D02*
D03*
X603250Y527050D02*
D03*
X628650D02*
D03*
X654050D02*
D03*
X679450D02*
D03*
Y501650D02*
D03*
X704850Y527050D02*
D03*
Y501650D02*
D03*
X730250Y527050D02*
D03*
X755650Y501650D02*
D03*
X552450Y527050D02*
D03*
Y501650D02*
D03*
X527050D02*
D03*
Y527050D02*
D03*
X298450D02*
D03*
X273050D02*
D03*
Y501650D02*
D03*
X298450D02*
D03*
X501650Y527050D02*
D03*
X400050D02*
D03*
X349250Y501650D02*
D03*
X425450D02*
D03*
X323850Y527050D02*
D03*
X349250D02*
D03*
X323850Y501650D02*
D03*
X374650D02*
D03*
Y527050D02*
D03*
X400050Y501650D02*
D03*
X196850Y527050D02*
D03*
X222250Y44450D02*
D03*
Y19050D02*
D03*
X450850Y44450D02*
D03*
X476250Y19050D02*
D03*
X450850D02*
D03*
X730250D02*
D03*
X755650Y44450D02*
D03*
X654050Y19050D02*
D03*
X476250Y44450D02*
D03*
X501650Y19050D02*
D03*
X425450Y44450D02*
D03*
X247650D02*
D03*
Y19050D02*
D03*
X577850Y44450D02*
D03*
Y19050D02*
D03*
X603250D02*
D03*
X628650D02*
D03*
X603250Y44450D02*
D03*
X628650D02*
D03*
X654050D02*
D03*
X679450D02*
D03*
Y19050D02*
D03*
X704850Y44450D02*
D03*
Y19050D02*
D03*
X730250Y44450D02*
D03*
X755650Y19050D02*
D03*
X552450Y44450D02*
D03*
Y19050D02*
D03*
X527050D02*
D03*
Y44450D02*
D03*
X298450D02*
D03*
X273050D02*
D03*
Y19050D02*
D03*
X298450D02*
D03*
X501650Y44450D02*
D03*
X400050D02*
D03*
X349250Y19050D02*
D03*
X425450D02*
D03*
X323850Y44450D02*
D03*
X349250D02*
D03*
X323850Y19050D02*
D03*
X374650D02*
D03*
Y44450D02*
D03*
X400050Y19050D02*
D03*
X196850Y44450D02*
D03*
X146050Y292100D02*
D03*
X171450Y304800D02*
D03*
X33528Y260604D02*
D03*
X48768Y235204D02*
D03*
Y336296D02*
D03*
X33528Y361696D02*
D03*
X171450Y279400D02*
D03*
X146050Y317500D02*
D03*
X171450Y330200D02*
D03*
Y254000D02*
D03*
X146050Y266700D02*
D03*
X38100Y190500D02*
D03*
X590550Y107950D02*
D03*
D133*
X704850Y133350D02*
D03*
X679450Y82550D02*
D03*
X733425Y133350D02*
D03*
Y158344D02*
D03*
Y178359D02*
D03*
Y203352D02*
D03*
D134*
X425450Y76200D02*
D03*
X196850Y501650D02*
D03*
Y19050D02*
D03*
X146050Y342900D02*
D03*
D135*
X806450Y482600D02*
D03*
X146050Y514350D02*
D03*
X806450Y63500D02*
D03*
X146050Y31750D02*
D03*
D136*
X113030Y219710D02*
D03*
Y377190D02*
D03*
D137*
X82550Y355600D02*
D03*
Y241300D02*
D03*
D138*
X81788Y48260D02*
D03*
D139*
X111760Y95250D02*
D03*
D140*
X51816D02*
D03*
D141*
X760527Y102641D02*
D03*
Y234061D02*
D03*
D142*
X846501Y220459D02*
D03*
Y282461D02*
D03*
D143*
X60960Y449326D02*
D03*
Y441325D02*
D03*
Y433324D02*
D03*
Y457324D02*
D03*
Y425326D02*
D03*
D144*
X8961Y414576D02*
D03*
Y468074D02*
D03*
D145*
X36960Y399326D02*
D03*
Y483324D02*
D03*
D146*
X829953Y304617D02*
D03*
Y449763D02*
D03*
X836953Y304617D02*
D03*
X822952D02*
D03*
X815952D02*
D03*
Y449763D02*
D03*
X822952D02*
D03*
X836953D02*
D03*
D147*
X716059Y339440D02*
D03*
Y436941D02*
D03*
D148*
X849602Y449153D02*
D03*
Y305227D02*
D03*
D149*
X752602Y304691D02*
D03*
X739602Y449689D02*
D03*
D150*
X711073Y351442D02*
D03*
Y411439D02*
D03*
D151*
X511048Y116789D02*
D03*
Y111811D02*
D03*
X540512D02*
D03*
Y106807D02*
D03*
Y116789D02*
D03*
Y121793D02*
D03*
X511048Y106807D02*
D03*
Y121793D02*
D03*
D152*
X811101Y259461D02*
D03*
Y255460D02*
D03*
Y243459D02*
D03*
Y247460D02*
D03*
Y267460D02*
D03*
Y263459D02*
D03*
Y251460D02*
D03*
Y239461D02*
D03*
Y235460D02*
D03*
D153*
X798850Y249461D02*
D03*
Y253459D02*
D03*
Y237460D02*
D03*
Y241460D02*
D03*
Y261460D02*
D03*
Y233459D02*
D03*
Y265460D02*
D03*
Y269461D02*
D03*
Y245460D02*
D03*
Y257460D02*
D03*
D154*
X812902Y216959D02*
D03*
Y285961D02*
D03*
D155*
X203835Y85725D02*
D03*
X226695D02*
D03*
X267970D02*
D03*
X245110D02*
D03*
D156*
X288925Y140970D02*
D03*
Y163830D02*
D03*
D157*
X325374Y187325D02*
D03*
Y98425D02*
D03*
X379476Y149225D02*
D03*
X325374D02*
D03*
Y136525D02*
D03*
Y123825D02*
D03*
Y85725D02*
D03*
Y73025D02*
D03*
X379476Y85725D02*
D03*
Y161925D02*
D03*
Y187325D02*
D03*
Y136525D02*
D03*
Y123825D02*
D03*
Y111125D02*
D03*
X325374Y174625D02*
D03*
X379476D02*
D03*
X325374Y161925D02*
D03*
X379476Y73025D02*
D03*
X325374Y111125D02*
D03*
X379476Y98425D02*
D03*
D158*
X282321Y228600D02*
D03*
Y209550D02*
D03*
X308229D02*
D03*
Y228600D02*
D03*
Y219075D02*
D03*
D159*
X433832Y111049D02*
D03*
Y117551D02*
D03*
X467868Y124054D02*
D03*
Y104546D02*
D03*
Y111049D02*
D03*
Y117551D02*
D03*
X433832Y124054D02*
D03*
Y104546D02*
D03*
D160*
X108585Y146050D02*
D03*
Y184150D02*
D03*
Y171450D02*
D03*
Y158750D02*
D03*
X164465Y184150D02*
D03*
Y171450D02*
D03*
Y158750D02*
D03*
Y146050D02*
D03*
D161*
X649580Y111760D02*
D03*
X630580D02*
D03*
X688950D02*
D03*
X669950D02*
D03*
X225450Y358775D02*
D03*
X244450D02*
D03*
X352400Y320675D02*
D03*
X333400D02*
D03*
D162*
X558800Y358800D02*
D03*
Y377800D02*
D03*
X438150Y152425D02*
D03*
Y171425D02*
D03*
X463550Y152425D02*
D03*
Y171425D02*
D03*
D163*
X793471Y146050D02*
D03*
D164*
X770357Y136296D02*
D03*
Y155804D02*
D03*
Y149301D02*
D03*
Y142799D02*
D03*
X816585Y155804D02*
D03*
Y149301D02*
D03*
Y142799D02*
D03*
Y136296D02*
D03*
M02*
