G04 Layer_Color=128*
%FSLAX44Y44*%
%MOMM*%
G71*
G01*
G75*
%ADD14R,1.7780X2.1590*%
%ADD23R,0.5080X0.3048*%
%ADD35R,0.5080X0.6350*%
%ADD36R,0.6350X0.5080*%
%ADD38R,1.2700X1.1430*%
%ADD39R,1.1430X1.2700*%
%ADD73R,1.4001X0.5001*%
%ADD74R,0.8001X2.3500*%
%ADD75R,3.8100X2.5400*%
%ADD76R,0.4572X0.9144*%
%ADD77R,0.8890X0.5080*%
%ADD78R,1.5240X1.1176*%
%ADD79R,2.0066X0.8890*%
%ADD80R,1.0922X1.1938*%
%ADD81R,1.2700X0.2540*%
%ADD82R,1.0000X0.2301*%
%ADD83R,0.8499X0.2301*%
%ADD84R,1.3800X2.4001*%
%ADD85R,1.1430X1.9050*%
%ADD86R,1.9050X1.1430*%
%ADD87R,2.7940X0.7112*%
%ADD88R,1.0160X0.6350*%
%ADD89R,1.6002X0.3048*%
%ADD90O,1.9050X0.6350*%
%ADD91R,1.3970X1.5494*%
%ADD92R,1.5494X1.3970*%
%ADD93R,2.0320X2.0320*%
%ADD94O,1.5240X0.4064*%
D14*
X471119Y414020D02*
D03*
X433121D02*
D03*
D23*
X789081Y189149D02*
D03*
Y179151D02*
D03*
Y184150D02*
D03*
X797860D02*
D03*
Y189149D02*
D03*
Y179151D02*
D03*
D35*
X552450Y398780D02*
D03*
Y408940D02*
D03*
X755650Y474980D02*
D03*
Y464820D02*
D03*
X539750Y398780D02*
D03*
Y408940D02*
D03*
X501650Y398780D02*
D03*
Y408940D02*
D03*
X527050Y398780D02*
D03*
Y408940D02*
D03*
X514350Y398780D02*
D03*
Y408940D02*
D03*
X553720Y119380D02*
D03*
Y109220D02*
D03*
X396875Y424180D02*
D03*
Y414020D02*
D03*
X492125Y156845D02*
D03*
Y167005D02*
D03*
X479425Y156845D02*
D03*
Y167005D02*
D03*
X304800Y474980D02*
D03*
Y464820D02*
D03*
X371475Y414020D02*
D03*
Y424180D02*
D03*
X384175Y414020D02*
D03*
Y424180D02*
D03*
X396875Y464820D02*
D03*
Y474980D02*
D03*
X250825Y213995D02*
D03*
Y224155D02*
D03*
X260350Y213995D02*
D03*
Y224155D02*
D03*
X666750Y443230D02*
D03*
Y433070D02*
D03*
X679450Y367030D02*
D03*
Y356870D02*
D03*
X666750Y367030D02*
D03*
Y356870D02*
D03*
X654050Y443230D02*
D03*
Y433070D02*
D03*
X641350Y443230D02*
D03*
Y433070D02*
D03*
X590550Y411480D02*
D03*
Y401320D02*
D03*
X679450Y401320D02*
D03*
Y411480D02*
D03*
Y433070D02*
D03*
Y443230D02*
D03*
X654050Y356870D02*
D03*
Y367030D02*
D03*
X590550Y367030D02*
D03*
Y356870D02*
D03*
X260350Y252095D02*
D03*
Y262255D02*
D03*
X250825Y262255D02*
D03*
Y252095D02*
D03*
X269875Y252095D02*
D03*
Y262255D02*
D03*
X231775Y252095D02*
D03*
Y262255D02*
D03*
X241300Y262255D02*
D03*
Y252095D02*
D03*
X292100Y474980D02*
D03*
Y464820D02*
D03*
X450850Y464820D02*
D03*
Y474980D02*
D03*
X425450Y464820D02*
D03*
Y474980D02*
D03*
X247650Y464820D02*
D03*
Y474980D02*
D03*
X234950Y464820D02*
D03*
Y474980D02*
D03*
X438150Y464820D02*
D03*
Y474980D02*
D03*
X476250Y464820D02*
D03*
Y474980D02*
D03*
X273050Y464820D02*
D03*
Y474980D02*
D03*
X260350Y464820D02*
D03*
Y474980D02*
D03*
X463550Y464820D02*
D03*
Y474980D02*
D03*
X488950Y464820D02*
D03*
Y474980D02*
D03*
X323850Y464820D02*
D03*
Y474980D02*
D03*
X342900Y424180D02*
D03*
Y414020D02*
D03*
X304800Y424180D02*
D03*
Y414020D02*
D03*
X292100Y414020D02*
D03*
Y424180D02*
D03*
X254000Y424180D02*
D03*
Y414020D02*
D03*
X717550Y464820D02*
D03*
Y474980D02*
D03*
X107950Y465455D02*
D03*
Y455295D02*
D03*
X95250Y455295D02*
D03*
Y465455D02*
D03*
X142875Y465455D02*
D03*
Y455295D02*
D03*
X130175Y455295D02*
D03*
Y465455D02*
D03*
X698500Y464820D02*
D03*
Y474980D02*
D03*
X688975Y464820D02*
D03*
Y474980D02*
D03*
X679450Y464820D02*
D03*
Y474980D02*
D03*
X669925Y464820D02*
D03*
Y474980D02*
D03*
X574675Y464820D02*
D03*
Y474980D02*
D03*
X708025Y464820D02*
D03*
Y474980D02*
D03*
X660400Y464820D02*
D03*
Y474980D02*
D03*
X650875Y464820D02*
D03*
Y474980D02*
D03*
X641350Y464820D02*
D03*
Y474980D02*
D03*
X631825Y464820D02*
D03*
Y474980D02*
D03*
X622300Y464820D02*
D03*
Y474980D02*
D03*
X593725Y464820D02*
D03*
Y474980D02*
D03*
X612775Y464820D02*
D03*
Y474980D02*
D03*
X603250Y464820D02*
D03*
Y474980D02*
D03*
X584200Y464820D02*
D03*
Y474980D02*
D03*
X511175Y191770D02*
D03*
Y201930D02*
D03*
X482600Y201930D02*
D03*
Y191770D02*
D03*
X454025Y201930D02*
D03*
Y191770D02*
D03*
X444500Y201930D02*
D03*
Y191770D02*
D03*
X463550Y201930D02*
D03*
Y191770D02*
D03*
X492125Y201930D02*
D03*
Y191770D02*
D03*
X441198Y325183D02*
D03*
Y315023D02*
D03*
X457200Y245173D02*
D03*
Y235014D02*
D03*
X473202Y363030D02*
D03*
Y373190D02*
D03*
X413200Y363030D02*
D03*
Y373190D02*
D03*
X727075Y474980D02*
D03*
Y464820D02*
D03*
X565150Y474980D02*
D03*
Y464820D02*
D03*
X505206Y373190D02*
D03*
Y363030D02*
D03*
X457200Y265171D02*
D03*
Y255011D02*
D03*
X489204Y373190D02*
D03*
Y363030D02*
D03*
X441198Y259016D02*
D03*
Y269177D02*
D03*
X434975Y201930D02*
D03*
Y191770D02*
D03*
X425196Y363030D02*
D03*
Y373190D02*
D03*
X457200Y349187D02*
D03*
Y339026D02*
D03*
X473202Y259016D02*
D03*
Y269177D02*
D03*
X457200Y275019D02*
D03*
Y285179D02*
D03*
Y309181D02*
D03*
Y299021D02*
D03*
X473202Y315023D02*
D03*
Y325183D02*
D03*
X457200Y329123D02*
D03*
Y318963D02*
D03*
X437200Y363030D02*
D03*
Y373190D02*
D03*
X546100Y156845D02*
D03*
Y167005D02*
D03*
X473075Y201930D02*
D03*
Y191770D02*
D03*
X533400Y156845D02*
D03*
Y167005D02*
D03*
X520700Y201930D02*
D03*
Y191770D02*
D03*
X501650Y191770D02*
D03*
Y201930D02*
D03*
X768071Y179070D02*
D03*
Y189230D02*
D03*
X831571Y189230D02*
D03*
Y179070D02*
D03*
X406400Y191770D02*
D03*
Y201930D02*
D03*
X130175Y424180D02*
D03*
Y414020D02*
D03*
X818871Y179070D02*
D03*
Y189230D02*
D03*
X415925Y201930D02*
D03*
Y191770D02*
D03*
X425450Y191770D02*
D03*
Y201930D02*
D03*
X517525Y156845D02*
D03*
Y167005D02*
D03*
X504825Y156845D02*
D03*
Y167005D02*
D03*
X187960Y91440D02*
D03*
Y81280D02*
D03*
X231775Y224155D02*
D03*
Y213995D02*
D03*
X419100Y109220D02*
D03*
Y119380D02*
D03*
X482600Y109220D02*
D03*
Y119380D02*
D03*
X409575Y414020D02*
D03*
Y424180D02*
D03*
D36*
X229870Y384175D02*
D03*
X240030D02*
D03*
X386080D02*
D03*
X375920D02*
D03*
X763270Y282575D02*
D03*
X773430D02*
D03*
X763270Y269875D02*
D03*
X773430D02*
D03*
X299720Y346075D02*
D03*
X309880D02*
D03*
X52070Y266700D02*
D03*
X62230D02*
D03*
X205105Y320675D02*
D03*
X194945D02*
D03*
X205105Y311150D02*
D03*
X194945D02*
D03*
X205105Y301625D02*
D03*
X194945D02*
D03*
X205105Y292100D02*
D03*
X194945D02*
D03*
X125730Y304800D02*
D03*
X115570D02*
D03*
X205105Y282575D02*
D03*
X194945D02*
D03*
X125730Y279400D02*
D03*
X115570D02*
D03*
X125730Y317500D02*
D03*
X115570D02*
D03*
X125730Y330200D02*
D03*
X115570D02*
D03*
X125730Y342900D02*
D03*
X115570D02*
D03*
X62230Y317500D02*
D03*
X52070D02*
D03*
X62230Y279400D02*
D03*
X52070D02*
D03*
X299720Y288925D02*
D03*
X309880D02*
D03*
X299720Y279400D02*
D03*
X309880D02*
D03*
X299720Y317500D02*
D03*
X309880D02*
D03*
X299720Y298450D02*
D03*
X309880D02*
D03*
X299720Y336550D02*
D03*
X309880D02*
D03*
X299720Y307975D02*
D03*
X309880D02*
D03*
Y260350D02*
D03*
X299720D02*
D03*
X309880Y327025D02*
D03*
X299720D02*
D03*
X309880Y355600D02*
D03*
X299720D02*
D03*
X194945Y336550D02*
D03*
X205105D02*
D03*
X309880Y269875D02*
D03*
X299720D02*
D03*
X125730Y292100D02*
D03*
X115570D02*
D03*
X271780Y285750D02*
D03*
X261620D02*
D03*
Y336550D02*
D03*
X271780D02*
D03*
X229870Y298450D02*
D03*
X240030D02*
D03*
X229870Y285750D02*
D03*
X240030D02*
D03*
X640080Y255651D02*
D03*
X629920D02*
D03*
X640080Y191643D02*
D03*
X629920D02*
D03*
X690880Y231648D02*
D03*
X680720D02*
D03*
X640080D02*
D03*
X629920D02*
D03*
Y243650D02*
D03*
X640080D02*
D03*
Y219646D02*
D03*
X629920D02*
D03*
X680720Y191643D02*
D03*
X690880D02*
D03*
X680720Y207645D02*
D03*
X690880D02*
D03*
X680720Y243650D02*
D03*
X690880D02*
D03*
X680720Y255651D02*
D03*
X690880D02*
D03*
X680720Y279654D02*
D03*
X690880D02*
D03*
X680720Y295656D02*
D03*
X690880D02*
D03*
X680720Y311658D02*
D03*
X690880D02*
D03*
X589280Y191643D02*
D03*
X579120D02*
D03*
X589280Y207645D02*
D03*
X579120D02*
D03*
X589280Y231648D02*
D03*
X579120D02*
D03*
X589280Y255651D02*
D03*
X579120D02*
D03*
X589280Y271653D02*
D03*
X579120D02*
D03*
X589280Y295656D02*
D03*
X579120D02*
D03*
X589280Y311658D02*
D03*
X579120D02*
D03*
X498284Y260096D02*
D03*
X488125D02*
D03*
X498284Y276098D02*
D03*
X488125D02*
D03*
X498277Y292100D02*
D03*
X488117D02*
D03*
X498284Y308102D02*
D03*
X488125D02*
D03*
X347980Y200025D02*
D03*
X337820D02*
D03*
X386270Y308102D02*
D03*
X376110D02*
D03*
X386270Y352425D02*
D03*
X376110D02*
D03*
X386270Y228600D02*
D03*
X376110D02*
D03*
X386270Y324104D02*
D03*
X376110D02*
D03*
X386270Y238095D02*
D03*
X376110D02*
D03*
X386270Y247650D02*
D03*
X376110D02*
D03*
X386270Y278099D02*
D03*
X376110D02*
D03*
X337820Y336550D02*
D03*
X347980D02*
D03*
X488125Y324104D02*
D03*
X498284D02*
D03*
X386080Y368300D02*
D03*
X375920D02*
D03*
X426275Y260096D02*
D03*
X416115D02*
D03*
X376110Y288099D02*
D03*
X386270D02*
D03*
X347980Y355600D02*
D03*
X337820D02*
D03*
X426275Y308102D02*
D03*
X416115D02*
D03*
X426275Y292100D02*
D03*
X416115D02*
D03*
X386270Y298102D02*
D03*
X376110D02*
D03*
X426275Y276098D02*
D03*
X416115D02*
D03*
X386270Y268097D02*
D03*
X376110D02*
D03*
X347980Y241300D02*
D03*
X337820D02*
D03*
X347980Y269875D02*
D03*
X337820D02*
D03*
X347980Y298450D02*
D03*
X337820D02*
D03*
X468122Y292100D02*
D03*
X478282D02*
D03*
X436296D02*
D03*
X446456D02*
D03*
X386270Y258097D02*
D03*
X376110D02*
D03*
X426275Y324104D02*
D03*
X416115D02*
D03*
X347980Y346075D02*
D03*
X337820D02*
D03*
X375920Y339725D02*
D03*
X386080D02*
D03*
X294005Y120650D02*
D03*
X283845D02*
D03*
X435610Y389890D02*
D03*
X425450D02*
D03*
X468630D02*
D03*
X478790D02*
D03*
X563880Y284099D02*
D03*
X553720D02*
D03*
X457190Y389890D02*
D03*
X447030D02*
D03*
X283845Y111125D02*
D03*
X294005D02*
D03*
X283845Y101600D02*
D03*
X294005D02*
D03*
X553720Y271653D02*
D03*
X563880D02*
D03*
X87630Y158750D02*
D03*
X77470D02*
D03*
X43180Y165100D02*
D03*
X33020D02*
D03*
X77470Y184150D02*
D03*
X87630D02*
D03*
Y171450D02*
D03*
X77470D02*
D03*
X261620Y298450D02*
D03*
X271780D02*
D03*
X680720Y219646D02*
D03*
X690880D02*
D03*
D38*
X234950Y410210D02*
D03*
Y427990D02*
D03*
X539750Y181610D02*
D03*
Y199390D02*
D03*
X257175Y142240D02*
D03*
Y124460D02*
D03*
X200025Y162560D02*
D03*
Y180340D02*
D03*
X257175Y162560D02*
D03*
Y180340D02*
D03*
X219075Y162560D02*
D03*
Y180340D02*
D03*
X200025Y124460D02*
D03*
Y142240D02*
D03*
X238125D02*
D03*
Y124460D02*
D03*
Y162560D02*
D03*
Y180340D02*
D03*
D39*
X50165Y298450D02*
D03*
X32385D02*
D03*
X243840Y333375D02*
D03*
X226060D02*
D03*
X688340Y168275D02*
D03*
X670560D02*
D03*
X688340Y327025D02*
D03*
X670560D02*
D03*
X351790Y371475D02*
D03*
X334010D02*
D03*
Y215900D02*
D03*
X351790D02*
D03*
X334010Y284480D02*
D03*
X351790D02*
D03*
X334010Y255270D02*
D03*
X351790D02*
D03*
X73660Y124460D02*
D03*
X91440D02*
D03*
D73*
X60960Y449326D02*
D03*
Y441325D02*
D03*
Y433324D02*
D03*
Y457324D02*
D03*
Y425326D02*
D03*
D74*
X8961Y414576D02*
D03*
Y468074D02*
D03*
D75*
X36960Y399326D02*
D03*
Y483324D02*
D03*
D76*
X829953Y304617D02*
D03*
Y449763D02*
D03*
X836953Y304617D02*
D03*
X822952D02*
D03*
X815952D02*
D03*
Y449763D02*
D03*
X822952D02*
D03*
X836953D02*
D03*
D77*
X716059Y339440D02*
D03*
Y436941D02*
D03*
D78*
X849602Y449153D02*
D03*
Y305227D02*
D03*
D79*
X752602Y304691D02*
D03*
X739602Y449689D02*
D03*
D80*
X711073Y351442D02*
D03*
Y411439D02*
D03*
D81*
X511048Y116789D02*
D03*
Y111811D02*
D03*
X540512D02*
D03*
Y106807D02*
D03*
Y116789D02*
D03*
Y121793D02*
D03*
X511048Y106807D02*
D03*
Y121793D02*
D03*
D82*
X811101Y259461D02*
D03*
Y255460D02*
D03*
Y243459D02*
D03*
Y247460D02*
D03*
Y267460D02*
D03*
Y263459D02*
D03*
Y251460D02*
D03*
Y239461D02*
D03*
Y235460D02*
D03*
D83*
X798850Y249461D02*
D03*
Y253459D02*
D03*
Y237460D02*
D03*
Y241460D02*
D03*
Y261460D02*
D03*
Y233459D02*
D03*
Y265460D02*
D03*
Y269461D02*
D03*
Y245460D02*
D03*
Y257460D02*
D03*
D84*
X812902Y216959D02*
D03*
Y285961D02*
D03*
D85*
X203835Y85725D02*
D03*
X226695D02*
D03*
X267970D02*
D03*
X245110D02*
D03*
D86*
X288925Y140970D02*
D03*
Y163830D02*
D03*
D87*
X325374Y187325D02*
D03*
Y98425D02*
D03*
X379476Y149225D02*
D03*
X325374D02*
D03*
Y136525D02*
D03*
Y123825D02*
D03*
Y85725D02*
D03*
Y73025D02*
D03*
X379476Y85725D02*
D03*
Y161925D02*
D03*
Y187325D02*
D03*
Y136525D02*
D03*
Y123825D02*
D03*
Y111125D02*
D03*
X325374Y174625D02*
D03*
X379476D02*
D03*
X325374Y161925D02*
D03*
X379476Y73025D02*
D03*
X325374Y111125D02*
D03*
X379476Y98425D02*
D03*
D88*
X282321Y228600D02*
D03*
Y209550D02*
D03*
X308229D02*
D03*
Y228600D02*
D03*
Y219075D02*
D03*
D89*
X433832Y111049D02*
D03*
Y117551D02*
D03*
X467868Y124054D02*
D03*
Y104546D02*
D03*
Y111049D02*
D03*
Y117551D02*
D03*
X433832Y124054D02*
D03*
Y104546D02*
D03*
D90*
X108585Y146050D02*
D03*
Y184150D02*
D03*
Y171450D02*
D03*
Y158750D02*
D03*
X164465Y184150D02*
D03*
Y171450D02*
D03*
Y158750D02*
D03*
Y146050D02*
D03*
D91*
X649580Y111760D02*
D03*
X630580D02*
D03*
X688950D02*
D03*
X669950D02*
D03*
X225450Y358775D02*
D03*
X244450D02*
D03*
X352400Y320675D02*
D03*
X333400D02*
D03*
D92*
X558800Y358800D02*
D03*
Y377800D02*
D03*
X438150Y152425D02*
D03*
Y171425D02*
D03*
X463550Y152425D02*
D03*
Y171425D02*
D03*
D93*
X793471Y146050D02*
D03*
D94*
X770357Y136296D02*
D03*
Y155804D02*
D03*
Y149301D02*
D03*
Y142799D02*
D03*
X816585Y155804D02*
D03*
Y149301D02*
D03*
Y142799D02*
D03*
Y136296D02*
D03*
M02*
